<?xml version="1.0" encoding="UTF-8"?>
<svg id="Ebene_1" data-name="Ebene 1" xmlns="http://www.w3.org/2000/svg" viewBox="0 0 228.2618 161.6104">
  <defs>
    <style>
      .cls-1 {
        fill: #62594f;
        stroke-width: 0px;
      }
    </style>
  </defs>
  <path class="cls-1" d="m38.1726,65.4387s-.9433.5599-1.917,1.2902-7.2881,5.1266-5.854,9.9254l3.1519,4.7048c1.2127,1.8181,2.4343,3.8705,3.3593,5.1851s2.3318,4.9067,2.41,6.1345c.0566.8887-.584,3.3594-.6815,5.4042s1.1052,4.2382,1.6587,5.6072c.6375,1.5766,3.1072,4.5878,4.7754,6.8009,2.48,3.2897,5.875,5.3405,9.6897,6.6847,4.9514,1.7444,9.9392,3.3875,14.9258,5.0298,4.1787,1.3762,8.3328,3.5776,12.5806,3.7958l18.0862,2.9676c.8638.1292,1.7144.3564,2.5801.4606,4.7844.5757,9.5603,1.405,14.3616,1.6061,4.3914.1838,8.8213-.2025,13.2146-.5707,2.3018-.193,4.5581-.9044,6.8418-1.3478,1.4424-.2803,2.8928-.6797,4.3469-.7129,5.5696-.1271,11.1536-.3616,16.7097-.0937,3.7632.1814,7.4814,1.1912,11.2346,1.7265,2.8535.4069,5.7354.9337,8.595.8822,2.595-.0465,5.1658-.8902,7.7676-1.223,3.5002-.4474,7.0474-.5738,10.5259-1.1368,7.1545-1.1577,11.5002-6.8312,10.1458-13.8619-.8225-4.2694-2.5789-8.3773-4.1052-12.4871-.5925-1.5955-1.2239-2.6103-2.248-4.8578-1.0242-2.2476-4.0876-3.8993-4.9661-5.0146-.8782-1.1154-2.6777-2.8238-2.6777-2.8238,0,0-1.5281-1.9562-3.0845-3.0047-.4656-.3135-.7712-.8688-1.1392-1.3225-5.2954-6.5305-11.155-12.2399-18.4534-16.7732-9.0483-5.6201-17.4526-3.569-23.697,2.282-.623.584-1.3298,1.2715-2.1089,1.4652-5.4812,1.3627-11.0376,1.3594-15.8542-1.7262-7.3137-4.6851-14.6292-9.193-22.792-12.3632-6.0391-2.3453-12.0896-4.4879-18.4321-5.7565-1.4231-.2845-2.9309-.3228-4.3857-.2372-4.9756.2924-9.8997,1.3656-14.9175,1.028s-6.8071-1.2505-10.8967-1.287-5.54,1.1-6.0583,1.6095c-3.7603,3.6954-7.0535,6.6328-10.8114,10.3308-.3647.3586-1.4697,1.4241-1.4697,1.4241l-.4108.2556Zm157.062,57.2909c-1.3496.5236-2.8335.7493-4.2778.973-4.3535.6738-8.7148,1.2977-13.0793,1.8966-.8638.1186-1.7788.1735-2.6301.0259-5.3542-.9282-10.6775-2.0539-16.0488-2.8625-7.6851-1.1569-15.3608-2.1312-23.0872.1774-2.9014.8669-6.05,1.0959-9.1028,1.2281-7.178.3108-14.3823.8469-21.5388-.1481l-26.033-4.7015c-1.6929-.3858-3.3813-.79-5.0544-1.2485-2.8057-.7689-5.6028-1.6115-8.3276-2.626-8.6602-3.2244-17.7434-5.8904-22.3264-15.1044-.3525-.7085-.3403-2.0258.0977-2.627,2.0615-2.8316,1.4722-5.3769-.0708-8.2238-2.3552-4.3454-4.4731-8.8276-6.5142-13.332-1.2798-2.8249-.2161-4.8722,2.6606-6.3348,1.1362-.5776,2.1411-1.4756,3.0847-2.3575,3.2202-3.0104,6.1323-6.4329,9.6802-8.9753,1.7839-1.2784,4.7141-1.4705,7.0759-1.3281,5.8142.3511,11.5898,1.3086,17.4016,1.75,2.136.1622,4.325-.5005,6.4985-.6836,5.427-.457,9.9084,1.9426,14.3328,4.675,1.4414.8903,3.2554,1.1613,4.8684,1.7938,4.0657,1.5943,8.3171,2.8603,12.124,4.9366,6.6648,3.6351,12.7568,8.7355,20.603,9.3212,3.7781.282,7.7869-.8779,11.5-2.011,2.1321-.6508,3.8464-2.6096,5.812-3.882,3.0305-1.9619,6.2632-2.3495,9.6394-.9384,5.6714,2.3703,11.2058,5.0159,15.6023,9.438,1.2788,1.2861,1.8748,3.238,3.1157,4.5769,2.8806,3.1075,5.7725,6.257,9.0188,8.9583,3.1914,2.6557,5.3994,5.5674,6.1692,9.7631.6584,3.59,2.2109,7.0106,2.96,10.5914.7295,3.4866-.842,5.9944-4.1536,7.2791Z"/>
  <path class="cls-1" d="m58.3591,147.5966c-.1461-1.4606-1.2172-3.2133,1.2658-3.5784s2.0935,3.2376,2.7264,5.7206c.3689,1.4472,1.4691,5.9416,3.7732,5.2338,2.5243-.7756,1.0314-7.0193,3.2863-6.7187,2.1909.2921,1.5356,6.1775,2.0448,6.7917.3061.3695,1.4655.8261,1.9718.5112.5287-.3287,1.0148-2.7625,1.3145-3.4324,1.6191-3.6178,2.2639,2.9212,2.7751,3.5784s3.8858-3.6833,4.6739-4.4548c.8351-.8175,1.4464-2.6858,2.539-2.6931,1.4436-.0096,3.0333.405,1.4326,2.71-1.2239,1.7625-1.6655,4.0508-2.5853,6.0452-2.1989,4.7674-4.4529,5.1772-9.375,3.1416-2.6644-1.1019-5.3438-2.7968-8.735-1.5357-3.7722,1.4029-4.82.7165-5.5502-3.3593l-1.558-7.9602Z"/>
  <path class="cls-1" d="m144.737,112.959c-1.4469.6148-2.9827,1.0796-4.3242,1.8727-4.0205,2.3772-6.0798,2.1174-9.0422-1.3673-1.799-2.1161-2.6192-2.3004-5.0087-1.0799-.5808.2967-1.0972.8527-1.6966.9456-.747.1158-1.9524.1419-2.2286-.2762-.3698-.5598-.3252-1.7488.0398-2.3792,1.9976-3.4504,7.7523-4.0031,10.5843-1.1148,3.1613,3.2241,3.1489,3.2016,7.2985.9343.7369-.4026,1.6083-.6329,2.4455-.7628,1.8048-.2801,3.6313-.4176,5.442-.6643,1.0128-.1379,2.011-.3047,2.4722.9118.5069,1.337-.384,2.182-1.3623,2.5815l-4.6197.3985Z"/>
  <path class="cls-1" d="m48.6108,82.4133c.175-.7422.1837-2.0592.8003-2.9789.4709-.7023,1.7335-1.2831,2.6048-1.2343,1.2926.0722,1.185,1.1824.8817,2.2353-.1895.6578-.2097,1.4223-.0799,2.0966.1912.9927.7946,1.5476,1.8695.9078,2.1183-1.2606,3.7077-.0165,5.323,1.0819,1.2159.8267,2.4932,1.5934,3.5755,2.5683.3764.3391.5624,1.4368.2947,1.8173-.821,1.1669-2.0912,1.6099-3.3818.7189-.8731-.6028-1.6263-1.4147-2.311-2.2328-.6786-.8108-1.1944-.9034-2.175-.3466-.8782.4987-2.0351.7585-3.0566.7271-3.4082-.1043-4.5971-1.5301-4.3452-5.3606Z"/>
  <path class="cls-1" d="m113.3862,80.9423c-1.8344.07-2.6803-1.1273-3.5191-2.0199-1.3341-1.4201-2.7366-2.4727-4.6711-2.8086-1.2905-.2241-2.1426-.9649-1.856-2.361.3196-1.5569,1.4474-1.779,2.8684-1.5117,2.4451.4599,4.9542.6083,6.0646,3.5117.4356,1.139,1.6223,1.0161,2.7108.6367.6396-.2228,1.4-.42,2.0299-.2817,1.2288.2698,1.6854,1.6178.7433,2.3367-1.2707.9695-2.5364,2.4277-4.3708,2.4978Z"/>
  <path class="cls-1" d="m223.3761,21.9808c-.3296-.3304-.5048-.8244-.4002-1.6256.0142-.1098-.09-.2473-.1641-.3548-1.1792-1.7124-2.2798-3.487-3.563-5.118-2.3149-2.9429-4.7572-5.7853-7.1108-8.6983-1.1198-1.3861-1.6823-1.3518-2.522.2837-.211.4111-.4024.8328-.5951,1.253-1.8101,3.9439-3.3598,8.0476-6.7412,11.03-1.1962,1.0551-.6626,2.606-1.1067,3.8784-.0448.1282.2346.4805.4328.5627.7714.3201,1.5423.8347,2.4052.1691.7676-.5924,1.48-.8433,1.8785.4148.071.2246.3161.4378.5341.5645.9166.5325.627,1.0843.1547,1.7717-1.5276,2.2243-3.0297,4.4673-4.4905,6.736-.9271,1.4396-1.8363,2.9014-2.597,4.4311-.2381.4789-.1619,1.3426.1352,1.785.2272.3379,1.0639.4671,1.5676.3697.6855-.1327,1.316-.5619,1.9628-.8781,1.0532-.5145,1.4874-.4097,1.6583.7426.1151.7755-.0173,1.727-.388,2.4105-1.5078,2.7803-3.0618,5.545-4.7808,8.1974-.8528,1.316-.7552,2.6385-.6082,3.9834.0935.8555.7076,1.3015,1.7286,1.0782,1.866-.4081,3.5252-1.0416,4.6002-2.78.1861-.3009.8458-.3091,1.2869-.4524.08.4782.2147.9563.2152,1.4345.0002.2221-.2643.4423-.403.6668-1.5508,2.5102-3.0192,5.0765-4.6797,7.512-1.068,1.5666-1.1541,3.1432-.8336,4.8959.3974,2.1746,1.0582,2.713,3.1903,2.415.376-.0525.7576-.0661,1.1366-.0977-.1044.4176-.178.8461-.3222,1.2495-.1326.3708-.3229.7247-.5188,1.0685-1.4033,2.4635-1.6489,5.1292-1.2749,7.8636.1518,1.11.4981,2.1964,1.8896,2.4705,1.4818.2919,1.4743.3286.7906,1.7513-.957,1.9918-1.6862,4.0298-1.1993,6.2938.3596,1.6713,1.8387,2.3155,3.2681,1.3768.5962-.3915,1.0453-1.0058,1.6393-1.4017.2964-.1975.9802-.3175,1.1252-.1527.706.8026,1.629.7769,2.5389.8929,1.8129.2311,1.8852.2428,1.816,2.0334-.0754,1.9552-.3316,3.9028-.4522,5.8571-.0395.6407-.0384,1.3466.1914,1.9244.0371.0934.3335.7279,1.0881.7522s1.8988-.2191,2.1665-.7059.2467-1.3181.227-1.7747c-.0762-1.7662-.1402-3.5333-.1826-5.3006-.0533-2.2174-.0417-2.2178,2.2271-2.1273,2.7521.1097,5.0428-2.7027,4.2323-5.3107-.3886-1.2502-1.0643-2.4086-1.5257-3.6401-.1922-.5127-.1654-1.1074-.2381-1.6649.4976-.0282,1.0114-.1507,1.4901-.0683,2.0786.3578,3.0688-.2994,2.9865-2.4529-.0924-2.417-.5225-4.8202-.7821-7.232-.1566-1.4545-1.0975-2.8807-.0452-4.3805,1.2303-1.7535.6964-3.4313-.1981-5.1839-.8295-1.6248-1.5442-3.3445-2.0231-5.1005-.3919-1.4373-.1167-1.6368,1.4167-1.8968,1.2177-.2064,2.1583-.7602,2.4049-2.0168.5448-2.7768.3074-5.3455-1.9359-7.4604-.9376-.8839-1.636-2.0243-2.4244-3.0623-.3548-.4671-.6637-.9688-.9935-1.4548.4607-.3071.9514-.5787,1.373-.9326.3441-.2887.722-.6288.883-1.0275.6551-1.6212.6731-3.2061-.4743-4.6706-1.8641-2.3794-3.6126-4.8587-5.6061-7.1231-.9712-1.103-.3775-1.7457.1654-2.5262.6682-.9609,1.1108.1358,1.6504.2591.353.0807.7023.1774,1.0508.2786.7159-.5348,1.3251-1.1834,1.6729-1.9847Zm-1.4693,65.5597c-.4109.537-1.0632.8046-1.743.3369-.5391-.3709-1.0626-.7663-1.5759-1.1722-1.2978-1.0263-1.7301-1.0304-3.0581.0075-1.2563.9819-1.8014.9742-3.1055-.0433-1.3461-1.0503-1.8424-1.051-3.2759-.0019-.1588.1161-.298.2735-.4732.3488-.2873.1233-.744.3617-.8662.2538-.2517-.2227-.3299-.6416-.4791-.9789.5562-1.9001,1.3116-3.6293,2.6221-5.0558.1265-.1378.6868-.0016.9693.15,1.1421.6129,2.2164.6199,3.3495-.0608.8397-.5047,1.745-.9105,2.647-1.3002,2.0181-.8721,3.4087-.2761,4.2102,1.8633.5031,1.3429.9507,2.7179,1.2637,4.1141.1038.4631-.1708,1.1284-.485,1.5388Zm.3969-10.0455c-.6392.0897-1.4346-.1296-1.9991-.4701-1.4022-.8456-1.679-.8204-3.0811.1545-1.0632.7393-2.2527,1.3062-3.4164,1.8889-.6405.3208-1.1401.0313-1.4499-.5954-.2298-.4652-.4083-.968-.7067-1.3848-1.0435-1.4585-1.6559-1.4928-2.9821-.2172-.2838.2728-.4989.6238-.8035.8665-1.0224.815-1.7791.5932-1.9407-.67-.1132-.8856-.0717-1.8524.1673-2.7086.4725-1.6926,1.1414-3.3298,1.7068-4.9974.511-1.5064.5992-1.555,2.0047-.8703,2.4484,1.1927,3.9854.9646,6.0258-.9744.4286-.4071.7019-.6343,1.3251-.2817,1.9591,1.108,2.2247,1.0432,3.8736-.4951.1442-.1345.2501-.3199.4111-.4237.2047-.1319.4655-.3036.6676-.2672.1285.0232.2969.4065.2713.6059-.1429,1.1191.0057,1.9369,1.4086,2.0449.2615.0201.5898.6631.6859,1.0665l.5804,4.4623c-.0009,2.8305.0068,2.8797-2.749,3.2664Zm2.0604-15.1137c.1127.6055.1658,1.2222.2438,1.8342-.5723-.2575-1.2238-.4154-1.6998-.794-.9118-.7252-1.4995-.4095-2.1666.3426-1.3714,1.546-1.4726,1.4864-2.4945-.3903-.2427-.4456-.8131-1.0093-1.2174-.9974-.5394.0158-1.1807.4363-1.5694.8701-.7342.8191-1.2568,1.8264-1.9825,2.6547-.8496.9701-1.4149.9385-2.2498-.0546-.3707-.4412-.5671-1.0254-.8692-1.5286-.9107-1.5164-1.7955-1.6527-3.1741-.5326-.7111.5779-1.4116,1.183-2.1867,1.6635-.6634.4113-1.1777.1494-1.1751-.6734.002-.7049-.0655-1.5078.2335-2.0972,1.217-2.3997,2.5576-4.7371,3.8712-7.0871.1132-.2022.3622-.3283.5876-.5238.3443.184.6222.3507.9147.4856,1.8745.8651,2.8879.5946,4.0012-1.0578.9697-1.4391,1.1574-1.4898,2.5841-.4786,1.2205.865,2.4449,1.3302,3.7851.2732.8889-.701,1.4593-.21,1.913.531.2364.3859.4889.8427.4983,1.2726.043,1.9904.9887,3.6532,1.8108,5.3681.1411.2946.2829.6026.3419.9198Zm-.3705-16.5392c.8531.9035,1.9243,1.6858,1.9091,3.246-.2702.6339-.5405,1.268-.8107,1.902-.6894-.3296-1.4031-.6188-2.0561-1.0093-.2545-.152-.3393-.5625-.5586-.8031-.6398-.7022-1.423-.7245-2.0111.0287-.4793.614-.7794,1.3643-1.2242,2.0093-.6021.8727-1.2364.9504-1.8527.1398-.4249-.5587-.5815-1.3136-.9385-1.9345-.268-.4664-.6661-1.2138-1.0023-1.2117-.7141.0046-1.5582.2585-2.0961.7108-.4338.3648-.5086,1.1666-.72,1.7822-.1684.4903-.2147,1.0441-.4697,1.4792-.6997,1.195-1.7618,1.2041-2.4218-.0179-.3663-.6781-.4764-1.4932-.7148-2.2425-.1562-.4911-.2449-1.0345-.5206-1.4511-.8926-1.3494-1.7061-1.3315-2.7857-.1029-.909,1.0345-1.8818,2.0142-2.8523,2.9923-.1654.1666-.4618.2031-.6977.2996-.0199-.2364-.1396-.5272-.0448-.7011,1.5348-2.8169,3.0876-5.6244,4.6688-8.4158.1418-.2503.4981-.5187.7685-.534,1.8125-.1026,2.7263-1.3747,3.6975-2.645.3484-.4557.7229-1.1426,1.5766-.4169,1.7415,1.4803,3.1868,1.2861,4.8625-.4999.7742-.8252,1.3454-.8919,1.9147-.2082.1219.1464.2621.3328.2728.5083.189,3.0521,2.1804,5.0547,4.1069,7.0957Zm-1.9964-11.6064c.2768.3539.4636.7781.623,1.0516.0048.9056-.6781,1.3441-1.3959.9419-.7998-.4482-1.5447-1.0088-2.2638-1.5825-1.6045-1.2802-2.3429-1.0976-2.8919.7708-.0745.2529-.095.5368-.227.754-.1861.3067-.4526.5645-.6846.8433-.268-.3054-.6322-.5701-.7825-.9252-.2517-.5945-.568-1.271-.495-1.869.1258-1.035-.0957-1.4637-1.1921-1.4039-1.0254.0559-1.4732.4717-1.665,1.5261-.2292,1.2591-.6927,2.4914-1.1952,3.6757-.1601.3773-.8919.8786-1.1482.778-.6868-.2694-1.5038-.7097-1.8097-1.3145-.3452-.6824.1149-1.7209-.9022-2.2031-.7925-.3757-1.5255-.2839-2.2544.1588-.0793.0482-.339-.0334-.3384-.0458.0125-.2427-.0286-.5405.0968-.7164,1.0191-1.4311,2.0985-2.8196,3.1027-4.2606.8253-1.1844,1.5857-2.4151,2.3471-3.6425.2053-.3307.4845-.7521.4312-1.0839-.3082-1.9221,1.3492-2.5228,2.3355-3.5419.6407-.6619,1.3155-.4359,1.7902.3313.0686.1106.133.2352.1551.361.3456,1.962,1.5733,3.2664,2.9426,4.6588,2.0117,2.0455,3.6444,4.4648,5.4218,6.738Zm-3.3465-14.9797c-.8472-.2124-1.5683.4718-1.4787,1.6086.026.3302-.2943.6877-.4559,1.0327-.3224-.2077-.7113-.3579-.9518-.6364-.3832-.444-.6333-1.0006-1.0005-1.4612-.9889-1.2402-2.1441-1.3748-3.3919-.4277-.4201.3188-.8218.6617-1.2421.9801-.5699.4317-1.1497.8502-1.7253,1.2745-.3023-.6169-.4786-1.3606-.9393-1.8181-.5496-.5458-1.326-.8632-2.0124-1.2712-.0028.0044-.0055.0087-.0081.0131-.0264.0282-.0529.0565-.0791.0847.0129-.0417.0258-.0834.0387-.1251.0157.0095.0325.0179.0485.0273,1.1178-1.8397,2.2573-3.6667,3.3441-5.5246.5599-.9573,1.0097-1.9785,1.5392-2.9545.3663-.6751.8725-.7384,1.4438-.221.2438.2209.516.419.7233.6704,2.2131,2.6841,4.4269,5.368,6.6128,8.0744.4494.5565.822.9964-.4651.6738Z"/>
  <path class="cls-1" d="m96.9185,116.8513c.9129-.1826,3.5784,1.2415,4.0531,1.2415s1.5589-.0845,2.5975-.3703c.4309-.1185.8609-.2457,1.2972-.3397.9776-.2107,1.2138-.8276,1.241-1.7797.0437-1.5345-.5371-2.7679-1.5527-3.8033-1.0941-1.1153-2.3279-2.094-3.4168-3.2137-.8885-.9137-.7565-1.2038.5111-1.5922,2.2129-.678,2.459-1.0099,2.5629-3.2718.1614-3.5178-.9552-6.583-3.2209-9.2528-.1424-.168-.2685-.3499-.4021-.5253.2399.0254.4986.0019.7167.0845,1.237.4685,2.4829.583,3.6999.0086.4312-.2036.9855-.5307,1.1143-.9226.5094-1.5508.9339-3.0904-.192-4.6654-1.6314-2.2824-3.096-4.6834-4.659-7.0154-.7007-1.0451-1.3333-2.1898-2.2361-3.0332-1.4594-1.3635-2.4469-2.9746-3.1313-4.7936-.3971-1.0555-1.2022-1.4043-2.1134-1.1516-.7138.198-1.4599.7012-1.9256,1.282-.9626,1.2-1.5028,2.8478-2.652,3.769-3.5262,2.8276-6.0708,6.4798-8.855,9.9291-1.0102,1.2514-1.4019,2.8319-.6842,4.4103.6516,1.4335,2.034,1.2897,3.3045,1.2993.0745.0006.1493-.0053.2236-.0133,1.0164-.1091,1.2592.2694.6987,1.1275-.9379,1.436-1.872,2.8748-2.8319,4.296-1.4574,2.1581-1.1706,3.6803,1.0712,5.18.7671.5132,1.1178.9785.2942,1.7256-.3302.2994-.6316.6363-.9122.9835-1.6729,2.0707-3.6513,3.9389-4.0097,6.8153-.2206,1.771.3907,2.8252,2.1492,3.1926.5106.1066,1.0299.2348,1.546.2383.5094.0033,1.6919-.1678,1.6919-.1678,0,0,2.0083-.5477,2.6656-.5842s1.8088.1765,2.2301.4472c.3756.2413.8009.4284,1.122.7277,1.6825,1.568,3.383,1.8443,5.4658.5987,0,0,1.6252-.6781,2.5381-.8607Zm4.8395-3.6684c.4072.4613,1.1854,1.2949.9663,1.9157s-1.4316.77-2.0851.531-2.242-.8026-3.2769-1.4269c-1.0502-.6335-1.8869-.7316-2.7833.1675-1.4194,1.424-2.8536,1.2912-4.3342.0429-.5637-.4754-1.2412-.8154-1.8659-1.2189-1.8424-1.1905-3.7024-1.433-5.6418-.1904-.3342.2143-.8593.596-1.2079.3229s-.1387-.9035.0007-1.2775c.2547-.6834.6096-1.3486,1.0275-1.9486,1.2639-1.8147,2.5453-3.62,3.9013-5.3656.2599-.3344.8976-.5271,1.3488-.5074.2979.013.6466.4819.8384.8222.1733.3075.1091.7396.2443,1.0788.8317,2.0826,2.5962,2.8529,4.7076,2.0513.5531-.21,1.0744-.5063,1.6048-.7736,1.0218-.5147,1.6911-.5113,2.2437.7834.4768,1.1171,1.3802,2.076,2.1973,3.0161.6296.7242,1.4784,1.2571,2.1142,1.977Zm-.0553-10.5558c.2522,1.3164-.7209,2.0691-2.6559,2.0256-.2843-.1146-.9282-.2968-1.4942-.6171q-1.8812-1.0654-3.4852.2406c-.4897.3985-1.1141.6314-1.6768.9401-.1165-.6832-.3085-1.3641-.3302-2.0502-.0291-.9095.854-1.912-.1545-2.7081-1.1274-.8899-2.0451.1362-3.0794.414-1.3261.3561-2.7401.4369-4.1229.5102-.7696.0408-1.0919-.5553-.7617-1.2264.8779-1.7834,1.7973-3.4115,4.0309-4.0333,1.7462-.4863,3.3571-1.5335,4.9493-2.4661.8164-.4782,1.1938-.6618,1.9987.1915,1.0946,1.1605,2.5851,1.9434,3.8848,2.9158,1.9495,1.4586,2.477,3.6707,2.8973,5.8634Zm-13.5721-12.7966c0-1.1928-1.7054-1.9029-2.9602-.8442-.1121.0946-.391.4373-.4965.5277-.5112.4382-.9959.9633-1.4108.6642s-.1871-1.596.1671-2.0234c2.1144-2.5534,3.8507-5.4392,6.6833-7.3828,1.0657-.7313,1.8059-1.9404,2.6833-2.9416.4758-.5432.8631-.9978,1.606-.234,3.4874,3.5866,6.2208,7.7377,8.9945,11.8609.1663.2473.4403.5081.4408.7631.0015.544-.1441,1.0883-.2293,1.6324-.5087-.2162-1.1699-.3039-1.4873-.6811-.404-.4804-.442-1.2541-.8036-1.7897-.2875-.4259-.9589-1.0452-1.2227-.9463-.6777.254-1.6731.2679-1.7758,1.4036-.0617.683-.3184,1.9082-.5417,1.9208-1.026.0576-1.0672-.9259-1.3362-1.6962-.4842-1.3867-1.3705-1.6364-2.5782-.7375-.8915.6636-1.6857,1.4567-2.5394,2.1728-.4509.3783-.8979.7942-1.4177,1.0471-.441.2145-1.0371.3845-1.4599.2488-.2206-.0708-.2155-.8438-.3125-1.2996,0,0-.0033-.4724-.0033-1.6652Z"/>
  <path class="cls-1" d="m90.2726,123.353c-.0754,1.9552-.3318,3.9028-.4524,5.8571-.0393.6407-.0383,1.3466.1914,1.9244.0371.0934.3335.7279,1.0881.7523.7546.0243,1.8989-.2191,2.1665-.706.2678-.4868.2468-1.3181.2271-1.7747-.0762-1.7662-.1401-3.5333-.1826-5.3006-.0173-.7251.2361-7.7322.3093-8.0575-1.0962-.0004-2.1166-.183-3.0307-.5477.0396.2673-.2972,7.3449-.3167,7.8528Z"/>
  <path class="cls-1" d="m65.3457,44.4748c.9129-.1826,3.5784,1.2415,4.0531,1.2415s1.5589-.0845,2.5975-.3703c.4309-.1185.8609-.2457,1.2972-.3397.9776-.2107,1.2138-.8276,1.241-1.7797.0437-1.5345-.5371-2.7679-1.5527-3.8033-1.0941-1.1153-2.3279-2.094-3.4168-3.2137-.8885-.9137-.7565-1.2038.5111-1.5922,2.2129-.678,2.459-1.0099,2.5629-3.2718.1614-3.5178-.9552-6.583-3.2209-9.2528-.1424-.168-.2685-.3499-.4021-.5253.2399.0254.4986.0019.7167.0845,1.237.4685,2.4829.583,3.6999.0086.4312-.2036.9855-.5307,1.1143-.9226.5094-1.5508.9339-3.0904-.192-4.6654-1.6314-2.2824-3.096-4.6834-4.659-7.0154-.7007-1.0451-1.3333-2.1898-2.2361-3.0332-1.4594-1.3635-2.4469-2.9746-3.1313-4.7936-.3971-1.0555-1.2022-1.4043-2.1134-1.1516-.7138.198-1.4599.7012-1.9256,1.282-.9626,1.2-1.5028,2.8478-2.652,3.769-3.5262,2.8276-6.0708,6.4798-8.855,9.9291-1.0102,1.2514-1.4019,2.8319-.6842,4.4103.6516,1.4335,2.034,1.2897,3.3045,1.2993.0745.0006.1493-.0053.2236-.0133,1.0164-.1091,1.2592.2694.6987,1.1275-.9379,1.436-1.872,2.8748-2.8319,4.296-1.4574,2.1581-1.1706,3.6803,1.0712,5.18.7671.5132,1.1178.9785.2942,1.7256-.3302.2994-.6316.6363-.9122.9835-1.6729,2.0707-3.6513,3.9389-4.0097,6.8153-.2206,1.771.3907,2.8252,2.1492,3.1926.5106.1066,1.0299.2348,1.546.2383.5094.0033,1.6919-.1678,1.6919-.1678,0,0,2.0083-.5477,2.6656-.5842s1.8088.1765,2.2301.4472c.3756.2413.8009.4284,1.122.7277,1.6825,1.568,3.383,1.8443,5.4658.5987,0,0,1.6252-.6781,2.5381-.8607Zm4.8395-3.6684c.4072.4613,1.1854,1.2949.9663,1.9157s-1.4316.77-2.0851.531-2.242-.8026-3.2769-1.4269c-1.0502-.6335-1.8869-.7316-2.7833.1675-1.4194,1.424-2.8536,1.2912-4.3342.0429-.5637-.4754-1.2412-.8154-1.8659-1.2189-1.8424-1.1905-3.7024-1.433-5.6418-.1904-.3342.2143-.8593.596-1.2079.3229s-.1387-.9035.0007-1.2775c.2547-.6834.6096-1.3486,1.0275-1.9486,1.2639-1.8147,2.5453-3.62,3.9013-5.3656.2599-.3344.8976-.5271,1.3488-.5074.2979.013.6466.4819.8384.8222.1733.3075.1091.7396.2443,1.0788.8317,2.0826,2.5962,2.8529,4.7076,2.0513.5531-.21,1.0744-.5063,1.6048-.7736,1.0218-.5147,1.6911-.5113,2.2437.7834.4768,1.1171,1.3802,2.076,2.1973,3.0161.6296.7242,1.4784,1.2571,2.1142,1.977Zm-.0553-10.5558c.2522,1.3164-.7209,2.0691-2.6559,2.0256-.2843-.1146-.9282-.2968-1.4942-.6171q-1.8812-1.0654-3.4852.2406c-.4897.3985-1.1141.6314-1.6768.9401-.1165-.6832-.3085-1.3641-.3302-2.0502-.0291-.9095.854-1.912-.1545-2.7081-1.1274-.8899-2.0451.1362-3.0794.414-1.3261.3561-2.7401.4369-4.1229.5102-.7696.0408-1.0919-.5553-.7617-1.2264.8779-1.7834,1.7973-3.4115,4.0309-4.0333,1.7462-.4863,3.3571-1.5335,4.9493-2.4661.8164-.4782,1.1938-.6618,1.9987.1915,1.0946,1.1605,2.5851,1.9434,3.8848,2.9158,1.9495,1.4586,2.477,3.6707,2.8973,5.8634Zm-13.5721-12.7966c0-1.1928-1.7054-1.9029-2.9602-.8442-.1121.0946-.391.4373-.4965.5277-.5112.4382-.9959.9633-1.4108.6642s-.1871-1.596.1671-2.0234c2.1144-2.5534,3.8507-5.4392,6.6833-7.3828,1.0657-.7313,1.8059-1.9404,2.6833-2.9416.4758-.5432.8631-.9978,1.606-.234,3.4874,3.5866,6.2208,7.7377,8.9945,11.8609.1663.2473.4403.5081.4408.7631.0015.544-.1441,1.0883-.2293,1.6324-.5087-.2162-1.1699-.3039-1.4873-.6811-.404-.4804-.442-1.2541-.8036-1.7897-.2875-.4259-.9589-1.0452-1.2227-.9463-.6777.254-1.6731.2679-1.7758,1.4036-.0617.683-.3184,1.9082-.5417,1.9208-1.026.0576-1.0672-.9259-1.3362-1.6962-.4842-1.3867-1.3705-1.6364-2.5782-.7375-.8915.6636-1.6857,1.4567-2.5394,2.1728-.4509.3783-.8979.7942-1.4177,1.0471-.441.2145-1.0371.3845-1.4599.2488-.2206-.0708-.2155-.8438-.3125-1.2996,0,0-.0033-.4724-.0033-1.6652Z"/>
  <path class="cls-1" d="m58.2762,46.4271c-.0754,1.9552-.3318,3.9028-.4524,5.8571-.0393.6407-.0383,1.3466.1914,1.9244.0371.0934.3335.7279,1.0881.7523.7546.0243,1.8989-.2191,2.1665-.706.2678-.4868.2468-1.3181.2271-1.7747-.0762-1.7662-.1401-3.5333-.1826-5.3006-.0173-.7251-.1073-3.2026-.034-3.5279-1.0962-.0004-1.9097.2673-2.8238-.0974.0396.2673-.1607,2.3649-.1803,2.8728Z"/>
  <path class="cls-1" d="m24.4361,67.3817c-.3296-.3304-.5048-.8244-.4002-1.6256.0142-.1098-.09-.2473-.1641-.3548-1.1792-1.7124-2.2798-3.487-3.563-5.118-2.3149-2.9429-4.7572-5.7853-7.1108-8.6983-1.1198-1.3861-1.6823-1.3518-2.522.2837-.211.4111-.4024.8328-.5951,1.253-1.8101,3.9439-3.3598,8.0476-6.7412,11.03-1.1962,1.0551-.6626,2.606-1.1067,3.8784-.0448.1282.2346.4805.4328.5627.7714.3201,1.5423.8347,2.4052.1691.7676-.5924,1.48-.8433,1.8785.4148.071.2246.3161.4378.5341.5645.9166.5325.627,1.0843.1547,1.7717-1.5276,2.2243-3.0297,4.4673-4.4905,6.736-.9271,1.4396-1.8363,2.9014-2.597,4.4311-.2381.4789-.1619,1.3426.1352,1.785.2272.3379,1.0639.4671,1.5676.3697.6855-.1327,1.316-.5619,1.9628-.8781,1.0532-.5145,1.4874-.4097,1.6583.7426.1151.7755-.0173,1.727-.388,2.4105-1.5078,2.7803-3.0618,5.545-4.7808,8.1974-.8528,1.316-.7552,2.6385-.6082,3.9834.0935.8555.7076,1.3015,1.7286,1.0782,1.866-.4081,3.5252-1.0416,4.6002-2.78.1861-.3009.8458-.3091,1.2869-.4524.08.4782.2147.9563.2152,1.4345.0002.2221-.2643.4423-.403.6668-1.5508,2.5102-3.0192,5.0765-4.6797,7.512-1.068,1.5666-1.1541,3.1432-.8336,4.8959.3974,2.1746,1.0582,2.713,3.1903,2.415.376-.0525.7576-.0661,1.1366-.0977-.1044.4176-.178.8461-.3222,1.2495-.1326.3708-.3229.7247-.5188,1.0685-1.4033,2.4635-1.6489,5.1292-1.2749,7.8636.1518,1.11.4981,2.1964,1.8896,2.4705,1.4818.2919,1.4743.3286.7906,1.7513-.957,1.9918-1.6862,4.0298-1.1993,6.2938.3596,1.6713,1.8387,2.3155,3.2681,1.3768.5962-.3915,1.0453-1.0058,1.6393-1.4017.2964-.1975.9802-.3175,1.1252-.1527.706.8026,1.629.7769,2.5389.8929,1.8129.2311,1.8852.2428,1.816,2.0334-.0754,1.9552-.3316,3.9028-.4522,5.8571-.0395.6407-.0384,1.3466.1914,1.9244.0371.0934.3335.7279,1.0881.7522s1.8988-.2191,2.1665-.7059.2467-1.3181.227-1.7747c-.0762-1.7662-.1402-3.5333-.1826-5.3006-.0533-2.2174-.0417-2.2178,2.2271-2.1273,2.7521.1097,5.0428-2.7027,4.2323-5.3107-.3886-1.2502-1.0643-2.4086-1.5257-3.6401-.1922-.5127-.1654-1.1074-.2381-1.6649.4976-.0282,1.0114-.1507,1.4901-.0683,2.0786.3578,3.0688-.2994,2.9865-2.4529-.0924-2.417-.5225-4.8202-.7821-7.232-.1566-1.4545-1.0975-2.8807-.0452-4.3805,1.2303-1.7535.6964-3.4313-.1981-5.1839-.8295-1.6248-1.5442-3.3445-2.0231-5.1005-.3919-1.4373-.1167-1.6368,1.4167-1.8968,1.2177-.2064,2.1583-.7602,2.4049-2.0168.5448-2.7768.3074-5.3455-1.9359-7.4604-.9376-.8839-1.636-2.0243-2.4244-3.0623-.3548-.4671-.6637-.9688-.9935-1.4548.4607-.3071.9514-.5787,1.373-.9326.3441-.2887.722-.6288.883-1.0275.6551-1.6212.6731-3.2061-.4743-4.6706-1.8641-2.3794-3.6126-4.8587-5.6061-7.1231-.9712-1.103-.3775-1.7457.1654-2.5262.6682-.9609,1.1108.1358,1.6504.2591.353.0807.7023.1774,1.0508.2786.7159-.5348,1.3251-1.1834,1.6729-1.9847Zm-1.4693,65.5597c-.4109.537-1.0632.8046-1.743.3369-.5391-.3709-1.0626-.7663-1.5759-1.1722-1.2978-1.0263-1.7301-1.0304-3.0581.0075-1.2563.9819-1.8014.9742-3.1055-.0433-1.3461-1.0503-1.8424-1.051-3.2759-.0019-.1588.1161-.298.2735-.4732.3488-.2873.1233-.744.3617-.8662.2538-.2517-.2227-.3299-.6416-.4791-.9789.5562-1.9001,1.3116-3.6293,2.6221-5.0558.1265-.1378.6868-.0016.9693.15,1.1421.6129,2.2164.6199,3.3495-.0608.8397-.5047,1.745-.9105,2.647-1.3002,2.0181-.8721,3.4087-.2761,4.2102,1.8633.5031,1.3429.9507,2.7179,1.2637,4.1141.1038.4631-.1708,1.1284-.485,1.5388Zm.3969-10.0455c-.6392.0897-1.4346-.1296-1.9991-.4701-1.4022-.8456-1.679-.8204-3.0811.1545-1.0632.7393-2.2527,1.3062-3.4164,1.8889-.6405.3208-1.1401.0313-1.4499-.5954-.2298-.4652-.4083-.968-.7067-1.3848-1.0435-1.4585-1.6559-1.4928-2.9821-.2172-.2838.2728-.4989.6238-.8035.8665-1.0224.815-1.7791.5932-1.9407-.67-.1132-.8856-.0717-1.8524.1673-2.7086.4725-1.6926,1.1414-3.3298,1.7068-4.9974.511-1.5064.5992-1.555,2.0047-.8703,2.4484,1.1927,3.9854.9646,6.0258-.9744.4286-.4071.7019-.6343,1.3251-.2817,1.9591,1.108,2.2247,1.0432,3.8736-.4951.1442-.1345.2501-.3199.4111-.4237.2047-.1319.4655-.3036.6676-.2672.1285.0232.2969.4065.2713.6059-.1429,1.1191.0057,1.9369,1.4086,2.0449.2615.0201.5898.6631.6859,1.0665l.5804,4.4623c-.0009,2.8305.0068,2.8797-2.749,3.2664Zm2.0604-15.1137c.1127.6055.1658,1.2222.2438,1.8342-.5723-.2575-1.2238-.4154-1.6998-.794-.9118-.7252-1.4995-.4095-2.1666.3426-1.3714,1.546-1.4726,1.4864-2.4945-.3903-.2427-.4456-.8131-1.0093-1.2174-.9974-.5394.0158-1.1807.4363-1.5694.8701-.7342.8191-1.2568,1.8264-1.9825,2.6547-.8496.9701-1.4149.9385-2.2498-.0546-.3707-.4412-.5671-1.0254-.8692-1.5286-.9107-1.5164-1.7955-1.6527-3.1741-.5326-.7111.5779-1.4116,1.183-2.1867,1.6635-.6634.4113-1.1777.1494-1.1751-.6734.002-.7049-.0655-1.5078.2335-2.0972,1.217-2.3997,2.5576-4.7371,3.8712-7.0871.1132-.2022.3622-.3283.5876-.5238.3443.184.6222.3507.9147.4856,1.8745.8651,2.8879.5946,4.0012-1.0578.9697-1.4391,1.1574-1.4898,2.5841-.4786,1.2205.865,2.4449,1.3302,3.7851.2732.8889-.701,1.4593-.21,1.913.531.2364.3859.4889.8427.4983,1.2726.043,1.9904.9887,3.6532,1.8108,5.3681.1411.2946.2829.6026.3419.9198Zm-.3705-16.5392c.8531.9035,1.9243,1.6858,1.9091,3.246-.2702.6339-.5405,1.268-.8107,1.902-.6894-.3296-1.4031-.6188-2.0561-1.0093-.2545-.152-.3393-.5625-.5586-.8031-.6398-.7022-1.423-.7245-2.0111.0287-.4793.614-.7794,1.3643-1.2242,2.0093-.6021.8727-1.2364.9504-1.8527.1398-.4249-.5587-.5815-1.3136-.9385-1.9345-.268-.4664-.6661-1.2138-1.0023-1.2117-.7141.0046-1.5582.2585-2.0961.7108-.4338.3648-.5086,1.1666-.72,1.7822-.1684.4903-.2147,1.0441-.4697,1.4792-.6997,1.195-1.7618,1.2041-2.4218-.0179-.3663-.6781-.4764-1.4932-.7148-2.2425-.1562-.4911-.2449-1.0345-.5206-1.4511-.8926-1.3494-1.7061-1.3315-2.7857-.1029-.909,1.0345-1.8818,2.0142-2.8523,2.9923-.1654.1666-.4618.2031-.6977.2996-.0199-.2364-.1396-.5272-.0448-.7011,1.5348-2.8169,3.0876-5.6244,4.6688-8.4158.1418-.2503.4981-.5187.7685-.534,1.8125-.1026,2.7263-1.3747,3.6975-2.645.3484-.4557.7229-1.1426,1.5766-.4169,1.7415,1.4803,3.1868,1.2861,4.8625-.4999.7742-.8252,1.3454-.8919,1.9147-.2082.1219.1464.2621.3328.2728.5083.189,3.0521,2.1804,5.0547,4.1069,7.0957Zm-1.9964-11.6064c.2768.3539.4636.7781.623,1.0516.0048.9056-.6781,1.3441-1.3959.9419-.7998-.4482-1.5447-1.0088-2.2638-1.5825-1.6045-1.2802-2.3429-1.0976-2.8919.7708-.0745.2529-.095.5368-.227.754-.1861.3067-.4526.5645-.6846.8433-.268-.3054-.6322-.5701-.7825-.9252-.2517-.5945-.568-1.271-.495-1.869.1258-1.035-.0957-1.4637-1.1921-1.4039-1.0254.0559-1.4732.4717-1.665,1.5261-.2292,1.2591-.6927,2.4914-1.1952,3.6757-.1601.3773-.8919.8786-1.1482.778-.6868-.2694-1.5038-.7097-1.8097-1.3145-.3452-.6824.1149-1.7209-.9022-2.2031-.7925-.3757-1.5255-.2839-2.2544.1588-.0793.0482-.339-.0334-.3384-.0458.0125-.2427-.0286-.5405.0968-.7164,1.0191-1.4311,2.0985-2.8196,3.1027-4.2606.8253-1.1844,1.5857-2.4151,2.3471-3.6425.2053-.3307.4845-.7521.4312-1.0839-.3082-1.9221,1.3492-2.5228,2.3355-3.5419.6407-.6619,1.3155-.4359,1.7902.3313.0686.1106.133.2352.1551.361.3456,1.962,1.5733,3.2664,2.9426,4.6588,2.0117,2.0455,3.6444,4.4648,5.4218,6.738Zm-3.3465-14.9797c-.8472-.2124-1.5683.4718-1.4787,1.6086.026.3302-.2943.6877-.4559,1.0327-.3224-.2077-.7113-.3579-.9518-.6364-.3832-.444-.6333-1.0006-1.0005-1.4612-.9889-1.2402-2.1441-1.3748-3.3919-.4277-.4201.3188-.8218.6617-1.2421.9801-.5699.4317-1.1497.8502-1.7253,1.2745-.3023-.6169-.4786-1.3606-.9393-1.8181-.5496-.5458-1.326-.8632-2.0124-1.2712-.0028.0044-.0055.0087-.0081.0131-.0264.0282-.0529.0565-.0791.0847.0129-.0417.0258-.0834.0387-.1251.0157.0095.0325.0179.0485.0273,1.1178-1.8397,2.2573-3.6667,3.3441-5.5246.5599-.9573,1.0097-1.9785,1.5392-2.9545.3663-.6751.8725-.7384,1.4438-.221.2438.2209.516.419.7233.6704,2.2131,2.6841,4.4269,5.368,6.6128,8.0744.4494.5565.822.9964-.4651.6738Z"/>
</svg>