<?xml version="1.0" encoding="UTF-8"?>
<svg id="Ebene_1" data-name="Ebene 1" xmlns="http://www.w3.org/2000/svg" viewBox="0 0 68.6958 18.0186">
  <defs>
    <style>
      .cls-1 {
        fill: #62594f;
        stroke-width: 0px;
      }
    </style>
  </defs>
  <path class="cls-1" d="m25.9597,9.6537c.7187-.9196,1.45-1.9556,2.1376-2.8978.7693-1.0544,1.5958-2.0883,2.2055-3.2333,1.0926-2.0522,4.1015-3.8948,5.9533-3.4578.3211.0758.774.216.8855.4566.737,1.5898,2.3527,1.9519,3.6828,2.6589,1.8804.9994,2.9909,2.0916,4.5609,3.839.3282.4258.8604.9935,1.1975,1.0733s3.6957-1.519,5.5893-2.2671c.3952-.1561.9723-.1599,1.3542.0127,1.5683.7087,3.1187,1.4665,4.6291,2.2917,2.5817,1.4104,4.7482,3.2848,6.5838,5.6236.7181.915,2.0111,1.3793,3.0437,2.0465.2484.1605.5534.3255.7002.4709s.2838.3903.1715.5381-.8042-.1068-1.0403-.2276c-1.6231-.8308-3.0795-1.7809-4.2389-3.3256-1.6909-2.253-4.0902-3.7891-6.5835-5.0775-1.2487-.6453-3.0583-1.6508-3.7872-1.6822s-1.3571.2306-1.3039.4612,4.2627,3.7013,6.6269,5.102c1.1281.6684,2.993,2.3805,3.0794,2.5199s-.0014.4667-.2591.4051-1.1092-.718-1.4108-1.0373c-1.4015-1.3837-2.6106-1.8492-3.9206-2.8384-1.0305-.7782-1.9361-1.4889-2.9603-2.2765-.7544-.5801-1.9592-1.5602-2.4177-1.5445s-3.2969,1.1954-3.3324,1.5946,1.6087,3.1471,1.6382,3.352-.1451.3409-.3993.2285-.4228-.5736-.4228-.5736c0,0-.5943-1.0201-1.0023-1.5878-2.2885-3.1312-4.5436-6.3461-8.5384-7.468-.5219-.1465-.9645-.734-1.343-1.1992-.8074-.9922-1.6184-1.1505-2.7267-.4889-.495.2955-1.0731.4558-1.5557.767-.5157.3324-1.0739.6915-1.4204,1.1769-1.1427,1.6004-2.1494,3.2985-3.3017,4.8915-1.0305,1.4245-2.9589,4.3586-2.9589,4.3586,0,0-.1264.2329-.3837.3748s-.6568.2874-.5368-.1091,1.8053-2.9511,1.8053-2.9511Z"/>
  <path class="cls-1" d="m23.7005,4.3221c-.3191-.3748-.7448-.978-1.4781-.9543s-2.4043.8571-3.7402,1.1728c-1.9552.462-3.9533.7395-5.916,1.1735-1.7023.3765-2.7288,1.4463-3.1746,3.1801-.19.7391-.7101,1.4182-1.1736,2.0567-.7451,1.0264-1.5003,2.061-2.3733,2.9757-1.3923,1.4588-2.4795,3.3109-4.6183,3.8825-.3416.0913-.8731.198-1.0433.2092s-.2617-.2665-.0954-.3949,1.2407-.5058,1.6831-.838c.7562-.5677,1.3137-1.1096,1.9573-1.7975,1.4622-1.5629,2.8734-3.1749,4.2662-4.8005.338-.3945.6696-.8936.7558-1.3878.3834-2.1993,1.5313-3.3902,3.681-3.8644,2.9773-.6568,6.0548-.8616,8.9024-2.1254,1.2379-.5494,2.0242.026,3.1123,1.3742.5204.6623,1.1028,1.2949,1.6105,1.8976.3302.392.9109.9289,1.0102,1.1595s-.1255.7269-.4861.4256-2.5609-2.9697-2.88-3.3445Z"/>
  <path class="cls-1" d="m22.7133,9.5739c-.204-.0355-1.6179,1.4788-2.4748,1.6853-.7583.1827-1.4933-.3168-1.8692-.4593-.8007-.3035-3.0231-.3579-4.4412-.3767-.7062-.0094-1.516-.0658-1.9122.4309s-.3242,3.7935-.3661,4.0078-.3134.174-.4615.0286-.2008-.5062-.1943-.7565c.024-.9272.0646-1.8561.1539-2.779.1002-1.0353,1.1524-1.7487,2.4135-1.657,1.6495.12,4.6125.1901,5.0539.4436.1772.1017.9117.5868,1.5168.3637.9022-.3326,2.4836-2.2353,2.8118-2.1643s1.0916,2.2224,1.0644,3.0691-1.9688,3.0063-2.9537,3.69c-.985.6837-3.2944,1.1601-5.2415-.1295-.7371-.4882-1.3195-.5387-1.9877-.4914s-1.8845.3681-2.0192.1428c-.1286-.2151,2.66-1.1214,3.9647-.2197,2.184,1.5095,4.864,1.0403,6.3796-1.1656.3536-.5146,1.0133-1.2108,1.095-1.9508.0924-.8373-.4239-1.6931-.5322-1.7119Z"/>
</svg>