<?xml version="1.0" encoding="UTF-8"?>
<svg id="Ebene_1" data-name="Ebene 1" xmlns="http://www.w3.org/2000/svg" viewBox="0 0 72.9782 123.696">
  <defs>
    <style>
      .cls-1 {
        fill: #ad9274;
        stroke-width: 0px;
      }
    </style>
  </defs>
  <path class="cls-1" d="m25.3828,48.3568c.1548-2.1479-.117-3.7889-.9181-5.3116-.3071-.5836-.2095-1.0102.1821-1.5162.3299-.4263.4959-.9773.7647-1.4561.0286-.0508.3639-.0244.3828.0284.3731,1.0435.7822,2.0802,1.0609,3.1503.7284,2.7971,1.6418,5.5037,3.3448,7.8868.2754.3853.4514.845.6506,1.2807.9476,2.0722,2.5357,3.451,4.645,4.2319.8177.3027,1.6773.4922,2.5182.7322.2279.065.4661.1038.6836.1934.6776.2793.8889,1.3069.3485,1.813-.2828.2649-.6433.4513-.981.6523-1.9878,1.1826-4.0144,2.3069-5.5655,4.0883-1.8542,2.1295-3.4167,4.4115-3.9146,7.2679-.0818.469-.1643.9409-.1979,1.4149-.2872,4.0483.3397,7.9424,1.9362,11.6849.3722.8725.6545,1.7951.858,2.7211.0688.3132-.1784.7433-.3805,1.0558-.2191.3389-.8235.387-1.0534.0972-.339-.4272-.8269-.8922-.8673-1.3734-.1872-2.2297-1.2061-4.1216-2.2653-5.9953-1.9206-3.3974-3.4638-6.9722-5.1226-10.496-1.0108-2.1472-2.0421-4.3306-3.7398-6.0882-.6205-.6424-1.2709-1.214-2.0916-1.5658-.5088-.2182-1.0022-.4009-1.6112-.2608-.5243.1206-1.1112.0749-1.6524-.0109-.6362-.1009-1.0593-.8468-.8563-1.4841.0864-.2713.3237-.5619.5721-.6958.2605-.1403.6182-.1486.9305-.1368,3.297.125,6.067-1.2995,8.5659-3.1826,2.4215-1.8248,3.426-4.5339,3.7648-7.4871.0633-.5519.009-1.1173.009-1.2384Zm10.444,10.4318c-.1816-.1119-.3566-.275-.5623-.3381-2.3422-.7194-4.0153-2.2226-5.1955-4.3384-.776-1.3911-1.5868-2.7631-2.4067-4.1289-.1024-.1706-.3555-.2507-.5388-.3728-.0513.1497-.1316.2959-.1496.4495-.2746,2.3423-1.1378,4.3908-2.5149,6.352-1.2512,1.7818-2.7514,3.0574-4.6943,3.9126-.718.3161-1.4193.6703-2.1281,1.0071.0211.9648,1.0304,1.088,1.4478,1.7027.671.9883,1.2958,2.0093,1.909,3.035.449.7511.8844,1.5148,1.2616,2.3036.6533,1.3664,1.255,2.7574,1.8821,4.1365.264.5805.6242,1.1333.7873,1.7399.2777,1.0328.8484,1.8853,1.4406,2.7368.0837.1203.2325.1953.3511.2913.0417-.1428.119-.2855.1197-.4285.0078-1.4372-.036-2.8758.0104-4.3115.0851-2.6298,1.0451-5.0213,2.5137-7.1161,1.269-1.8101,2.658-3.5951,4.5963-4.8211.6023-.381,1.1305-.8822,1.675-1.3488.101-.0865.1184-.2707.1957-.4628Z"/>
  <path class="cls-1" d="m39.0403,15.7579c.589.0331.7545-.072.696-.4959-.0649-.4702-.1484-.9409-.268-1.3998-.2338-.8968.1538-1.5443.7824-2.1136.2553-.2312.5558-.3777.8502-.155.2397.1813.4083.4599.5943.7061.0416.0551.0524.1643.0297.2328-.667,2.0086.1536,3.9154.3958,5.8612.0393.3159.0857.631.1208.9474.3863,3.4788,2.2821,5.8431,5.3892,7.3209.4273.2032.8779.3941,1.2428.6848.9517.758.8755,1.9638-.1307,2.5908-.8771.5466-1.7758,1.0595-2.6401,1.6253-1.4291.9356-2.0744,2.3558-2.405,3.9722-.3199,1.5641-.547,3.1269-.5344,4.7359.008,1.0237-.2867,2.0464-.331,3.0745-.1043,2.4204.6048,4.7177,1.1522,7.0397.1425.6042.1874,1.2497.1497,1.8685-.0141.2321-.3679.5838-.6082.6221-.2385.038-.5848-.1975-.7812-.4086-.2055-.2207-.3644-.5427-.4136-.8418-.4283-2.6023-1.3145-5.0766-2.0775-7.5856-.3244-1.0667-.6412-2.1357-.9531-3.2061-.3651-1.2534-1.0966-2.3051-1.9178-3.2765-.6904-.8167-1.6086-1.2985-2.7362-1.2406-.3978.0204-.8001.0567-1.1942.0196-.43-.0405-.7934-.3149-.812-.7373-.0159-.3618.0778-.8599.3204-1.0749.5308-.4704,1.1854-.8018,1.7922-1.1856,2.2642-1.4321,3.6508-3.5689,4.4578-6.0248.6182-1.881,1.0157-3.8698.2167-5.8547-.0871-.2162-.1215-.4728-.1084-.7067.0662-1.1783-.312-2.1904-1.0794-3.0728-.1037-.1192-.2225-.2524-.2586-.3979-.0914-.3683-.2897-.8059-.1714-1.1088.1957-.5009.7214-.5562,1.2303-.4146Zm2.5199,7.0639c-.059.1098-.163.2156-.168.326-.0719,1.5868.0516,3.185-.6558,4.7002-.7139,1.5292-1.5013,2.9981-2.6487,4.2489-.5399.5886-1.0981,1.1605-1.6376,1.7495-.2681.2927-.2259.6305.1113.7804,1.0902.4844,1.6956,1.4126,2.3143,2.3517.9287,1.4099,1.6192,2.9279,2.1649,4.52.0391.1142.2376.2205.373.2365.0736.0087.2457-.1802.2461-.2806.009-1.918.377-3.7975.5643-5.694.2012-2.0366.9817-3.6623,2.4401-5.0275.6416-.6006,1.274-1.2112,1.8986-1.8294.3506-.3471.304-.6673-.1327-.9768-.26-.1843-.5358-.3475-.8113-.5087-1.1212-.6562-1.9809-1.5631-2.6508-2.6727-.3701-.613-.8007-1.1896-1.2098-1.7786-.0411-.0593-.122-.0909-.198-.145Z"/>
  <path class="cls-1" d="m41.2797,97.3423c0-1.8127.0793-3.0958-.018-4.3652-.158-2.0597-.3904-4.1162-.6714-6.163-.1831-1.3338-.5126-2.6473-.7683-3.9714-.2808-1.4541-1.103-2.6443-1.9423-3.8001-.3004-.4137-.8914-.6169-1.3508-.9145-.6154-.3987-.7846-1.3341-.3323-1.8709.1018-.1208.2049-.2597.3389-.3314,2.1454-1.1485,2.9908-3.2163,3.779-5.3245.6978-1.8662,1.2963-3.755,1.6209-5.7334.2989-1.8216.5392-3.6165-.0906-5.4176-.1534-.4388.0778-.8456.4442-.9729.4456-.1548.7674.069,1.0632.3472.1129.1061.2048.246.271.3871.0665.1414.087.304.1315.4563.0318.1087.4976,4.0603.4928,4.1741-.1456,3.4109.789,6.4516,3.0976,9.0194.3199.3559.7138.6631.9624,1.0621.9135,1.4657,2.1453,2.0424,3.8606,1.6264.7073-.1715,1.2217.2182,1.4297.8872.1033.3321-.1.8998-.3834,1.0488-.1391.0731-.2826.1691-.4321.1866-2.3279.2731-3.6086,1.9226-4.6827,3.7171-.7733,1.2919-1.4377,2.6818-1.926,4.105-1.2143,3.5389-2.1986,7.1547-2.7973,10.8496-.3299,2.0362-.3786,4.1178-.5573,6.1787-.0479.5525-.0566,1.1155-.1785,1.652-.0909.4-.4094.684-.867.6777-.4594-.0063-.9394-.4988-.9336-.9227.0011-.0794-.0255-.1669-.0009-.2372.7869-2.2532.2541-4.5947.4408-6.3501Zm1.5015-6.1389c.1038-.054.2908-.0889.3176-.1743.622-1.9756,1.1896-3.969,1.8435-5.9338.9114-2.7386,1.9938-5.3935,4.1366-7.4589.3277-.3158.2713-.619-.1904-.9775-.8947-.6946-1.5946-1.5449-2.2107-2.4931-.4751-.7311-1.0312-1.4181-1.6135-2.069-.712-.7958-1.1952-1.6746-1.3996-2.7296-.1205-.6218-.3495-1.2229-.5383-1.8306-.0187-.0604-.0971-.1022-.1478-.1527-.0509.0617-.1226.1155-.1494.1863-.3379.8936-.7789,1.7658-.9805,2.6899-.4725,2.1654-1.4583,4.04-2.9044,5.6907-.4846.5531-.5804,1.0912-.1375,1.726.3644.5224.6516,1.098.9935,1.6371.6447,1.0165,1.0658,2.1128,1.3503,3.2846.5841,2.4057,1.0555,4.8235,1.1735,7.3035.0183.3837.1638.7626.2657,1.1396.0163.0601.1133.0984.1916.1618Z"/>
  <path class="cls-1" d="m50.8544,42.9933c.0516-.5526.1039-1.2606.1976-1.9631.0144-.1078.2085-.2408.3399-.27.1336-.0296.3284.0106.4345.0966.5962.4837.9213,1.2002.8805,1.8907-.1197,2.023,1.1766,3.4173,2.0423,5.0007.4125.7544,1.2025.9733,1.9934,1.1779.7588.1962,1.2581.7284,1.3109,1.5231.0239.3598-.063.924-.3014,1.0731-1.9667,1.2299-2.3966,3.293-2.9298,5.2797-.4769,1.777-.6304,3.6027-.4853,5.4475.031.3944.0087.7976-.0347,1.1917-.0358.3243-.184.6815-.5653.6148-.2718-.0476-.5458-.278-.7424-.4958-.1465-.1623-.2065-.4292-.2439-.6594-.3052-1.8781-.6453-3.7526-.8709-5.6406-.1185-.9921-.5312-1.8384-1.0069-2.6569-.6058-1.0423-1.3098-2.0201-2.7247-2.031-.2176-.0017-.4443-.1579-.6488-.2744-.5947-.3388-.662-1.4847-.1026-1.8582.194-.1295.4468-.1672.654-.281,2.3063-1.2665,2.882-3.4344,2.9932-5.8252.0181-.3888-.1065-.7843-.1895-1.3404Zm4.735,8.1057c-.1124-.1786-.2295-.4825-.4433-.6837-.8712-.82-1.7051-1.6586-2.2728-2.7352-.1805-.3424-.4845-.6197-.732-.9268-.2279.3844-.463.7648-.6821,1.1542-.3482.6187-.6522,1.2653-1.038,1.8591-.3574.5501-.2953,1.0194.0594,1.5247,1.1004,1.5677,2.1153,3.1787,2.4511,5.1148.0125.072.0683.1417.118.2005.0463.0548.1287.1435.165.1309.1333-.0466.3396-.1052.3666-.2017.4671-1.6729.7918-3.3962,1.8353-4.8531.0863-.1205.0918-.2989.1726-.5837Z"/>
  <path class="cls-1" d="m27.1829,100.1599c.2623.1429.6635.2647.9195.5277.2656.2729.4032.6765.574,1.0338.2071.433.0209.7743-.3228,1.031-1.1728.8755-2.3584.5653-3.1323-.8418-.0912-.1657-.0664-.4963.0434-.6535.429-.6145,1.0775-.906,1.9182-1.0971Z"/>
  <path class="cls-1" d="m57.662,89.0197c-.6755.0471-1.4642-.9777-1.4642-1.9024,0-.7585.5779-1.3153,1.3879-1.3375.925-.0253,1.6982.7811,1.7979,1.8749.0552.606-.823,1.3023-1.7217,1.365Z"/>
  <path class="cls-1" d="m61.0812,35.7773c1.3704-.0089,2.0393.8727,1.721,2.0463-.2255.8313-1.189,1.1862-1.8707.6567-.3683-.2861-.7006-.6291-1.0054-.984-.4806-.5595-.2867-1.2492.414-1.5167.2883-.11.5979-.1643.741-.2023Z"/>
  <path class="cls-1" d="m47.4224,2.9816c-.1491-.0375-.3272-.0361-.4414-.1208-.2525-.187-.4899-.4017-.7034-.6328-.7207-.78-.6684-1.3122.157-1.9657.34-.2692.6893-.3402,1.0975-.1712.4469.185.8326.4044,1.0742.8694.5817,1.1196-.1188,1.8127-1.1838,2.0211Z"/>
  <path class="cls-1" d="m14.2871,44.4291c.0731.577-.5922,1.2992-1.3504,1.466-.6945.1528-1.3821-.4175-1.4653-1.2155-.075-.719.4644-1.3461,1.2718-1.4784.5926-.0971,1.4639.5958,1.5439,1.2279Z"/>
  <path class="cls-1" d="m44.9295,111.4209c.6745.0045,1.2338.5419,1.2298,1.1817-.0051.8246-.5654,1.4629-1.2518,1.4259-.7165-.0385-1.2644-.6774-1.249-1.4564.0121-.6115.6129-1.1556,1.271-1.1513Z"/>
  <path class="cls-1" d="m69.6259,26.1194c-.0896.1081-.2328.426-.4728.5404-.5241.2498-1.0674.163-1.5229-.2231-.4686-.3972-.6042-.9444-.3775-1.4753.1349-.316.4755-.5893.7877-.7733.3862-.2276.7372.0011,1.0314.2874.4126.4016.6399.8744.5542,1.6439Z"/>
  <path class="cls-1" d="m25.9617,31.1303c-.6071.0046-1.0781-.0194-1.3358-.5214-.1991-.3878-.1144-1.0056.1705-1.3201.3704-.409.9172-.523,1.4888-.2879.2135.0878.4739.1732.5965.3435.1714.2381.3196.554.3223.838.004.4138-.2823.7206-.6779.859-.2159.0755-.4588.0738-.5643.089Z"/>
  <path class="cls-1" d="m52.3982,16.2689c-.0742.1694-.1865.5404-.3875.8545-.2235.3493-.7584.4606-1.0342.2121-.3404-.3068-.6756-.6518-.9003-1.0448-.2023-.3539-.0859-.7624.2038-1.0808.2917-.3205.6388-.4237,1.0552-.2662.5316.201,1.0174.4411,1.063,1.3252Z"/>
  <path class="cls-1" d="m36.5392,1.7252c.0504.7129-.4791,1.4322-1.0045,1.3643-.5514-.0712-1.1727-.6832-1.2788-1.2598-.0806-.4377.492-.9599,1.121-1.0224.6152-.0612,1.1212.3385,1.1623.9179Z"/>
  <path class="cls-1" d="m11.5626,74.2274c.0345.6524-.345,1.0548-.9794,1.0383-.5394-.014-.9296-.3807-.9185-.8631.0138-.5983.4402-1.045,1.0262-1.0752.4873-.0251.8421.3412.8717.9Z"/>
  <path class="cls-1" d="m49.3132,123.696c-.1544-.0228-.3245-.0119-.4602-.0751-.3645-.1697-.6857-.4022-.6962-.8583-.01-.4354.42-.8699.9009-.9368.5336-.0742,1.0007.3355,1.1153.9784.0802.4499-.3493.8953-.8597.8918Z"/>
  <path class="cls-1" d="m27.5651,19.1122c-.5179.0477-1.0362-.2952-1.0871-.7192-.0686-.571.4193-1.1959.9182-1.1762.4441.0175.8589.4111.9596.9104.0962.477-.2734.9373-.7908.9849Z"/>
  <path class="cls-1" d="m72.1108,57.7902c-.4112.0618-.8569-.3143-.9752-.8231-.1096-.4711.2289-.9514.7143-1.0138.5966-.0766,1.125.3413,1.1284.8925.0027.4484-.3864.8721-.8674.9444Z"/>
  <path class="cls-1" d="m4.0839,59.0342c.0343-.5051.5076-.9988.8965-.9352.4652.076.8539.5363.8495,1.006-.0054.5764-.5875,1.1615-1.049,1.0545-.3747-.0868-.7287-.6583-.697-1.1253Z"/>
  <path class="cls-1" d="m20.3342,93.4415c-.4578.015-.9032-.3863-.9514-.8573-.0547-.5332.4449-1.0561,1.0123-1.0595.3629-.0022.7315.3462.7778.735.0755.6343-.3005,1.1641-.8387,1.1817Z"/>
  <path class="cls-1" d="m54.2171,28.8659c.0603.5682-.3777,1.0782-.9275,1.0798-.3362.001-.7856-.3597-.841-.6749-.0851-.4843.3945-1.0094.9747-1.0672.3727-.0372.7532.2803.7937.6624Z"/>
  <path class="cls-1" d="m16.2123,31.2339c.0639.6515-.4743,1.1943-1.0497,1.2395-.3412.0268-.7577-.3882-.7587-.756-.0017-.5868.5187-1.1904,1.0118-1.0565.3291.0894.5929.4187.7966.573Z"/>
  <path class="cls-1" d="m67.4621,90.1213c.5726-.0103,1.1196.483,1.1014.9933-.0157.4408-.5472.8965-.9674.8293-.426-.0681-.7609-.4875-.8143-1.0196-.0388-.3871.3078-.7963.6803-.803Z"/>
  <path class="cls-1" d="m56.2173,99.336c.448.032.9083.5579.823.9402-.1099.4927-.8856,1.2332-1.0809,1.0304-.3006-.3121-.525-.7394-.6595-1.1571-.1177-.3655.4774-.8449.9175-.8135Z"/>
  <path class="cls-1" d="m70.1609,44.5737c-.0258.5408-.4101.9446-.8555.8007-.2401-.0776-.535-.3505-.584-.5821-.1178-.5559.4004-1.1318.8754-1.0872.329.0309.5853.4255.5642.8686Z"/>
  <path class="cls-1" d="m62.0134,64.6709c-.6086.043-.9923-.2831-1.0296-.6759-.047-.4942.3826-1.0569.7676-1.0055.4121.0549,1.0069.6449.8739.9792-.1263.3178-.4705.549-.6119.7022Z"/>
  <path class="cls-1" d="m59.499,74.4801c.1962.2317.5604.5225.7286.9005.1606.3609-.4014.8306-.8969.8275-.3622-.0023-.7491-.3547-.7886-.7183-.0484-.4462.3787-1.0134.9568-1.0096Z"/>
  <path class="cls-1" d="m29.856,39.0046c-.0312.5113-.4674.9738-.8464.8975-.4016-.0808-.6998-.5888-.6405-1.0913.0445-.3768.418-.7926.717-.7982.3859-.0072.7985.5244.7699.9921Z"/>
  <path class="cls-1" d="m35.8143,95.9962c.5501-.0361.9744.2914,1.0446.6501.0641.3276-.3216.6651-.7732.6765-.5106.013-.9627-.2745-.8383-.5744.1318-.3178.4228-.5696.5668-.7522Z"/>
  <path class="cls-1" d="m1.4361,55.3574c-.1488.1464-.353.4662-.6432.6009-.3202.1487-.7348-.2317-.7871-.6205-.0509-.3786.2363-.7366.6374-.7945.402-.0581.762.2258.7928.8141Z"/>
  <path class="cls-1" d="m28.3156,117.3061c-.0904.1078-.2274.3884-.4507.5084-.288.1547-.8689-.3101-.7618-.6135.0875-.2477.3527-.533.595-.6003.3052-.0847.5664.1477.6175.7054Z"/>
</svg>