<?xml version="1.0" encoding="UTF-8"?>
<svg id="Ebene_1" data-name="Ebene 1" xmlns="http://www.w3.org/2000/svg" viewBox="0 0 72.9782 123.696">
  <defs>
    <style>
      .cls-1 {
        fill: #62594f;
        stroke-width: 0px;
      }
    </style>
  </defs>
  <path class="cls-1" d="m27.1829,100.1599c.2623.1429.6635.2647.9195.5277.2656.2729.4032.6765.574,1.0338.2071.433.0209.7743-.3228,1.031-1.1728.8755-2.3584.5653-3.1323-.8418-.0912-.1657-.0664-.4963.0434-.6535.429-.6145,1.0775-.906,1.9182-1.0971Z"/>
  <path class="cls-1" d="m57.662,89.0197c-.6755.0471-1.4642-.9777-1.4642-1.9024,0-.7585.5779-1.3153,1.3879-1.3375.925-.0253,1.6982.7811,1.7979,1.8749.0552.606-.823,1.3023-1.7217,1.365Z"/>
  <path class="cls-1" d="m61.0812,35.7773c1.3704-.0089,2.0393.8727,1.721,2.0463-.2255.8313-1.189,1.1862-1.8707.6567-.3683-.2861-.7006-.6291-1.0054-.984-.4806-.5595-.2867-1.2492.414-1.5167.2883-.11.5979-.1643.741-.2023Z"/>
  <path class="cls-1" d="m47.4224,2.9816c-.1491-.0375-.3272-.0361-.4414-.1208-.2525-.187-.4899-.4017-.7034-.6328-.7207-.78-.6684-1.3122.157-1.9657.34-.2692.6893-.3402,1.0975-.1712.4469.185.8326.4044,1.0742.8694.5817,1.1196-.1188,1.8127-1.1838,2.0211Z"/>
  <path class="cls-1" d="m14.2871,44.4291c.0731.577-.5922,1.2992-1.3504,1.466-.6945.1528-1.3821-.4175-1.4653-1.2155-.075-.719.4644-1.3461,1.2718-1.4784.5926-.0971,1.4639.5958,1.5439,1.2279Z"/>
  <path class="cls-1" d="m44.9295,111.4209c.6745.0045,1.2338.5419,1.2298,1.1817-.0051.8246-.5654,1.4629-1.2518,1.4259-.7165-.0385-1.2644-.6774-1.249-1.4564.0121-.6115.6129-1.1556,1.271-1.1513Z"/>
  <path class="cls-1" d="m69.6259,26.1194c-.0896.1081-.2328.426-.4728.5404-.5241.2498-1.0674.163-1.5229-.2231-.4686-.3972-.6042-.9444-.3775-1.4753.1349-.316.4755-.5893.7877-.7733.3862-.2276.7372.0011,1.0314.2874.4126.4016.6399.8744.5542,1.6439Z"/>
  <path class="cls-1" d="m25.9617,31.1303c-.6071.0046-1.0781-.0194-1.3358-.5214-.1991-.3878-.1144-1.0056.1705-1.3201.3704-.409.9172-.523,1.4888-.2879.2135.0878.4739.1732.5965.3435.1714.2381.3196.554.3223.838.004.4138-.2823.7206-.6779.859-.2159.0755-.4588.0738-.5643.089Z"/>
  <path class="cls-1" d="m52.3982,16.2689c-.0742.1694-.1865.5404-.3875.8545-.2235.3493-.7584.4606-1.0342.2121-.3404-.3068-.6756-.6518-.9003-1.0448-.2023-.3539-.0859-.7624.2038-1.0808.2917-.3205.6388-.4237,1.0552-.2662.5316.201,1.0174.4411,1.063,1.3252Z"/>
  <path class="cls-1" d="m36.5392,1.7252c.0504.7129-.4791,1.4322-1.0045,1.3643-.5514-.0712-1.1727-.6832-1.2788-1.2598-.0806-.4377.492-.9599,1.121-1.0224.6152-.0612,1.1212.3385,1.1623.9179Z"/>
  <path class="cls-1" d="m11.5626,74.2274c.0345.6524-.345,1.0548-.9794,1.0383-.5394-.014-.9296-.3807-.9185-.8631.0138-.5983.4402-1.045,1.0262-1.0752.4873-.0251.8421.3412.8717.9Z"/>
  <path class="cls-1" d="m49.3132,123.696c-.1544-.0228-.3245-.0119-.4602-.0751-.3645-.1697-.6857-.4022-.6962-.8583-.01-.4354.42-.8699.9009-.9368.5336-.0742,1.0007.3355,1.1153.9784.0802.4499-.3493.8953-.8597.8918Z"/>
  <path class="cls-1" d="m27.5651,19.1122c-.5179.0477-1.0362-.2952-1.0871-.7192-.0686-.571.4193-1.1959.9182-1.1762.4441.0175.8589.4111.9596.9104.0962.477-.2734.9373-.7908.9849Z"/>
  <path class="cls-1" d="m72.1108,57.7902c-.4112.0618-.8569-.3143-.9752-.8231-.1096-.4711.2289-.9514.7143-1.0138.5966-.0766,1.125.3413,1.1284.8925.0027.4484-.3864.8721-.8674.9444Z"/>
  <path class="cls-1" d="m4.0839,59.0342c.0343-.5051.5076-.9988.8965-.9352.4652.076.8539.5363.8495,1.006-.0054.5764-.5875,1.1615-1.049,1.0545-.3747-.0868-.7287-.6583-.697-1.1253Z"/>
  <path class="cls-1" d="m20.3342,93.4415c-.4578.015-.9032-.3863-.9514-.8573-.0547-.5332.4449-1.0561,1.0123-1.0595.3629-.0022.7315.3462.7778.735.0755.6343-.3005,1.1641-.8387,1.1817Z"/>
  <path class="cls-1" d="m54.2171,28.8659c.0603.5682-.3777,1.0782-.9275,1.0798-.3362.001-.7856-.3597-.841-.6749-.0851-.4843.3945-1.0094.9747-1.0672.3727-.0372.7532.2803.7937.6624Z"/>
  <path class="cls-1" d="m16.2123,31.2339c.0639.6515-.4743,1.1943-1.0497,1.2395-.3412.0268-.7577-.3882-.7587-.756-.0017-.5868.5187-1.1904,1.0118-1.0565.3291.0894.5929.4187.7966.573Z"/>
  <path class="cls-1" d="m67.4621,90.1213c.5726-.0103,1.1196.483,1.1014.9933-.0157.4408-.5472.8965-.9674.8293-.426-.0681-.7609-.4875-.8143-1.0196-.0388-.3871.3078-.7963.6803-.803Z"/>
  <path class="cls-1" d="m56.2173,99.336c.448.032.9083.5579.823.9402-.1099.4927-.8856,1.2332-1.0809,1.0304-.3006-.3121-.525-.7394-.6595-1.1571-.1177-.3655.4774-.8449.9175-.8135Z"/>
  <path class="cls-1" d="m70.1609,44.5737c-.0258.5408-.4101.9446-.8555.8007-.2401-.0776-.535-.3505-.584-.5821-.1178-.5559.4004-1.1318.8754-1.0872.329.0309.5853.4255.5642.8686Z"/>
  <path class="cls-1" d="m62.0134,64.6709c-.6086.043-.9923-.2831-1.0296-.6759-.047-.4942.3826-1.0569.7676-1.0055.4121.0549,1.0069.6449.8739.9792-.1263.3178-.4705.549-.6119.7022Z"/>
  <path class="cls-1" d="m59.499,74.4801c.1962.2317.5604.5225.7286.9005.1606.3609-.4014.8306-.8969.8275-.3622-.0023-.7491-.3547-.7886-.7183-.0484-.4462.3787-1.0134.9568-1.0096Z"/>
  <path class="cls-1" d="m29.856,39.0046c-.0312.5113-.4674.9738-.8464.8975-.4016-.0808-.6998-.5888-.6405-1.0913.0445-.3768.418-.7926.717-.7982.3859-.0072.7985.5244.7699.9921Z"/>
  <path class="cls-1" d="m35.8143,95.9962c.5501-.0361.9744.2914,1.0446.6501.0641.3276-.3216.6651-.7732.6765-.5106.013-.9627-.2745-.8383-.5744.1318-.3178.4228-.5696.5668-.7522Z"/>
  <path class="cls-1" d="m1.4361,55.3574c-.1488.1464-.353.4662-.6432.6009-.3202.1487-.7348-.2317-.7871-.6205-.0509-.3786.2363-.7366.6374-.7945.402-.0581.762.2258.7928.8141Z"/>
  <path class="cls-1" d="m28.3156,117.3061c-.0904.1078-.2274.3884-.4507.5084-.288.1547-.8689-.3101-.7618-.6135.0875-.2477.3527-.533.595-.6003.3052-.0847.5664.1477.6175.7054Z"/>
  <path class="cls-1" d="m31.5409,35.6241c0,1.0053,4.9883,2.1535,8.08,6.0954,2.8351,3.6147,3.8444,10.2772,4.607,10.2772s.5326-10.3295,2.1182-13.5772c1.78-3.6459,8.159-9.0618,8.159-10.0957s-6.0954-1.4175-8.2217-3.4021-5.7196-12.8996-6.308-12.8996,0,10.2063-1.8428,14.6007c-1.8428,4.3944-6.5916,7.996-6.5916,9.0014Z"/>
  <path class="cls-1" d="m47.6073,54.5927c0,.5027,2.4941,1.0767,4.04,3.0477,1.4175,1.8074,1.9222,5.1386,2.3035,5.1386s.2663-5.1648,1.0591-6.7886c.89-1.823,4.0795-4.5309,4.0795-5.0479s-3.0477-.7088-4.1109-1.701-2.8598-6.4498-3.154-6.4498,0,5.1031-.9214,7.3003-3.2958,3.998-3.2958,4.5007Z"/>
  <path class="cls-1" d="m34.3799,81.9679c-.0239.8131,3.9834,1.8601,6.3905,5.1217,2.2073,2.9909,2.8655,8.4034,3.4823,8.4215s.6758-8.3419,2.0353-10.931c1.5262-2.9066,6.814-7.1357,6.8385-7.9719s-4.8964-1.2911-6.569-2.9467-4.32-10.5689-4.7959-10.5829-.2421,8.2549-1.8369,11.7653c-1.5947,3.5105-5.521,6.3108-5.5448,7.1239Z"/>
  <path class="cls-1" d="m15.2982,64.7699c-.0227,1.0051,4.9383,2.2658,7.94,6.2766,2.7526,3.6779,3.6109,10.3615,4.3733,10.3787s.7662-10.3148,2.4248-13.5258c1.8621-3.6047,8.3619-8.875,8.3853-9.9086s-6.0618-1.5551-8.1427-3.5872c-2.0809-2.0321-5.4263-13.0257-6.0146-13.039s-.2309,10.2037-2.1726,14.5552c-1.9417,4.3516-6.7708,7.8449-6.7935,8.85Z"/>
</svg>