<?xml version="1.0" encoding="UTF-8"?>
<svg id="Ebene_1" data-name="Ebene 1" xmlns="http://www.w3.org/2000/svg" viewBox="0 0 73.9055 37.9752">
  <defs>
    <style>
      .cls-1 {
        fill: #62594f;
        stroke-width: 0px;
      }
    </style>
  </defs>
  <path class="cls-1" d="m34.424,29.7913c-.0794-1.87.3488-3.6436.966-5.393.6108-1.7317,1.1705-3.4815,1.7403-5.2275.1067-.3268.049-.6947-.3137-.776-.271-.0608-.6282.0193-.8752.1614-.264.1518-.4478.4465-.6599.6848-1.5986,1.7961-3.6173,2.5525-5.9935,2.4274-.3194-.0168-.6396-.0225-.9582-.0487-1.7781-.1462-1.8015-.1485-1.8584,1.6801-.0744,2.3955-.043,4.7976-.5804,7.1544-.2302,1.0097-.4407,2.0253-.7129,3.0238-.2843,1.043-.9799,1.8148-1.8029,2.4803-.4744.3836-.9846.4797-1.564.2378-1.6961-.708-2.51-2.5546-1.8862-4.3523.0413-.1191.2383-.2479.3671-.2525.1015-.0036.2599.1579.3064.2793.2285.5958.4,1.215.6543,1.7986.0813.1865.3659.4155.5387.4011.2821-.0236.6977-.1625.7949-.3736.3303-.7166.6545-1.4678.7838-2.2389.3294-1.9648.6559-3.9304.6432-5.943-.008-1.269.2083-2.5389.3128-3.8093.1226-1.4906-.4313-2.0689-1.9406-1.9419-1.643.1383-2.7778,1.0823-3.6171,2.4393-.1236.1999-.2229.4258-.3868.5846-.073.0708-.282.022-.4221-.0069-.0606-.0125-.1418-.109-.1471-.1728-.0192-.2329-.0719-.4885-.002-.6991.4857-1.4652,1.6652-2.2807,2.8783-3.0897.9476-.6319,1.9331-.7012,2.9786-.4286.5062.132.7701-.0738.8538-.5325.143-.7839.2587-1.5732.3684-2.3627.1866-1.3436.2652-2.7109.5694-4.0266.2306-.9973.736-1.932,1.1294-2.8903.2851-.6944.2519-1.1304-.2844-1.4687-1.6851-1.0628-3.2617-2.2815-5.0935-3.1337-2.9201-1.3584-7.0478-.2157-9.0709,1.9172-1.9947,2.103-.9864,4.6104.7058,5.8022.2995.211.7423.2874,1.1234.3009,1.1997.0424,2.1398-.559,2.9766-1.3434.5873-.5505,1.173-1.0983,1.9912-1.2735.1338-.0287.3638.016.4262.1092.1208.1803.1636.4169.2176.6354.0166.067-.0159.1655-.0593.2252-1.427,1.9596-3.1516,3.3915-5.7658,3.2512-1.0179-.0546-1.8637-.42-2.4307-1.3028-.3877-.6038-.7596-1.2176-1.1437-1.8237-.8678-1.3695-.7061-2.7342.0191-4.0935.8125-1.523,1.9326-2.7629,3.5283-3.4603,3.3325-1.4565,6.6319-1.6651,9.8248.4309,1.0684.7013,2.1724,1.3486,3.2369,2.0555,1.6209,1.0763,3.3808,1.8236,5.2913,2.1416.9347.1556,1.9246.2281,2.8571.1007,2.4547-.3352,4.3699-1.4721,5.1932-3.9859.0957-.2924.2241-.5789.3814-.8418.0291-.0486.298-.0119.4059.0605.1198.0804.2579.2471.2574.3757-.0063,1.4648-.1986,2.9481-1.3809,3.9186-2.5272,2.0745-5.3697,3.1174-8.6785,2.1022-.4578-.1405-.9265-.2453-1.3843-.3857-.4366-.1339-.7333-.0032-1.0291.3502-.8674,1.0366-1.139,2.3101-1.2495,3.5628-.1469,1.6673-.1163,3.3474-.4903,4.9967-.0857.3781-.0686.8131.0301,1.188.0677.2569.319.5862.5561.6575,1.2256.3685,2.4777.7054,3.7659.3578.3551-.0958.6609-.3747.9893-.5695-.2084-.2273-.3967-.4783-.6295-.6768-.4037-.3441-.5894-.7763-.4747-1.2751.2634-1.1462.8705-2.0523,1.9843-2.5421,1.0302-.453,1.8626-.3075,2.5246.6494.4338.627.8853,1.0059,1.6212,1.2615,1.1372.395,1.5947,1.2495,1.4272,2.4616-.108.7813-.4077,1.5373-.635,2.3006-.615,2.0652-1.3441,4.1043-1.8159,6.2014-.2745,1.22-.1488,2.5316-.1792,3.8025-.0028.1188.1623.339.2564.3428.2081.0085.5064-.0204.6184-.1569,1.1871-1.4458,1.8062-3.1767,2.372-4.9241.3197-.9873.5546-2.0019.8627-2.9933.3786-1.2177.7748-2.417,1.4683-3.5231.4546-.7249.6402-1.6169.9585-2.4292.5956-1.52,1.8613-2.3149,3.3583-2.1362.5977.0713,1.0629.3587,1.3781.8514.3933.6146.6146,1.2883.6203,2.0351.0103,1.3359-.3898,1.9176-1.6664,2.248-.4607.1193-.9477.1329-1.4179.2206-.589.1099-1.0677.6182-.9859,1.1519.1076.7015.2535,1.4126.5073,2.0717.248.6441,1.1805.7788,1.594.2307.6336-.8398,1.3513-1.5511,2.2493-2.1071.9719-.6017,1.9644-1.1011,3.1433-.9393.7983.1096,1.0992-.2953,1.4-.9651.3888-.8658.9343-1.6677,1.4705-2.4576.2141-.3154.5469-.5956.8878-.7718,1.5832-.8188,3.5776.4313,3.7738,2.338.1706,1.6578-.7949,3.207-2.3557,3.7706-.1492.0539-.3114.0706-.4654.1128-.5275.1444-1.1761.1498-1.5526.4721-.5817.498-.3984,1.3322-.4272,2.0368-.0497,1.2168.1901,2.3907.7137,3.4895.4884,1.0251,1.3745,1.3654,2.3785.8278.8351-.4472,1.5866-1.0501,2.377-1.5813.3381-.2272.4798-1.1027,1.0131-.5725.335.3332-.2335.8539-.5554,1.1744-.903.8991-1.8138,1.7956-2.7814,2.6231-.9092.7776-1.9208.662-2.8836.0601-1.5871-.9923-2.5673-2.3987-2.6758-4.2967-.0683-1.1944-.0132-2.3959-.014-3.5942-.0005-.8595-.3018-1.1549-1.109-1.1951-1.1385-.0567-2.0444.3632-2.6686,1.298-.4418.6617-.7796,1.3919-1.1926,2.0741-.5868.9692-1.4742,1.1992-2.4586.6562-1.2521-.6907-2.0315-1.764-2.4938-3.0954-.0495-.1425-.1705-.2602-.2584-.3894-.0978.1604-.2336.3089-.2878.4829-.6161,1.979-.8396,4.0745-1.7622,5.9623-.49,1.0025-.9914,1.9996-1.5006,2.9924-.1082.211-.2588.4048-.4131.5868-.8948,1.0551-2.3629.8152-2.8775-.4954-.1717-.4373-.2539-.9251-.2897-1.3965-.0482-.6358-.0119-1.278-.0119-1.9174Zm20.9071-7.7523c1.7337-.0139,2.6178-1.4374,1.898-2.773-.1948-.3614-.699-.4688-1.0154-.2395-.8279.6003-1.1278,1.4916-1.2801,2.4294-.0313.1922.2957.4426.3975.5831Zm-10.9595-3.1937c.0905.116.1785.3294.2718.3316.458.0111.9423.043,1.3649-.0942.1871-.0607.339-.5003.349-.7736.0154-.4211-.2616-.7425-.686-.8277-.602-.1208-1.3541.6904-1.2996,1.3638Zm-9.9266-2.1952c-.2966-.0939-.492-.2125-.681-.2031-.3383.017-.5954.432-.3954.5804.1489.1106.4148.1622.5899.1101.1649-.0491.2792-.2683.4864-.4874Z"/>
  <path class="cls-1" d="m6.9372,22.5664c-.0018.6664-.5816,1.2845-1.1397,1.215-.6624-.0825-1.2548-.7788-1.2473-1.4662.0055-.5133.5044-.8801,1.1712-.8611.7668.0219,1.2176.4343,1.2158,1.1122Z"/>
  <path class="cls-1" d="m70.5516,21.123c.0049.4822-.3962.9284-.8692.967-.636.0519-1.2853-.5303-1.272-1.1405.0119-.5457.5496-1.1494,1.0195-1.1447.5852.0058,1.1147.628,1.1218,1.3181Z"/>
</svg>