<?xml version="1.0" encoding="UTF-8"?>
<svg id="Ebene_1" data-name="Ebene 1" xmlns="http://www.w3.org/2000/svg" viewBox="0 0 146.0584 54.918">
  <defs>
    <style>
      .cls-1 {
        fill: #ad9274;
      }

      .cls-1, .cls-2 {
        stroke-width: 0px;
      }

      .cls-2 {
        fill: #fff;
      }
    </style>
  </defs>
  <path class="cls-1" d="m109.2231,27.1556c0,1.839.0038,3.6779-.0015,5.5169-.0029,1.0099.1123,1.1873.9749,1.2734,1.5092.1506,3.0315.4665,4.5285.378,2.6807-.1585,5.1509-1.0648,7.2438-2.8263,1.5862-1.3349,3.2373-2.6093,4.214-4.5185.1017-.1987.3291-.3385.5143-.4852.0442-.0351.1801-.0169.2272.0268.1038.0964.2709.2458.2503.3369-.3233,1.426-.993,2.685-1.9256,3.8032-.6137.7359-1.2221,1.4798-1.8834,2.1717-.777.8129-1.7168,1.3661-2.7682,1.8163-2.865,1.2269-5.8277,1.6443-8.9054,1.3376-2.5288-.252-2.7989-.1233-3.0983,2.3318-.0962.7889-.3156,1.5753-.3103,2.3617.0134,1.9713-.6282,3.7708-1.3352,5.5525-.1992.5021-.5409.992-.9336,1.365-1.5115,1.4355-3.004,1.3913-4.352-.1957-1.8416-2.1682-2.2695-4.2693-.8045-6.8035,1.2289-2.1257,2.7391-3.9406,4.8094-5.2264,1.0953-.6802,1.4733-1.5655,1.487-2.7826.0216-1.9227-.0758-3.83-.4216-5.7221-.0613-.3351-.454-.4772-.7481-.2615-.3854.2827-.7442.6021-1.1315.8821-.4499.3253-.8887.6863-1.3837.9252-2.0705.9993-3.3657.3496-3.8787-1.9084-.0352-.1548-.045-.3173-.0502-.4767-.0351-1.0756-.3295-1.0381-1.1591-.8628-.9326.197-1.8893.2865-2.8386.3958-.9322.1073-1.612.5031-2.1039,1.3562-.4319.749-.9904,1.4499-1.6002,2.0658-1.0133,1.0233-2.3073,1.0068-3.5899.6682-.7569-.1999-1.1074-.9003-1.3971-1.553-.7599-1.7118.3522-3.6864,2.191-3.9272.7906-.1035,1.5887-.149,2.3817-.2361.4264-.0468.7944-.2375.8312-.7059.1381-1.7558.2321-3.5131-.3766-5.2164-.203-.5679-.5949-.7392-1.1225-.4335-2.473,1.4325-4.4598,3.3459-5.7616,5.92-1.0555,2.0869-1.6212,4.3374-2.0687,6.6074-.323,1.6388-.3886,3.3271-.681,4.9734-.3762,2.118-.8213,4.2265-1.324,6.3181-.228.9489-1.1889,1.0724-1.8321.3262-.4495-.5215-.576-1.0973-.4582-1.7795.5017-2.9082.9946-5.8183,1.4527-8.7336.2846-1.8106.5105-3.6307.7328-5.4502.0206-.1683-.1508-.3866-.2871-.5304-.0382-.0404-.2935.0726-.4082.1658-.6185.5029-1.2291,1.0157-1.8329,1.5363-1.0569.9113-2.3036,1.4783-3.647,1.7067-.9927.1688-1.552.6339-1.9449,1.5169-.2561.5754-.6779,1.0813-1.0548,1.5969-.1861.2547-.405.514-.6671.679-.6872.4326-1.4255.8179-2.232.3124-.8597-.5388-1.4873-1.2827-1.3089-2.366.115-.6982.3306-1.4136.6641-2.0338.4573-.8504,1.3432-1.0265,2.2479-1.152.7139-.099.9766-.7117.7233-1.4362-.2358-.6745-.885-.9854-1.5321-.7248-.9915.3993-1.7977,1.0493-2.4038,1.918-1.0139,1.4532-1.79,3.0095-2.1464,4.7752-.5368,2.6596-1.148,5.3043-1.7306,7.9546-.1025.4665-.1803.9439-.3414,1.3903-.1433.3973-.4788.6277-.9225.6385-.5534.0134-1.2057-.4321-1.2085-.9516-.0039-.7064.063-1.4304.2246-2.1174.5119-2.1752,1.0935-4.334,1.6259-6.5045.399-1.627.7652-3.2622,1.1424-4.8945.084-.3635.3246-.8075-.0953-1.0369-.1437-.0785-.5267.2704-.795.4327-.6143.3717-1.1941.8193-1.8448,1.1077-1.106.4902-2.247.8673-3.4478.1963-.5788-.3234-1.0469-.0322-1.5142.348-.8007.6513-1.6121,1.299-2.4762,1.8601-.8973.5826-1.8645.3272-2.7547-.0638-.6287-.2761-.8209-.9474-1.0564-1.5424-.0881-.2226-.1454-.4572-.2291-.6817-.0267-.0717-.0933-.1285-.1416-.1922-.1085.0941-.2774.1682-.3162.2854-.4755,1.4361-.9656,2.8688-1.3855,4.3217-.6425,2.223-1.2206,4.4647-1.8505,6.6915-.4245,1.5007-1.3237,2.7337-2.3882,3.8285-1.2526,1.2884-2.6495,1.2662-3.9959.0065-1.8789-1.7579-2.5268-4.0388-2.4704-6.4936.0456-1.9871.0279-3.9914.4819-5.9626.1754-.7616.0858-1.5899.0713-2.387-.007-.383-.2879-.5445-.6579-.4631-.2321.0511-.457.1456-.6766.2403-1.6208.6995-3.3379,1.0663-5.0452,1.4671-.3109.073-.6324.1092-.9356.2047-1.8639.5871-2.0651.8882-2.1743,2.8639-.1453,2.6293-.3426,5.2557-.4883,7.885-.0919,1.6574-1.014,2.8139-2.214,3.8048-.5828.4812-1.1327.4721-1.7597.0418-1.9429-1.3334-2.8795-3.2115-2.7299-5.5344.0761-1.1817.407-2.3562.7062-3.5124.4993-1.9293,1.6846-3.4467,3.1857-4.681.9535-.784,1.2821-1.708,1.4019-2.8893.3294-3.249.4052-6.5305,1.2453-9.7214.2826-1.0733.3588-2.2061.4685-3.3178.067-.6794.3717-1.3872-.087-2.0507-.5062.3694-1.0168.733-1.5178,1.1094-1.4593,1.0962-3.1398,1.611-4.9239,1.6093-1.9127-.0018-3.8214-.1591-5.6675-.8037-.9731-.3398-2.0093-.5188-3.0295-.7004-3.5106-.6249-4.9136,1.904-4.3291,4.7472.2641,1.2848.9057,2.3845,1.8444,3.295.6167.5982,1.6921.3287,1.9495-.5017.2356-.7601.3713-1.5507.5815-2.3196.025-.0915.2497-.1933.3669-.1777.1375.0183.3291.1323.3757.2521.4195,1.0777.4576,2.2015.0888,3.277-.4166,1.2148-2.718,1.9531-3.6889,1.1079-2.7891-2.4279-4.7131-7.046-.7973-10.6577.4318-.3982.905-.636,1.498-.6454,1.8365-.029,3.6615-.0769,5.4581.4918,1.1368.3598,2.3263.5787,3.5069.77,3.0045.4867,5.5284-.3514,7.4219-2.8246.4848-.6333.9567-1.2832,1.5027-1.861.5898-.6243,1.4203-.4005,1.6857.396.549,1.6481.3755,3.3438.152,4.9929-.3958,2.9209-1.0292,5.8095-1.4341,8.7295-.2291,1.6521-.2188,3.3392-.2754,5.0119-.0127.3758.3349.5408.678.4687,2.8977-.6086,5.7247-1.3998,8.2541-3.0341.5853-.3782.9201-.8051,1.076-1.4792.4675-2.0216.982-4.0325,1.4904-6.0445.4319-1.7091.9796-3.3732,1.9967-4.8421.3944-.5696.9416-.8417,1.6312-.8416.5958,0,1.0989.1929,1.4402.7036.4514.6753.7611,1.3964.7711,2.2319.0126,1.0518-.161,2.0609-.5202,3.0519-.3535.9751-.6388,1.9747-.9696,2.9583-.5215,1.5506-1.3114,2.9134-2.7595,3.7883-1.3725.8292-1.8243,2.1671-1.9744,3.6408-.1052,1.0324-.0901,2.0765-.1675,3.1126-.0771,1.0322-.2167,2.0596-.3036,3.0912-.1829,2.1723-.1373,4.3092.9365,6.3022.5764,1.0698,1.3608,1.2019,2.2945.3444.7758-.7125,1.3377-1.5483,1.7801-2.5187,1.6658-3.6537,2.4639-7.5688,3.5507-11.3981.3469-1.2223.5992-2.4785,1.4433-3.5176,1.4781-1.8196,3.447-2.5403,5.6942-2.58,1.6797-.0297,2.8618.9604,3.7074,2.2845.2532.3965.1159,1.0732.0771,1.6158-.0322.4506-.4083.897.0523,1.3294.5108.4796,1.0368.2715,1.5538.0304,1.8721-.8731,3.2397-2.2984,4.3378-4.0087.2579-.4018.4477-.8492.7227-1.2375.2441-.3448.6145-.5109,1.0473-.3643.4542.1538.5827.5348.513.9524-.0784.4696-.2519.9226-.352,1.3897-.0803.3748-.2558.8506.1531,1.0664.1807.0954.5691-.1917.858-.3173.1458-.0634.2752-.1641.42-.2307,2.2651-1.0422,4.3261-.1864,5.1511,2.1457.106.2996.083.6737.2582.9114.1538.2087.519.4106.7609.3798,1.1159-.142,2.1425-.5246,3.1131-1.1424,1.3024-.8289,2.3438-1.9196,3.3857-3.0218.6798-.7192,1.0079-1.5909,1.1943-2.5657.1932-1.0104.5234-1.9975.8398-2.9799.1321-.41.4864-.6169.9387-.5689.4665.0495.867.5045.8436.999-.03.6341-.1026,1.2661-.1459,1.8997-.0044.0642.0514.1683.1056.1912.0621.0261.1779.0093.2286-.0358.2961-.2634.5894-.5313.8661-.8148,1.1822-1.2109,2.5344-2.1968,4.0382-2.9585,1.7836-.9033,3.792-.1597,4.47,1.7427.5075,1.424.858,2.9166.6831,4.4642-.0357.3163-.2135.6473-.1523.9347.0538.2529.3434.6426.5404.6497,2.491.0898,4.1216-.6134,5.1631-2.6797.3237-.6421.6316-1.2931.9813-1.9208.1518-.2725.3478-.568.6029-.7217.2375-.1431.6287-.2256.8632-.1258.2456.1045.509.4428.5414.7063.0461.375-.0865.7816-.187,1.163-.2849,1.081-.6084,2.1519-.8833,3.2352-.1169.4606-.211.9428-.2062,1.4141.0056.544-.0629,1.3361.2465,1.5774.6203.484,1.0849-.3447,1.6178-.6059.3546-.1738.6448-.4745.99-.6727,1.2533-.7194,2.0237-1.7235,2.1723-3.2154.0522-.5242.3373-1.0564.6303-1.5113.1345-.2089.5692-.366.823-.3166.2517.049.5508.3502.6421.6073.128.3603.1058.782.1079,1.1776.0091,1.7572.004,3.5145.004,5.2718-.0045,0-.0091,0-.0136,0Zm-2.9675,9.9518c-.0749.016-.1685.0087-.2219.0515-1.765,1.4156-3.2157,3.0959-3.9003,5.2774-.445,1.4181-.4086,2.835.929,3.905.5977.4781,1.3219.4533,1.5701-.2218.4364-1.1874.9066-2.392,1.1021-3.6305.223-1.4127.4264-2.8211.7976-4.2044.08-.2981.0831-.6258.0628-.936-.0058-.0877-.2201-.1618-.3393-.2412Zm-54.6466-9.6935c0-.434-.0032-.3544.0005-.2752.0514,1.1132.805,1.5823,1.7819,1.0991,1.3333-.6594,2.2651-1.7258,2.972-3.003.5531-.9992.1404-1.9273-.9592-2.1583-1.0016-.2104-1.8966-.0266-2.5922.7955-.7412.876-1.2375,1.8471-1.2029,3.5419Zm-25.8632,8.5136c-.0504-.0069-.1009-.0138-.1513-.0207,0-.8759.0087-1.7521-.01-2.6276-.0026-.1219-.1211-.3186-.2189-.3418-.1247-.0296-.3342.0389-.419.1394-1.1579,1.3721-1.8964,2.9534-2.1065,4.7322-.1639,1.3877.1551,2.6979,1.0925,3.7876.1312.1525.4298.2857.6046.2421.1864-.0464.4276-.2967.4563-.4865.2736-1.8047.5071-3.6155.7522-5.4246Zm18.7301-20.4852c-.0524-.4392-.0372-.6916-.1213-.9049-.0767-.1945-.2355-.446-.4052-.4896-.1744-.0448-.492.0719-.5958.2223-.3116.4514-.6517.9249-.7978,1.4415-.5176,1.8299-.9842,3.6756-1.4107,5.5289-.1003.4357.0323.925.0578,1.3896.7297-.0462.7773-.7287.9962-1.1729.6655-1.3504,1.2805-2.7295,1.8342-4.1294.2577-.6514.3284-1.3768.4427-1.8855Zm46.6902,10.3206c-.053-.0498-.0975-.1229-.1603-.1458-.7998-.2915-1.9001.0338-2.3056.675-.2283.361-.165,1.0753.1367,1.3081.3496.2698.8174.2903,1.085.0261.4875-.4814.8617-1.0785,1.2724-1.6353.033-.0447-.0169-.1507-.0283-.2281Zm-20.2923,3.2755c-.0652-.0681-.1052-.1427-.1658-.1681-.4802-.201-.9068-.0653-1.2948.2364-.4228.3288-.5765.7858-.3384,1.2213.0827.1513.4056.313.5506.2648.7367-.245.9737-.9252,1.2485-1.5545Z"/>
  <path class="cls-1" d="m131.207,17.1598c.7605-.0209,1.4603.5298,1.4988,1.1794.0332.5613-.5875,1.2664-1.1309,1.2844-.6319.0209-1.2719-.6384-1.3323-1.3726-.0467-.5674.4026-1.0758.9644-1.0912Z"/>
  <path class="cls-1" d="m129.1743,22.0526c.0072.6379-.4542,1.2852-1.005,1.4099-.4399.0996-.9335-.4564-.9701-1.0928-.0316-.5484.3978-.9028,1.1035-.9111.4658-.0055.8679.2686.8716.5939Z"/>
  <path class="cls-2" d="m106.2559,37.107c.119.0799.3332.1539.339.2416.0204.3102.0172.6379-.0628.936-.3712,1.3833-.5745,2.7917-.7976,4.2044-.1955,1.2385-.6657,2.4431-1.1021,3.6305-.2482.6751-.9724.6999-1.5701.2218-1.3377-1.0701-1.374-2.4869-.929-3.905.6846-2.1815,2.1353-3.8618,3.9003-5.2774.0534-.0428.147-.0355.2222-.0519Z"/>
  <path class="cls-2" d="m51.609,27.4139c-.0346-1.6948.4617-2.6659,1.2029-3.5419.6956-.822,1.5907-1.0059,2.5922-.7955,1.0996.231,1.5122,1.1592.9592,2.1583-.707,1.2772-1.6388,2.3436-2.972,3.003-.9769.4832-1.7305.0141-1.7819-1.0991-.0037-.0793-.0005-.1589-.0005.2752Z"/>
  <path class="cls-2" d="m25.7458,35.9275c-.245,1.8091-.4786,3.6199-.7522,5.4246-.0288.1898-.2699.4401-.4563.4865-.1749.0436-.4734-.0896-.6046-.2421-.9375-1.0897-1.2565-2.3999-1.0925-3.7876.2101-1.7788.9486-3.36,2.1065-4.7322.0848-.1005.2943-.169.419-.1394.0978.0232.2163.2199.2189.3418.0186.8756.01,1.7517.01,2.6276.0504.0069.1009.0138.1513.0207Z"/>
  <path class="cls-2" d="m44.4759,15.4423c-.1143.5087-.185,1.234-.4427,1.8855-.5537,1.3999-1.1687,2.779-1.8342,4.1294-.2189.4442-.2665,1.1268-.9962,1.1729-.0254-.4646-.158-.9539-.0578-1.3896.4265-1.8534.8931-3.699,1.4107-5.5289.1461-.5166.4862-.99.7978-1.4415.1038-.1504.4215-.2671.5958-.2223.1696.0436.3284.2951.4052.4896.0841.2132.0689.4656.1213.9049Z"/>
  <path class="cls-2" d="m91.1661,25.7629c.0114.0775.0613.1834.0283.2281-.4107.5568-.7849,1.1538-1.2724,1.6353-.2676.2642-.7354.2436-1.085-.0261-.3017-.2328-.365-.9471-.1367-1.3081.4055-.6412,1.5059-.9664,2.3056-.675.0628.0229.1073.096.1603.1458Z"/>
  <path class="cls-2" d="m70.8738,29.0385c-.2748.6293-.5119,1.3094-1.2485,1.5545-.145.0482-.4678-.1135-.5506-.2648-.2381-.4354-.0843-.8925.3384-1.2213.388-.3018.8147-.4374,1.2948-.2364.0606.0254.1007.1.1658.1681Z"/>
</svg>