<?xml version="1.0" encoding="UTF-8"?>
<svg id="Ebene_1" data-name="Ebene 1" xmlns="http://www.w3.org/2000/svg" viewBox="0 0 441.2196 215.5877">
  <defs>
    <style>
      .cls-1 {
        fill: #62594f;
        stroke-width: 0px;
      }
    </style>
  </defs>
  <path class="cls-1" d="m416.7023,90.6949c-.0058,2.9729.1662,4.0385.2564,7.0084.076,2.5007.3829,4.9935.5272,7.4931.2574,4.4546.5524,8.9102.6351,13.369.0181.9712-.5463,2.2262-1.2705,2.8816-1.4998,1.3571-1.5669,3.0599-.6781,4.2911.492.6814,2.4738.7076,3.6384.4278,6.0344-1.4506,11.1128,1.0198,13.19,6.858,2.142,6.0205,2.6918,12.3003,2.2188,18.6316-.3257,4.3598-1.2959,5.4257-6.3612,6.8232-1.6297.4497-2.1681.8549-1.935,2.3569.3317,2.1365.6839,4.2698,1.0386,6.4026.149.8962.7354,2.3529.4184,2.5802-1.1674.8365-1.7699,2.4567-3.9503,2.0736-2.8904-.508-5.9358-.0673-8.8991-.2635-3.5213-.2332-7.0535-.558-10.5218-1.1726-1.0524-.1866-2.2948-1.2794-2.7801-2.2797-1.2266-2.5281-2.0697-5.2403-3.075-7.8756-.097-.2544-.2526-.4864-.381-.7289-.0319.3376-.079.6744-.0934,1.0127-.3713,8.7599-2.1732,17.216-5.6081,25.2931-1.6428,3.8629-4.4969,6.5737-8.4809,8.0896-2.9721,1.1308-5.8491,2.5377-8.8706,3.5051-5.604,1.794-10.7799.1316-15.7788-2.388-1.8289-.9216-3.8427-1.5926-5.4542-2.7986-1.7981-1.3457-3.6409-2.9343-4.7509-4.831-3.1518-5.3852-4.9274-11.2353-5.4241-17.5362-.437-5.5444-.4354-11.0066,1.3738-16.2808,2.9931-8.7255,7.7314-15.9899,16.8105-19.7263,6.7045-2.7591,13.1337-1.8313,19.1691,1.3126,4.2049,2.1904,7.9502,5.2186,9.996,9.9267,1.5293,3.5192,3.6488,6.7848,5.5265,10.1518.147.2635.4597.4356.6954.6502.0318-.3316.1565-.686.0813-.9914-.7081-2.874-1.4726-5.7343-2.1775-8.6091-1.2239-4.9908-2.6074-9.9535-3.5575-14.9965-.6571-3.488-3.225-4.1877-5.8884-4.6754-5.8689-1.0744-11.7584-2.1463-17.6882-2.7458-4.0836-.4128-8.2599-.2072-12.3735.0551-2.9074.1853-4.3857,2.5303-5.0912,4.9966-1.8463,6.4557-4.118,12.7577-5.1911,19.4825-1.0896,6.8276-3.4128,13.4672-5.3006,20.1598-1.0933,3.876-3.6307,5.2529-7.5251,4.316-6.5918-1.5858-13.206-2.2799-20.0543-2.435-14.063-.3187-27.8766,2.0963-41.8372,2.7216-10.513.4709-21.0054,1.4193-31.5022,2.2185-2.2848.174-4.5817.471-6.8165.9651-6.992,1.546-13.6841-.5515-20.4847-1.4443-2.7007-.3547-5.4415-.5421-8.1651-.5533-2.8458-.0116-5.6987.2131-8.5383.4547-4.5503.3871-9.0961.8384-13.6335,1.3529-.7298.0828-1.8709.486-2.0339.9923-1.3456,4.1774-5.2065,3.8188-7.9885,3.5933-4.7439-.3842-9.4707-1.7005-14.0319-3.1597-1.4247-.4557-2.8038-2.4711-3.311-4.056-1.1072-3.4605-1.637-7.1037-2.4114-10.6704-.5079-2.3393-.9191-4.7068-1.5714-7.0061-1.2783-4.5059-2.6772-8.9783-4.06-13.4542-.9435-3.0539-3.8011-4.9541-6.9803-5.0795-5.1188-.2018-10.22-.3217-15.3562-.8507-7.1338-.7346-14.5046-.146-21.6686.7312-3.9818.4877-6.1145,4.3447-7.3605,7.9632-2.0381,5.919-3.6669,11.9772-5.4948,17.9687-.3657,1.1987-.8592,2.3585-1.2773,3.542-.8731,2.4715-1.9121,4.9017-2.5644,7.4303-1.2775,4.9508-4.8391,7.9166-10.0182,8.0295-5.7316.1248-11.4635.2394-17.1948.3793-.8015.0195-1.6345.0393-2.3947.2591-5.4931,1.5876-10.924.9517-16.3885-.209-1.9898-.4226-4.0694-.5023-6.114-.5741-2.1454-.0754-3.6972-.4018-5.078-2.6019-2.1812-3.4755-5.4903-5.7476-9.4547-7.5594-9.5805-4.3785-13.1744-12.9467-6.9307-21.7424,2.2162-3.1222,6.1175-3.3824,9.7918-2.7285,3.116.5546,3.2035.6439,3.1081-2.5657-.1526-5.1352-.519-10.2639-.6837-15.399-.1606-5.006-.1413-10.0176-.2819-15.0245-.0641-2.2819-.2656-4.5642-.5036-6.836-.8215-7.8404-1.3049-15.699-2.5408-23.5203-.9008-5.7008-.2223-11.646-.2971-17.4815-.0265-2.061-.4313-4.1399-.2543-6.1756.3151-3.6223.8381-7.236,1.4643-10.8204.8047-4.6062,1.742-9.1919,2.7347-13.7622.4109-1.8916.9938-3.7684,1.7187-5.5639.6463-1.601,1.8299-2.2268,3.7962-2.2128,5.7089.041,11.4206-.4289,17.1312-.4292,3.1902,0,6.379.5488,9.5711.8192,1.0275.087,2.0714.1711,3.0941.0882,2.4073-.1949,4.4552-.4746,5.5538-3.4438.7697-2.0806,3.0507-3.6159,4.687-5.3668.6229-.6666,1.5223-1.1424,1.9683-1.8969,2.9524-4.9946,7.3593-5.8517,12.6904-4.9284,2.3351.4043,4.8219.2406,7.2073.0058,8.0914-.7968,16.1582-.3945,24.2623-.178,8.7942.2348,17.6188-.4616,26.4245-.8709,10.2026-.4742,20.4096-.9349,30.5947-1.6766,6.6329-.483,13.2286-1.469,19.8442-2.2004,1.4837-.1642,2.9874-.15,4.4708-.3167,3.7818-.425,6.295,1.0906,8.7937,4.0529,3.3692,3.9944,7.5736,7.2987,11.5032,10.8062.5076.4531,1.5183.5034,2.2895.484,7.5405-.1907,15.0802-.4175,22.6189-.6705,9.1914-.3084,18.3847-.5872,27.5709-1.0138,3.3792-.1569,5.471,1.1806,7.3619,3.9811,4.4843,6.6413,9.4087,12.9863,14.0314,19.5376,2.1082,2.9877,4.0395,6.1152,5.8458,9.2948,2.9877,5.2588,5.8206,10.6051,8.6966,15.9265,1.9148,3.5429,4.7445,6.0582,8.8501,6.0935,7.5727.0648,15.1483-.3289,22.724-.4257,4.2351-.0542,8.4732.0941,12.7096.1687,7.242.1275,14.5566.9791,21.7094.2475,12.5112-1.2796,24.7954.0991,37.1315,1.4705,1.3543.1506,2.8068.3975,3.9618,1.045.9368.5251,1.9674,1.6429,2.1279,2.6314.4,2.4631.3277,5.0024.4449,7.5112.1914-.007.1316,1.8955.323,1.8884Zm-125.0151,74.8937c.0156.074.0313.148.0469.222,4.2471-.1985,8.5044-.2746,12.7387-.6259,5.5492-.4602,5.5352-.554,5.8647-6.2722.0393-.6817.2413-1.354.2839-2.0359.3572-5.7067.8697-11.4109.9967-17.1232.1852-8.326.1405-16.6585.0968-24.9878-.0383-7.3187-.1868-14.6374-.3389-21.9549-.0385-1.8526-.5478-3.0039-2.9707-3.2137-3.5717-.3092-7.9777-.0336-8.388-5.4631-.0121-.1596-.6217-.4653-.7513-.3842-.2464.1542-.3629.532-.5051.8303-.6569,1.3785-.9964,3.065-2.0126,4.0861-3.0395,3.0544-9.3575,3.5992-12.4696,1.2965-.4144-.3066-.9899-.6177-1.4675-.5854-5.1341.3484-10.2581.8747-15.3958,1.1347-5.7342.2901-11.4863.6075-17.2188.4613-9.4203-.2403-18.8068-.2078-28.1526,1.1371-2.6856.3864-4.0103-.4902-4.3461-3.337-.4937-4.1858-.8636-8.3927-1.0946-12.6012-.2998-5.4637-.5407-10.9372-.5697-16.4078-.0327-6.1607.2883-12.3232.2663-18.4843-.0078-2.1725.3807-3.541,2.8558-3.7183,4.8109-.3444,9.6082-.8914,14.4216-1.1821,4.9337-.298,9.9699-1.0461,14.7957-.3915,5.0504.6851,9.8983,1.5122,15.0024.4253,2.9125-.6201,5.8451-.4783,7.777,2.765,4.7242,7.9311,9.6607,15.7372,14.548,23.5711.3346.5364.912,1.1561,1.4754,1.2755,1.9999.4241,4.0338.7464,6.071.9281,4.7302.422,7.2336,2.7509,7.3884,7.5254.122,3.7644.3176,7.3606,2.321,10.776,1.4607,2.4902,4.3216,3.9705,6.8378,2.7148.4454-.2222.8904-.7558,1.0232-1.232.4427-1.5863-1.021-4.4662-2.4262-5.4919-1.1764-.8586-2.4398-1.7993-3.1889-2.9984-1.9387-3.1027-3.8959-6.2472-5.3461-9.5899-5.8605-13.5091-15.5378-24.5178-23.7908-36.458-1.2635-1.8281-3.0292-2.7704-5.2422-3.5441-2.7913-.9758-5.3596-.6954-8.1045-.5158-6.9689.456-13.9464.8159-20.9257,1.0665-6.6273.2379-13.2612.3005-19.8926.4164-3.106.0543-6.2136.025-9.3192.0907-1.1836.0251-2.391.1709-2.2549,1.8609.5775,7.1711,1.3236,14.3337,1.6844,21.5157.4756,9.4688.7682,18.9508.9136,28.4307.1224,7.9821-.4498,15.9879-.0488,23.9497.6038,11.9884,1.8492,23.9433,2.6686,35.923.145,2.1197.8357,2.7839,2.8846,2.6974,11.5807-.4897,23.166-.8718,34.747-1.3554,5.7304-.2393,11.4593-.5559,17.181-.9512,5.4709-.3778,10.9323-.8958,16.3965-1.3664,3.083-.2654,6.1612-.5894,9.2462-.8275,1.412-.109,3.1109-.1064,3.0709,1.7966-.0341,1.6196-1.2632,2.6375-3.0332,2.6317-1.4951-.0049-2.9995-.1916-4.4833-.0801-7.3215.5501-14.6285,1.3407-21.9574,1.7336-13.6489.7315-27.3097,1.2389-40.9648,1.8566-3.32.1503-6.64.3253-9.9544.5656-3.0846.2236-3.2496.5609-3.0757,3.523.1677,2.8551.0317,5.728.2019,8.5829.2148,3.6025.5589,7.2.974,10.785.0551.4757.8197,1.1821,1.317,1.2375,1.679.1868,3.3946.2527,5.0795.1317,2.0069-.1441,4.0033-.8014,5.9919-.7517,3.8746.0967,7.7387.5583,11.6111.808,1.1426.0737,2.3053.0103,3.447-.1053,4.2064-.4254,8.3995-1.0068,12.613-1.3292,6.0679-.4642,12.165-.589,18.2203-1.1655,5.5635-.5295,11.0881-1.465,16.6298-2.2216ZM41.5008,32.2734c-.0003.102-.0006.204-.001.3059-2.283.1067-4.5663.3035-6.8489.2955-2.4451-.0084-3.7811.9092-4.234,3.4587-.6997,3.9383-1.808,7.8031-2.5818,11.7305-.8561,4.3453-2.064,8.7143-2.1617,13.0937-.153,6.8547.3231,13.7401.8513,20.5881.7281,9.4395,2.0604,18.8396,2.5678,28.287.5575,10.3803.4638,20.7749,1.5019,31.1606.5585,5.5877,1.3747,11.3882-.1685,17.0585-.1742.64-.1788,1.4083-.0036,2.0468,1.2658,4.6144,2.5705,9.219,3.9387,13.8043.2083.6979.7135,1.7333,1.2435,1.8438,4.6026.9594,9.2153,2.1377,13.8796,2.4519,3.6029.2428,7.2799-.7119,10.9325-1.0397,2.1212-.1904,3.194-1.1961,3.7208-3.2871,1.2498-4.9615,2.6501-9.8889,4.1178-14.792,2.4644-8.2334,5.1084-16.414,7.5179-24.6628,1.2482-4.2733,2.1824-8.6388,3.2055-12.975.5043-2.1374,2.0015-3.6043,3.9184-3.808,3.6369-.3863,7.3346-.2014,11.007-.2563,2.9707-.0444,5.9515.0454,8.9093-.1738,3.6471-.2702,7.2696-1.0656,10.9127-1.1396,3.5336-.0718,3.5482.2049,4.1221-3.2487.1119-.6732.1777-1.3636.1722-2.0453-.0791-9.9187-.1516-19.8375-.2743-29.7558-.061-4.9219-.3368-9.8432-.3086-14.7637.0392-6.825.3422-13.6484.3911-20.4735.0211-2.9399-.3103-5.8823-.4834-8.8234-.0804-1.3672-.1179-2.7391-.2581-4.1003-.2595-2.5198-.945-3.1052-3.5489-2.9076-3.3246.2523-6.6401.8148-9.9635.8489-5.1422.0527-10.147,1.21-15.3966.959-5.1912-.2483-10.4748.8861-15.7399-.1374-.7536-.1466-1.5916.1684-2.3936.2288-1.8326.138-3.6673.356-5.5009.3547-7.681-.0048-15.362-.0785-23.0429-.127Zm91.7269-2.8951c-.9411.044-1.486.083-1.8187.0882-2.7584.1289-5.5177.3674-8.2748.3452-1.6215-.0131-1.9867.6643-1.8931,2.0643.1902,2.8471.3212,5.6981.4735,8.5477.4126,7.7215,1.0546,15.439,1.184,23.1653.2218,13.2518.1351,26.509.1472,39.764.0022,2.3951-.3706,4.8092-.175,7.1819.4813,5.8412.8107,5.8643,6.8562,5.9121,5.5025.0436,10.9992.5754,16.5031.7507,1.8037.0575,3.6661-.1471,5.4186-.5719,1.2713-.3083,2.3471-1.5931,3.7646-.3552,1.1055.9654,2.7472,1.6738,3.2763,2.8775,1.7887,4.069,3.2526,8.2855,4.7166,12.4885,1.2708,3.6485,2.1452,7.4486,3.6167,11.0087,1.3671,3.3077,1.5852,3.0059,5.1854,2.5185,6.7071-.9079,13.4365-1.7166,20.1814-2.2628,5.4704-.443,10.9764-.4605,16.4679-.6244,1.5888-.0475,2.2776-.725,2.2085-2.3338-.4936-11.4828-.9629-22.9667-1.4238-34.4509-.3334-8.3083-.7015-16.6161-.9382-24.9274-.1268-4.4492.0564-8.9067-.0206-13.3583-.0673-3.8886-.2569-7.7768-.4755-11.6606-.3081-5.4748-.6711-10.9468-1.0535-16.417-.207-2.9623-.7751-5.9278-.6718-8.8745.0809-2.3091-.8949-2.8011-2.7957-2.7974-4.2527.0081-8.5129-.1714-12.7564.0236-6.7729.3113-13.5297,1.1317-20.3023,1.2596-13.071.2471-24.3257.5863-37.4003.6384Zm139.8753,56.7726c.0054.0259.0109.0517.0163.0776,1.6066-.0751,3.213-.2006,4.8201-.2112,1.623-.0108,1.8552-.64,1.5008-2.1652-.9066-3.9016-1.6752-7.8405-2.3346-11.7917-.4284-2.5673-.1375-5.068,2.2168-6.769,1.1558-.835.7021-1.5721.3077-2.6347-2.3145-6.2358-7.4708-10.6818-10.3636-16.541-1.6189-3.2791-4.3771-4.4147-7.9328-4.2509-2.3893.1101-4.8035-.2408-7.1863-.0827-9.2547.6142-18.5863.6333-27.6007,3.3141-.6977.2074-1.5799-.0444-2.3402-.2294-3.3039-.8034-3.322-.8007-3.2205,2.4918.0211.6856-.0273,1.3731-.0384,2.0597-.096,5.9296-.2937,11.8602-.2356,17.7883.0233,2.3815.6459,4.7529.9299,7.1367.3916,3.2864.6941,6.5833,1.0894,9.8692.166,1.38.3529,2.7802,2.3075,2.8215,2.9856.063,5.9682.2776,8.9537.3256,5.4932.0884,10.9874.1255,16.4814.1399,3.5634.0094,7.1362.0875,10.6882-.133,3.9901-.2479,7.9615-.7974,11.9411-1.2156Zm77.8641,21.8405c-3.7701.4871-7.1769.8739-10.561,1.4039-.8015.1255-2.003.5613-2.2135,1.1434-1.8603,5.1441-3.6146,10.3296-5.2533,15.5486-2.6324,8.3836-5.1656,16.7982-7.7146,25.2075-1.1285,3.7229-2.2921,7.4399-3.255,11.2063-.7444,2.9114-.3799,3.2633,2.7478,3.5777,2.747.2761,5.5358.3236,8.2333.8447,1.9558.3778,2.3793-.4643,2.7558-2.0047.8661-3.5429,1.956-7.0329,2.7738-10.5857,2.1649-9.4057,6.196-18.272,7.9463-27.807.8996-4.9002,3.969-7.8719,9.1824-8.095,2.6201-.1122,5.255-.1044,7.8738.0296,5.4878.2811,10.913,1.6548,16.484.617,1.3818-.2575,2.94.3006,4.396.589,3.0302.5998,6.02,1.478,9.0748,1.8585,3.8325.4776,5.8761,1.7929,6.2216,5.5282.5585,6.0374,1.3426,12.0094,2.8509,17.8885,1.5036,5.8608,2.8135,11.7743,4.4767,17.5885.3422,1.1962,1.6948,2.3941,2.8852,3.0071,3.6384,1.873,7.4451.0208,11.1837.0408.3438.0018,1.0792-1.2314.9789-1.7702-.6031-3.2384-1.185-6.5083-2.1772-9.6408-1.5167-4.7891-3.5735-9.4118-5.0194-14.219-2.6638-8.8564-5.055-17.7941-7.5492-26.7009-.8398-2.9987-2.2296-3.7012-5.3708-3.1286-1.8687.3407-3.8356.4103-5.7333.2691-3.1657-.2355-6.3029-.9725-9.4667-1.0814-7.8952-.2716-15.8009-.2333-23.6978-.4708-4.128-.1241-8.2462-.5678-12.0533-.8441Zm60.8489-15.2676c-.0932-3.5032-.0936-3.4936-3.5165-3.6551-.6827-.0323-1.3605-.2452-2.0403-.2434-6.831.0183-13.6919-.3044-20.4812.2456-3.8405.3112-7.5181.4458-11.2742-.3337-1.7862-.3707-3.6382-.6103-5.4591-.6005-6.8896.0364-13.7781.2364-20.6677.2998-3.6395.0335-7.2822-.1864-10.9203-.1175-5.5983.106-11.1953.3262-16.7892.5803-1.3534.0616-2.7675.2594-4.0065.7574-.6366.256-1.3437,1.3129-1.3421,2.0061.0084,3.75.1753,7.5026.3966,11.2478.121,2.0471.6359,4.0791.6632,6.1221.084,6.2781.0656,12.5587-.0086,18.8373-.0373,3.1543-.3159,6.3051-.4147,9.4598-.0393,1.2538.12,2.5132.1754,3.7706.0591,1.3431.1684,2.6884.1399,4.0304-.0777,3.6544-.2385,7.3072-.3057,10.9618-.0092.5014.326,1.0089.5018,1.5135.2899-.4417.696-.8461.8522-1.3304,2.6973-8.3589,5.3198-16.7419,8.051-25.0896,2.2006-6.7261,4.9059-13.3166,6.6404-20.1547.9356-3.6888,3.1693-5.24,6.1629-6.0837,3.281-.9247,6.7372-1.7405,10.1127-1.7257,8.5816.0379,17.1602.5841,25.7414.8906,4.0084.1431,8.0212.1653,12.0295.311,3.5407.1286,7.0773.3619,10.6167.5312,2.8536.1364,5.7315.5242,8.5567.2926,3.0668-.2515,3.7853-.1365,5.065,2.6744.3794.8335.6587,1.7134,1.0589,2.5356.163.3351.5258.5738.7978.8563.1591-.396.4705-.7984.4545-1.1872-.238-5.802-.5193-11.6021-.7903-17.4028Zm-17.0277,69.7908c-1.4287-10.4828-6.0154-18.7916-15.3904-23.4688-3.3715-1.6821-7.7755-1.3487-11.7225-1.8166-.5793-.0686-1.2441.5097-1.8582.8113-1.3358.6561-2.6064,1.5054-4.0074,1.9556-3.3649,1.0812-5.8481,3.2682-7.5164,6.1928-1.8582,3.2578-3.3024,6.7504-4.9014,10.1527-.1379.2933-.1034.674-.1204,1.0155-.4336,8.7182-1.0822,17.4646,3.578,25.4774.3408.5859.4624,1.2947.7655,1.9072.2907.5874.551,1.3554,1.0559,1.6453,3.3712,1.9361,6.6808,4.0579,10.2512,5.5481,3.6923,1.5412,7.7,2.3434,11.7067,1.0156,2.4703-.8186,4.9155-1.7925,7.227-2.9772,1.4653-.7509,2.9508-1.8005,3.9349-3.0888,5.5542-7.2709,6.0748-15.9686,6.9976-24.3702ZM82.9192,18.1195c-3.7517-1.0216-6.0411,1.8787-8.4251,4.547-.9831,1.1003-1.8662,2.2893-2.7955,3.4372-.9996,1.2346-.3619,1.5513.871,1.5629,4.665.0437,9.3202,1.4885,14.01-.0735,1.03-.3431,2.2789-.0338,3.427-.0257,2.7486.0193,5.5197.2709,8.241.0087,5.7088-.5501,11.3742-1.6081,17.089-2.0217,7.67-.5552,15.3675-.7984,23.0578-.9917,8.7973-.2213,17.6024-.1408,26.3988-.3858,5.3747-.1496,10.7355-.7585,16.11-.9787,2.9739-.1218,5.9634.2066,8.9457.2013,5.5959-.0098,11.1916-.1136,16.7873-.1817.6869-.0084,1.3844.0336,2.0582-.0695,1.4724-.2255,1.8161-.8625.6118-1.959-1.6859-1.535-3.3906-3.0512-5.0339-4.6304-1.2797-1.2297-2.5895-1.9999-4.5306-2.0062-6.3095-.0203-12.6248-.5361-18.9253-.3724-8.2684.215-16.5313.8034-24.7843,1.4007-7.6764.5555-15.3248,1.6347-23.007,1.9374-9.7444.3841-19.5107.1981-29.2672.2948-6.7705.0671-13.5404.1965-20.8387.3061Zm128.2959,135.8886c.0544-.0026.1088-.0053.1632-.0079-.0587-1.2555-.0943-2.5125-.1804-3.7661-.2435-3.5467-1.106-4.4055-4.6042-4.249-5.4872.2456-10.9836.448-16.4502.9496-5.4796.5028-10.931,1.3232-16.3879,2.0547-4.0753.5463-4.5835,1.183-3.3545,5.0673,1.4129,4.4653,2.9936,8.8871,4.7219,13.2411,1.3763,3.4673,3.7943,4.5241,7.4321,3.7346,1.225-.2659,2.4659-.5589,3.7103-.6203,8.2033-.4049,16.4101-.7383,24.6126-1.1555.3503-.0179.97-.6423.9593-.9675-.1569-4.7621-.3998-9.5212-.6222-14.2809Zm-97.2365-22.6109c1.4921-.0697,3.3007.3648,4.4051-.3225,1.8422-1.1466-.6782-2.6813-.294-4.148.0563-.2152.011-.4559.0195-.6844.1398-3.7618-.3724-4.2809-4.1642-4.0718-3.2078.1769-6.4103.4885-9.6198.5875-5.4857.1691-10.9748.2577-16.463.296-1.7897.0126-2.691.7668-3.1751,2.4616-.8789,3.0773-1.9417,6.1024-2.9107,9.1547-2.8688,9.0361-5.7338,18.0733-8.5908,27.1131-1.2356,3.9094-2.5202,7.8058-3.6465,11.7465-.832,2.9112-.3108,3.5591,2.6742,3.3829,1.9332-.1141,3.9841-1.1038,5.7365-.6845,2.1804.5216,2.7111-.4677,3.1897-1.9429,1.3715-4.2277,2.9449-8.4157,3.9413-12.7329,1.7842-7.7302,4.4836-15.0864,7.4458-22.4412,1.7792-4.4175,4.6149-6.4897,8.779-7.0455,4.1794-.5578,8.4449-.4743,12.6729-.6686Zm21.4486.7731c.0004-.0803.0007-.1608.0011-.2411,2.6229.0641,5.5563-.6044,7.8062.3397,5.2233,2.1916,9.4151,5.6911,9.875,12.0316.1134,1.5643.4857,3.1292.9044,4.6486,1.6684,6.0544,3.6177,12.0413,5.0361,18.1515.9494,4.0898,2.7264,6.9538,7.1105,7.6059,1.7784.2643,3.5765.3983,5.3656.5917-.479-1.6985-.84-3.4407-1.4568-5.088-3.2805-8.7617-6.7339-17.4607-9.9105-26.2591-2.2432-6.2131-4.1681-12.5411-6.1763-18.8365-.5686-1.7824-1.4403-2.2804-3.4778-2.3197-7.2113-.1392-14.4163-.6757-21.6194-1.1286-5.97-.3754-6.3769.0752-4.9192,5.9228.8829,3.5421,1.8933,4.3759,5.6003,4.5041,1.9522.0675,3.9072.0541,5.8608.0771Zm265.4203-47.2373c0,.0027,0,.0053,0,.008,1.7152-.0802,3.4361-.1001,5.1433-.2638.9608-.0922,1.8987-.4213,2.8469-.6436-.8554-.6818-1.6746-1.4183-2.5851-2.0171-.338-.2223-.8914-.1123-1.3444-.171-5.4182-.7013-10.82-1.6006-16.2596-2.0392-3.5116-.2831-7.0817.04-10.6193.2164-3.6373.1814-7.2639.5992-10.9018.7442-1.6894.0673-3.3921-.3117-5.0934-.4091-4.0051-.2292-8.0144-.389-12.0193-.6201-2.0626-.1191-4.1323-.5677-6.1772-.4592-8.8256.4683-17.6414,1.1187-26.4653,1.6249-1.6838.0966-2.9564.2059-2.8091,2.413.1369,2.0511.8963,2.6005,3.048,2.4869,6.0584-.3196,12.1356-.287,18.2054-.3866,5.4615-.0896,10.9615.2065,16.3762-.3399,8.9367-.9018,17.7911-1.3845,26.6193.7216.7628.182,1.6051.0817,2.4074.0455,6.5431-.2946,13.0854-.6052,19.628-.9109Zm-104.0137-10.6687c-.6795-1.1061-1.0928-2.7317-2-3.0787-2.8528-1.0913-5.9091-1.6432-8.8501-2.5246-1.4128-.4235-1.8454.036-1.9495,1.379-.3799,4.9048.571,9.4891,2.9875,13.8029.9761,1.7423,2.3596,2.3777,4.2498,2.1763,1.7817-.1898,3.0112-1.1254,3.4546-2.8577.7289-2.8481,1.3609-5.7208,2.1077-8.8972Zm131.6053,61.4642c-.9143-3.7987-3.5411-5.515-7.3811-4.9952-2.7428.3713-3.2841,1.2402-2.3243,3.9238,1.8465,5.1634,3.7477,10.3074,5.593,15.4713.4518,1.2641.4607,2.8686,2.4711,2.6575,2.1103-.2216,3.0086-1.5121,2.98-3.5057-.0246-1.7106-.1781-3.4335-.258-5.1433-.0477-.6933-.0707-1.2215-.1152-1.5869M14.6056,159.5686c.622,1.4273,1.1312,2.654,1.6865,3.8594,1.6403,3.5607,5.0153,4.7575,8.3484,5.9634.7813.2828,1.6676.2784,2.5055.4061-.0027-.7646.1273-1.5576-.0306-2.2888-.7876-3.6481-1.6295-7.285-2.5045-10.9134-.1841-.7634-.4954-1.5303-.906-2.1995-1.433-2.3358-5.7946-2.7689-7.0065-.5716-.9625,1.7453-1.4002,3.7773-2.0929,5.7445Z"/>
  <path class="cls-1" d="m117.9723,212.6161c-7.1223.4949-12.7699-2.7211-18.1608-6.6119-1.5731-1.1354-3.1824-2.2884-4.5083-3.6844-5.8396-6.1488-6.0248-13.8611-5.3-21.5436.4778-5.0646,1.3749-10.2381,3.1048-14.9955,1.6516-4.5417,4.5235-8.6685,7.0639-12.8544,1.1099-1.8288,2.8481-3.2679,4.0983-5.0268,5.0307-7.0773,10.6529-7.5472,18.1888-6.2597,3.0163.5153,5.9167,1.818,8.8063,2.9262,5.7361,2.1999,9.3179,6.8513,12.8409,11.5202,1.033,1.3689,1.717,3.0336,2.8794,4.2648,4.448,4.7111,5.5136,10.4156,5.1701,16.5566-.3595,6.4248-1.0352,12.7705-4.1661,18.6153-3.6715,6.8536-8.9931,12.0503-16.2774,14.6192-4.3303,1.5271-9.1437,1.6952-13.7399,2.4742Zm30.0786-36.2867c.5649-7.3717-7.2263-19.3412-15.6216-22.4861-2.0844-.7808-3.8278-2.4242-5.8101-3.5245-1.8642-1.0346-3.7589-2.1227-5.7772-2.7533-4.9518-1.5467-8.7855,1.2006-12.1745,4.0696-6.2742,5.3114-10.2388,12.2083-12.1862,20.1718-.673,2.7519-.88,5.6131-1.4113,8.4033-1.7765,9.328,1.0712,16.7399,8.8781,22.3443,10.3445,7.4262,21.6075,5.6199,30.7843.2809,9.2202-5.3642,13.2161-14.4424,13.3186-26.5061Z"/>
  <path class="cls-1" d="m224.7806,99.2549c5.1353-.0586,8.2575.2498,13.3929.2321,2.1041-.0072,3.4034,1.3495,3.8789,3.6004.3793,1.7958-.1063,2.5952-2.0615,2.4111-3.193-.3008-6.3927-.5721-9.5959-.7112-2.9665-.1288-5.9468-.1824-8.9105-.0444-1.5994.0745-3.4348.181-3.593-1.5497-.0845-.9249,1.618-2.1049,2.6591-3.0029.5668-.4889,1.4372-.6289,2.1707-.9263.0155.1286,2.0439-.1376,2.0594-.0091Z"/>
  <path class="cls-1" d="m55.4329,40.0807c3.4067-.424,6.8031-.9845,10.2224-1.2414,5.6014-.4208,11.2179-.8798,16.8276-.8769,4.5613.0024,9.1192.7012,13.6843,1.0083,2.6324.1771,5.2755.2176,7.9147.2688,2.6301.0511,4.2508,1.1636,4.911,3.8399,2.4177,9.8023,4.0241,19.6281,2.6317,29.7946-.5561,4.0601-.373,8.2202-.5262,12.3348-.0424,1.1401.0517,2.3046-.1505,3.4158-.7296,4.009-1.9563,4.9345-6.0186,4.4346-8.1192-.9991-16.179-.7566-24.3412-.0124-8.876.8093-17.8491.6236-26.7814.7211-3.5005.0383-6.1969-2.601-6.0295-6.1213.3126-6.5747,1.1356-13.1253,1.4636-19.6997.2382-4.7734.0194-9.569.0089-14.3548-.0032-1.4638-.04-2.9297.0263-4.3907.0766-1.6867.4352-3.3792.3423-5.051-.1781-3.2052.2152-3.8103,3.3916-4.1112.8001-.0758,1.607-.0809,2.4108-.1185l.0122.1599Zm19.2109,3.0794c-7.8061.7909-13.1732,1.3954-18.5537,1.8397-1.4563.1204-2.1121.7134-2.2179,2.0452-.0722.9091-.0831,1.8265-.0627,2.7389.1201,5.3763.4718,10.7579.3316,16.1271-.1542,5.9051-.8041,11.7964-1.1184,17.6999-.0583,1.0953.2337,2.3411.7683,3.2923.4127.7342,1.4502,1.5656,2.2234,1.5787,3.8981.066,7.8036-.0591,11.7011-.2352,6.0633-.274,12.1194-.8199,18.1838-.918,5.1212-.083,10.2502.2988,15.3751.4909,2.0078.0752,3.334-.5846,3.5005-2.8173.5013-6.7205,1.3879-13.4338,1.4691-20.1575.0714-5.9141-.6962-11.842-1.1871-17.7559-.1554-1.8712-.9729-3.1535-3.2836-3.0747-3.428.117-6.868.0435-10.2977-.0856-6.4056-.2411-12.8073-.5807-16.8319-.7684Z"/>
  <path class="cls-1" d="m129.3516,74.3449c.0389-10.1046-.0351-19.0041.1844-27.8965.0542-2.1958.9332-4.4166,1.7229-6.5181.1966-.5231,1.523-.8873,2.3271-.8821,7.2876.0462,14.5746.1916,21.8618.3042.5736.0089,1.1818-.1371,1.7163.0044,7.5995,2.0113,15.2656.1753,22.8934.4126,4.0084.1246,8.031.0206,12.0251.3155,3.9811.2938,6.615,2.6127,7.4349,6.4872.7216,3.4096,1.3915,6.9069,1.4193,10.3711.0797,9.9297-.1978,19.862-.2932,29.7937-.0347,3.6133-2.3251,5.8661-5.979,5.4637-2.3525-.2592-4.6629-.8881-6.9961-1.3309-.7875-.1494-1.5882-.343-2.381-.3348-7.1981.0735-14.3968.1405-21.5931.307-4.2328.0979-8.4615.5097-12.6919.5086-2.0328-.0006-4.062-.6508-6.0988-.9694-1.6867-.2638-3.3949-.4055-5.0704-.7222-2.1254-.4016-4.3773-.6103-6.2862-1.5088-1.2482-.5875-2.5683-2.1325-2.8395-3.4556-.7774-3.7929-1.0368-7.6913-1.3559-10.3495Zm66.2617-22.4159c-.1159-.6316-.4616-1.971-.5894-3.3308-.2277-2.4233-1.573-3.3335-3.9038-3.3402-9.1677-.0258-18.3356-.0788-27.5025-.1918-1.9358-.0238-3.8685-.3358-5.8013-.5284-1.9235-.1917-3.8632-.6696-5.764-.5436-3.661.2428-7.262.8062-10.9564-.0558-1.3391-.3125-2.9093.3934-4.3801.5906-1.81.2429-2.5127,1.2091-2.4475,3.0435.3568,10.0347.4898,20.08,1.0093,30.1056.3012,5.813,1.0024,5.8318,6.7198,6.6453,8.3055,1.1816,16.5055,2.0895,24.959,1.1585,5.8829-.6479,11.9123-.0815,17.8706.112,2.626.0851,5.2343.6297,7.8584.8869,1.0148.0995,2.1507.1834,2.2678-1.3631.1451-1.9153.4706-3.8257.4916-5.7405.0976-8.9038.117-17.8084.1683-27.4481Z"/>
  <path class="cls-1" d="m137.3234,104.6906c-2.7438-.2147-5.512-.2834-8.217-.7308-.8395-.1388-2.0152-1.2234-2.1435-2.0182-.2369-1.4684.6815-2.6765,2.3783-2.7397,2.179-.0811,4.3634-.0485,6.5449-.0211,2.4136.0302,4.8434-.0439,7.2345.2153,2.0306.2202,4.1001.6421,5.9828,1.3947.8205.3282,1.4625,1.6542,1.6721,2.6358.0725.3398-1.3503,1.1539-2.1956,1.482-.7094.2755-1.5807.2628-2.3653.198-2.953-.2438-4.5065-.0722-7.4557-.3619-.014.145-1.4215-.1988-1.4355-.0538Z"/>
  <path class="cls-1" d="m384.196,164.4583c-.7646,6.4026-2.2479,11.5959-7.4178,14.8406-4.9685,3.1182-12.7259.4761-14.8537-4.9719-.6226-1.5941-1.4189-3.1357-1.8885-4.7716-2.0971-7.3071,3.3293-16.0508,10.9597-17.7534,1.5706-.3504,3.689.2714,5.1275,1.1434,2.1227,1.2868,4.2991,2.9105,5.6444,4.9256,1.3885,2.0799,1.8098,4.7997,2.4285,6.5873Zm-19.3757,2.9814c.0427.9135.0647,1.8287.1318,2.7404.252,3.4228,2.8878,4.2666,5.5463,5.2446,2.4938.9173,4.5182.0261,5.766-1.807,1.4435-2.1207,2.4925-4.5961,3.2697-7.0561,1.1003-3.4823-.1797-6.2376-3.4216-8.0403-.4932-.2743-1.0205-.5846-1.3636-1.0123-1.3563-1.6903-2.91-1.4685-4.6233-.6603-3.3014,1.5577-5.5545,6.0108-5.3053,10.5909Z"/>
  <path class="cls-1" d="m122.5416,161.4566c6.1364-1.0282,9.4124,3.2829,11.7928,8.3839,1.4684,3.1466,1.6632,6.727.8436,10.4187-1.4233,6.4106-7.0956,9.6683-12.6078,10.619-4.9455.8532-10.9109-3.4917-12.9745-8.0683-2.6053-5.778-1.2956-11.0671,1.3777-16.1019,1.749-3.294,5.2722-4.6368,8.9691-5.1218.6821-.0895,1.3781-.0726,2.599-.1297Zm.9348,4.7026c-2.8784-.0723-5.4305.4738-7.3044,2.6326-3.3051,3.8076-3.512,8.0566-1.3745,12.4429,1.4368,2.9484,3.973,4.239,7.2581,4.1937,3.4179-.0471,5.8254-2.1187,7.8412-4.3725.9751-1.0902,1.1691-3.1935,1.0887-4.8067-.0788-1.5791-1.0186-3.1007-1.4709-4.6786-1.4285-4.9832-2.3638-6.3343-6.0382-5.4113Z"/>
</svg>