<?xml version="1.0" encoding="UTF-8"?>
<svg id="Ebene_1" data-name="Ebene 1" xmlns="http://www.w3.org/2000/svg" viewBox="0 0 138.7117 109.8848">
  <defs>
    <style>
      .cls-1 {
        fill: #ad9274;
      }

      .cls-1, .cls-2 {
        stroke-width: 0px;
      }

      .cls-2 {
        fill: #faf6f0;
      }
    </style>
  </defs>
  <polygon class="cls-2" points="39.4207 7.863 39.1773 13.2672 60.2584 13.1698 59.7715 7.6196 39.4207 7.863"/>
  <polygon class="cls-2" points="72.9655 1.2417 68.7298 13.2672 101.5929 13.0724 96.5296 .9496 72.9655 1.2417"/>
  <rect class="cls-2" x="1.1048" y="12.5612" width="136.5646" height="95.9604"/>
  <path class="cls-1" d="m138.583,106.597c0,.3492-.016,1.3634-.0297,2.1647-.0102.5962-.4965,1.073-1.0928,1.073h-1.75s-2.7534-.041-4.1829-.0422c-8.8607-.0073-17.7213-.0064-26.582-.0285-6.6154-.0165-13.2309-.1093-19.8461-.0877-15.414.0502-30.8278.2087-46.2417.2086-12.0523-.0001-24.1048-.1652-36.1569-.2865-.386-.0039-1.0723-.0305-1.6567-.0559C.4591,109.517-.0012,109.0341,0,108.4483L.1905,13.1154c.0012-.6029.4904-1.091,1.0933-1.0908l11.7503.0039c.2957,0,.5733-.1149.779-.3274.6937-.7167,2.6012-2.3625,5.5133-2.391,2.8885-.0283,4.7229,1.6248,5.4008,2.3683.2077.2278.4955.3542.8037.3543l12.3841.0041c.565.0002,1.0389-.4263,1.0902-.989.0906-.9933.144-2.0904.2816-3.3454.0611-.5575.519-.9848,1.0798-.985,6.1563-.003,12.9281-.0333,19.6867-.0361.5575-.0002,1.0254.4192,1.0869.9733.0859.774.178,1.6556.178,1.6556,0,0,.1428,1.1135.3433,2.1308.1002.5083.5526.8698,1.0707.8698h4.2356c.4468,0,.8477-.2697,1.0138-.6845,1.4634-3.656,2.9679-7.4148,4.3808-10.9446.166-.4148.5657-.6815,1.0126-.6815h22.9718c.4484,0,.854.2808,1.019.6977,1.4676,3.7079,2.7859,7.0385,4.0863,10.3241.165.4169.5675.6898,1.0159.6898h35.1408c.603,0,1.0913.4925,1.0921,1.0955.0044,3.4477.026,6.8174-.0066,10.1865l-.111,83.6035ZM21.7729,19.3273c-.3442.1403-.6884.2806-1.0325.4208-.2232.0833-.4465.1665-.3341.1246-.1137.0583.0913-.0468.3-.1499.3491-.1387.6982-.2773,1.0468-.4165,0,0,.0198.021.0198.021Zm108.5195,89.1218c1.3563-.0075,4.0637-.0536,5.5502-.0802.5815-.0104,1.0517-.4746,1.0714-1.0558l.0867-2.566.3992-90.5376c-.0002-.5769-.3486-1.0412-.9243-1.0785-10.9178-.7075-21.3926.3413-32.3354.0732-.776-.019-1.3275.7488-1.0524,1.4746,1.8397,4.8546,3.5088,9.0897,4.9887,13.39,1.0649,3.0944,2.5323,5.785,5.09,7.924,6.3855,5.3401,10.3666,12.3659,11.9187,20.3344,2.616,13.4297-.5788,25.4906-10.5283,35.3492-9.5684,9.4811-21.4145,12.5001-34.2254,10.4788-15.2389-2.4044-29.439-14.939-30.8383-34.0696-.7653-10.4629,1.2818-19.7267,7.6074-28.1559,1.7768-2.3676,2.8708-5.3208,3.9309-8.1361,1.6012-4.2523,2.9032-8.6175,4.3204-12.9386.339-1.0337.657-2.0743,1.0567-3.3707.2168-.7031-.3069-1.4204-1.0427-1.4204H26.3379c-.6144,0-1.1062.5056-1.0926,1.1198.0198.8892.0277,1.9541.0309,2.7305.0024.5968.4832,1.0779,1.0799,1.085l10.1553.1202c.6104.0072,1.0966.5098,1.0797,1.1201l.2174,86.8196c.0105.5779.4682,1.0489,1.0458,1.0722,1.2316.0497,2.8554.0932,3.4519.0969l87.9862.221ZM35.9283,24.8774l-.0173-2.6873c-.0039-.6009-.4921-1.0859-1.0929-1.0859h-9.1932c-.3984,0-.7597.2161-.9552.5632-.6061,1.0755-2.2445,3.318-5.3798,3.3439-3.3584.0278-5.0252-2.2172-5.6316-3.2959-.1955-.3478-.557-.5647-.956-.5647H2.7378c-.6043,0-1.0939.4814-1.0929,1.0857.0415,26.6674.0138,76.7469.009,84.716-.0004.6009.4844,1.0843,1.0853,1.0885l32.5078.228c.6139.0043,1.1109-.4977,1.1005-1.1115l-.4191-82.28Zm88.3986,37.5767c-.7382-18.258-16.9407-35.4222-37.1429-36.0084-20.4884-.5945-36.4997,17.6883-36.5083,37.3488-.0106,24.1211,18.6533,37.0036,34.458,37.0224,23.4804.0279,39.2098-15.3895,39.1932-38.3628Zm-22.9403-48.2621c-.1611-.4241-.5673-.7072-1.021-.7068-3.0654.0029-6.1386.0228-8.7891.0483-7.1714.0692-20.5942.2921-20.5942.2921l-1.2509.0305c-.4495.011-.8465.2961-1.0003.7186l-.3655,1.0035s-2.0961,6.1733-3.177,9.2504c-.7293,2.0763-1.4995,4.1382-2.3554,6.4298-.1808.4841-1.0144,2.7664-.8092,2.9423.1704.1461,1.9845-1.3395,2.4315-1.6428,13.2451-8.9864,26.7248-9.2899,41.2047-2.2894.4325.2091,2.2992,1.4127,2.4087,1.291.1043-.1159-.7317-2.1896-.9158-2.6663-1.9747-5.1135-3.9028-9.7964-5.7665-14.7013Zm-3.6665-9.5028s-.2903-.6889-1.0194-.6921c-4.1992-.0183-18.8963-.0548-23.2233-.0548-.7626,0-1.0832.4627-1.1056.5041-.1724.3175-.1421.3854-.1421.3854-.2631.7136.2649,1.4711,1.0254,1.4711h23.4889c.7519,0,1.2805-.7379,1.0336-1.4481-.0191-.0548-.0576-.1656-.0576-.1656Zm-27.3285,5.5407l-.1682.4225c-.2879.7232.2509,1.507,1.0293,1.4971l27.3697-.3473c.7938-.0101,1.3124-.8364.9763-1.5556l-.0352-.0752c-.1797-.3845-.5657-.6302-.9901-.6302h-27.1663c-.4475,0-.8499.2729-1.0154.6887Zm-58.0487,3.9077l-9.4319-.0396c-.6015-.0025-1.0919.4814-1.0975,1.0828l-.0284,3.0631c-.0056.6093.4881,1.1056,1.0974,1.1031l9.5165-.0395c.6099-.0025,1.0997-.5038,1.0882-1.1136l-.0563-2.9839c-.0112-.5937-.4944-1.0698-1.0882-1.0723Zm29.7037-2.2522c5.5317.0108,11.0808.0962,16.5162.1073.6271.0013,1.1252-.5245,1.0911-1.1507-.0256-.4706-.0591-.9615-.0856-1.3991-.0349-.5785-.5116-1.0308-1.0912-1.0308h-16.3492c-.5779,0-1.0557.4457-1.0903,1.0227-.0244.4063-.055.8513-.0783,1.2995-.0324.6251.4613,1.1499,1.0872,1.1512Zm29.3349-4.2503c-.081.1778-.1052.3531-.0767.5065s.3157.4182,1.0042.4199c4.8186.0119,21.5343.0457,25.4142.0548.4079.0009.8257-.2466.8581-.4747s-.038-.4133-.1643-.6025-.3728-.2548-.7303-.2556c-3.6668-.0079-20.3626-.0805-25.0855-.0913-.6588-.0015-1.1386.2651-1.2196.4429Z"/>
  <path class="cls-2" d="m19.5242,11.4162c2.1577.0696,4.0719,1.9489,4.1067,3.8282s-1.0441,3.8978-3.9326,4.0719c-2.8886.174-4.0371-1.7749-4.0719-3.9326s1.7401-4.0371,3.8978-3.9675Z"/>
  <path class="cls-2" d="m22.996,21.1772s-1.2598,2.0083-3.834,2.0083-3.5602-2.0266-3.5602-2.0266l7.3942.0183Z"/>
  <path class="cls-1" d="m61.1112,63.9602c-.1095-2.41.1789-5.7388,1.0954-8.8.7247-2.4204,1.8569-4.7482,3.2449-6.9309,5.8747-9.2384,15.3264-12.2287,25.7477-11.6185,4.5206.2647,8.2972.9162,12.1397,3.5984,6.6056,4.611,9.7492,10.3345,10.828,18.2373.2158,1.5809.4374,3.7074.4747,5.2946.228,9.6915-3.1368,17.668-11.3195,22.9312-14.5507,9.359-33.1865,4.7489-40.4582-11.3926-1.5253-3.3858-1.6432-8.9096-1.7527-11.3195Zm1.4143.2921c0,1.0358-.0498,2.0745.0082,3.107.3305,5.8861,2.3939,10.9569,6.6491,15.1965,7.0743,7.0483,19.2704,9.6606,29.7755,4.8811,9.7835-4.4512,13.9031-12.4043,14.4695-22.6018.1302-2.345-.2468-4.8185-.8201-7.1007-1.6906-7.4672-3.4353-11.248-8.2352-14.8775-9.2656-7.0061-19.7904-6.4908-29.2489-1.5978-8.5956,4.4465-12.8095,12.918-12.5981,22.9932Z"/>
  <path class="cls-1" d="m85.3569,30.8414c-2.2662.6475-15.8771,2.8835-23.1869,12.5883-7.6071,10.0995-7.5019,15.9041-6.3388,30.049.1071,1.302-.6089.9549-.7532.6043-.1742-.4231-1.082-7.5317-1.1723-9.9646-.1044-6.9635.9859-12.1228,4.4913-17.7461,2.3734-3.7245,5.2183-6.8433,8.2506-9.2275,3.0324-2.3842,9.3314-5.382,14.6053-6.6688.6627-.1617,1.8401-.3527,3.1181-.4379,1.3175-.0878,2.1037.484.9859.8033Z"/>
  <path class="cls-1" d="m72.8421,93.8044c.3797.3534.2336.7915-.6184.402s-5.4862-3.3792-7.9358-5.745c-2.7524-2.6582-5.5989-7.2542-5.818-7.8385s.0964-.7432.4133-.7489,2.3131,4.0352,5.9402,7.784c3.8949,3.6758,7.639,5.7929,8.0187,6.1462Z"/>
  <path class="cls-1" d="m98.6847,95.1558c-.2921.3651-4.6779,1.9878-8.4247,2.345s-7.2274-.0919-7.7632-.1108-.6745-.8097-.1061-.8768,3.879.4441,8.1634.0303c4.2844-.4138,6.9134-1.8744,7.4733-1.9231s.9494.1704.6573.5355Z"/>
  <path class="cls-1" d="m19.6119,12.8656c1.4304.0461,2.6993,1.292,2.7224,2.5378.0231,1.2459-.6921,2.584-2.6071,2.6993s-2.6763-1.1766-2.6993-2.6071c-.0231-1.4304,1.1536-2.6763,2.584-2.6301Z"/>
  <path class="cls-2" d="m19.6439,14.166c.7283.0235,1.3744.6578,1.3861,1.2922s-.3524,1.3157-1.3274,1.3744-1.3626-.5991-1.3744-1.3274.5873-1.3626,1.3157-1.3391Z"/>
</svg>