<?xml version="1.0" encoding="UTF-8"?>
<svg id="Ebene_1" data-name="Ebene 1" xmlns="http://www.w3.org/2000/svg" viewBox="0 0 139.0285 109.8849">
  <defs>
    <style>
      .cls-1 {
        fill: none;
      }

      .cls-1, .cls-2 {
        stroke-width: 0px;
      }

      .cls-2 {
        fill: #ad9274;
      }
    </style>
  </defs>
  <path class="cls-2" d="m125.4216,22.437c.1947-.0122,1.2293-2.13,1.4606-2.1178s.9007.2982.7303.6025-1.5184,2.4008-1.5062,2.5469,2.6382.5142,2.8208.8307.2191.9311-.073,1.0042-2.9364-.6329-3.3137-.5477-1.0498.8033-1.8775.9494-1.8379.2191-2.5439-.2069-.9129-1.278-.8885-1.9353.5112-1.4971,1.0102-1.8014,1.7527-.4625,2.41-.2556,1.5762.9433,1.771.9311Zm-4.0227,1.1624c0,.3043.2556.7425.5599.8764s1.0371.2264,1.4606.0852c.4747-.1582,1.1441-.4017,1.1685-.9007s-.7546-.8764-1.1198-.9494-1.1685-.1095-1.5093.0852c-.2707.1547-.5599.499-.5599.8033Z"/>
  <path class="cls-2" d="m126.7544,27.8959c-.5004,2.8685-.9146,4.6674-1.2826,6.7771-.3461-.0166-.6923-.0332-1.0384-.0498.1191-1.5127.835-4.1681.9517-5.6501-.9311-.0183-1.9535,0-2.8481-.0548.0414-.2522.0356-.7263.077-.9785,1.2375-.0439,2.3329-.0257,4.1404-.0439Z"/>
  <path class="cls-2" d="m98.6869,95.1558c-.2921.3651-4.6779,1.9878-8.4247,2.345s-7.2274-.0919-7.7632-.1108-.6745-.8097-.1061-.8768,3.879.4441,8.1634.0303c4.2844-.4138,6.9134-1.8744,7.4733-1.9231s.9494.1704.6573.5355Z"/>
  <g>
    <path class="cls-1" d="m61.5706,34.6576c14.9355-11.5927,30.0999-11.9657,46.5979-3.1102-2.4243-6.4316-4.7842-12.0591-7.0474-18.0626-3.312,0-6.6748.021-9.5425.0486-7.1714.0692-20.5942.2922-20.5942.2922l-1.9961.0486-.6206,1.704s-2.0959,6.1734-3.1768,9.2504c-1.0713,3.0496-2.2305,6.0682-3.6204,9.8289Z"/>
    <path class="cls-1" d="m50.6777,63.7945c-.0105,24.1211,18.6533,37.0036,34.458,37.0224,23.4805.0279,39.21-15.3895,39.1934-38.3629-.7383-18.258-16.9407-35.4222-37.1428-36.0084-20.4885-.5945-36.4998,17.6883-36.5085,37.3488Z"/>
    <path class="cls-1" d="m59.5271,8.412h-18.4465c0,.8467-.1538,2.2693-.1538,3.4722,6.2866,0,12.6069.1096,18.7686.1096,0-1.0639-.1682-2.8124-.1682-3.5818Z"/>
    <polygon class="cls-1" points="99.271 9.5413 70.668 9.5413 69.6211 12.1703 100.3179 11.7808 99.271 9.5413"/>
    <path class="cls-1" d="m98.6138,7.6669c-1.0801,0-26.1353-.1948-27.2156-.1948-.031.0387-.3096.9351-.3406.9738,1.1108,0,26.7859.0486,27.897.0486.0244-.0974-.3408-.7889-.3408-.8276Z"/>
    <path class="cls-1" d="m96.6426,1.5832h-23.2129c-.4922,1.3351-.9946,2.6977-1.7402,4.7197h26.5938c-.4551-1.309-.9683-2.7853-1.6406-4.7197Z"/>
    <path class="cls-1" d="m137.5017,24.2452c.0129-3.4904.0022-6.9808.0022-11.0426-11.8306-.8867-23.1104.3904-34.9893-.0483,2.0684,5.5051,3.9312,10.1701,5.564,14.9144,1.0649,3.0944,2.5322,5.785,5.0901,7.924,6.3855,5.3401,10.3665,12.3658,11.9187,20.3344,2.616,13.4297-.5789,25.4906-10.5283,35.3492-9.5684,9.4811-21.4143,12.5001-34.2253,10.4788-15.2388-2.4044-29.439-14.939-30.8381-34.0696-.7654-10.463,1.2817-19.7267,7.6074-28.1558,1.7766-2.3676,2.8706-5.3208,3.9307-8.1361,1.6013-4.2523,2.9033-8.6175,4.3206-12.9386.4543-1.385.8706-2.7824,1.4968-4.791H25.2095c.0757,1.399.0708,4.9225.0708,4.9225l12.342.1461s-.1064,4.4459-.2556,7.1934c-.7546,13.8999-.2366,29.1431-.2368,43.1833l.6992,38.5728c1.0957.0664,3.689.1413,4.4792.1461,10.3794.0631,20.5259.3999,30.9053.3935,19.0271-.0117,38.0542-.067,57.0808-.1725,1.9282-.0107,6.5867-.0992,6.5867-.0992l.1218-3.6028s.6707-16.2885.7725-25.0539c.124-10.658-.2842-21.3212-.3599-31.9828-.0557-7.8211.0576-15.6433.0862-23.4651Z"/>
    <path class="cls-1" d="m35.406,42.3752c.0618-5.8921.5244-17.4979.5244-17.4979l-.0244-3.7731h-10.9543s-1.5334,3.8729-5.6597,3.907c-4.4182.0365-5.9087-3.8606-5.9087-3.8606H1.6453c.0479,28.6717.01,86.8826.01,86.8826l34.7134.2434-.6892-40.5057c-.0618-8.4658-.3623-16.9326-.2734-25.3958Z"/>
    <polygon class="cls-1" points="13.4131 14.1421 1.8257 14.0934 1.7771 19.3515 13.5105 19.3029 13.4131 14.1421"/>
  </g>
  <g>
    <path class="cls-1" d="m50.6777,63.7945c-.0105,24.1211,18.6533,37.0036,34.458,37.0224,23.4805.0279,39.21-15.3895,39.1934-38.3629-.7383-18.258-16.9407-35.4222-37.1428-36.0084-20.4885-.5945-36.4998,17.6883-36.5085,37.3488Z"/>
    <path class="cls-1" d="m59.5271,8.412h-18.4465c0,.8467-.1538,2.2693-.1538,3.4722,6.2866,0,12.6069.1096,18.7686.1096,0-1.0639-.1682-2.8124-.1682-3.5818Z"/>
    <path class="cls-1" d="m19.7002,19.3163c2.8887-.174,3.9675-2.1925,3.9329-4.0718-.0349-1.8793-1.949-3.7587-4.1067-3.8282s-3.9326,1.8097-3.8979,3.9675c.0349,2.1577,1.1833,4.1066,4.0718,3.9326Z"/>
    <path class="cls-1" d="m61.5706,34.6576c14.9355-11.5927,30.0999-11.9657,46.5979-3.1102-2.4243-6.4316-4.7842-12.0591-7.0474-18.0626-3.312,0-6.6748.021-9.5425.0486-7.1714.0692-20.5942.2922-20.5942.2922l-1.9961.0486-.6206,1.704s-2.0959,6.1734-3.1768,9.2504c-1.0713,3.0496-2.2305,6.0682-3.6204,9.8289Z"/>
    <polygon class="cls-1" points="99.271 9.5413 70.668 9.5413 69.6211 12.1703 100.3179 11.7808 99.271 9.5413"/>
    <path class="cls-1" d="m96.6426,1.5832h-23.2129c-.4922,1.3351-.9946,2.6977-1.7402,4.7197h26.5938c-.4551-1.309-.9683-2.7853-1.6406-4.7197Z"/>
    <path class="cls-1" d="m137.5017,24.2452c.0129-3.4904.0022-6.9808.0022-11.0426-11.8306-.8867-23.1104.3904-34.9893-.0483,2.0684,5.5051,3.9312,10.1701,5.564,14.9144,1.0649,3.0944,2.5322,5.785,5.0901,7.924,6.3855,5.3401,10.3665,12.3658,11.9187,20.3344,2.616,13.4297-.5789,25.4906-10.5283,35.3492-9.5684,9.4811-21.4143,12.5001-34.2253,10.4788-15.2388-2.4044-29.439-14.939-30.8381-34.0696-.7654-10.463,1.2817-19.7267,7.6074-28.1558,1.7766-2.3676,2.8706-5.3208,3.9307-8.1361,1.6013-4.2523,2.9033-8.6175,4.3206-12.9386.4543-1.385.8706-2.7824,1.4968-4.791H25.2095c.0757,1.399.0708,4.9225.0708,4.9225l12.342.1461s-.1064,4.4459-.2556,7.1934c-.7546,13.8999-.2366,29.1431-.2368,43.1833l.6992,38.5728c1.0957.0664,3.689.1413,4.4792.1461,10.3794.0631,20.5259.3999,30.9053.3935,19.0271-.0117,38.0542-.067,57.0808-.1725,1.9282-.0107,6.5867-.0992,6.5867-.0992l.1218-3.6028s.6707-16.2885.7725-25.0539c.124-10.658-.2842-21.3212-.3599-31.9828-.0557-7.8211.0576-15.6433.0862-23.4651Z"/>
    <path class="cls-1" d="m35.406,42.3752c.0618-5.8921.5244-17.4979.5244-17.4979l-.0244-3.7731h-10.9543s-1.5334,3.8729-5.6597,3.907c-4.4182.0365-5.9087-3.8606-5.9087-3.8606H1.6453c.0479,28.6717.01,86.8826.01,86.8826l34.7134.2434-.6892-40.5057c-.0618-8.4658-.3623-16.9326-.2734-25.3958Z"/>
    <path class="cls-1" d="m98.6138,7.6669c-1.0801,0-26.1353-.1948-27.2156-.1948-.031.0387-.3096.9351-.3406.9738,1.1108,0,26.7859.0486,27.897.0486.0244-.0974-.3408-.7889-.3408-.8276Z"/>
    <polygon class="cls-1" points="13.4131 14.1421 1.8257 14.0934 1.7771 19.3515 13.5105 19.3029 13.4131 14.1421"/>
    <path class="cls-2" d="m138.9771,67.5428c-.0474-5.422-.5542-10.841-.5662-16.262-.0203-9.4288.1941-18.858.2854-28.2872.0359-3.7251.0059-7.4509.0059-11.282h-36.9751c-1.4705-3.7151-2.9519-7.4582-4.6355-11.7116h-24.4543c-1.5786,3.9438-3.2847,8.2057-4.9277,12.3107h-5.8486c-.2974-1.1041-.5405-3.0007-.5405-3.0007,0,0-.2112-2.0201-.2922-2.629-7.4319,0-14.9165.0365-21.6165.0365-.3003,2.1373-.3076,3.8371-.5156,5.3195l-13.8711-.0046s-1.9719-2.7589-5.6963-2.7224c-3.7246.0366-5.8059,2.7186-5.8059,2.7186l-13.3279-.0043-.1948,97.4696s1.9395.0967,2.7031.1044c12.0522.1213,24.1045.2864,36.157.2866,15.4138.0001,30.8276-.1584,46.2417-.2086,6.615-.0215,13.2307.0712,19.8459.0877,8.8606.0221,17.7214.0212,26.582.0285,1.4294.0012,4.1829.0422,4.1829.0422h2.8237s.0488-2.6291.0488-3.2377c.1216-3.335.3252-5.5594.3538-8.666.0928-10.1289.1265-20.2596.0381-30.3883ZM73.4297,1.5832h23.2129c.6724,1.9344,1.1855,3.4107,1.6406,4.7197h-26.5938c.7456-2.022,1.248-3.3846,1.7402-4.7197Zm-2.0315,5.8889c1.0803,0,26.1355.1948,27.2156.1948,0,.0387.3652.7303.3408.8276-1.1111,0-26.7861-.0486-27.897-.0486.031-.0387.3096-.9351.3406-.9738Zm-.7302,2.0692h28.603l1.0469,2.2396-30.6968.3895,1.0469-2.6291Zm-2.3003,6.037l.6206-1.704,1.9961-.0486s13.4229-.223,20.5942-.2922c2.8677-.0276,6.2305-.0486,9.5425-.0486,2.2632,6.0035,4.623,11.6309,7.0474,18.0626-16.498-8.8555-31.6624-8.4825-46.5979,3.1102,1.3899-3.7606,2.5491-6.7793,3.6204-9.8289,1.0808-3.077,3.1768-9.2504,3.1768-9.2504Zm55.9614,46.8757c.0166,22.9734-15.7129,38.3907-39.1934,38.3629-15.8047-.0188-34.4685-12.9013-34.458-37.0224.0088-19.6605,16.02-37.9433,36.5085-37.3488,20.2021.5862,36.4045,17.7504,37.1428,36.0084ZM41.0806,8.412h18.4465c0,.7694.1682,2.5179.1682,3.5818-6.1616,0-12.4819-.1096-18.7686-.1096,0-1.2029.1538-2.6255.1538-3.4722Zm-21.5542,3.0042c2.1577.0696,4.0718,1.9489,4.1067,3.8282.0347,1.8793-1.0442,3.8978-3.9329,4.0718-2.8884.174-4.0369-1.7749-4.0718-3.9326-.0347-2.1578,1.7402-4.037,3.8979-3.9675Zm3.4717,9.761s-1.2598,2.0083-3.834,2.0083-3.5601-2.0266-3.5601-2.0266l7.394.0182ZM1.8257,14.0934l11.5874.0486.0974,5.1608-11.7334.0486.0486-5.2581Zm-.1704,93.9399s.0378-58.2109-.01-86.8826h11.738s1.4905,3.8971,5.9087,3.8606c4.1262-.0341,5.6597-3.907,5.6597-3.907h10.9543l.0244,3.7731s-.4626,11.6058-.5244,17.4979c-.0889,8.4633.2117,16.93.2734,25.3958l.6892,40.5057-34.7134-.2434Zm136.1201-28.3402c-.1018,8.7654-.7725,25.0539-.7725,25.0539l-.1218,3.6028s-4.6584.0886-6.5867.0992c-19.0266.1055-38.0537.1608-57.0808.1725-10.3794.0064-20.5259-.3304-30.9053-.3935-.7903-.0048-3.3835-.0797-4.4792-.1461l-.6992-38.5728c.0002-14.0403-.5178-29.2834.2368-43.1833.1492-2.7474.2556-7.1934.2556-7.1934l-12.342-.1461s.0049-3.5236-.0708-4.9225h41.6416c-.6262,2.0086-1.0425,3.406-1.4968,4.791-1.4172,4.3211-2.7192,8.6863-4.3206,12.9386-1.0601,2.8153-2.1541,5.7685-3.9307,8.1361-6.3257,8.4291-8.3728,17.6929-7.6074,28.1558,1.3992,19.1306,15.5994,31.6652,30.8381,34.0696,12.811,2.0213,24.657-.9977,34.2253-10.4788,9.9495-9.8586,13.1443-21.9195,10.5283-35.3492-1.5522-7.9686-5.5332-14.9943-11.9187-20.3344-2.5579-2.139-4.0251-4.8295-5.0901-7.924-1.6328-4.7443-3.4956-9.4092-5.564-14.9144,11.8789.4387,23.1587-.8384,34.9893.0483,0,4.0618.0107,7.5522-.0022,11.0426-.0286,7.8218-.1418,15.644-.0862,23.4651.0757,10.6617.4839,21.3248.3599,31.9828Z"/>
  </g>
  <path class="cls-2" d="m6.9775,33.3086c-.0396-.7631,3.0613-1.5402,5.4982-2.4311,7.0232-2.5677,11.1615.4996,13.4011,2.2523,2.2396,1.7527,3.6028-.1947,4.1383.8764.5355,1.0711-.1025,3.6725-1.9987,4.0758s-5.8885-7.1917-13.5854-5.2844c-1.1749.2911-2.2264.802-2.815,1.4435s-1.0533,3.6361-1.8433,3.7698-2.7556-3.939-2.7952-4.7021Z"/>
  <path class="cls-2" d="m29.5217,74.2879c-.17-.201-.3666-2.6724-.7229-3.9607-1.0964-3.9649-1.9631-8.0367-3.5283-11.8146-1.2268-2.9612-3.9134-4.4978-7.3726-4.2535-1.1363.0802-3.8906.7044-4.0782-.3597-.1118-.6342,3.8644-1.498,7.0058-.9545,2.1289.3683,3.8403,1.3575,4.7834,2.9211,1.9246,3.1281,2.8481,6.9743,4.053,10.9909.5479,2.0448.8423,3.7727,1.1168,5.8235.0671.5012.2161,1.3881.0335,1.589s-1.1206.2194-1.2906.0184Z"/>
  <path class="cls-2" d="m60.9186,63.5707c-.1095-2.41.1789-5.7388,1.0954-8.8.7247-2.4204,1.8569-4.7482,3.2449-6.9309,5.8747-9.2384,15.3264-12.2287,25.7477-11.6185,4.5206.2647,8.2972.9162,12.1397,3.5984,6.6056,4.611,9.7492,10.3345,10.828,18.2373.2158,1.5809.4374,3.7074.4747,5.2946.228,9.6915-3.1368,17.668-11.3195,22.9312-14.5507,9.359-33.1865,4.7489-40.4582-11.3926-1.5253-3.3858-1.6432-8.9096-1.7527-11.3195Zm1.4143.2921c0,1.0358-.0498,2.0745.0082,3.107.3305,5.8861,2.3939,10.9569,6.6491,15.1965,7.0743,7.0483,19.2704,9.6606,29.7755,4.8811,9.7835-4.4512,13.9031-12.4043,14.4695-22.6018.1302-2.345-.2468-4.8185-.8201-7.1007-1.6906-7.4672-3.4353-11.248-8.2352-14.8775-9.2656-7.0061-19.7904-6.4908-29.2489-1.5978-8.5956,4.4465-12.8095,12.918-12.5981,22.9932Z"/>
  <path class="cls-2" d="m85.359,30.8415c-2.2662.6475-15.8771,2.8835-23.1869,12.5883-7.6071,10.0995-7.5019,15.9041-6.3388,30.049.1071,1.302-.6089.9549-.7532.6043-.1742-.4231-1.082-7.5317-1.1723-9.9646-.1044-6.9635.9859-12.1228,4.4913-17.7461,2.3734-3.7245,5.2183-6.8433,8.2506-9.2275,3.0324-2.3842,9.3314-5.382,14.6053-6.6688.6627-.1617,1.8401-.3527,3.1181-.4379,1.3175-.0878,2.1037.484.9859.8033Z"/>
  <path class="cls-2" d="m72.8443,93.8044c.3797.3534.2336.7915-.6184.402s-5.4862-3.3792-7.9358-5.745c-2.7524-2.6582-5.5989-7.2542-5.818-7.8385s.0964-.7432.4133-.7489,3.7085,5.5553,5.9402,7.784c2.2741,2.2711,7.639,5.7929,8.0187,6.1462Z"/>
  <path class="cls-2" d="m19.614,12.8657c-1.4304-.0461-2.6069,1.1997-2.584,2.6301.0232,1.4304.7844,2.7224,2.6995,2.6071,1.9148-.1154,2.6301-1.4535,2.6069-2.6993-.0229-1.2458-1.292-2.4917-2.7224-2.5378Zm.0908,3.9669c-.9751.0587-1.3625-.5991-1.3743-1.3274-.012-.7283.5872-1.3627,1.3154-1.3392.7285.0235,1.3745.6578,1.3862,1.2922s-.3525,1.3157-1.3274,1.3744Z"/>
</svg>