<?xml version="1.0" encoding="UTF-8"?>
<svg id="Ebene_1" data-name="Ebene 1" xmlns="http://www.w3.org/2000/svg" viewBox="0 0 33.9674 101.6766">
  <defs>
    <style>
      .cls-1 {
        fill: #fff;
        stroke-width: 0px;
      }
    </style>
  </defs>
  <path class="cls-1" d="m24.959,12.9585c-.042.9526-.0467,1.5929-.103,2.2287-.1383,1.561-.7098,2.9382-1.8058,4.0792-.2769.2882-.5662.5656-.8287.8663-.8769,1.0046-.8513,1.0955.3502,1.9484.3882.2756.5586.3359.8833.6794.5178.5478.3469,1.0954.2921,2.2456-.0548,1.1685-.1021,1.7627-.1472,2.7287-.2197,4.708-.4537,9.4158-.7431,14.12-.1519,2.4695-.4945,4.9277-.63,7.3976-.1531,2.7899-.1549,5.5878-.2523,8.3812-.0582,1.6697-.108,3.1385-.1993,4.9642.0365,1.1137.2114,1.6746.8239,2.3894,1.6574,1.9339,1.614,1.9668,1.3487,4.5022-.0571.5456-.0859,1.0957-.0855,1.6438,0,.0793.2821.2543.3564.2195.2067-.0966.3747-.2778.5543-.43.7887-.6682,1.5107-1.4424,2.3776-1.9854,1.8358-1.15,3.8919-.5792,4.8578,1.3612.4922.9888.844,1.9451.922,2.9188.0931,1.1612-.0938,1.9452-.4138,2.8725s-1.3399,2.4454-2.6934,2.9159c-1.5456.5373-3.0115.1392-4.3309-.7272-.5872-.3856-1.0529-.954-1.5921-1.418-.0576-.0495-.3404.0278-.3484.0751-.1334,1.6372-.2977,2.8604-.2958,4.7442.0002.2386.3825.5362.6408.6083.8437.2353,1.7186.3559,2.5715.5618,3.6992.8928,6.004,4.6698,5.3839,8.3885-.4426,2.6543-1.8748,4.4301-3.9427,5.9957-3.6454,2.7596-7.6849,3.3996-12.0186,2.5088-2.1839-.449-4.3712-1.0332-6.4401-1.8517-2.5305-1.0012-4.8596-2.3916-6.4045-4.805-.7294-1.1395-.9077-1.4748-.7639-3.3155.0616-.5854.0944-.8335.1626-1.2473.5933-3.4623,2.8219-5.4126,5.9979-6.4815.3011-.1014.6256-.1313.9317-.2203.5176-.1506.801-.5047.8034-1.049.014-3.2728.0292-6.5457.0292-9.8185,0-1.1188-.0344-2.2378-.0683-3.3563-.0248-.8165.0437-1.608.5866-2.2674.7139-.8671.7567-1.8988.7889-2.9476.1914-6.2259.3285-12.4545.609-18.6765.2481-5.5016.6617-10.9958.9951-16.4936.0334-.5512.0233-1.1054.0225-1.6582-.0022-1.4934.2979-2.8782,1.5724-3.825.5234-.3888.4766-.738.1643-1.1926-1.2021-1.7496-1.1344-3.5504-.362-5.4659.6668-1.6536,1.414-3.1894,2.8356-4.3573,1.2352-1.0148,1.8131-2.4198,1.8497-4.0122.0311-1.3553-.0164-2.7121-.0112-4.0682.0015-.3912.0443-.7854.1069-1.1719.0434-.2683.5998-.3927.8083-.1992.1167.1083.2672.2019.3368.3362,1.501,2.8979,3.324,5.6488,4.216,8.8273.2542.9059.2307,1.8898.3011,2.5325Zm-11.7064,42.3147c-.04,4.1663-.1865,7.79-.0548,11.684.0077.2274.3118.5449.5509.6437.5118.2111,1.0643.3837,1.6129.4347,1.7462.1622,3.5113.3797,5.1688-.4618.3434-.1743.8461-.7303.4964-.9409-.5761-.3468-.639-1.205-.6755-1.8257.0548-3.9618.0753-6.8557.2515-10.6012.045-.9568.0196-1.9172.0702-2.8736.1808-3.4205.3596-6.8414.5785-10.2597.2291-3.5787.5165-7.1537.7499-10.7322.0672-1.0298.0626-2.0666.0389-3.099-.0124-.5399-.3447-.8922-.9083-.9158-1.0374-.0436-2.0763-.0856-3.1141-.0752-.809.0081-1.5736-.0624-2.328-.4142-.6189-.2886-.9031-.0972-.9527.5356-.1433,1.8287-.2951,3.6577-.3831,5.4894-.0765,1.5939-.0313,3.1938-.1101,4.7876-.1341,2.7094-.3234,5.4162-.4895,8.124l-.5016,10.5004Zm6.3643,35.4376c0-.0059,0-.0117.0001-.0176-.7195,0-1.4392.0106-2.1584-.002-2.344-.0412-4.4102-.7741-6.1994-2.1861-.6557-.5174-.736-1.4101-.7391-2.3572-.0034-1.0386.0261-1.4277-.0512-2.136-.0482-.442-.399-.6759-.855-.6435-1.318.0936-2.5356.4142-3.5385,1.374-.7741.805-1.4436,1.7301-1.6261,2.2535s-.6694,1.6675-.6573,2.5682c.0124.9166.1533,2.9094,1.9163,4.2993.8114.6397,1.6854,1.2322,2.6074,1.6935,3.4647,1.7338,7.1444,2.8108,11.0138,2.9821,1.9811.0877,5.3273-.9057,6.992-2.2563,2.069-1.6787,2.5705-1.7944,3.7245-4.6008.4161-1.0641.6276-2.445.2397-3.4259-.9625-2.4339-2.673-3.9273-5.3126-4.2672-1.1897-.1532-1.6699.1767-1.7532,1.3436-.1023,1.4329-.1498,2.0293-.2212,3.4648-.0343.6886-.4382,1.3389-.9494,1.5823s-1.6343.3313-2.4323.3313Zm-7.3901-4.0132c.0867.5187,1.0099,1.2439,1.476,1.4431,2.0141.8608,4.1004,1.2858,6.2936.9356.6677-.1067,1.1991-.3672,1.2494-1.1879.0533-.872.2456-1.7372.2754-2.6088.079-2.3135.07-4.6301.1575-6.9431.1116-2.9487.2479-5.8975.7828-8.8113.1012-.5512-.3389-.9143-.8767-.7478-2.5644.7943-5.1428,1.0992-7.7722.3197-.303-.0898-.6299-.1023-.9469-.1411-.6747-.0827-.9009.0806-.8992.7262.0094,3.5124.0248,7.0248.0596,10.537l.2007,6.4783ZM21.5816,15.7177h-.015c0,.5591-.0241,1.1198.0137,1.6763.0124.1828.1607.3795.2998.516.0404.0397.3002-.0721.3975-.1738.7397-.7724,1.262-1.6712,1.2717-2.7623.0106-1.1935.0216-2.3981-.1208-3.5794-.2438-2.0218-1.0893-3.8227-2.3186-5.4414-.0859-.1131-.2197-.1899-.3312-.2836-.0875.1268-.2083.2425-.255.3829-.0751.2254-.1338.4659-.1427.7022-.0795,2.1087-.925,3.792-2.5127,5.2237-1.2488,1.126-2.0768,2.5804-2.525,4.2671-.6584,2.4777.5251,3.8066,2.1987,4.7158.1176.0639.338.0523.4499-.0192.1086-.0693.2159-.2769.1914-.3967-.1598-.7804-.2956-1.5741-.5541-2.3239-.3727-1.0815-.0652-2.1016.3555-3.0144.526-1.1414,1.3095-2.165,1.9909-3.2336.1975-.3097.8507-.2901,1.0339.0516.2235.4169.4963.8548.5474,1.3062.0891.7863.0248,1.59.0248,2.3863Zm9.6524,57.8838c-.0475-.5502-.0199-1.1198-.1563-1.647-.423-1.6343-2.0753-2.28-3.5096-1.4018-.4043.2475-.7997.5177-1.1662.8177-1.4005,1.1461-1.8319,2.7315-1.3272,4.4744.3672,1.2684,1.3268,1.6923,2.4675,1.9029,1.2069.2229,2.1916-.1206,2.8548-1.2028.5524-.9014.8134-1.8831.8371-2.9433Zm-11.6678-48.6682c-.2373.0183,1.2331-.1425,1.9337-.2433.4884-.0703.6539-.7597.3111-1.1323-.7429-.8073-1.2172-.7675-2.0188.1691-.4604.538-.6413.5718-1.1706.1727-.3163-.2386-.6224-.4935-.9134-.7622-.4448-.4107-.9924-.5467-1.5444-.4427-.349.0658-.9664.3785-.982.5418s.3795.6482.6143.8479c.816.6942,2.3278.8764,2.839.8764s1.1685-.0456.9311-.0274Zm.6068-8.0823c0-.6725.0379-.9151-.0116-1.1383-.0422-.1903-.1848-.3584-.2829-.5363-.1953.1081-.4427.1724-.5774.3318-.7301.8639-.7233,1.8494-.3788,2.8599.0354.1038.2332.2039.3605.2103.1306.0065.3528-.0734.387-.1687.2312-.6443.4231-1.3026.5032-1.5587Z"/>
</svg>