<?xml version="1.0" encoding="UTF-8"?>
<svg id="Ebene_1" data-name="Ebene 1" xmlns="http://www.w3.org/2000/svg" viewBox="0 0 79.4558 118.0152">
  <defs>
    <style>
      .cls-1 {
        fill: #fff;
        stroke-width: 0px;
      }
    </style>
  </defs>
  <path class="cls-1" d="m47.0078,21.5002c0,.4843.0341,1.1256-.0069,1.7622-.0953,1.4822-.5817,2.8085-1.6659,3.8716-.1713.1679-.3588.3248-.5017.5147-.3321.4414-.8173.8643-.9178,1.36-.1416.6986.7408.681,1.0969,1.0649.3759.4052.8042.7676,1.1412,1.2017.3008.3875.4322.8681.2097,1.3546-.6529,1.4277-.5207,2.9879-.6567,4.478-.3191,3.4943-.3937,7.0101-.6186,10.514-.2605,4.0591-.5815,8.1144-.8623,12.1723-.0496.7162-.031,1.4371-.0434,2.1559-.0484,2.796-.07,5.5927-.1589,8.3874-.0322,1.0114.1209,1.8956.8866,2.6153,1.2637,1.1878,1.7465,2.5828,1.1966,4.2996-.1408.4395-.0565.9523-.0654,1.4316-.0013.0731.0602.2124.0814.2103.1263-.0129.2788-.023.3689-.0983.7949-.6635,1.5247-1.4197,2.3761-1.9978,2.0592-1.398,4.3267-.7665,5.4051,1.4709.5932,1.2305.9647,2.5222.9828,3.9194.0296,2.2768-1.2526,3.7255-3.0272,4.7993-1.3564.8207-2.7792.3555-4.1467-.145-.1482-.0542-.2819-.1495-.4195-.2306-.6129-.3616-1.2248-.7249-1.837-1.0876-.5723.7637-.2165,1.6524-.3321,2.4776-.011.0782.0002.1596.0014.2396q.0255,1.6186,1.6908,2.0296c.3102.0762.6249.1353.9392.1935,3.2044.5941,4.9542,2.7367,5.8815,5.6613.233.7347.2131,1.5873.142,2.3706-.0788.8675-.2654,1.7477-.5582,2.5677-.3739,1.0472-.8995,1.9987-1.8147,2.7574-1.9779,1.6396-3.9548,3.2409-6.499,3.9278-2.5988.7016-5.2064.6974-7.8202.0952-.8551-.197-1.7093-.3989-2.5599-.6146-2.9715-.7533-5.7587-1.8984-8.0923-3.948-.5924-.5203-1.0898-1.1484-1.6348-1.7232-1.3507-1.4247-1.4171-3.0752-1.0626-4.9142.693-3.5955,2.8072-5.8059,6.2429-6.8587.3057-.0937.6101-.1935.9196-.2729.5668-.1454.7312-.5528.7323-1.0782.0069-3.1965.0175-6.393.0203-9.5896.0008-.8792-.0065-1.759-.0352-2.6376-.0394-1.2112.0483-2.351.7379-3.4447.6596-1.0462.5161-2.3394.4692-3.505-.055-1.3688-.0839-2.708.2269-4.0445.0179-.0769.0164-.1588.0198-.2385.1662-3.9081.3511-7.8156.4918-11.7247.1062-2.9505-.0607-5.9131.4339-8.8457.0659-.3904.0313-.7973.0497-1.1962.0988-2.148-.0631-4.3025.4084-6.4413.2194-.9954.1297-2.0707.0974-3.1072-.047-1.5052.2578-2.8689,1.4-3.9236.5081-.4692.5463-.9118.1732-1.4644-.1769-.262-.332-.5577-.4156-.8606-.3418-1.2392-.4979-2.4342-.0123-3.7363.7368-1.976,1.5888-3.8222,3.2017-5.2529,1.2719-1.1282,1.7949-2.6274,1.8156-4.2862.0159-1.274-.0823-2.5494-.1297-3.8242-.0088-.2362-.0974-.5121-.0055-.699.1284-.2612.3572-.5231.6106-.6541.1531-.0792.4775.0311.6471.1593.2481.1875.483.438.6253.7125,1.1758,2.2683,2.3818,4.5234,3.4699,6.8338.6884,1.4617.8835,3.059.7062,4.8359Zm-11.8091,49.403c.0794,1.073.1563,2.4228.2986,3.7656.0279.2631.2591.6504.4814.7242,1.9334.641,3.8944.8306,5.8737.1673.3514-.1178.5895-.3046.3372-.6668-.3342-.4797-.4992-.9297-.3782-1.553.166-.8548.2065-1.7407.2302-2.6153.1362-5.0167.2227-10.0347.5809-15.0434.091-1.2727.0277-2.556.1001-3.8308.0766-1.3505.2572-2.6948.3454-4.0449.2184-3.3423.4059-6.6866.6176-10.0293.025-.3954.1344-.7848.1864-1.1793.2231-1.6937-.1616-2.1225-1.8472-2.2356-1.5016-.1008-3.0324.2048-4.5078-.363-.338-.1301-.565.2112-.5788.5672-.1137,2.9481-.6513,5.8715-.5084,8.8352.0269.5572-.0119,1.1182-.033,1.6769-.1661,4.385-.5896,8.7602-.5024,13.1551.0063.3187.0231.6515-.0539.9552-.4372,1.7239-.3616,3.4869-.4297,5.2381-.0803,2.0672-.1367,4.1354-.2122,6.4767Zm6.2496,35.3819c2.0985-.0407,4.1588-.2614,5.8375-1.7058,1.8271-1.572,3.368-3.3802,4.469-5.5505.3797-.7484.6191-1.5462.3853-2.3045-.5819-1.8875-1.5695-3.5078-3.5928-4.1784-.6034-.2-1.2324-.3318-1.8574-.4557-.7137-.1415-1.0998.1321-1.1488.8188-.1129,1.5819-.2164,3.1649-.2907,4.749-.0262.5579-.2765.9136-.7828,1.0552-.3738.1045-.7744.1537-1.1632.1546-.5532.0011-1.1432-.2064-1.6528-.0747-1.3767.3561-2.6893.0703-4.0202-.1783-2.0466-.3823-3.6507-1.5119-5.0375-2.9957-.334-.3574-.5544-.7856-.3367-1.3055.2585-.6174.2294-1.2403.0654-1.8767-.2008-.7794-.6864-1.1451-1.3889-.8638-.9567.3831-1.8884.8419-2.79,1.3418-.3232.1791-.6228.5319-.7682.8753-.4028.9509-.7804,1.9215-1.0564,2.9153-.5898,2.1234.089,3.9296,1.8826,5.2341,1.8257,1.3279,3.8341,2.2673,6.006,2.8824,2.3765.6732,4.7234,1.4768,7.2406,1.4631Zm-7.352-23.0689c.0498,2.4614-.2778,4.948.473,7.3654.0452.1456.034.3202.0083.4746-.2174,1.303.3023,2.5197.4301,3.7816.0549.5421.3868.8573.8371,1.0737,1.9991.961,4.1124,1.1176,6.2706.8168.74-.1031.8849-.3043.9423-1.1384.1587-2.3045.3246-4.6097.4154-6.9175.1284-3.262-.089-6.5411.5364-9.7774.0746-.3859.0477-.7941.044-1.1918-.004-.4325-.3569-.7054-.8203-.5844-2.6716.6974-5.3401.7769-8.0131.0176-.0753-.0214-.1585-.0144-.2378-.0222-.5662-.0554-.8775.2173-.8817.8362-.012,1.7552-.0042,3.5105-.0042,5.2658Zm9.6056-59.6192c0,.5001-.0105.8194.003,1.1377.0133.3141-.0115.8737.0884.8989.4723.1196.6657-.34.7874-.6678.3294-.887.7738-1.7928.8246-2.7104.1578-2.8542-.4725-5.5371-2.2401-7.867-.0902-.1189-.2367-.1951-.357-.2912-.0507.1434-.1427.286-.1459.4304-.0472,2.1115-.8946,3.8146-2.4482,5.2519-1.3047,1.207-2.2172,2.7032-2.6574,4.4569-.574,2.2863.0368,3.2126,2.0421,4.5394.0543.0359.1991.0312.2277-.0083.0841-.116.2076-.2784.1799-.3885-.1746-.6932-.3688-1.3828-.5892-2.0629-.3406-1.0508-.2197-2.0881.2776-3.0175.67-1.2521,1.4709-2.4348,2.232-3.6368.1805-.285.8684-.2624,1.0672.0311.2214.3268.4438.6659.5865,1.0306.3901.9972.3383,2.0258.1215,2.8734Zm9.3278,58.2369c.0919-2.0547-.4194-3.0124-1.6814-3.5205-.2668-.1074-.6632-.16-.8961-.0387-1.0524.5484-2.0863,1.1446-2.7857,2.1579-.6738.9761-.8467,2.0215-.4681,3.1591.4002,1.2024,1.2664,1.8533,2.6711,1.9718,1.1424.0964,2.1433-.4773,2.6015-1.6498.313-.8012.4526-1.6702.5587-2.0799Zm-11.0267-56.9779c0-.577.0209-.7365-.0051-.8879-.0363-.2114-.0116-.518-.3685-.4432-.1312.0275-.2736.1413-.3525.2559-.4726.686-.5866,1.4342-.2933,2.2188.0442.1183.2236.2502.3459.2558.1076.005.2848-.1365.3243-.2505.1758-.5064.3131-1.0262.3492-1.1489Zm-1.6319,7.2468c-.0215-.0761-.0221-.169-.0677-.2257-.5862-.729-1.3157-1.1283-2.2765-.9281-.1271.0265-.2453.1471-.3396.2497-.0322.0351-.0069.1805.0397.2218.6587.5833,1.3375,1.1379,2.3093.9332.1239-.0261.2241-.1641.3348-.2508Zm2.1026.3043c.3895,0,.5647.042.7049-.01.2025-.0751.5082-.1948.5347-.3388.0329-.1782-.1531-.4168-.2861-.5988-.089-.1218-.2396-.2401-.3822-.2716-.2144-.0473-.5425-.1107-.6495-.0001-.2033.2101-.3975.547-.3776.815.014.1883.3887.3499.4557.4043Z"/>
</svg>