<?xml version="1.0" encoding="UTF-8"?>
<svg id="Ebene_1" data-name="Ebene 1" xmlns="http://www.w3.org/2000/svg" viewBox="0 0 146.1707 116.1326">
  <defs>
    <style>
      .cls-1 {
        stroke-dasharray: 0 3;
      }

      .cls-1, .cls-2 {
        fill: none;
        stroke: #62594f;
        stroke-linecap: round;
        stroke-miterlimit: 10;
        stroke-width: 1.5px;
      }

      .cls-3 {
        fill: #62594f;
        stroke-width: 0px;
      }
    </style>
  </defs>
  <path class="cls-3" d="m118.5405,1.3328c.3378.4108.4503,1.631.4503,1.631,0,0-.1371,8.1884-.0978,13.1337.0661,8.3104.2438,25.0727.2438,25.0727l.1461,32.3519.0303,4.6311c.004.619.21,1.2166.5898,1.7054,1.1327,1.4578,3.6025,4.65,4.5702,6.0072,5.7478,8.0614,11.6909,15.9838,17.5831,23.9416,1.2729,1.7191,3.5818,4.6293,3.5818,4.6293,0,0,.6573.7059.5112,1.2172s-1.0224.4382-1.0224.4382c0,0-3.2293.0508-5.0691.0386-6.9502-.0461-13.8996-.2323-20.8498-.265-31.1727-.1469-62.3456-.2706-93.5185-.3741-6.2292-.0206-12.6748-.0565-18.9043-.0081-2.0226.0157-5.5045.2472-6.67-1.0711-.4236-.479.4328-2.1198.7284-2.6507.0584-.1049.1176-.1975.1886-.2943.8366-1.1402,7.0975-9.6753,10.4373-14.2717,3.7962-5.2243,7.6408-10.4168,11.2804-15.7488.7253-1.0625.8388-2.688.8647-4.0609.3442-18.278.6593-36.5568.8974-54.8365.0852-6.539-.0621-13.0809-.0832-19.6216,0-.0071,0-.0143,0-.0216-.0029-1.551,1.2599-2.8102,2.8108-2.8118,0,0,74.4827.0271,88.9638.0332,1.44.0006,1.9992.7942,2.3369,1.205ZM2.0711,113.6882c.4382.4382,5.9044.3472,7.973.3698,17.4203.1909,34.842.261,52.2633.3421,10.872.0506,21.7443.0432,32.6163.0871,14.0693.0569,28.1385.163,42.2078.1762,1.531.0014,5.1557.0106,5.3017-.3911.0788-.2167-4.115-5.8586-9.6399-13.5469-4.3709-6.0825-9.6102-13.4231-13.2935-18.5776-.5282-.7392-1.3772-1.1729-2.2857-1.1729H26.8012c-.8451,0-1.6444.3823-2.1804,1.0356-1.1879,1.4479-2.3064,2.7881-3.3635,4.175-3.6784,4.8258-7.3525,9.6557-10.9603,14.5341-2.0391,2.7572-4.0318,5.5582-5.8614,8.4557-.6195.981-2.8026,4.0746-2.3644,4.5128Zm116.0552-37.4387c-.1664-23.076-.3951-61.6376-.4578-72.3111-.0091-1.5542-1.2715-2.8049-2.8258-2.7953-11.9435.0737-59.1641.2465-86.481.4696-1.5332.0125-2.74,1.3775-2.7565,2.9107-.2582,24.098-.5119,47.7885-.7682,71.7068-.0168,1.5656,1.2477,2.8467,2.8135,2.8467h87.6622c1.5619,0,2.8249-1.2655,2.8136-2.8274Z"/>
  <path class="cls-3" d="m93.2153,98.8712c1.5307,3.7706,3.076,7.5753,4.7338,11.6589.3924.9666-.318,2.025-1.3613,2.025h-44.5778c-1.0365,0-1.7462-1.0471-1.3666-2.0116,1.5417-3.9179,3.0236-7.6837,4.5981-11.6848.2213-.5625.7671-.9391,1.3716-.9387l33.3579.0203,1.8939.0146c.5942.0046,1.1269.3656,1.3504.9162Zm-38.93,12.2432c13.9508.0446,26.3645.1195,40.1294.1267,1.0316.0005,1.7465-1.035,1.3817-2-1.2011-3.1774-2.4273-6.0686-3.6311-8.9309-.2294-.5453-.7648-.8993-1.3564-.8994-10.9831-.0019-21.6906-.0346-33.0385-.0364-.5825,0-1.1198.34-1.3522.8742-1.1539,2.6528-2.1991,5.5332-3.5005,8.8543-.3769.9619.3344,2.0081,1.3675,2.0114Z"/>
  <path class="cls-3" d="m29.8048,3.1795c10.7545-.0745,57.5589-.4014,84.3103-.6297,1.2876-.011,2.3311,1.0298,2.3311,2.3175v68.9597c0,1.2815-.9694,2.7162-2.251,2.7137-3.9677-.0078-7.938.0106-11.9281.0487-18.54.1771-37.168-.0422-55.708.1348-5.676.0542-16.8465-.0618-16.8465-.0618l-.7498-.0004c-1.2672-.0006-2.2989-1.0189-2.3162-2.2859l-.0012-.0872s.0764-17.0718.2046-25.4473c.1675-10.9459.43-21.8903.6183-32.836.0604-3.5072-.0128-7.0167.0413-10.524.0001-.0074.0002-.0148.0003-.0224.0198-1.2579,1.0368-2.2711,2.2948-2.2798Zm.2122,71.8519l82.8151-.0974c1.2804-.0002,2.3849-1.4765,2.384-2.757l-.0455-65.9892c-.0009-1.287-1.0502-2.3267-2.3371-2.3158l-81.733.6917c-1.247.0106-2.2629,1.0067-2.297,2.2532-.0095.3456-.0171.6601-.0204.8799-.3191,21.0782-.8725,63.2356-.8725,63.2356l.0315,1.3134c.0302,1.258.8164,2.7857,2.0748,2.7856Z"/>
  <line class="cls-1" x1="88.9029" y1="95.0132" x2="124.1735" y2="95.0132"/>
  <line class="cls-2" x1="55.7476" y1="95.0132" x2="84.302" y2="95.0132"/>
  <line class="cls-1" x1="18.5757" y1="95.0132" x2="52.8995" y2="95.0132"/>
  <line class="cls-1" x1="21.206" y1="91.3413" x2="121.0747" y2="91.3413"/>
  <line class="cls-1" x1="24.8009" y1="87.6898" x2="118.7812" y2="87.6898"/>
  <line class="cls-1" x1="28.3293" y1="83.9653" x2="116.3702" y2="83.9653"/>
</svg>