<?xml version="1.0" encoding="UTF-8"?>
<svg id="Ebene_1" data-name="Ebene 1" xmlns="http://www.w3.org/2000/svg" viewBox="0 0 146.1707 116.1326">
  <defs>
    <style>
      .cls-1 {
        fill: #62594f;
        stroke-width: 0px;
      }
    </style>
  </defs>
  <path class="cls-1" d="m119.0091,0l.0365,1.3145s-.1919,9.8376-.1525,14.783c.0661,8.3104.2438,25.0727.2438,25.0727l.1461,32.3519.0365,5.5867s3.8794,4.9696,5.1538,6.757c5.7478,8.0614,11.6909,15.9838,17.5831,23.9416,1.2729,1.7191,3.5818,4.6293,3.5818,4.6293,0,0,.6573.7059.5112,1.2172s-1.0224.4382-1.0224.4382c0,0-3.2293.0508-5.0691.0386-6.9502-.0461-13.8996-.2323-20.8498-.265-31.1727-.1469-62.3456-.2706-93.5185-.3741-6.2292-.0206-12.6748-.0565-18.9043-.0081-2.0226.0157-5.5045.2472-6.67-1.0711-.5077-.5743.8237-2.8179.8237-2.8179,0,0,6.9469-9.4668,10.5305-14.3988,3.7962-5.2243,7.6408-10.4168,11.2804-15.7488.7253-1.0625.8388-2.688.8647-4.0609.3442-18.278.6593-36.5568.8974-54.8365.0852-6.539-.0621-13.0809-.0832-19.6216-.0023-.7059.0416-2.8306.0416-2.8306l94.5385-.0975ZM2.0711,113.6882c.4382.4382,5.9044.3472,7.973.3698,17.4203.1909,34.842.261,52.2633.3421,10.872.0506,21.7443.0432,32.6163.0871,14.0693.0569,28.1385.163,42.2078.1762,1.531.0014,5.2287.2662,5.3748-.1354.0788-.2167-4.188-6.1142-9.7129-13.8025-4.7143-6.5604-10.4388-14.5843-14.1318-19.7505H25.4658c-1.5064,1.8592-2.9041,3.4994-4.2085,5.2106-3.6784,4.8258-7.3525,9.6557-10.9603,14.5341-2.0391,2.7572-4.0318,5.5582-5.8614,8.4557-.6195.981-2.8026,4.0746-2.3644,4.5128Zm116.0758-34.6113c-.1947-26.2782-.495-77.951-.495-77.951,0,0-61.3241.3734-92.0172.6318-.2786,26.0096-.5519,51.5174-.8283,77.3192h93.3404Z"/>
  <path class="cls-1" d="m58.3984,95.6189c5.0964.1193,10.2417.0746,15.3387.1528,3.5516.0544,7.0855.073,10.6379.073.004.2926.069.6081.073.9007-6.1613,0-19.8615-.0487-26.0227-.0487l-.0269-1.0778Zm34.448,2.0515c1.9017,4.6849,3.8137,9.3921,5.9247,14.5926h-48.9193c1.9546-4.967,3.7756-9.5946,5.7593-14.6357l34.3599.0209,2.8755.0222Zm-40.7259,13.1453c15.5633.0454,28.7248.1461,44.1096,0-1.558-4.3331-2.8108-7.7428-4.3818-11.4899-11.6377,0-22.9352.0058-34.9797.0058-1.5453,3.4043-2.8981,6.9077-4.7481,11.4842Z"/>
  <path class="cls-1" d="m36.8246,91.619h-5.2776c-.0015-.2587-.0029-.5174-.0044-.7761h5.2181c.0213.2587.0426.5174.0639.7761Z"/>
  <path class="cls-1" d="m90.9722,90.4943h4.8317c-.0007.2259-.0014.4517-.0021.6775h-4.9128c.0277-.2259.0554-.4517.0831-.6775Z"/>
  <path class="cls-1" d="m33.077,81.9806c1.4277.1059,2.8555.2117,4.2833.3176-.0129.258-.0258.516-.0386.7741h-4.3237c.0264-.3639.0527-.7277.0791-1.0916Z"/>
  <path class="cls-1" d="m41.8532,93.1221h4.9155c.0086.2855.0172.5709.0259.8563-1.6461.0733-3.2921.1465-4.9382.2197-.001-.3587-.0021-.7174-.0031-1.076Z"/>
  <path class="cls-1" d="m91.4727,88.1102c1.4212-.0762,2.8423-.1525,4.2634-.2288.0085.3214.0171.643.0256.9644h-4.2656l-.0234-.7356Z"/>
  <path class="cls-1" d="m29.2752,88.8983c-1.6778-.1098-3.3556-.2196-5.0333-.3294l.0499-.6043h5.1187c-.0451.3112-.0902.6224-.1354.9336Z"/>
  <path class="cls-1" d="m82.9997,93.2873h5.0212c-.0021.2108-.0042.4215-.0063.6323h-5.0638c.0163-.2108.0326-.4215.049-.6323Z"/>
  <path class="cls-1" d="m58.3395,87.9942h3.8013c-.0025.2567-.0049.5134-.0074.7701h-3.8208c.009-.2567.0179-.5134.0269-.7701Z"/>
  <path class="cls-1" d="m37.789,88.5297h-4.4695l-.0274-.6215h4.4756c.0071.2072.0143.4143.0214.6215Z"/>
  <path class="cls-1" d="m45.6811,91.6435h-3.7454c-.002-.2555-.004-.511-.006-.7664h3.7453c.002.2555.0041.511.0061.7664Z"/>
  <path class="cls-1" d="m108.8376,90.9757h-4.187c.0019-.2228.0037-.4456.0056-.6683h4.1859c-.0015.2228-.0031.4456-.0046.6683Z"/>
  <path class="cls-1" d="m27.1826,81.9213c1.1677.1563,2.3353.3126,3.503.4689l-.1762,1.2395c-1.1534-.1671-2.3067-.3342-3.4601-.5012.0444-.4024.0889-.8048.1333-1.2072Z"/>
  <path class="cls-1" d="m86.4045,91.2342h-3.6972l-.0112-.7238h3.6909c.0058.2413.0116.4826.0174.7238Z"/>
  <path class="cls-1" d="m116.5064,94.104h-3.5229c-.0011-.2205-.0023-.4409-.0034-.6614h3.5247c.0005.2205.0011.4409.0016.6614Z"/>
  <path class="cls-1" d="m124.6773,96.3596c-1.1826-.0656-2.3653-.1312-3.5479-.1968.0262-.4012.0523-.8024.0785-1.2036,1.181.0823,2.362.1646,3.543.2469-.0245.3845-.0491.769-.0736,1.1535Z"/>
  <path class="cls-1" d="m90.0464,85.9349h-3.5312l-.0066-.6595h3.5315c.0021.2198.0042.4397.0064.6595Z"/>
  <path class="cls-1" d="m44.4831,83.4876c-1.2012-.0594-2.4025-.1187-3.6037-.1781.0064-.2799.0128-.5597.0192-.8395h3.6057c-.0071.3392-.0141.6784-.0212,1.0176Z"/>
  <path class="cls-1" d="m56.1475,83.4758c-1.0942-.0583-2.1884-.1166-3.2827-.1749.0237-.3805.0474-.761.0711-1.1415,1.0929.0796,2.1858.1593,3.2787.2389-.0224.3592-.0447.7183-.0671,1.0775Z"/>
  <path class="cls-1" d="m69.5899,84.7216c1.1037.0966,2.2074.1933,3.3111.29-.0318.3459-.0636.6918-.0954,1.0377-1.1048-.0864-2.2096-.1728-3.3144-.2592.0329-.3562.0658-.7124.0987-1.0685Z"/>
  <path class="cls-1" d="m93.593,82.6177h3.878c.0031.2148.0062.4295.0093.6442h-3.915c.0092-.2148.0184-.4295.0277-.6442Z"/>
  <path class="cls-1" d="m116.0548,95.1512h3.016c.0167.2691.0333.5382.05.8073-1.0243.102-2.0487.204-3.073.306.0023-.3711.0047-.7422.007-1.1133Z"/>
  <path class="cls-1" d="m100.5232,96.518c-1.0629.104-2.1257.2079-3.1886.3119-.0363-.3585-.0727-.717-.109-1.0755,1.0749-.0523,2.1498-.1046,3.2246-.1568.0243.3068.0486.6137.0729.9204Z"/>
  <path class="cls-1" d="m94.8523,94.2456c-1.0188-.0711-2.0375-.1422-3.0563-.2133.0097-.2393.0195-.4787.0292-.7181h3.0694c-.0141.3105-.0282.621-.0424.9315Z"/>
  <path class="cls-1" d="m70.9265,93.9705h-3.0992c.0002-.2356.0005-.4711.0007-.7067h3.0562c.0141.2356.0282.4711.0422.7067Z"/>
  <path class="cls-1" d="m73.2549,82.2172c1.1375.0602,2.275.1205,3.4125.1808-.0079.2415-.0158.4831-.0237.7246h-3.4166c.0093-.3018.0186-.6036.0279-.9054Z"/>
  <path class="cls-1" d="m86.5911,88.813h-3.0985c.0061-.2973.0122-.5947.0184-.892,1.0313.0468,2.0626.0935,3.0939.1403-.0046.2505-.0092.5011-.0138.7517Z"/>
  <path class="cls-1" d="m43.2673,86.2577c-.9594-.1294-1.9187-.2588-2.8781-.3882.032-.3102.064-.6204.0959-.9305.9801.087,1.9603.1741,2.9404.2611-.0527.3526-.1055.7051-.1582,1.0576Z"/>
  <path class="cls-1" d="m48.197,84.8047c.9984.0551,1.9968.1104,2.9953.1656-.006.2756-.012.5512-.018.8268h-3.043c.0219-.3308.0438-.6616.0657-.9924Z"/>
  <path class="cls-1" d="m58.2831,85.8676h-2.8197c.0009-.2444.0018-.4888.0027-.7332h2.8195c-.0008.2444-.0017.4888-.0025.7332Z"/>
  <path class="cls-1" d="m76.437,91.4944c-.8765-.0791-1.753-.1581-2.6295-.2371.0328-.3404.0657-.6808.0986-1.0212.8751.0941,1.7503.1883,2.6254.2824-.0315.3253-.063.6506-.0945.9759Z"/>
  <path class="cls-1" d="m93.255,85.1622h2.9915c-.0017.2147-.0035.4295-.0052.6442h-3.0218c.0118-.2147.0237-.4295.0355-.6442Z"/>
  <path class="cls-1" d="m79.9283,82.4098h2.9901l.0279.8435c-1.0379.0488-2.0757.0975-3.1136.1463.0319-.3299.0637-.6598.0956-.9897Z"/>
  <path class="cls-1" d="m89.7959,83.2627h-3.6351c-.0104-.1815-.0208-.363-.0312-.5445h3.6584c.0027.1815.0053.363.0079.5445Z"/>
  <path class="cls-1" d="m35.7001,86.1042l-2.856-.3186c.0171-.2255.0342-.4511.0512-.6766h2.921c-.0387.3317-.0775.6634-.1162.9952Z"/>
  <path class="cls-1" d="m108.2704,83.3158h-2.791c.0007-.2347.0014-.4695.0021-.7042h2.7909c-.0007.2347-.0013.4695-.002.7042Z"/>
  <path class="cls-1" d="m65.298,85.8389c-1.0195.0451-2.039.0902-3.0585.1353-.0084-.295-.0168-.59-.0252-.885h3.0522c.0105.2499.021.4998.0315.7497Z"/>
  <path class="cls-1" d="m44.2709,95.429c1.0241.0651,2.0482.1302,3.0723.1952-.0077.2447-.0155.4894-.0233.7341h-3.0797c.0102-.3098.0204-.6196.0306-.9294Z"/>
  <path class="cls-1" d="m76.9167,84.7797c1.05.0525,2.1.1049,3.1501.1574-.0197.3458-.0394.6916-.0591,1.0374-1.0492-.072-2.0984-.1441-3.1476-.2161.0189-.3263.0378-.6524.0567-.9787Z"/>
  <path class="cls-1" d="m108.2234,93.9838h-2.8656c-.0084-.2629-.0167-.5258-.0251-.7887.9431-.0495,1.8862-.099,2.8293-.1485.0205.3124.0409.6248.0614.9372Z"/>
  <path class="cls-1" d="m99.4242,93.089c.8958.0571,1.7916.1141,2.6873.1712-.0275.3203-.0551.6406-.0826.9609-.8979-.076-1.7958-.1518-2.6937-.2277.0297-.3015.0593-.6029.089-.9043Z"/>
  <path class="cls-1" d="m119.9903,91.5276c-.8584-.1499-1.7168-.2997-2.5752-.4496.0471-.3139.0941-.6278.1412-.9418.8742.0803,1.7483.1607,2.6225.241l-.1885,1.1504Z"/>
  <path class="cls-1" d="m33.7504,93.0969h3.1401c.0008.2037.0017.4074.0025.611h-3.2995c.0523-.2037.1046-.4074.1568-.611Z"/>
  <path class="cls-1" d="m120.0745,92.6619c.8543-.0385,1.7085-.0769,2.5628-.1154.0377.2873.0754.5746.1132.8619l-2.5748.3437c-.0337-.3634-.0674-.7268-.1011-1.0902Z"/>
  <path class="cls-1" d="m110.3252,85.0868h2.5861c-.0015.2178-.003.4356-.0046.6534h-2.6159c.0115-.2178.0229-.4356.0344-.6534Z"/>
  <path class="cls-1" d="m66.4916,87.8187c.8555.0417,1.711.0834,2.5665.1251-.0203.314-.0406.628-.0608.942-.8535-.0701-1.7071-.1402-2.5606-.2104.0183-.2856.0366-.5712.0549-.8567Z"/>
  <path class="cls-1" d="m30.2676,85.951c-.929-.0868-1.8579-.1736-2.7869-.2605.0102-.2124.0203-.4249.0305-.6373h2.8423c-.0286.2993-.0573.5986-.0859.8978Z"/>
  <path class="cls-1" d="m98.7662,90.2238c.7507.0721,1.5014.1442,2.2521.2164-.0107.2318-.0214.4636-.0322.6955h-2.2597c.0133-.3039.0265-.6079.0398-.9118Z"/>
  <path class="cls-1" d="m47.1922,82.172c.9301.0847,1.8601.1695,2.7902.2542-.0056.246-.0112.492-.0168.738-.9487.0417-1.8973.0834-2.846.1251.0242-.3724.0484-.7449.0726-1.1173Z"/>
  <path class="cls-1" d="m102.0013,88.1923h2.3217c.0046.206.0092.4119.0139.6179h-2.3235c-.004-.206-.008-.4119-.012-.6179Z"/>
  <path class="cls-1" d="m104.4317,85.0445h2.264c.0107.288.0214.576.0321.864-.7786.0393-1.5572.0785-2.3359.1178.0133-.3272.0265-.6545.0398-.9817Z"/>
  <path class="cls-1" d="m100.7966,82.3514c.7434.0411,1.4868.0821,2.2303.1232.0075.2769.0151.5538.0226.8308-.7623.037-1.5246.074-2.287.111.0114-.355.0228-.7099.0341-1.0649Z"/>
  <path class="cls-1" d="m64.7037,91.4562l-2.1421.1225-.1191-.9163,2.1854-.3228.0759,1.1166Z"/>
  <path class="cls-1" d="m112.1861,90.2149c.8704-.0704,1.7407-.1409,2.6111-.2113l.0876.8668c-.8683.0955-1.7367.191-2.605.2865-.0312-.314-.0625-.628-.0937-.942Z"/>
  <path class="cls-1" d="m114.5681,88.1816c.7179-.0564,1.4359-.1127,2.1538-.1691.0196.2648.0392.5295.0588.7943-.7184.0489-1.4369.0978-2.1553.1467-.0191-.2573-.0382-.5146-.0573-.7719Z"/>
  <path class="cls-1" d="m68.6551,82.4525h2.1513c-.0021.1944-.0043.3888-.0064.5832h-2.1463c.0004-.1944.0009-.3888.0013-.5832Z"/>
  <path class="cls-1" d="m117.5649,83.6627c-.7317-.1257-1.4633-.2513-2.195-.377l.1072-.8064c.749.0627,1.4981.1253,2.2472.188-.0531.3318-.1063.6636-.1594.9954Z"/>
  <path class="cls-1" d="m51.4106,88.5812h-2.4578c-.0109-.2025-.0219-.405-.0328-.6075.8201-.0386,1.6401-.0772,2.4602-.1159.0101.2411.0203.4823.0304.7234Z"/>
  <path class="cls-1" d="m116.1589,85.0964h1.9767c.0196.2487.0393.4975.0589.7462-.6906.0594-1.3812.1187-2.0718.178.0121-.308.0241-.6161.0362-.9242Z"/>
  <path class="cls-1" d="m60.2817,82.2489c.7159.0373,1.4318.0745,2.1477.1118l.0195.8282c-.7301.0593-1.4602.1186-2.1903.1779l.0232-1.1178Z"/>
  <path class="cls-1" d="m65.1518,82.2393c.6126.0507,1.2253.1014,1.8379.1521.0031.2503.0063.5007.0094.751-.6364.0353-1.2729.0706-1.9093.1059.0207-.3363.0413-.6727.062-1.009Z"/>
  <path class="cls-1" d="m98.9874,84.9259c.6789.0851,1.3578.1702,2.0366.2553-.0367.3028-.0734.6055-.1101.9083-.6815-.0711-1.3631-.1424-2.0446-.2135.0394-.3167.0787-.6335.1181-.9502Z"/>
  <path class="cls-1" d="m113.4169,83.3295h-2.5178c-.0103-.2473-.0206-.4946-.0309-.7419.8255-.0528,1.6509-.1057,2.4764-.1585l.0723.9004Z"/>
  <path class="cls-1" d="m54.4162,91.394h-2.144c-.0045-.2223-.0089-.4446-.0134-.667.7238-.0322,1.4475-.0645,2.1713-.0968-.0046.2546-.0093.5092-.0139.7637Z"/>
  <path class="cls-1" d="m76.1082,93.2131h2.28l.0053.5484h-2.2687c-.0055-.1828-.0111-.3656-.0166-.5484Z"/>
  <path class="cls-1" d="m37.2728,95.4237c.6419.0331,1.2839.0661,1.9258.0991l.0232.621c-.6544.0458-1.3087.0916-1.9631.1374.0047-.2858.0094-.5717.0141-.8575Z"/>
  <path class="cls-1" d="m51.8055,95.5875h1.8427c-.005.2162-.01.4324-.015.6486h-1.8434c.0052-.2162.0104-.4324.0156-.6486Z"/>
  <path class="cls-1" d="m41.468,87.7781c.4404.0883.8808.1766,1.3212.2648-.0223.2102-.0446.4203-.0669.6305l-1.3648-.0858c.0368-.2698.0736-.5397.1105-.8096Z"/>
  <path class="cls-1" d="m82.6378,85.052h1.3054c.0189.2021.0379.4041.0568.6062-.4405.0369-.8811.0737-1.3217.1106-.0136-.2389-.0271-.4778-.0406-.7167Z"/>
  <path class="cls-1" d="m27.5583,3.195s59.1766-.4066,88.8879-.6653v73.6189c-4.7298,0-9.4989-.0387-14.2673.0069-18.54.1771-37.0797.3917-55.6198.5687-5.676.0542-16.8465-.0618-16.8465-.0618l-3.0349-.0014-.0323-2.372s.0764-17.0718.2046-25.4473c.1675-10.9459.43-21.8903.6183-32.836.0604-3.5072-.0128-7.0167.0413-10.524.0114-.737.0487-2.2866.0487-2.2866Zm.4382,71.313l87.2212-.0122-.0487-70.6436-86.2962.7303s-.0769,2.2652-.0897,3.1142c-.3191,21.0782-.8725,63.2356-.8725,63.2356l.0858,3.5756Z"/>
  <path class="cls-1" d="m91.8947,96.7365c-1.0188-.0711-2.0375-.1422-3.0563-.2133.0097-.2393.0195-.4787.0292-.7181h3.0694c-.0141.3105-.0282.621-.0424.9315Z"/>
  <path class="cls-1" d="m29.9343,91.8811c-1.6778-.1098-3.3556-.2196-5.0333-.3294l.0499-.6043h5.1187c-.0451.3112-.0902.6224-.1354.9336Z"/>
  <path class="cls-1" d="m31.065,94.2805h-3.7454c-.002-.2555-.004-.511-.006-.7664h3.7453c.002.2555.0041.511.0061.7664Z"/>
  <path class="cls-1" d="m21.1624,95.9028c.6419.0331,1.2839.0661,1.9258.0991l.0232.621c-.6544.0458-1.3087.0916-1.9631.1374.0047-.2858.0094-.5717.0141-.8575Z"/>
  <path class="cls-1" d="m29.4212,95.6722c1.0241.0651,2.0482.1302,3.0723.1952-.0077.2447-.0155.4894-.0233.7341h-3.0797c.0102-.3098.0204-.6196.0306-.9294Z"/>
  <path class="cls-1" d="m54.6291,93.7936h-3.7454c-.002-.2555-.004-.511-.006-.7664h3.7453c.002.2555.0041.511.0061.7664Z"/>
  <path class="cls-1" d="m58.7534,93.0254h3.8013c-.0025.2567-.0049.5134-.0074.7701h-3.8208c.009-.2567.0179-.5134.0269-.7701Z"/>
  <path class="cls-1" d="m21.0703,93.2688h3.8013c-.0025.2567-.0049.5134-.0074.7701h-3.8208c.009-.2567.0179-.5134.0269-.7701Z"/>
  <path class="cls-1" d="m75.7658,88.4595c-1.0195.0451-2.039.0902-3.0585.1353-.0084-.295-.0168-.59-.0252-.885h3.0522c.0105.2499.021.4998.0315.7497Z"/>
  <path class="cls-1" d="m81.4621,88.5082c-1.0195.0451-2.039.0902-3.0585.1353-.0084-.295-.0168-.59-.0252-.885h3.0522c.0105.2499.021.4998.0315.7497Z"/>
  <path class="cls-1" d="m79.4339,90.5691h1.3054c.0189.2021.0379.4041.0568.6062-.4405.0369-.8811.0737-1.3217.1106-.0136-.2389-.0271-.4778-.0406-.7167Z"/>
  <path class="cls-1" d="m68.5282,90.5204h1.3054c.0189.2021.0379.4041.0568.6062-.4405.0369-.8811.0737-1.3217.1106-.0136-.2389-.0271-.4778-.0406-.7167Z"/>
  <path class="cls-1" d="m57.7685,90.7151h1.3054c.0189.2021.0379.4041.0568.6062-.4405.0369-.8811.0737-1.3217.1106-.0136-.2389-.0271-.4778-.0406-.7167Z"/>
  <path class="cls-1" d="m54.6039,87.94h1.3054c.0189.2021.0379.4041.0568.6062-.4405.0369-.8811.0737-1.3217.1106-.0136-.2389-.0271-.4778-.0406-.7167Z"/>
  <path class="cls-1" d="m106.3681,95.506h4.8317c-.0007.2259-.0014.4517-.0021.6775h-4.9128c.0277-.2259.0554-.4517.0831-.6775Z"/>
  <path class="cls-1" d="m108.0525,87.6128h2.264c.0107.288.0214.576.0321.864-.7786.0393-1.5572.0785-2.3359.1178.0133-.3272.0265-.6545.0398-.9817Z"/>
</svg>