<?xml version="1.0" encoding="UTF-8"?>
<svg id="Ebene_1" data-name="Ebene 1" xmlns="http://www.w3.org/2000/svg" viewBox="0 0 112.7571 41.1885">
  <defs>
    <style>
      .cls-1 {
        fill: #62594f;
        stroke-width: 0px;
      }
    </style>
  </defs>
  <path class="cls-1" d="m35.2607,29.7956c-.0311-1.849.212-3.6641.7907-5.4284.043-.1311-.029-.3-.0476-.4514-.1254.0528-.2943.0706-.3695.1639-.702.8708-1.3653,1.7737-2.0843,2.6299-.8724,1.0387-1.7676,2.0601-2.69,3.0546-1.1856,1.2782-2.6739,1.8184-4.3463,1.2871-1.1154-.3543-1.8073-.0389-2.4924.7909-1.3368,1.6193-3.2811,1.9277-5.1887,2.114-.7373.072-1.5435-.3287-2.2863-.6012-1.1243-.4124-2.2209-.9005-3.3288-1.3574-.5139-.212-.9189-.102-1.2358.3719-.9772,1.4614-2.017,2.8839-2.932,4.3829-.7872,1.2897-2.0185,2.0293-3.2011,2.8222-.717.4808-1.9506-.1023-2.3868-1.001-.5982-1.2323-.5084-2.5356-.0965-3.7459.9767-2.8701,2.9087-4.7244,6.0218-5.1433.0792-.0107.1597-.0252.2388-.0217,1.5663.0697,2.4403-.7225,3.0114-2.1481.9509-2.3738,1.9047-4.7402,2.6818-7.1805.4639-1.4567.7731-2.9164.9533-4.436.1201-1.0137-.0126-1.9088-.4299-2.7804-.3788-.7913-.8206-1.5558-1.278-2.3056-1.0796-1.7698-3.2314-2.6107-5.1825-1.873-3.3371,1.2618-4.2583,3.6142-3.7109,6.8677.1067.6339.7525,1.0488,1.4277,1.056.7836.0084,1.4133-.3227,1.8444-.9436.4083-.5881.7146-1.246,1.0879-1.8597.2884-.4743.5817-.9524.9364-1.3756.1076-.1283.4664-.1652.6388-.0869.1762.08.4007.3786.3707.5374-.3491,1.8497-1.1646,3.4757-2.5485,4.7649-.3343.3114-.8274.4887-1.2779.632-1.493.4751-2.7145-.0303-3.381-1.4565-.3004-.6427-.5534-1.3605-.6015-2.0597-.3567-5.1987,3.9649-8.721,8.2602-7.7203,1.7807.4148,3.0783,1.2049,3.913,2.7926.4089.7777.8355,1.5488,1.1949,2.3494.7001,1.5594,1.0116,3.145.6016,4.8834-.8267,3.5051-1.7046,6.9801-3.4468,10.172-.2666.4885-.4458,1.0245-.6684,1.5372-.4973,1.1456-.5024,1.1552.6833,1.6653.7333.3155,1.4812.5971,2.224.8903,2.3389.9232,4.5816.4032,6.3098-1.4615.3043-.3283.3418-.6419.1075-1.067-.2641-.4793-.4007-1.0285-.5962-1.546-.7645-2.0245.1754-3.5663,1.4616-4.9717.5966-.6519,1.6476-.6717,2.4361-.1718,1.0987.6967,1.6427,2.0865,1.2559,3.3385-.1641.5309-.4246,1.0331-.655,1.5422-.1975.4365-.424.86-.6199,1.2973-.174.3883-.0358.6108.339.6857,1.1069.2212,2.0576-.0512,2.8537-.8509.6206-.6233,1.2808-1.214,1.8466-1.884,1.9076-2.259,3.7858-4.5427,5.1611-7.1868.4978-.9571.3746-1.4196-.5211-1.9747-.6313-.3912-1.3063-.5793-2.0437-.5983-.9712-.0251-1.8993.1365-2.8181.4648-.2031.0726-.6677-.1371-.7629-.336-.0997-.2082.0025-.6781.1856-.83,1.3132-1.0907,2.8369-1.4187,4.495-1.0302.4628.1084.9002.3272,1.3476.4996,1.179.4542,1.2828.4259,1.6207-.8499.6135-2.3163,1.1801-4.6451,1.7775-6.9657.1593-.6189.3342-1.2364.5512-1.8367.1054-.2915.2709-.6142.5077-.7901.2258-.1677.6144-.2772.8672-.2005.2349.0712.5516.4274.5442.6486-.0344,1.0323-.0767,2.0807-.2888,3.0869-.3125,1.4827-.7748,2.9336-1.167,4.3997-.3096,1.157-.6388,2.31-.9045,3.4772-.1963.8626.1605,1.4088,1.0437,1.5562.5357.0894,1.1024.0191,1.6529-.0155.3909-.0246.7805-.1629,1.1655-.1441.1849.0091.4451.2336.5098.4174.057.1617-.0468.4847-.1892.5955-1.0442.8128-2.201,1.2733-3.5607,1.0018-.3114-.0622-.6378-.1308-.9463-.0967-.2067.0228-.484.1762-.572.3507-.2141.4245-.3911.8841-.4862,1.3493-.4953,2.4211-1.0022,4.8412-1.4186,7.2765-.2155,1.2603-.2366,2.5453.2538,3.7851.2049.5179.3567,1.0618.4757,1.6062.0445.2034-.0169.5932-.128.6345-.2531.0941-.603.1115-.8498.008-1.2464-.5231-1.7322-1.6112-1.8942-2.8472-.0927-.7072-.0168-1.4364-.0168-2.1558Zm-30.9983,6.8357c.0318.1375.0831.4464.1771.7416.114.3585.6891.542.9935.3211.2544-.1846.5085-.3776.728-.601,1.6235-1.6517,2.703-3.6876,3.9311-5.6174.0565-.0889.0036-.3233-.0807-.4056-.0925-.0902-.2975-.1429-.424-.1073-.6838.1928-1.3564.4249-2.0369.6304-.7029.2122-1.3386.564-1.7448,1.1666-.7549,1.12-1.3568,2.321-1.5433,3.8716Zm20.0322-9.9519c.0322.1645.0488.4075.1339.6236.0497.126.1938.2561.3233.2977.1268.0407.3631.0254.4237-.058.4613-.6351.9436-1.2655,1.3076-1.9562.1665-.3161.1591-.7813.0831-1.1483-.0538-.2598-.3174-.5922-.5564-.665-.2371-.0722-.631.0613-.8339.2419-.7696.6851-.9265,1.6136-.8811,2.6643Z"/>
  <path class="cls-1" d="m86.1927,19.9552c.1278-1.5154.1461-1.7527.4518-3.1269.2238-1.054.6895-1.9575,1.2747-2.8144.6968-1.0202,2.0443-1.4209,3.1842-1.0212,1.0858.3808,1.8334,1.3608,1.7934,2.5744-.0676,2.0523-.7931,3.9032-2.0014,5.5487-.5651.7696-1.2322,1.4641-1.8479,2.197-.2368.282-.2328.5773.0054.8595.7973.9446,1.7158,1.3196,2.9699.8684,1.6836-.6056,3.0925-1.6538,4.5393-2.6397.3733-.2544.6245-.7222.8633-1.1319.3617-.6207.7022-1.26.9831-1.9205.768-1.8059,1.8337-3.3643,3.5097-4.4484.4774-.3088.6208-.7569.3426-1.2338-.8901-1.5259-.2284-3.1325-.2881-4.6997-.0058-.151.0635-.3142.1293-.4573.8597-1.8715,2.4492-2.1001,3.8005-.6348.851.9229,1.1186,2.0837.8066,3.3578-.1307.5339.0934.7716.5529.7334.4771-.0397.9522-.1071,1.4265-.1741.2366-.0334.4685-.1281.7043-.1351.9815-.029,2.0865.5502,2.1668,1.1798.1211.9493-.285,1.7199-1.0168,2.2935-.3068.2405-.6898.467-1.0645.5224-1.329.1968-2.6981.5553-3.9243-.3586-.6134-.4571-1.221-.3078-1.8031-.0079-1.3119.6757-2.3145,1.7067-3.07,2.953-.4958.8178-.9695,1.6727-1.2847,2.5702-.4139,1.1784-1.0806,2.1843-2.0296,2.9056-1.3923,1.0582-2.8412,2.0961-4.404,2.8603-1.4916.7294-3.1556.6948-4.5208-.4505-1.1035-.9258-2.1119-1.1382-3.3937-.3279-1.1065.6995-2.4259.7449-3.718.7437-.8999-.0008-1.4625.4097-1.7926,1.2876-.4203,1.1175-.9001,2.2258-1.4872,3.2628-.3839.6782-.9262,1.3185-1.5324,1.8094-1.8653,1.5105-4.25-.088-4.2666-1.8865-.0088-.9513-.0051-1.934.2148-2.8492.3823-1.591,1.2892-2.7275,3.1147-2.807.4722-.0206.9436-.1602,1.406-.2809.7734-.202,1.0029-.3944,1.0017-1.1176-.0024-1.4349-.0644-2.8714-.155-4.3038-.0353-.5587-.5716-.7759-1.0673-.4429-.6603.4436-1.341.8866-1.9033,1.441-1.7108,1.6869-3.2978,3.4716-4.0869,5.8209-.0841.2505-.4131.4892-.6821.5894-.337.1255-1.071-.3583-1.1466-.7015-.0679-.3081-.1341-.6372-.097-.9444.2006-1.6626.3597-3.3352.67-4.9786.7254-3.842,1.52-7.671,2.309-11.5007.128-.6213.3172-1.2444.588-1.8144.101-.2125.5281-.3974.7855-.3729.2606.0248.5415.2866.7256.5153.1348.1675.2032.4608.1706.6785-.1767,1.1811-.3773,2.3592-.6009,3.5325-.4178,2.1928-.7795,4.3989-1.2324,6.5784-.1861.8954-.3504,1.5526-.6242,3.0132.6505-.5828,1.744-1.5195,2.4269-2.0614.6239-.4951,1.2843-.9564,1.9737-1.3546,1.7676-1.0209,3.39-.3482,3.7912,1.6814.2747,1.3896.5954,2.8004.312,4.2648-.1631.8427.2185,1.1806,1.0423,1.228,1.5731.0905,2.9906-.4664,4.3681-1.1073.2912-.1355.544-.6001.597-.9464.0956-.6245.0271-1.2741.0271-1.9132-.0399-.0068.0526-.8983.0127-.9051Zm5.3398-3.32c0-.4708.0019-.5495-.0004-.6282-.0182-.6433-.3581-1.2402-.7702-1.3538-.375-.1034-1.0526.2571-1.3729.7523-.1268.196-.2429.4087-.3135.6299-.5048,1.5814-.8226,3.1983-.8489,4.8628-.0018.114.1238.3119.2132.3261.1316.0209.3115-.0551.4231-.1475.8616-.714,1.5627-1.568,2.0108-2.5932.3107-.7109.5243-1.4642.6588-1.8484Zm-17.8328,13.2714c.019.3576-.019.6107.0564.8236.0984.2776.2283.6036.4496.7646.3656.2661.7877.0933,1.056-.2072.4153-.4653.8187-.9603,1.1222-1.5015.3807-.6788.6789-1.4081.9565-2.137.0568-.1491-.0964-.5383-.2184-.5708-1.3227-.3527-2.8351.1414-3.2401,1.5522-.1282.4467-.1354.9282-.1822,1.276Zm29.8446-19.3951c0,.7769-.0432,1.0226.0127,1.243.0513.2019.1713.4728.3315.5366.1655.066.4709-.017.62-.1453.8567-.7369,1.1736-1.6475.7224-2.733-.1592-.3829-.4752-.6895-.9009-.5763-.2513.0668-.5563.3479-.6264.593-.1484.5186-.1586,1.0767-.1593,1.082Zm4.6241,2.9988c-.6573.0365-1.0711.1217-1.1076.3408s.6451.3043,1.1441.3043,1.2658-.2069,1.205-.4625-.5842-.2191-1.2415-.1826Z"/>
  <path class="cls-1" d="m54.871,33.7119c-.6499-1.8975-.7526-3.9405-.4238-5.9191.1008-.6066.1981-1.1975.2932-1.7888.0757-.4705.1251-.9455.1727-1.4198.0067-.0671-.0497-.1657-.1075-.206-.0452-.0315-.1623-.0231-.2053.015-.4153.369-.7906.7908-1.2377,1.1139-.6409.4631-1.283.9966-2.0115,1.2536-2.4046.8485-4.1651-.6392-4.4899-2.8927-.2604-1.8068.4863-3.4512,1.263-5.0371.1249-.2548.4671-.4226.7376-.5819.3877-.2284,1.081.1981,1.0372.6511-.0454.4704-.1605.9358-.2676,1.3982-.2516,1.0863-.5821,2.159-.7556,3.257-.1445.9152.5245,1.5623,1.4454,1.4398.5313-.0707,1.1066-.2484,1.5346-.5556.6424-.461,1.2449-1.0204,1.7384-1.6385,2.1161-2.6507,3.6858-5.5974,4.6016-8.8755.1575-.5638-.1899-.9288-.7906-.8093-1.0163.2023-2.02.5319-3.0716.3211-.2012-.0403-.5227-.2484-.521-.3757.0036-.2796.1122-.7389.2942-.8051.9682-.3519,1.9601-.6602,2.9664-.8809,2.1699-.4759,2.1732-.451,2.8438-2.5797.504-1.5998,1.0084-3.1994,1.5264-4.7947.1734-.5341.3668-1.0978.9381-1.3225.2662-.1047.6283-.1009.8994-.0079.1687.0578.3391.3702.3492.5761.019.3913-.0217.8045-.1337,1.18-.5701,1.9119-1.1617,3.8177-1.7652,5.7194-.2968.9354-.3029.9883.7154,1.3529.8249.2954,1.6851.4969,2.4971.8214.2332.0932.4969.4764.4847.713-.012.231-.3215.5069-.5661.6532-.5158.3085-1.0907.2627-1.6149.0112-2.5961-1.2457-2.4367-.3214-3.1728,1.491-1.2372,3.0462-2.0448,6.2227-2.8766,9.3881-.4242,1.6143-.7829,2.9183-.9429,4.9301-.0591,2.0048-.1612,3.4872,1.2569,4.8434.0568.0543.1303.1266.1343.1941.0132.2233.0788.5052-.0282.6571-.1134.1608-.42.3052-.61.272-1.0164-.1777-1.7925-.7643-2.1255-1.7282-.0039-.0112-.0077-.0225-.0116-.0337Z"/>
  <path class="cls-1" d="m51.678,9.3425c.0362.4433-.3714.9483-.7941.9839-.4529.0381-.9951-.3301-1.0508-.7136-.0593-.4085.3315-.8631.8194-.9531.493-.091.9892.2394,1.0254.6828Z"/>
</svg>