<?xml version="1.0" encoding="UTF-8"?>
<svg id="Ebene_1" data-name="Ebene 1" xmlns="http://www.w3.org/2000/svg" viewBox="0 0 102.2409 78.8715">
  <defs>
    <style>
      .cls-1 {
        stroke-dasharray: 0 3;
        stroke-width: 1.5px;
      }

      .cls-1, .cls-2 {
        fill: none;
        stroke-linecap: round;
      }

      .cls-1, .cls-2, .cls-3 {
        stroke: #62594f;
        stroke-miterlimit: 10;
      }

      .cls-3 {
        stroke-width: .5px;
      }

      .cls-3, .cls-4 {
        fill: #62594f;
      }

      .cls-4 {
        stroke-width: 0px;
      }
    </style>
  </defs>
  <path class="cls-4" d="m77.0141,68.335l-37.1325-.7682c-.2759-.0057-.5454.0201-.8148.0795-3.7205.82-32.1948,7.0958-33.3341,7.3547-2.3659.5377-2.686-2.1292-2.5288-4.4704.0059-.0875.0085-.1743.0071-.262l-.8559-52.0478c-.0365-1.4241.5295-1.6249,2.0621-1.771l37.2097-4.8309c.1619-.021.325-.0306.4882-.0287l32.6503.3775c.5235.0061,1.0417-.1061,1.5158-.3281l18.9241-8.861c2.2886-1.1231,3.36-.923,3.6371,1.639l.6948,49.6391c-.0531.4901-.085,1.0103-.2774,1.451-.2798.641-.6522.7432-1.5067,1.2972l-18.9109,11.0554c-.5539.3238-1.1866.4882-1.8281.4749Zm-38.6738-3.2904c.925-.2191,1.2902-.2921,1.2658-1.4849l.3552-44.7522c.0006-.0776-.002-.151-.0069-.2285-.0007-.0111.0291-2.2093.0291-2.2205,0-1.1685-.3651-1.5336-1.7162-1.3145l-32.0274,3.9404c-1.2739.1492-1.5295.843-1.4687,2.2427l1.005,50.233c.0734,1.2524.1027,1.2039,1.4871.8597l31.077-7.2751Zm5.464-50.8477c-.9892.1971-1.3403.5675-1.3718,1.6409l-.5801,48.0566c.0052.8368.2124,1.0042,1.1039,1.0392l31.4239.6831c.9859-.0365,1.0709-.4258,1.0996-1.8425l-.9031-46.6653c.0073-1.6537-.4824-2.1205-2.1246-2.2563-.2986-.0247-.5998-.0164-.8992-.0342m24.5535,39.8074c.735-.2872.798-1.0532.8711-1.8242l-.4931-45.7665c-.1199-1.3987-.4754-1.85-1.6438-1.2902-2.8223,1.5084-6.189,3.1397-9.08,4.5035-2.5532,1.2044-4.992,2.3073-7.3273,3.8462-1.3271.8745-1.2475,1.7748-1.132,3.5054l.7303,46.7022c.0913.5168.7846.6082,1.2376.3495l16.8371-10.0258Z"/>
  <path class="cls-4" d="m68.4549,60.2734c-1.5154-.3426-3.3559-.3818-5.0732-1.0525-1.2436-.4858-1.7386-1.5265-1.8914-2.7307-.129-1.0166,1.4172-2.5119,2.5976-2.5298,1.2609-.0192,2.4451.224,3.4149,1.1752.7247.7108,1.5637,1.3037,2.3332,1.9706.7081.6138.8083,1.0698.491,1.9435-.3159.8699-.7455,1.1957-1.872,1.2238Zm-.2272-1.5998c.1241-.0546.3954-.0902.4733-.232.0776-.1411.0348-.4804-.0825-.5751-.7367-.5954-1.4579-1.2464-2.2899-1.6729-.4551-.2333-1.389-.3597-1.5491-.3419s-.2846.0178-.6048.0534-.6426.3259-.6317.7102c.0193.6816.3066,1.1414.9569,1.2943,1.2067.2835,2.4287.5017,3.7278.7641Z"/>
  <path class="cls-1" d="m43.5744,44.837c.5879.5589,1.0614.9536,1.3517,1.1143,1.423.7874,7.0706,6.3376,9.9918,4.3901s4.5765-6.4266,3.9923-9.8346-1.7527-8.1793-.9737-9.8346,4.187-2.6291,5.1607-2.4343"/>
  <path class="cls-1" d="m20.7403,54.918s7.6924-.1947,8.9582-3.6028-1.7527-5.8423-3.2133-6.2318-6.6213-1.7527-7.595-3.408-3.9923-6.1345-1.8501-8.7635,6.9134-4.187,9.2504-3.7001,7.1082,1.9474,9.2504,5.745c.7614,1.3498,1.9876,3.0297,3.3157,4.6698"/>
  <path class="cls-1" d="m79.0176,46.0449c.5158.1864.5993.2361,1.0224.4017,2.2396.8764,6.6213-1.9474,7.1082-3.6028s2.6291-4.8686,1.1685-7.595-2.7118-4.1137-3.0113-6.1952-.2401-5.6151-.2401-5.6151"/>
  <path class="cls-1" d="m61.1498,44.3044s4.4791-2.8238,8.7635-1.3632c1.0452.3563,2.0498.6953,3.004,1.0168.4122.1389.8149.2745,1.2074.4069"/>
  <path class="cls-1" d="m84.6165,48.1993s1.9661,1.6942,4.8292,2.3077,4.2264.3214,4.2264.3214"/>
  <path class="cls-3" d="m12.6652,29.7468c.1859-.0372.7288.2528.8254.2528s.3175-.0172.529-.0754c.0878-.0241.1753-.05.2642-.0692.1991-.0429.2472-.1685.2527-.3625.0089-.3125-.1094-.5637-.3162-.7746-.2228-.2271-.4741-.4265-.6959-.6545-.181-.1861-.1541-.2452.1041-.3243.4507-.1381.5008-.2057.5219-.6663.0329-.7164-.1945-1.3407-.6559-1.8844-.029-.0342-.0547-.0712-.0819-.107.0489.0052.1015.0004.146.0172.2519.0954.5057.1187.7535.0018.0878-.0415.2007-.1081.2269-.1879.1037-.3158.1902-.6294-.0391-.9501-.3322-.4648-.6305-.9538-.9488-1.4287-.1427-.2128-.2715-.446-.4554-.6177-.2972-.2777-.4983-.6058-.6377-.9763-.0809-.215-.2448-.286-.4304-.2345-.1454.0403-.2973.1428-.3922.2611-.196.2444-.3061.58-.5401.7676-.7181.5759-1.2363,1.3196-1.8034,2.0221-.2057.2549-.2855.5767-.1393.8982.1327.2919.4142.2627.673.2646.0152.0001.0304-.0011.0455-.0027.207-.0222.2564.0549.1423.2296-.191.2924-.3813.5855-.5767.8749-.2968.4395-.2384.7495.2181,1.0549.1562.1045.2276.1993.0599.3514-.0673.061-.1286.1296-.1858.2003-.3407.4217-.7436.8022-.8166,1.388-.0449.3607.0796.5754.4377.6502.104.0217.2098.0478.3149.0485.1037.0007.3446-.0342.3446-.0342,0,0,.409-.1115.5429-.119s.3684.036.4542.0911c.0765.0491.1631.0872.2285.1482.3427.3193.689.3756,1.1131.1219,0,0,.331-.1381.5169-.1753Zm.9856-.7471c.0829.094.2414.2637.1968.3901s-.2915.1568-.4246.1082-.4566-.1635-.6674-.2906c-.2139-.129-.3843-.149-.5668.0341-.2891.29-.5812.263-.8827.0087-.1148-.0968-.2528-.1661-.38-.2482-.3752-.2425-.754-.2918-1.149-.0388-.0681.0436-.175.1214-.246.0658s-.0282-.184.0002-.2602c.0519-.1392.1242-.2747.2092-.3968.2574-.3696.5184-.7372.7945-1.0927.0529-.0681.1828-.1074.2747-.1033.0607.0027.1317.0981.1707.1674.0353.0626.0222.1506.0498.2197.1694.4241.5287.581.9587.4178.1126-.0428.2188-.1031.3268-.1575.2081-.1048.3444-.1041.457.1595.0971.2275.2811.4228.4475.6142.1282.1475.3011.256.4306.4026Zm-.0113-2.1497c.0514.2681-.1468.4214-.5409.4125-.0579-.0233-.189-.0605-.3043-.1257q-.3831-.217-.7098.049c-.0997.0812-.2269.1286-.3415.1915-.0237-.1391-.0628-.2778-.0673-.4175-.0059-.1852.1739-.3894-.0315-.5515-.2296-.1812-.4165.0277-.6271.0843-.2701.0725-.558.089-.8397.1039-.1567.0083-.2224-.1131-.1551-.2498.1788-.3632.366-.6948.8209-.8214.3556-.099.6837-.3123,1.0079-.5022.1663-.0974.2431-.1348.407.039.2229.2363.5265.3958.7912.5938.397.297.5045.7476.5901,1.1941Zm-2.764-2.6061c0-.2429-.3473-.3875-.6029-.1719-.0228.0193-.0796.0891-.1011.1075-.1041.0892-.2028.1962-.2873.1353s-.0381-.325.034-.4121c.4306-.52.7842-1.1077,1.3611-1.5036.217-.1489.3678-.3952.5465-.5991.0969-.1106.1758-.2032.3271-.0477.7102.7304,1.2669,1.5758,1.8318,2.4155.0339.0504.0897.1035.0898.1554.0003.1108-.0294.2216-.0467.3324-.1036-.044-.2383-.0619-.3029-.1387-.0823-.0978-.09-.2554-.1637-.3645-.0586-.0867-.1953-.2129-.249-.1927-.138.0517-.3407.0546-.3617.2859-.0126.1391-.0648.3886-.1103.3912-.2089.0117-.2173-.1886-.2721-.3454-.0986-.2824-.2791-.3333-.5251-.1502-.1816.1351-.3433.2967-.5172.4425-.0918.077-.1829.1617-.2887.2133-.0898.0437-.2112.0783-.2973.0507-.0449-.0144-.0439-.1718-.0636-.2647,0,0-.0007-.0962-.0007-.3391Z"/>
  <path class="cls-3" d="m11.2254,30.1444c-.0154.3982-.0676.7948-.0921,1.1928-.008.1305-.0078.2742.039.3919.0076.019.0679.1482.2216.1532.1537.0049.3867-.0446.4412-.1438.0545-.0991.0503-.2684.0462-.3614-.0155-.3597-.0285-.7196-.0372-1.0795-.0035-.1477-.0218-.6522-.0069-.7185-.2232,0-.3889.0544-.5751-.0198.0081.0544-.0327.4816-.0367.5851Z"/>
  <path class="cls-4" d="m52.8493,25.2663c-.3781-.2099-.8862-.4604-1.2694-.7472-.4163-.3116-.7769-.698-1.1597-1.054-.2872-.2672-.513-.22-.7562.0844-.308.3855-.6397.7562-.9943,1.099-.2735.2644-.6299.4247-.95.089-.2692-.2823-.1798-.6177.048-.9.2585-.3205.522-.6387.8062-.9362.6092-.6376.6312-.7003.0313-1.3468-.3157-.3403-.7332-.5909-1.0228-.9484-.1332-.1643-.1737-.5502-.0698-.7248.1445-.2428.4639-.402.7931-.2144.2381.1357.4779.2742.6941.4411.2173.1678.4074.371.6073.5609.295.2803.5592.3024.8238-.0537.2276-.3062.4689-.606.7348-.8786.2675-.2742.5768-.5753.9992-.3826.2807.1281.157.6593-.1813,1.0832-.3582.4487-.685.9223-1.0256,1.3851.3572.4111.6964.84,1.0767,1.2285.3813.3894.8165.7257,1.2024,1.1112.1799.1798.4392.4549.4456.6336s-.4552.6807-.8333.4707Z"/>
  <rect class="cls-2" x="12.0133" y="62.0302" width="3.8468" height="4.0977" rx=".2375" ry=".2375"/>
  <line class="cls-2" x1="13.8299" y1="59.4731" x2="12.1228" y2="61.9835"/>
  <line class="cls-2" x1="13.8299" y1="59.464" x2="15.8108" y2="62.1478"/>
</svg>