<?xml version="1.0" encoding="UTF-8"?>
<svg id="Ebene_1" data-name="Ebene 1" xmlns="http://www.w3.org/2000/svg" viewBox="0 0 102.2409 78.8715">
  <defs>
    <style>
      .cls-1 {
        fill: #ad9274;
        stroke-width: 0px;
      }
    </style>
  </defs>
  <path class="cls-1" d="m8.6216,16.631c4.4831-.3096,8.9663-.6188,13.4494-.93.1994-.0138.3991-.0366.5959-.0706,4.9178-.8485,9.8392-1.6773,14.7512-2.5582,2.7329-.4901,5.4339-1.1421,8.1713-1.6233,3.7842-.6652,7.5621-.6269,11.3525-.1593.5937.0732,1.1755.2747,1.7693.3104,4.4885.2703,8.9768.5529,13.469.743,1.4129.0597,2.8148.057,4.0882.7283.7535.3972,1.3258.176,1.9217-.2742.718-.5425,1.4473-1.0703,2.1789-1.5945,1.4639-1.049,3.0187-1.9161,4.6404-2.7227,3.1268-1.5553,6.1373-3.3448,9.1918-5.0447.3486-.194.6695-.4377,1.0041-.6569,2.14-1.4023,3.36-.923,3.6371,1.639.3434,3.1749.5494,6.3704.6651,9.5625.1338,3.6944.1239,7.3861.4352,11.0825.4106,4.8751.4981,9.7776.72,14.6685.1548,3.413-.6282,6.7595-.7317,10.1567-.0424,1.3925-.2435,2.7809-.3938,4.1689-.0531.4901-.085,1.0103-.2774,1.451-.2798.641-.6865,1.1818-1.5067,1.2972-2.3326.3284-4.3353,1.4504-6.2747,2.7108-3.1848,2.0699-6.3796,4.1244-9.5629,6.1968-.9249.6021-1.8365,1.1367-2.9841,1.307-1.0675.1582-2.1732.457-3.1164.9646-1.5258.8211-3.0376.7835-4.6519.497-1.769-.314-3.5752-.8101-5.3338-.7045-3.1066.1866-6.1759-.1668-9.2621-.1971-3.1014-.0304-6.2029-.0479-9.3044-.0587-2.5994-.009-5.2038-.095-7.7965.0375-1.4791.0756-2.9741.4022-4.4012.8221-3.8568,1.1344-7.8631,1.4161-11.794,2.0921-2.574.4425-5.0795,1.0526-7.5597,1.7907-2.3932.7121-4.7318,1.6078-7.0949,2.4215-.661.2276-1.3109.5139-1.9906.6497-.3522.0704-.9013.0029-1.1172-.2293-1.4221-1.5295-2.9556-3.0225-2.7778-5.3937.1412-1.8842.4056-3.7779.3274-5.6554-.1205-2.8929.1937-5.7658.1501-8.6542-.0769-5.1008.0094-10.2041.0129-15.3063.0008-1.2001-.0279-2.4017-.0915-3.6-.1908-3.5917-.4009-7.1824-.6129-10.7729-.1-1.6926-.255-3.3827-.3197-5.0764-.0341-.8918-.0377-1.8116.141-2.6784.2784-1.3499.6793-1.6482,2.079-1.5179,1.388.1292,2.7974.0283,4.1974.0283l.007.153Zm-2.8394,43.4373c-.035,0-.0701-.0001-.1051-.0002,0,2.4993-.0096,4.9986.004,7.4978.0071,1.2984.0191,2.5986.0951,3.8942.0734,1.2524.1709,1.2858,1.4871.8597.3792-.1228.775-.2154,1.1297-.3898,3.3289-1.637,6.897-2.5899,10.4306-3.6317,1.1441-.3373,2.3323-.6036,3.5175-.7079,3.3888-.2982,6.7206-.9239,10.0423-1.6101,1.7515-.3617,3.4711-.8762,5.22-1.2525,1.6314-.3511,1.6021-.3117,1.637-1.8718.0446-1.9974.1207-3.9957.2526-5.989.125-1.8897.3533-3.7724.5103-5.6603.1322-1.5894.2699-3.1805.3229-4.7736.033-.9919-.0764-1.9894-.1425-2.9831-.0462-.6939-.1232-1.3859-.1933-2.078-.4338-4.283.6194-8.5574.0779-12.8437-.0481-.381.1273-.7856.1568-1.1823.044-.5914.0888-1.1872.0662-1.7785-.0878-2.2932-.1514-4.5894-.3289-6.8763-.0825-1.0622.2926-2.2111-.458-3.182-.9762.1415-1.9519.2871-2.9288.4236-3.3582.4692-6.7487.7773-10.0659,1.4487-3.0548.6183-6.111.9715-9.2108,1.0902-.4975.019-.9914.1173-1.4889.1532-1.7905.1292-3.5803.2854-5.3734.3574-1.3966.0561-2.7979-.015-4.1967.0022-1.2368.0153-1.7707.6539-1.6167,1.9439.1063.8904.3538,1.7684.4089,2.6599.2959,4.7842.548,9.5713.8224,14.3569.1082,1.8866.2721,3.7708.34,5.6586.043,1.1949-.0163,2.3962-.0802,3.5919-.085,1.5928-.2853,3.1817-.3172,4.7746-.054,2.6983-.0148,5.3986-.0148,8.098Zm68.8161-13.3348c.0529-2.7014-.1013-5.3897-.2613-8.0755-.2848-4.779-.2323-9.6015.0627-14.3821.1478-2.3963.1665-4.7783.177-7.167.0073-1.6537-.4824-2.1205-2.1246-2.2563-.2986-.0247-.5998-.0164-.8992-.0342-4.1869-.2495-8.3739-.4984-12.5603-.756-.3978-.0244-.7934-.0985-1.1879-.1628-4.6854-.7637-9.3516-.6286-14.0005.2974-.9892.1971-1.3403.5675-1.3718,1.6409-.0351,1.1976-.1285,2.4232.0672,3.5924.6659,3.9796.3238,7.9803.3916,11.9716.0118.6957-.0262,1.4079-.1647,2.0874-.3644,1.7876-.2683,3.5734-.1562,5.3729.1479,2.3754.2182,4.7557.3293,7.1334.1546,3.3078-.7125,6.5456-.6731,9.8473.0058.4888-.2474.9777-.2624,1.4702-.0667,2.1932-.1255,4.3878-.1117,6.5814.0052.8368.3962,1.1567,1.1039,1.0392,3.6766-.61,7.3804-.2567,11.0712-.334,1.0965-.023,2.2151-.0322,3.2896.1515,2.4815.4245,4.9681.4209,7.4706.4135,1.688-.0051,3.3766.2361,5.0653.3616,1.1943.089,2.39.243,3.584.2331,1.4616-.012,2.0141-.5683,2.0428-1.9851.0303-1.4983.0191-3.0016-.0685-4.4972-.2449-4.1827-.5385-8.3625-.8129-12.5435Zm22.242-30.4112c.111-.0081.2221-.0163.3331-.0245-.2257-3.0879-.4247-6.178-.6892-9.2626-.1199-1.3987-.3832-1.4749-1.7223-.7592-2.8223,1.5084-5.6009,3.1107-8.4919,4.4745-2.5532,1.2044-4.8601,2.7717-7.1953,4.3106-1.3271.8745-2.0776,2.018-1.9621,3.7486.1396,2.0921.2579,4.2279-.0065,6.2946-.3832,2.9952-.3834,5.9865-.398,8.982-.0121,2.487.0604,4.9806.2504,7.4592.0736.9608.7883,1.8813.8213,2.8337.0365,1.0523-.5214,2.1151-.557,3.1822-.0632,1.8968.0276,3.8028.1352,5.7004.1471,2.5942.348,5.186.5712,7.7749.0939,1.0891.2802,2.1723.4707,3.2501.0913.5168.4163.6237.8693.365.2605-.1489.5415-.274.7722-.4606,2.3408-1.8921,4.8411-3.5393,7.4923-4.9643.6151-.3307,1.1947-.7346,1.7641-1.142,2.0388-1.4587,4.1463-2.7967,6.4922-3.7136.735-.2872,1.1143-.7987,1.1874-1.5697.2263-2.3862.4597-4.7718.684-7.1582.0655-.6972.0207-1.4178.1817-2.0905.4282-1.7897.2722-3.5729.1481-5.374-.1579-2.2916-.2316-4.5895-.3163-6.8857-.0811-2.2009-.0789-4.4059-.2056-6.6038-.161-2.7919-.415-5.5783-.629-8.3672Z"/>
  <path class="cls-1" d="m17.4669,66.4992c-2.3126-.0114-2.6565-.4067-2.9092-3.2535-.1995-2.2472.922-4.03,1.8202-5.896.3177-.66,1.3089-.6992,1.8052-.1565.5385.5889,1.0095,1.2411,1.5651,1.8121.6624.6807.9886,1.4568,1.051,2.4055.0521.7919.2687,1.5715.371,2.3619.2255,1.7424-.5353,2.6451-2.2706,2.7245-.2993.0137-.5997.0018-1.4328.0018Zm1.2206-2.5921c-.0301-.1815-.0022-.4073-.1009-.5362-.3202-.4181-.7775-.5782-1.2485-.3197-.2.1097-.4124.4394-.3958.6517.0375.481.8085.7965,1.3993.5982.1432-.0481.2321-.2579.3458-.394Z"/>
  <path class="cls-1" d="m12.592,24.8415c.1883.0722.4906.1341.73.2916.4149.273.8126.5815,1.1789.9172.9594.8793.9334,1.3199-.2136,2.3248-.3728.3265-.5138.6093-.1758.9774.3348.3647.7374.6659,1.0926,1.0131.9467.9255.9098,1.2309-.4279,1.7495-.6528.2531-.9106.657-1.1153,1.2502-.1163.3371-.4099.6129-.6237.9163-.2863-.2271-.6612-.4-.8402-.6928-.3576-.5846-.5626-1.1734-1.3544-1.4585-.8526-.3071-.8489-.5565-.5525-1.3701.136-.3731.3314-.7243.4953-1.0876.2371-.5256.1311-.9233-.3715-1.2623-.7515-.5069-.5959-1.184-.2234-1.8407.5201-.9166,1.6076-1.7143,2.4014-1.7282Z"/>
  <path class="cls-1" d="m26.333,43.3996c.2586.0467.4966.0214.6377.1264.7111.5292,1.4145,1.072,2.0839,1.6524.3168.2745.2198,1.0839-.1932,1.3171-.3013.1702-.8511.3131-1.0616.1581-.7824-.5768-1.4961-1.2568-2.1719-1.9594-.1351-.1404-.0766-.6002.0506-.8222.1286-.2245.4534-.3366.6544-.4723Z"/>
  <path class="cls-1" d="m24.5967,54.72c-.0326-.0238-.3018-.1213-.3229-.2572-.0377-.2434-.0158-.6336.1386-.7457.7069-.5133,1.3488-1.1822,2.4202-.836.3962.128.9254-.2203,1.3985-.2394.2456-.01.6132.1672.7153.3672.0769.1507-.1617.674-.2925.6863-1.3843.1309-2.4265,1.4579-4.0573,1.0247Z"/>
  <path class="cls-1" d="m17.686,34.2586c-.012.0984.0133.233-.0417.2895-.5509.566-1.1076,1.1086-.6588,2.0256.0261.0533-.517.4759-.8398.5647-.1291.0356-.5516-.3737-.5441-.5694.0331-.8714.1115-1.7533.3106-2.5991.0642-.2728.5209-.5629.846-.6383.4471-.1036.9702.4955.9277.927Z"/>
  <path class="cls-1" d="m25.4614,29.5484c-.1765.1466-.4151.4968-.7178.5658-.7236.1651-1.3669-.3639-1.4269-1.0539-.0369-.4242.4135-.9512.857-1.0028.6117-.071,1.2313.5559,1.2877,1.4909Z"/>
  <path class="cls-1" d="m16.6004,39.709c.0749-.5188.8378-1.0134,1.3688-.8179.4576.1686.9232.4109.8941,1.0323-.028.5987-.657,1.13-1.2066,1.0278-.6143-.1144-1.1313-.7224-1.0563-1.2422Z"/>
  <path class="cls-1" d="m29.3783,48.3808c.5215.5923.964.9554,1.2119,1.4219.1877.3533-.3952.8944-.897.9294-.6215.0432-1.2515-.4431-1.1443-1.023.0743-.4021.4515-.7482.8294-1.3282Z"/>
  <path class="cls-1" d="m32.7418,30.784c-.0696.4771-.5709.8061-1.0766.7066-.6415-.1263-1.0744-.6326-1.0235-1.1969.038-.4218.5693-.7502,1.1079-.6848.6481.0788,1.0778.5878.9922,1.1751Z"/>
  <path class="cls-1" d="m36.7964,37.0969c.885.0629,1.3861.6311,1.1787,1.2205-.1158.329-.4378.7058-.7533.8182-.5749.2047-1.2974-.72-1.0647-1.3932.1043-.3017.4927-.5053.6393-.6455Z"/>
  <path class="cls-1" d="m35.1931,33.8768c-.6953.105-1.3926.2355-1.9427-.3939-.2883-.3298-.4663-.7396-.1057-1.035.2582-.2116.759-.3584,1.0502-.2533.7584.2736.8697,1.0134.9374,1.7263l.0609-.0441Z"/>
  <path class="cls-1" d="m27.5438,28.1946c.7414.0072,1.2884.5743,1.319,1.1674.0236.4584-.5034.9387-.9594.8744-.5739-.081-1.0657-.6821-.9148-1.2673.0828-.3211.4083-.5796.5553-.7746Z"/>
  <path class="cls-1" d="m35.1323,33.9209c1.2335.5672,1.4795.8783,1.0755,1.5614-.155.262-.6301.5372-.8882.4808-.2758-.0602-.6677-.5171-.6515-.7786.0277-.4451.3352-.8728.5251-1.3078l-.0609.0441Z"/>
  <path class="cls-1" d="m19.2591,41.1302c.3639.5055.7365.8323.8504,1.2327.1232.4331-.5246.9327-.9603.8494-.4317-.0825-.9398-.7143-.7771-1.1097.1314-.3192.4841-.5473.887-.9723Z"/>
  <path class="cls-1" d="m19.5817,31.698c-.1305.7834-.7838,1.2091-1.3296.9674-.2109-.0934-.435-.4079-.453-.6373-.046-.5863.572-1.1213,1.1332-.9508.288.0875.4896.4592.6494.6207Z"/>
  <path class="cls-1" d="m21.6289,30.8006c-.1825-.1983-.5474-.4942-.772-.8734-.1563-.2637.342-.758.7085-.7718.5021-.0189.9727.3716,1.0301.8546.0411.346-.3623.8016-.9665.7906Z"/>
  <path class="cls-1" d="m21.1074,55.6066c-.5476-.0429-.9607-.1538-.877-.675.0337-.2096.3228-.4973.5338-.5347.4549-.0808.7695.2373.7674.6743-.0009.1977-.3045.3939-.4241.5355Z"/>
  <path class="cls-1" d="m68.8814,60.4575c-2.0737-.4688-4.5923-.5224-6.9423-1.4402-1.7018-.6647-2.3791-2.0889-2.5882-3.7368-.1765-1.3911,1.9393-3.4373,3.5546-3.4619,1.7254-.0263,3.346.3066,4.673,1.6082.9917.9727,2.1398,1.784,3.1928,2.6966.969.8399,1.1061,1.4639.6719,2.6595-.4323,1.1904-1.0202,1.6362-2.5617,1.6746Zm-.311-2.1892c.1698-.0748.5411-.1234.6477-.3174.1062-.1931.0476-.6573-.1129-.787-1.0082-.8148-1.995-1.7057-3.1336-2.2893-.6227-.3193-1.5298-.0726-2.3073-.1093-.1905-.009-.3709-.1646-.5644-.1911-.5177-.0709-.955.3516-.9401.8775.0264.9327.4195,1.5619,1.3094,1.7711,1.6512.388,3.3235.6866,5.1013,1.0456Z"/>
  <path class="cls-1" d="m50.1852,24.0295c.1169-.0101.508-.0032.8787-.0867.4535-.1022,1.0391-.5229,1.2968-.3648.3345.2052.3728.8603.594,1.2934.18.3525.4699.6479.6598.9966.2663.4888.1152,1.0318-.3607,1.2711-.4423.2224-.9365.3442-1.3712.5782-.6426.3459-.8757,1.5642-1.8937,1.051-.7129-.3594-.4547-1.2423-.6491-1.8875-.1358-.4507-.5591-.8062-.7886-1.2389-.5288-.9977-.0138-1.83,1.072-1.7725.097.0052.1918.0527.562.1601Z"/>
  <path class="cls-1" d="m45.9099,45.272c-.2524.1833-.5809.5756-.9837.6793-.6454.1662-1.2918-.3147-1.3709-.8522-.097-.6592.6171-1.395,1.2931-1.3323.5455.0505,1.0415.646,1.0615,1.5052Z"/>
  <path class="cls-1" d="m48.9656,48.3426c.343-.1753.6737-.3835,1.032-.5179.5093-.1912.9857-.0472,1.2505.4172.2527.4433.227.9305-.1902,1.3133-.4728.4336-1.1779.4986-1.5433.0258-.2732-.3535-.3464-.8616-.5086-1.3009l-.0404.0624Z"/>
  <path class="cls-1" d="m64.6652,41.7327c.5072-.0558.9459.2705,1.048.7795.1235.6158-.2992,1.1089-.9854,1.1257-.5323.013-.9623-.1743-1.0793-.7461-.1166-.5695.3557-1.0863,1.0167-1.159Z"/>
  <path class="cls-1" d="m55.4567,49.7176c.0764.4683-.2811.957-.792,1.0827-.5111.1256-1.0762-.158-1.1932-.5989-.1455-.5485.3096-1.184.9175-1.281.48-.0767.9868.3019,1.0677.7973Z"/>
  <path class="cls-1" d="m60.1732,28.7357c.0401.8275-.3793,1.3909-.9308,1.4588-.412.0508-1.0185-.3964-1.079-.7956-.0835-.5502.6886-1.3813,1.304-1.27.3018.0546.5409.456.7058.6068Z"/>
  <path class="cls-1" d="m72.8466,44.2013c-.1669.1397-.3982.4746-.6988.557-.7388.2026-1.4461-.323-1.4314-.9688.0098-.4281.5079-.8675.9761-.8608.6023.0086,1.0902.4623,1.1541,1.2726Z"/>
  <path class="cls-1" d="m62.3158,44.3827c-.1732.1696-.439.652-.791.7264-.6324.1337-1.2613-.6475-1.2033-1.3146.0347-.3995.5812-.8624,1.0245-.8677.5755-.0069.977.4869.9698,1.4559Z"/>
  <path class="cls-1" d="m57.1809,48.3838c-.1623-.1526-.6248-.3909-.7424-.7441-.1747-.5245.4719-1.1006,1.0417-1.0459.5667.0544.8016.4725.9104.9491.0962.4212-.3858.8255-1.2097.8409Z"/>
  <path class="cls-1" d="m58.5344,40.4901c-.5935-.0461-1.1396-.6969-.9829-1.2124.1618-.5321.5781-.7718,1.1121-.7837.4521-.0101.8034.4851.7823,1.0552-.0202.5448-.4394.9776-.9115.9409Z"/>
  <path class="cls-1" d="m69.0532,42.748c-.1905.1304-.4623.4488-.7813.5067-.6157.1115-1.2707-.4937-1.1203-1.0387.0842-.305.4534-.6711.7585-.7452.578-.1405,1.1657.4782,1.143,1.2772Z"/>
  <path class="cls-1" d="m49.006,48.2802c-.3286.1951-.6359.4576-.9907.5705-.5968.1899-1.165-.1851-1.2481-.8237-.0314-.2413.0894-.5941.2683-.7457.1822-.1546.6287-.2612.7713-.1493.4349.3416.7792.7985,1.1588,1.2106l.0404-.0624Z"/>
  <path class="cls-1" d="m58.3248,34.1027c.7687-.0866,1.2473.3774,1.2808,1.0465.021.4185-.1771.7415-.6088.8203-.531.0968-1.0582-.4052-1.0367-1.071.0098-.3049.2699-.6016.3646-.7958Z"/>
  <path class="cls-1" d="m63.5501,28.4366c-.5487.2736-.8547.5431-1.1724.5576-.4991.0228-.8502-.5082-.7889-1.0288.0567-.4821.4636-.7635.8043-.6322.3821.1472.6484.5946,1.1571,1.1034Z"/>
  <path class="cls-1" d="m58.4022,45.586c-.6921-.1164-1.1761-.7132-.9714-1.1147.1538-.3015.5319-.5949.8617-.6726.3798-.0894.892.6523.7337,1.0936-.1095.305-.4621.523-.6241.6936Z"/>
  <path class="cls-1" d="m58.585,31.8603c-.0954.7376-.4772.9692-.8605.8489-.3091-.0971-.6578-.455-.7479-.7668-.1189-.4113.6155-.9476,1.0222-.7437.2896.1451.4655.5173.5862.6617Z"/>
  <path class="cls-1" d="m90.5667,51.5984c-.67-.0359-1.2017-.5537-1.121-1.0915.0798-.5314.7426-1.0387,1.2974-.9318.5136.099.8762.4061.9323.9728.0598.6043-.4498,1.0858-1.1086,1.0505Z"/>
  <path class="cls-1" d="m86.2552,49.5127c-.4915-.0205-1.0036.0382-1.469-.0829-.4929-.1283-.8598-.503-.8703-1.0755-.0083-.4512.2431-.7564.6732-.845.5494-.1132.9932.1249,1.2072.6259.1926.451.2776.9478.4101,1.4245l.0488-.047Z"/>
  <path class="cls-1" d="m86.0244,24.407c.0261.4859-.5378.9391-.9874.7624-.2689-.1058-.5761-.2386-.7384-.4551-.1524-.2032-.2433-.5645-.1721-.7988.125-.411.4853-.5873.9388-.477.6009.1461.9328.478.9591.9685Z"/>
  <path class="cls-1" d="m88.6579,40.5508c-.0864-.278-.2162-.5508-.2502-.8351-.0708-.593.3022-.8883.8199-1.0068.4882-.1117.9603.2499,1.0324.7717.0813.5881-.2422.9157-.7762,1.0218-.2805.0558-.5828.0013-.8753-.0034l.0494.0518Z"/>
  <path class="cls-1" d="m88.6085,40.499c.019.3818.0789.767.0474,1.1445-.0485.5818-.4563.8068-.9907.7809-.643-.0313-1.1487-.5397-1.0814-1.0932.0649-.5335.4022-.8791.9413-.9083.3742-.0202.755.081,1.1328.1279l-.0494-.0518Z"/>
  <path class="cls-1" d="m86.2064,49.5598c.3765-.0086.7641-.0778,1.1269-.0113.5346.098.8196.4953.7247,1.031-.0432.244-.2496.548-.4658.6545-.479.2359-1.0203.0871-1.231-.3659-.1791-.3849-.0813-.8986-.106-1.3554l-.0488.047Z"/>
  <path class="cls-1" d="m86.9308,33.2185c-.7512.0805-1.3414-.3572-1.2275-.807.0792-.3127.4042-.6745.7064-.7935.4519-.1779,1.0436.3294.966.815-.0518.3242-.3398.6107-.4449.7855Z"/>
  <path class="cls-1" d="m80.4764,47.9511c-.3915-.5228-.7676-.8387-.8834-1.2315-.1178-.3996.4802-.8587.9701-.8696.4898-.0109,1.0714.5058.9034.8993-.1671.3913-.5524.6894-.9902,1.2018Z"/>
  <path class="cls-1" d="m85.7572,30.6276c-.7221.0448-.9999-.3354-1.1506-.8354-.1085-.3599.2939-.7649.6988-.7385.5405.0351.9313.4311.8479.9666-.0372.2386-.2843.4447-.3961.6074Z"/>
  <path class="cls-1" d="m88.2386,34.2042c.372.3991.7149.6124.8092.9057.1291.4014-.1487.7269-.5656.8426-.4584.1271-1.043-.305-.9498-.7683.0606-.3013.3827-.55.7063-.9799Z"/>
</svg>