<?xml version="1.0" encoding="UTF-8"?>
<svg id="Ebene_1" data-name="Ebene 1" xmlns="http://www.w3.org/2000/svg" viewBox="0 0 131.0631 117.8204">
  <defs>
    <style>
      .cls-1 {
        fill: #62594f;
        stroke-width: 0px;
      }
    </style>
  </defs>
  <path class="cls-1" d="m129.3819,49.292c-.408,3.7888-1.01,7.5412-3.0005,10.9251-2.003,3.405-4.5461,6.32-7.5445,8.9062-2.7849,2.4021-4.8437,5.3031-4.946,9.217-.0434,1.6578.3297,3.0449,1.4617,4.3801,1.5914,1.877,2.9309,3.9719,4.3294,6.0071,1.1393,1.6579,1.149,3.4464.3565,5.2461-.8345,1.8951-1.7954,3.7384-2.5555,5.6618-1.7604,4.4543-3.3819,8.9641-5.1787,13.4032-.4269,1.0547-1.1715,2.0954-2.0339,2.8344-1.6364,1.4021-4.0508.3307-4.2591-1.8162-.0672-.6924.0681-1.4402.2664-2.1171,1.77-6.0398,3.5991-12.0624,5.3593-18.105.8469-2.9072.3191-5.5607-1.8707-7.7402-1.4665-1.4596-3.0609-2.7911-4.5231-4.2547-2.9593-2.9623-7.0138-4.8208-8.9174-8.8486-.3732-.7897-1.0106-.8549-1.8132-.6819-7.9145,1.7065-15.9672,2.1574-24.0216,2.4199-2.9336.0956-5.8893-.3396-8.8281-.6069-1.8085-.1645-1.7946-.1603-2.6126,1.5409-2.1036,4.3749-2.6119,9.1946-3.8896,13.7967-1.1923,4.2945-2.0662,8.6782-3.0493,13.0296-.4208,1.8626-.6811,3.7644-1.1628,5.6096-.5598,2.1444-2.2394,3.0212-4.2842,3.2594-1.6426.1913-2.537-.4927-2.4148-2.1051.1307-1.7244.4672-3.4724.9978-5.1186.9055-2.8094,2.1636-5.507,3.0318-8.3261.9622-3.1242,1.7702-6.3079,2.4301-9.51.6891-3.3434,1.1587-6.7341,1.6522-10.1147.2672-1.8307-.0289-2.0512-1.932-1.5954-3.0183.7229-6.0506,1.4039-9.0314,2.2607-2.5015.7191-4.6218,1.9462-5.9107,4.4754-2.1726,4.2632-4.5156,8.4437-6.9118,12.5868-.8684,1.5015-2.0405,2.8432-3.1861,4.1603-.4381.5037-1.1502.8851-1.807,1.0576-1.2706.3338-2.0238-.324-1.9205-1.6405.0744-.9484.1812-1.9531.5557-2.8092,1.8481-4.2256,3.7807-8.4143,5.7028-12.6073,1.0641-2.3212,2.2795-4.5807,3.2074-6.9539.5417-1.3857,1.3597-2.3907,2.6555-2.8961,3.113-1.2142,6.2255-2.4789,9.4353-3.3763,1.7729-.4956,2.7361-1.1703,3.1129-3.0407,1.1074-5.4968-1.4899-13.1193-6.6155-15.4646-2.2271-1.019-4.2915-2.4939-6.2267-4.0195-1.6089-1.2683-2.9491-2.8872-4.3546-4.4008-1.086-1.1695-2.0723-2.4309-3.1321-3.6254-1.4783-1.6661-3.1792-1.9853-5.1095-.8568-1.028.601-1.9578,1.3764-2.9059,2.1069-3.6214,2.7903-7.8149,3.8-12.2786,3.9419-.6285.02-1.2868-.086-1.891-.2678-1.7971-.5405-2.1424-1.3962-1.2135-3.0316,1.1959-2.1054,2.7876-3.8853,4.645-5.4337.8591-.7163,1.6864-1.4711,2.5553-2.1751,2.2183-1.7973,4.0572-3.9086,4.7658-6.7174.7273-2.8829,2.7685-4.5754,5.0146-6.1438,2.866-2.0012,2.8465-1.9817,2.1532-5.4957-.2461-1.2475-.3764-2.5276-.4298-3.7983-.0207-.4917.194-1.107.5176-1.477.7945-.9084,4.1811-.8991,5.0338.0057.5376.5704.9548,1.2682,1.3547,1.9506.4024.6867.6562,1.4634,1.0815,2.133,1.0149,1.598,1.819,1.6192,2.8117.0228,1.01-1.6241,2.0071-3.2706,2.8294-4.9936,1.0766-2.2559,3.0096-3.6897,4.7576-5.3027.3374-.3114,1.1289-.5682,1.4171-.3858.3686.2332.63.95.5978,1.4359-.0624.9428-.3389,1.8756-.5676,2.8024-.7637,3.0953-1.2273,6.3146-2.409,9.2429-1.2007,2.9753-.6538,5.4718.8471,7.9476.9877,1.6293,2.2282,3.1045,3.3431,4.6577.8369,1.1659,1.7692,2.2832,2.4517,3.5351.9034,1.6571,2.1706,3.0463,3.673,3.978,1.205.7473,2.8725,1.0198,4.3366,1.0257,4.0682.0165,8.1455-.0976,12.2041-.3784,5.657-.3914,11.303-.9528,16.9484-1.4968,3.1792-.3064,6.3473-.7268,9.521-1.0906,6.6182-.7586,13.266-.7015,19.8328.1748,2.9995.4002,5.8787,1.8932,8.7382,3.0707,1.4559.5995,2.8655,1.4523,4.0903,2.4446,2.9978,2.429,4.8609,5.4931,4.6627,9.5652Zm-71.1824-11.0209c-2.6287-.1612-5.2614-.2764-7.8849-.5-1.724-.147-3.1418-.8182-4.1913-2.3727-2.4549-3.636-5.1265-7.1262-7.5619-10.7746-1.9081-2.8585-2.4459-5.8562-1.0981-9.3044,1.2114-3.0995,1.7597-6.4595,2.5745-9.711.0672-.2682-.0649-.5864-.1044-.8813-.2801.0949-.5999.1324-.8338.2941-1.3924.962-2.5746,2.0843-3.3556,3.6567-1.0256,2.0649-2.1831,4.0688-3.3672,6.0493-.9985,1.67-2.0945,1.7089-3.3813.2259-.3141-.362-.5731-.7742-.9038-1.1188-.1979-.2062-.4857-.3261-.733-.4848-.1354.2591-.333.5039-.3963.7796-.4898,2.1333-.7786,2.2292-2.4649.772-.1207-.1044-.2133-.249-.3465-.3297-.2587-.1566-.5369-.2811-.807-.4188-.0807.3519-.2419.7082-.2225,1.0544.0264.4724.2071.934.2926,1.4055.3431,1.8933.2836,1.9021-1.4448,2.9553-2.6798,1.633-5.3106,3.3248-6.2165,6.6497-.8322,3.0543-2.7977,5.3177-5.1651,7.3188-1.6447,1.3903-3.2496,2.8413-4.7497,4.3843-.9043.9301-2.472,2.1003-1.7694,3.3253.7669,1.3371,2.7543,1.1914,4.1943.8395,4.0032-.9781,8.1733-1.6806,11.1553-4.9865.2111-.234.4825-.4203.7462-.5989,2.3719-1.6057,5.1652-1.2591,7.0745.8759.4261.4765.8303.9726,1.2559,1.4497,1.7523,1.9642,3.3031,4.1758,5.3149,5.824,2.6401,2.1631,5.5833,3.9833,8.5174,5.7495,1.5915.958,2.6531,2.2624,3.5317,3.7833.4756.8234.8628,1.721,1.1427,2.6303,1.0733,3.4876,1.5857,6.979.2665,10.5646-.5244,1.4253-1.3157,2.2411-2.7923,2.6167-2.5433.6468-5.0876,1.3328-7.5586,2.208-2.4468.8666-4.4082,2.2356-5.511,4.8936-2.1092,5.0838-4.5856,10.0142-6.8552,15.0329-.6238,1.3793-1.091,2.8342-1.5493,4.2801-.1218.3843.0557.8634.0958,1.299.4515-.0788.9997-.0237,1.3337-.265.6374-.4604,1.2873-1.0063,1.6959-1.6635,1.9328-3.1089,3.8319-6.241,5.6512-9.4175,1.2267-2.1417,2.356-4.3442,3.4273-6.5684,1.0684-2.218,2.9225-3.2935,5.1686-3.896,4.0022-1.0736,8.0045-2.1467,12.0075-3.2172,1.71-.4573,1.8585-.3794,1.607,1.3427-.587,4.0195-1.1551,8.0457-1.9028,12.0369-.9108,4.8619-1.9107,9.7087-4.0181,14.2497-.7359,1.5855-1.2811,3.2679-1.8063,4.9397-.3081.9806-.5153,2.0215-.5707,3.0459-.0755,1.3959.5878,1.9604,1.9201,1.5747.6984-.2022,1.5003-.7089,1.8499-1.3129.6664-1.1514,1.2199-2.4318,1.5061-3.7281.944-4.2748,1.632-8.6078,2.633-12.868,1.3858-5.8975,2.9826-11.7452,4.45-17.6239.2777-1.1126.9506-1.6554,2.0108-1.6846.8713-.024,1.7471.1236,2.6213.1906,2.8515.2186,5.7228.7586,8.551.5874,6.6084-.3999,13.1978-1.1239,19.7902-1.7649.9416-.0915,1.8707-.4083,2.7806-.6991.8651-.2765,1.2855-.7842.9464-1.8154-1.1039-3.3574-.2701-6.6666.5718-9.8986.4555-1.7489,1.428-3.3686,2.2288-5.0167.1365-.2811.584-.411.8878-.6107.0375.4196.0974.8391.0995,1.2589.0006.1376-.1429.2799-.2307.4133-1.819,2.7627-2.3748,5.9311-2.7196,9.1085-.519,4.7832,1.7794,8.5068,5.0805,11.6029,3.0094,2.8225,6.3728,5.2673,9.3826,8.0894,2.6849,2.5175,4.1864,5.6394,3.2635,9.4849-.4098,1.7072-.8169,3.4179-1.3158,5.1002-1.1334,3.8222-2.3389,7.6231-3.48,11.443-.3423,1.146-.6256,2.3174-.8155,3.4965-.0605.3755.1631,1.0292.4461,1.1672.3357.1637.9465.0238,1.3083-.1971.3814-.2329.6784-.6814.8912-1.0976.4713-.9218.903-1.8679,1.2871-2.8296,2.042-5.1134,4.0173-10.2539,6.1079-15.3472,1.7116-4.1701,1.7874-4.158-.5258-7.9187-.4075-.6623-1.0285-1.1984-1.5761-1.7686-2.8539-2.9718-4.0991-6.3268-2.9657-10.492.8699-3.1968,2.934-5.4184,5.2974-7.4866,4.4815-3.9216,7.9565-8.4679,9.326-14.424,1.4111-6.1374.4683-9.4918-3.6721-12.6708-2.8685-2.2023-6.1563-4.2172-9.8377-4.7544-4.1639-.6075-8.4254-1.0358-12.6162-.8615-7.5681.3146-15.1147,1.1404-22.6711,1.7426-6.7589.5386-13.4578,1.9498-20.3033,1.5868ZM26.1123,12.473c-.1976-.7158-.3163-1.4211-.6023-2.0503-.1193-.2623-.6851-.5754-.8887-.4893-.3548.1501-.8658.6461-.8164.901.1436.7405.4748,1.4666.8542,2.1285.1504.2624.6695.5199.9325.4496.2313-.0618.3396-.5841.5207-.9395Z"/>
  <path class="cls-1" d="m24.4186,27.9248c-1.1466-.4271-2.2591-.8024-3.3217-1.2872-.1319-.0601-.1452-.9097.0368-1.0376.8312-.5847,1.7153-1.1282,2.6491-1.5247,1.257-.5338,3.5429.9373,3.5615,2.2454.0035.2465-.2383.6254-.4627.7229-.7844.341-1.6108.5856-2.463.8813Zm1.1284-2.0247c-.4197-.3223-.7372-.6987-.8692-.6422-.3642.1561-.6508.4932-.968.7587.2426.1499.4971.4365.725.4168.3204-.0277.6212-.2827,1.1122-.5333Z"/>
</svg>