<?xml version="1.0" encoding="UTF-8"?>
<svg id="Ebene_1" data-name="Ebene 1" xmlns="http://www.w3.org/2000/svg" viewBox="0 0 23.2289 75.5397">
  <defs>
    <style>
      .cls-1 {
        fill: #62594f;
        stroke-width: 0px;
      }
    </style>
  </defs>
  <path class="cls-1" d="m19.3584,13.302c-.2611-.2618-.3999-.6531-.317-1.2878.0112-.087-.0713-.1959-.13-.2811-.9342-1.3566-1.8061-2.7624-2.8226-4.0545-1.8339-2.3314-3.7687-4.5831-5.6333-6.8909-.8871-1.0981-1.3327-1.0709-1.998.2247-.1672.3257-.3188.6597-.4714.9926-1.434,3.1244-2.6617,6.3754-5.3405,8.7381-.9477.8359-.5249,2.0645-.8767,3.0725-.0355.1015.1859.3807.3428.4458.6111.2536,1.2218.6613,1.9054.1339.6081-.4693,1.1725-.6681,1.4881.3286.0562.1779.2504.3468.4231.4472.7262.4218.4967.859.1225,1.4036-1.2102,1.7621-2.4002,3.539-3.5574,5.3363-.7345,1.1405-1.4547,2.2985-2.0573,3.5103-.1886.3794-.1282,1.0636.1071,1.4141.18.2677.8428.37,1.2419.2929.5431-.1051,1.0425-.4451,1.5549-.6956.8343-.4076,1.1784-.3246,1.3137.5883.0912.6143-.0137,1.3681-.3074,1.9096-1.1945,2.2026-2.4256,4.3928-3.7874,6.4941-.6756,1.0426-.5983,2.0902-.4818,3.1557.0741.6777.5605,1.031,1.3694.8541,1.4783-.3233,2.7927-.8251,3.6443-2.2023.1474-.2384.6701-.2448,1.0195-.3584.0633.3788.1701.7576.1705,1.1364.0002.1759-.2094.3504-.3193.5283-1.2286,1.9886-2.3919,4.0217-3.7073,5.951-.8461,1.2411-.9143,2.49-.6604,3.8786.3148,1.7228.8383,2.1492,2.5274,1.9132.2978-.0416.6002-.0524.9004-.0774-.0827.3308-.141.6703-.2553.9899-.105.2937-.2558.5741-.411.8464-1.1117,1.9516-1.3063,4.0634-1.01,6.2296.1203.8793.3946,1.74,1.497,1.9571,1.1739.2312,1.168.2603.6263,1.3874-.7582,1.5779-1.3358,3.1924-.9501,4.986.2849,1.324,1.4566,1.8343,2.589,1.0907.4723-.3102.8281-.7968,1.2986-1.1105.2348-.1565.7765-.2515.8914-.121.5593.6358,1.2905.6154,2.0113.7073,1.4362.1831,1.4935.1924,1.4386,1.6109-.0597,1.5489-.2627,3.0918-.3582,4.6401-.0313.5076-.0305,1.0668.1516,1.5245.0294.074.2642.5766.862.5959s1.5042-.1736,1.7163-.5593.1954-1.0442.1798-1.406c-.0604-1.3992-.1111-2.7991-.1447-4.1992-.0422-1.7567-.0331-1.757,1.7643-1.6853,2.1802.0869,3.9949-2.1411,3.3529-4.2072-.3079-.9904-.8431-1.9081-1.2086-2.8837-.1523-.4061-.131-.8773-.1886-1.3189.3942-.0223.8013-.1194,1.1804-.0541,1.6467.2834,2.4311-.2372,2.3659-1.9432-.0732-1.9148-.414-3.8186-.6196-5.7293-.1241-1.1522-.8695-2.2821-.0358-3.4703.9747-1.3891.5517-2.7183-.157-4.1068-.6571-1.2872-1.2234-2.6495-1.6027-4.0406-.3105-1.1386-.0924-1.2967,1.1223-1.5027.9646-.1635,1.7098-.6022,1.9052-1.5977.4316-2.1998.2435-4.2348-1.5337-5.9102-.7428-.7002-1.296-1.6037-1.9206-2.426-.281-.37-.5258-.7675-.7871-1.1525.365-.2433.7537-.4585,1.0877-.7388.2726-.2287.572-.4982.6995-.814.519-1.2843.5332-2.5399-.3757-3.7001-1.4767-1.885-2.8619-3.8491-4.4412-5.643-.7694-.8738-.299-1.383.131-2.0013.5294-.7612.88.1076,1.3075.2052.2797.0639.5564.1405.8324.2207.5671-.4237,1.0498-.9375,1.3253-1.5723Zm-1.164,51.9369c-.3255.4254-.8423.6374-1.3808.2669-.4271-.2938-.8418-.6071-1.2485-.9286-1.0281-.8131-1.3706-.8163-2.4227.0059-.9953.7779-1.4271.7718-2.4602-.0343-1.0664-.8321-1.4596-.8326-2.5952-.0015-.1258.0919-.2361.2166-.3748.2763-.2276.0977-.5894.2865-.6862.2011-.1994-.1764-.2613-.5083-.3795-.7755.4406-1.5053,1.0391-2.8752,2.0772-4.0052.1002-.1092.5441-.0013.7679.1188.9048.4856,1.7559.4911,2.6535-.0482.6652-.3998,1.3824-.7213,2.097-1.0301,1.5987-.6909,2.7004-.2187,3.3354,1.4762.3986,1.0638.7532,2.1531,1.0012,3.2593.0822.3669-.1353.8939-.3842,1.219Zm.3144-7.9582c-.5064.0711-1.1365-.1026-1.5837-.3724-1.1109-.6699-1.3301-.6499-2.4408.1224-.8423.5857-1.7846,1.0347-2.7065,1.4964-.5074.2541-.9032.0248-1.1486-.4717-.1821-.3685-.3234-.7669-.5598-1.0971-.8267-1.1554-1.3118-1.1826-2.3624-.172-.2248.2161-.3953.4942-.6365.6864-.8099.6456-1.4094.47-1.5375-.5308-.0896-.7016-.0568-1.4675.1326-2.1457.3743-1.3409.9042-2.6379,1.3521-3.959.4048-1.1934.4747-1.2319,1.5882-.6895,1.9397.9449,3.1573.7641,4.7737-.7719.3395-.3225.556-.5025,1.0498-.2232,1.552.8778,1.7624.8264,3.0687-.3922.1142-.1065.1982-.2534.3257-.3356.1622-.1045.3688-.2406.5289-.2117.1018.0184.2352.322.2149.48-.1132.8865.0045,1.5344,1.1159,1.6199.2072.0159.4673.5253.5434.8449l.4598,3.5351c-.0007,2.2424.0054,2.2813-2.1778,2.5876Zm1.6323-11.9732c.0893.4797.1314.9682.1931,1.453-.4534-.204-.9695-.3291-1.3466-.6291-.7224-.5745-1.1879-.3244-1.7164.2714-1.0865,1.2248-1.1666,1.1776-1.9762-.3092-.1923-.353-.6441-.7995-.9645-.7901-.4273.0125-.9354.3457-1.2433.6893-.5817.6489-.9956,1.4469-1.5705,2.1031-.673.7685-1.1209.7435-1.7823-.0433-.2937-.3495-.4493-.8123-.6886-1.211-.7215-1.2013-1.4224-1.3093-2.5146-.4219-.5633.4579-1.1183.9372-1.7323,1.3178-.5256.3259-.933.1184-.9309-.5335.0016-.5585-.0519-1.1945.185-1.6614.9641-1.9011,2.0262-3.7528,3.0668-5.6145.0896-.1602.2869-.2601.4655-.415.2727.1458.4929.2778.7246.3847,1.485.6853,2.2879.4711,3.1698-.838.7682-1.1401.9169-1.1802,2.0471-.3792.9669.6853,1.9369,1.0538,2.9986.2164.7042-.5553,1.156-.1664,1.5155.4207.1873.3057.3873.6676.3947,1.0082.0341,1.5768.7833,2.8941,1.4345,4.2527.1118.2333.2241.4774.2708.7287Zm-.2935-13.1025c.6758.7158,1.5245,1.3355,1.5124,2.5715-.2141.5022-.4282,1.0045-.6422,1.5068-.5462-.2611-1.1116-.4902-1.6288-.7995-.2016-.1204-.2688-.4456-.4425-.6362-.5069-.5563-1.1273-.574-1.5932.0227-.3797.4864-.6175,1.0808-.9698,1.5918-.477.6914-.9795.7529-1.4677.1107-.3366-.4426-.4607-1.0406-.7435-1.5325-.2123-.3695-.5277-.9616-.794-.9599-.5657.0037-1.2344.2048-1.6605.5631-.3437.289-.4029.9242-.5704,1.4119-.1334.3884-.1701.8271-.3721,1.1718-.5543.9467-1.3957.9539-1.9185-.0142-.2902-.5372-.3774-1.1829-.5663-1.7765-.1237-.389-.194-.8196-.4124-1.1495-.7071-1.069-1.3516-1.0548-2.2069-.0816-.7201.8196-1.4907,1.5957-2.2596,2.3705-.131.132-.3658.1609-.5528.2374-.0157-.1873-.1106-.4176-.0355-.5554,1.2159-2.2316,2.446-4.4557,3.6986-6.667.1123-.1983.3946-.4109.6088-.423,1.4359-.0813,2.1598-1.0891,2.9292-2.0954.276-.361.5727-.9052,1.249-.3303,1.3796,1.1727,2.5246,1.0189,3.8521-.396.6133-.6537,1.0659-.7066,1.5169-.1649.0966.116.2077.2637.2162.4027.1497,2.4179,1.7273,4.0044,3.2535,5.6213Zm-1.5816-9.1947c.2193.2804.3672.6164.4936.8331.0038.7174-.5372,1.0648-1.1059.7461-.6336-.355-1.2237-.7991-1.7934-1.2537-1.2711-1.0142-1.8561-.8695-2.291.6106-.059.2004-.0753.4253-.1798.5973-.1474.243-.3586.4472-.5424.6681-.2123-.2419-.5008-.4516-.6199-.733-.1994-.4709-.45-1.0069-.3922-1.4806.0997-.8199-.0758-1.1596-.9444-1.1122-.8123.0443-1.1671.3737-1.3191,1.209-.1815.9975-.5488,1.9737-.9468,2.9119-.1269.2989-.7066.696-.9096.6164-.5441-.2134-1.1913-.5622-1.4336-1.0413-.2734-.5406.091-1.3633-.7147-1.7453-.6279-.2977-1.2085-.2249-1.786.1258-.0628.0382-.2686-.0265-.2681-.0363.0099-.1923-.0227-.4282.0767-.5675.8073-1.1337,1.6624-2.2337,2.458-3.3753.6538-.9383,1.2562-1.9133,1.8594-2.8856.1627-.262.3838-.5958.3416-.8587-.2442-1.5227,1.0688-1.9986,1.8502-2.8059.5076-.5244,1.0422-.3453,1.4182.2624.0543.0877.1054.1863.1229.286.2738,1.5543,1.2464,2.5877,2.3311,3.6907,1.5937,1.6204,2.8872,3.537,4.2952,5.3379Zm-2.6511-11.867c-.6711-.1683-1.2424.3738-1.1714,1.2743.0206.2616-.2331.5448-.3612.8181-.2554-.1646-.5635-.2836-.754-.5041-.3035-.3517-.5017-.7927-.7926-1.1576-.7834-.9825-1.6986-1.0891-2.6871-.3388-.3328.2526-.6511.5242-.984.7764-.4515.342-.9108.6735-1.3668,1.0096-.2395-.4887-.3792-1.0779-.7442-1.4403-.4354-.4324-1.0505-.6838-1.5942-1.007-.0022.0035-.0043.0069-.0064.0103-.0209.0224-.0419.0447-.0626.0671.0102-.033.0204-.0661.0306-.0991.0125.0075.0258.0141.0384.0216.8855-1.4574,1.7882-2.9048,2.6492-4.3766.4436-.7583.7999-1.5674,1.2194-2.3405.2902-.5348.6912-.5849,1.1438-.1751.1931.175.4088.3319.573.5311,1.7533,2.1264,3.5071,4.2526,5.2387,6.3966.356.4408.6512.7893-.3684.5338Z"/>
</svg>