<?xml version="1.0" encoding="UTF-8"?>
<svg id="Ebene_1" data-name="Ebene 1" xmlns="http://www.w3.org/2000/svg" viewBox="0 0 46.5926 64.5578">
  <defs>
    <style>
      .cls-1 {
        fill: #62594f;
        stroke-width: 0px;
      }
    </style>
  </defs>
  <path class="cls-1" d="m30.8323,63.3664c-1.3468.0047-7.2804-.7438-11.224-2.1314-.7342-.3055-1.9718-.7303-2.8116-1.0954-1.132-.5112-1.8153-.936-1.9207-1.9678-.1051-1.0292-.3518-2.0434-.5159-3.0674-.0926-.5777-.4402-.8085-.9855-.8175-.9925-.0163-1.9851-.0457-2.9775-.0505-1.409-.0067-2.8133-.3625-4.0106-1.1052-2.5246-1.5661-3.3691-3.9023-3.4798-6.6229-.0385-.9468-.0061-1.9352.2232-2.8469.7545-3.0007,2.8406-4.9067,5.4824-6.2873.4915-.2568,1.0525-.3779,1.554-.6187,1.1005-.5283,2.1496-.5094,3.1823.1671.3325.2178.8624,1.0939,1.2329,1.2232.135.0471.2983-.7861.3378-.9215.1544-.5298.0496-1.2073.0761-1.7562.0393-.8133.6811-1.184,1.3478-1.5842,1.5099-.9065,3.0335-1.7727,4.7388-2.2703.536-.1564,1.0551-.3707,1.5915-.525.4542-.1306.5152-.2582.0937-.5442-.822-.5579-1.3278-1.3957-1.7355-2.2562-1.1479-1.9177-.1185-5.0825.498-5.9408s1.9258-1.5565,2.9692-1.9786c1.0156-.4539,1.679-1.1744,2.3298-1.9755.9328-1.1482,1.1674-2.4498.6627-3.8266-.3272-.8925-.8153-1.7248-1.1865-2.603-.18-.4259-.3367-.893-.3495-1.3458-.0071-.2497.2538-.6244.489-.7291.215-.0957.6789-.0026.8258.1769,1.2917,1.5775,2.1501,3.3961,2.3629,5.414.1431,1.358-.2049,2.6981-1.1967,3.7666-1.0925,1.1768-2.2307,2.2802-3.7558,2.9132-.7357.3053-1.3899.7294-1.7971,1.5019-.6342,1.203-.8464,2.4134-.2556,3.663.3378.7146.94,1.3287,1.1641,2.0667.3267,1.0757.9502,1.3483,1.9485,1.1673,3.008-.5452,6.0492-.3804,9.0811-.4144.3186-.0036.6423.0172.9538-.0336.2119-.0346.4521-.1105.3625-.4592-.2749-1.0706-.4233-2.1434-1.15-3.0921-1.6316-2.13-1.6274-3.7044-.1764-5.913.2183-.3322.5112-.6145.7432-.9387.9882-1.3808,1.0105-2.3201-.1453-3.6647-.8258-.9607-1.8247-1.7739-2.7564-2.6421-.8734-.8139-1.8019-1.573-2.63-2.4298-1.0131-1.0484-1.2211-2.4523-1.095-3.7882.1259-1.3339.514-2.6776,1.3045-3.8209.2603-.3765.6201-.7175,1.0052-.9644.3406-.2184.8245-.2277,1.0664.163.1355.2188.1205.612.0268.8742-.1868.5231-.4769,1.009-.7203,1.5123-.6262,1.2945-.4829,2.6533-.2688,3.9966.0578.3631.3269.7367.5944,1.0133.6089.6294,1.2581,1.2238,1.9258,1.7913.7903.6716,1.6207,1.2958,2.4278,1.948,1.0528.8508,1.6458,1.9987,1.9609,3.2589.1432.5727.0986,1.5106-.1084,2.0634-.3026.8081-.7557,1.5807-1.2564,2.2896-1.2664,1.7933-1.3019,2.422-.0491,4.2868.2227.3314.4687.6474.6859.9822.6199.9559.5851,1.9417.1356,2.9543-.3491.7864-.3459.8502.2136.9353,1.0508.1599,1.9444.6871,2.9047,1.0729,2.025.8136,2.8211,2.4611,2.6635,4.3807-.2106,2.5651.0511,5.0801.1716,7.6191.1287,2.713.1292,5.4326.1572,8.1495.0132,1.279.1766,3.6129.1766,3.6129,0,0,0,1.0407-.0183,1.8622s-.2522,1.1343-.6938,1.7892c-.453.6413-.9676,1.132-1.4423,1.4971-2.3734,1.6614-5.0068,2.1537-6.2188,2.4096s-3.393.5021-4.7398.5068Zm.845-2.025c2.7194.0032,4.3556-.4122,5.1658-.6358s2.8187-1.0249,4.0879-2.0849c.9797-.8182,1.1123-1.9571,1.1047-2.9576s-.2337-2.535-.2771-3.8094c-.1277-3.7498-.289-7.4984-.442-11.2473-.0097-.2381-.0393-.4798-.0973-.7104-.0996-.396-.3865-.5525-.7786-.3253-1.1483.6653-2.3804,1.1777-3.7074,1.197-3.865.0563-7.7104-.0974-11.5281-.809-1.9161-.3571-3.6831-.9719-5.3292-1.9955-.4719-.2934-.9917-.5147-1.5028-.739-.6117-.2685-.9563-.0933-.9905.5212-.0533.9566-.0642,1.9156-.091,2.8736-.0492,1.7565.0228,3.5265-.1749,5.266-.2532,2.2275-.4195,4.4535-.3284,6.6856.055,1.3463.3523,2.681.4953,4.0258.1088,1.0238.6449,1.5348,1.5577,1.9365.8764.4382,1.4606.6207,2.3734.9129,3.761,1.2415,7.7431,1.8923,10.4624,1.8956Zm.6837-23.0688c0,.0032,0,.0064,0,.0097,1.5146,0,3.0312.0474,4.5434-.013,1.5818-.0632,2.9488-.671,3.9106-1.9775.6602-.8968.5533-1.6129-.301-2.2822-1.2047-.9439-2.5679-1.4996-4.1347-1.5131-.9468-.0081-1.8881-.0611-2.8249-.1983-1.4641-.2144-2.9139-.0994-4.3722.0446-.7129.0704-1.426.187-2.1397.1924-2.5379.0192-4.8211.9686-7.1104,1.8978-.1955.0793-.4342.2805-.4681.46-.0287.1522.1702.4123.336.5266,2.6993,1.8611,5.7127,2.7585,8.9734,2.8477,1.195.0327,2.3917.0053,3.5876.0053Zm-25.2331,5.776c-.0361,1.1298.1725,2.3014.7696,3.3599.3058.5421.6636,1.131,1.1542,1.4777,1.2429.8783,2.6291,1.4598,4.2048,1.4274.7128-.0147.9505-.2246,1.0388-.9891.1544-1.3363.326-2.6711.4498-4.0103.1046-1.1314-.0259-2.2416-.7784-3.1508-.5549-.6704-1.1659-1.3037-1.8115-1.8876-.9116-.8246-1.6757-.84-2.8807-.2193-.5842.2921-1.0954.6207-1.4971,1.3876-.4747.8398-.6743,1.6944-.6496,2.6045Zm3.5561,8.1299c-.0133-.1335-.6414-.3932-.8235-.515-2.1401-1.083-3.7787-2.618-4.5446-4.9607-.0384-.1175-.1952-.3226-.2813-.3106s-.0932.3402-.085.4782c.0527.8908.1499,1.5426.3996,2.2966.5899,1.7816,2.39,2.5893,3.0361,2.8574s1.0997.4124,1.4503.4261.622-.0069.7423-.0619.1193-.0766.1061-.2101Z"/>
  <path class="cls-1" d="m27.8508,26.4323c-.0249-1.6431.5558-2.6644,1.5577-3.4077.8238-.6112,1.7354-1.1055,2.6202-1.6313.1024-.0608.3835-.0334.407.0242.0816.2005.1817.4765.1039.6447-.376.8119-.992,1.4384-1.76,1.8808-1.1033.6355-1.2483,1.5462-.8642,2.6473.026.0746.0771.1414.0973.2169.1771.6638.0702,1.0099-.3397,1.1875-.5413.2346-.9573-.0146-1.2345-.4149-.3013-.4351-.4892-.9487-.5876-1.1474Z"/>
  <path class="cls-1" d="m35.1932,47.6978c.0482.2334.162.609.1969.9918.0645.7075.1597,1.4255.1023,2.1277-.0867,1.0611-.6454,1.8153-1.7865,1.8783-.7013.0387-1.0133.3248-1.0161,1.0106-.003.7524-.2528,1.4041-.8483,1.8941-.3991.3284-.8235.4459-1.3182.1917-.6622-.3403-1.2046-.7579-1.3292-1.563-.085-.5493-.2216-1.0908-.3416-1.6343-.0956-.4331-.3621-.6411-.81-.7302-2.3218-.4617-2.5671-.8639-1.6527-2.968.2797-.6435.1022-.9714-.2996-1.4452-.6769-.7982-.7168-1.3441-.1148-2.1335.6739-.8837,1.2986-1.7655,1.7763-2.7847.4054-.8649,1.5843-1.214,2.5049-.8217,1.6179.6896,3.1606,1.5231,4.249,2.9826.6293.8439,1.2355,1.6957.6876,3.0038Zm-6.8967-2.2214c.8613-.0993,1.5828.0539,1.8653,1.0187.0441.1506.0969.3044.1772.4377.2276.378.7034.5373.9945.2307.5304-.5587,1.0546-.9405,1.8556-.6106.0074.003.1972-.2777.1588-.3498-.1845-.3464-.4191-.666-.6344-.9962-.5122-.7855-1.3859-1.0001-2.1611-1.3703-.5261.3281-1.0677.6347-1.5719.9935-.2506.1783-.4329.4525-.646.6833-.0403.0468-.0805.0936-.1208.1405l.0827-.1775Zm3.9737,4.9226c.3289.0914.479.1614.6327.1704.4615.027.681-.2334.6493-.74-.0422-.6766-.4105-1.0673-1.0598-.9434-1.1685.2231-2.3231.2603-3.4982.0909-.1322-.0191-.3234.2476-.4474.4119-.0217.0288.1326.2538.2446.3087.4129.2024.9071.2921,1.2498.5722.4799.3923.913.5516,1.5001.2955.2732-.1192.5908-.1367.729-.1662Z"/>
  <path class="cls-1" d="m30.0247,33.3561c2.0845-.0507,4.148.0664,6.1673.6541.6368.1853,1.2169.454,1.5578,1.0218.1363.2271.1217.6107.0377.8799-.052.1669-.3646.3563-.5585.3545-.4679-.0044-.9417-.0852-1.4007-.1894-.9315-.2115-1.854-.462-2.7817-.6907-1.2569-.3098-2.5138-.4018-3.7932-.0921-.46.1113-.9528.1266-1.4299.1207-1.3754-.017-2.6996.152-3.9418.8064-.2582.136-.6213.1541-.9177.1081-.1969-.0306-.4441-.2402-.5153-.4279-.0637-.1678.0126-.4926.1478-.6156,1.1533-1.0493,2.4878-1.6968,4.0788-1.7539,1.1172-.0401,2.2331-.1159,3.3496-.1758Z"/>
  <path class="cls-1" d="m28.2965,45.4764c-.0276.0592-.0551.1183-.0827.1775.0403-.0468.0805-.0936.1208-.1404l-.0381-.037Z"/>
</svg>