<?xml version="1.0" encoding="UTF-8"?>
<svg id="Ebene_1" data-name="Ebene 1" xmlns="http://www.w3.org/2000/svg" viewBox="0 0 84.6165 50.3415">
  <defs>
    <style>
      .cls-1 {
        fill: #62594f;
        stroke-width: 0px;
      }
    </style>
  </defs>
  <path class="cls-1" d="m26.0931,48.8469c-.4759.1371-1.6432-.1334-2.9793-.4286s-7.6681-1.4606-9.7859-1.9718-4.3818-.8764-5.1851-1.0224-1.6618-.2936-2.3763-.2596c-1.4237.0676-2.1934-.2625-2.5338-2.2146-.2327-1.3345-.3947-2.6811-.606-4.0195-.0744-.4713-.2112-.9325-.301-1.4019-.0696-.3635.1038-.6817.4359-.7303.2678-.0392.7085.055.828.2443.3779.5986.6331,1.2736.9537,1.91.0867.1721.2285.5568.3497.7116.0961-.1238.2297-.4792.2921-.6182.2936-.6545.5864-1.3102.8496-1.9773.9663-2.4484,1.9503-4.8903,2.8719-7.3555,1.1181-2.9908,2.205-5.994,3.2581-9.0083.9513-2.7231,1.7962-5.4834,2.7646-8.2005.2935-.8235.7173-1.5901,1.1124-2.3699.4242-.8374.4553-1.6335.1313-2.5182-.3556-.971-.6006-1.9831-.8795-2.9812-.0631-.2259-.1477-.4958-.0789-.6963.0931-.2716.2835-.5547.5141-.7149.1123-.078.4892.0467.6089.1925.2984.3633.5365.7811.764,1.1961.2233.4073.4535.2935.7377.0829.186-.1378.3926-.2702.6108-.3371.3365-.1032.8971.3593.82.672-.1902.772-.4393,1.5304-.6062,2.3069-.073.3395.139.66.5116.6585,2.6329-.0101,5.2712.0483,7.8969-.1027,2.5446-.1463,5.074-.5404,7.6141-.7839,7.1717-.6876,14.3622-.4492,21.5488-.4116,2.9417.0154,5.8836-.0158,8.8254-.0382.4167-.0032.6837-.3383.5928-.7449-.2257-1.0092-.4503-2.0195-.6276-3.0377-.0331-.19-.0066-.5554.2456-.6299s.4906.1435.6009.3066c.2659.393.4541.8392.6662,1.2677.2124.4292.4036.8693.6254,1.2934.5113.9775.6676.996,1.2456.1535.4066-.5927.7749-1.2133,1.2074-1.7858.1817-.2405.462-.4444.741-.5603.1873-.0779.5007-.0437.6664.0715.1637.1138.3022.3975.2913.5979-.0166.3055-.1479.6135-.2716.9028-.7048,1.0443-1.1916,1.7015-1.7394,2.7118-.0359.0663-.2139.3964-.2678.5842-.2799,1.0102-.1704,1.8744.2723,3.0478l9.0132,29.1384c.2762.6291.5126,1.6872.7682,1.6872s.7448-1.1442,1.0263-1.8033c.3127-.7321.5853-1.4821.9193-2.204.135-.2917.4384-.5465.7687-.3515.2412.1424.536.4604.5342.698-.0055.7059.0364,1.5052-.2703,2.0969-.7067,1.3634-1.08,2.828-1.5855,4.2528-.1601.4513-.2919.9209-.517,1.3388-.2799.5196-.7562.9104-1.3638.7714l-52.5094,2.3844Zm50.2916-4.4404c.931-.0977,1.2239-.6207.918-1.5234l-9.6623-31.5003c-.9585-2.6389-1.0384-2.7034-3.7166-2.7162-.2327-.0011-.4654.0069-.6981-.0026-3.3447-.1365-6.6846-.3078-10.0278-.137-6.387.3264-12.81-.3877-19.1804.5746-.3143.0475-.6391.021-.9566.0528-1.028.1029-2.0534.2343-3.0826.3228-2.0651.1777-4.1308.351-6.1989.487-.4691.0309-.9474-.1217-1.4238-.1477-.8753-.0477-1.7528-.0971-2.6285-.0835-.7849.0122-1.0054.3063-.8672,1.049.2919,1.5691.5736,3.1406.9015,4.7023.9334,4.4464,1.8898,8.8879,2.8323,13.3324.2147,1.0126.3869,2.0346.6183,3.0431.6954,3.0314,1.3947,6.0621,2.1273,9.0846.2243.9252.5559,1.8249.8601,2.7289.0167.0496.3167.0829.3454.0369.2094-.3358.3598-.7089.5746-1.0407.2133-.3294.4529-.6513.7303-.9269.3152-.3131.9351-.2883,1.3219.0507.39.3418.1971.7013-.0456,1.045-.1839.2605-.3863.5168-.5175.8037-.3582.7835-1.2182,1.6558-.7035,2.4103.5874.861,1.5013.4428,2.6211.4428l45.8585-2.0888Zm-51.9924.4077c-.1974-.9353-.3761-1.8751-.596-2.8051-.4954-2.0952-1.0554-4.1761-1.5083-6.2803-.6865-3.1898-1.2912-6.3971-1.9563-9.5917l-2.9511-13.5177c-.0336-.1254-.2024-.2606-.3349-.2984-.1004-.0287-.3218.0604-.3552.1482,0,0-11.0333,30.0453-10.8311,30.3865s17.453,3.563,17.453,3.563c.3094.0775.6186.2087.9281.2091.1376.0002.4028-.2748.3906-.4042l-.2387-1.4094Z"/>
</svg>