<?xml version="1.0" encoding="UTF-8"?>
<svg id="Ebene_2" data-name="Ebene 2" xmlns="http://www.w3.org/2000/svg" viewBox="0 0 53.9668 165.0184">
  <defs>
    <style>
      .cls-1 {
        fill: #6a4e3b;
        stroke-width: 0px;
      }
    </style>
  </defs>
  <path class="cls-1" d="m15.5716,99.2075c.0286.0422.0945.059.142.0873-.0065.0094-.0131.0189-.0197.0283.0066-.0095.0132-.0189.0205-.0284.0008-.0001.0103.0056.0103.0056l-.0095-.0057c-.0491-.0282-.1151-.045-.1436-.0872Z"/>
  <path class="cls-1" d="m48.6578,32.3055c.1237-.1856.2956-.4536.2956-.4536,0,0,.1444-.2174.2749-.592.1235-.3542-.2302-.5911-.4811-.2955-.2509.2955-.3446.5232-.3446.5232,0,0-.2327.433-.3771.6667s-.6392.9279-1.031,1.3884c-.5226.6143-1.0509,1.2351-1.6152,1.7252-.5223.4537-.921.7644-1.0539.8606-.1329.0963-1.6393,1.1457-2.5289,1.6242-.0643.0346-.3945.1935-.4312.1614s.207-.338.2503-.4083c.3289-.5345.69-1.0661,1.0542-1.5759,0,0,.5699-.8435.7394-1.0772.1696-.2337.9449-1.3667,1.3054-1.9992l1.6407-2.6636c.1547-.2695.1821-.3039.2841-.6094.0946-.2834-.0985-.4162-.3987-.1375-.0641.0596-.1131.1227-.1622.2009l-2.222,3.5839-1.3054,1.9627c-.1342.1783-.3095.4599-.4383.6419-.3184.4499-.6256.9078-.9442,1.3575-.0345.0488-.2486.4471-.2912.4197s.105-.4422.1192-.4966c.1813-.6927.5525-2.0757.5525-2.0757l.375-1.3469s.4038-1.5416.659-2.369c.0703-.2277.1635-.5463.2482-.7693l.2789-.879c.0647-.211.1243-.3307.1365-.6391s-.2733-.4935-.53-.1224c-.2566.3712-.846,2.4986-1.243,3.8872-.0204.0716-.2721.9046-.2921.9768-.1826.6573-.2977,1.1075-.4627,1.7811-.1098.4482-.2494.9685-.4055,1.4022-.1383.3841-.297.5446-.5774.2474-.3135-.3323-.686-.8946-.8677-1.3076-.3661-.8321-.7053-1.551-.9518-2.5597-.0798-.3264-.2078-1.0868-.2038-1.4256.0122-1.0468.0881-1.585.3478-2.5637.0308-.1161.0878-.319-.155-.4141-.2428-.095-.4263.1364-.4597.2107-.0334.0744-.0634.1908-.0833.2925-.1628.8334-.3487,1.671-.2728,2.5291.0192.2167.0622.7527.1066.9589.103.4791.1362.6432.2845,1.1116.1307.4126.2679.8242.4267,1.2266.4183,1.0593.8494,2.1114,1.7495,2.8829.0955.0818.1844.272.1555.3795-.0882.3288-.213.6528-.3638.959-.4666.9475-.9653,1.8793-1.4254,2.8299-.37.7642-.7119,1.5425-1.0483,2.3224-.3832.8885-.7352,1.7905-1.1213,2.6776-.3866.8881-.7903,1.769-1.202,2.6458-.393.837-.7986,1.6683-1.2133,2.4949-.2001.3988-.4498.7728-.6487,1.1721-.5114,1.0269-.9791,2.0765-1.5168,3.0891-.5496,1.0352-1.1353,2.2138-1.6666,3.2575-.412.8091-.7032,1.5541-.9372,2.1178-.2398.5777-.556,1.4019-.7691,1.9904-.3311.9145-.7073,1.8129-1.0247,2.7319-.3347.9693-.6176,1.9564-.9368,2.9313-.045.1375-.1894.5012-.2759.6252-.0203-.145-.0186-.7406-.0183-.8855.0035-1.8279-.0034-3.4566.0022-5.2845.0068-2.2177.0027-4.4354.0173-6.653.02-3.0414.0629-6.0826.0767-9.124.008-1.7673-.0327-3.5347-.0317-5.3021.001-2.0223.0233-4.0445.0377-6.0668.0115-1.6181.0207-3.2363.0391-4.8543.0192-1.6912.0414-3.3823.0759-5.0732.0142-.6966.0382-1.5533.1482-2.2682.0189-.1229.0701-.3635.11-.4857.2157-.6603.4351-.8984.8694-1.3732.99-1.0825,2.2361-1.782,3.5963-2.2702.7429-.2666,1.5195-.4437,2.2883-.6339.3202-.0792.6521-.1216,1.1755-.2745,1.0332-.3018,2.0015-.7944,3.001-1.195.2651-.1063.3077-.3385.2341-.5536-.093-.272-.3115-.2089-.5211-.1059-.6149.3025-1.2172.6353-1.8524.8918-.3342.1349-.6685.2798-1.1189.4253-.9207.2973-1.8016.3958-2.8254.7327-.9379.3087-1.817.6357-2.6827,1.1808-.8501.5354-1.2335.7727-1.7538,1.43-.0388.049-.3828.5989-.4382.639-.0173-.0691.1539-.8048.1734-.8672.1826-.5842.3198-.8047.7706-1.1743.3765-.3087.7725-.6079,1.201-.8385.7213-.388,1.3147-.5797,2.1683-.7753.6395-.1465,1.319-.2882,1.9097-.4769,1.15-.3673,2.1935-.7333,3.4151-1.2084.8911-.3466,1.7249-.7794,2.3994-1.4402.7588-.7435,1.4124-1.5898,1.8458-2.5737.0784-.178.1066-.5361.0038-.6304-.1028-.0943-.0942-.0982-.2151-.0838-.1208.0145-.2368.3243-.3115.5059-.118.2865-.3927.7983-.544,1.0549-.6406,1.0864-1.8908,1.9378-2.5429,2.2834s-1.3641.5921-1.784.7382c-.3931.1367-1.4691.5138-2.2822.7577-.4999.1498-1.0589.2737-1.5723.3623-1.0504.1813-2.1401.4839-3.0469,1.0864-.0405.0269-.8394.578-.8935.5842.0248-.0507.7732-.8462.8111-.8867,1.196-1.2784,2.2419-2.6077,3.7528-3.5879.1861-.1207.4681-.2827.6068-.4542.0589-.0728.0245-.2697-.0049-.2991-.0639-.0639-.1851-.2762-1.1958.4923-.6777.5154-.9388.7877-1.2963,1.16-.7653.7968-1.3774,1.4824-2.1247,2.2966-.0458.0499-.3234.4042-.3841.4405.002-.0706.1859-.4817.2136-.5402.3134-.6623.5936-1.3447.9613-1.976.7377-1.2664,1.5236-2.5048,2.2911-3.7538.515-.8381.9535-1.6696,1.4553-2.5322.0894-.1813.2395-.5093.1627-.6212-.0769-.1119-.1283-.1486-.2515-.1423s-.2831.2552-.3688.4172c-.0996.1882-.1944.3846-.3118.5873-.3796.6554-.7718,1.2708-1.1482,1.9482-.4949.8908-.8818,1.5159-1.3491,2.2595-.2534.4033-.5114.7876-.7343,1.2056-.3225.605-.6454,1.2232-.9385,1.8443-.0322.0684-.5073,1.1953-.5678,1.2503-.016-.0815,0-1.3329,0-1.4149,0-.6451-.0456-1.1654-.0456-1.847,0-.9127-.0391-2.1686-.0852-3.0794-.0659-1.299-.0686-1.8489-.1826-3.3837-.0297-.4-.1089-.8836-.1521-1.2841-.0365-.3378-.0552-.6872-.0552-.6872l.0046-.692s-.007-.5156-.2786-.3843c-.2933.1418-.2965.7486-.2965.7486,0,0,.0345.3116.0344.4673-.0002.2035.0389.4635.0546.6639.0477.6113.1539,1.2192.1812,1.8309.0766,1.7173.1207,3.436.1902,5.1537l-.0181,1.6032c-.0252.9695.0005,1.9403.0052,2.9106.0002.0547-.0168.1094-.0258.1641-.0297-.0601-.0744-.1172-.087-.1807-.1949-.9832-.4424-1.9691-.6311-2.9535-.0469-.2451-.1004-.4656-.3739-.393-.2017.0535-.1444.2113-.0825.4477.1552.5934.2408,1.1156.4017,1.6888.0236.0844.1768.6972.1552.7942-.07-.0676-.2952-.515-.345-.5952-.5139-.8279-1.1292-1.5753-1.7344-2.3378-.8615-1.0854-1.5816-2.2829-2.3653-3.4303-.7335-1.0739-1.4711-2.145-2.2076-3.2169-.0421-.0613-.1935-.2151-.252-.2337-.1146-.0364-.1329-.0275-.2376.0317-.1646.0931-.0962.2177-.058.328.0441.1271.1822.2599.2701.3794.1354.1842.2415.3208.3485.4797.6407.9513,1.3183,1.8562,1.948,2.8149.4648.7075.8938,1.4392,1.3811,2.1315.2701.3836.5513.7124.8178,1.0652.8642,1.1441,1.6623,2.1676,2.2216,3.4353.1022.2316.1488.6726.1123.9556-.1736-.1561-.3277-.4861-.4607-.6714-.636-.8865-1.5615-1.3694-2.4915-1.859-.963-.507-1.9905-.9383-2.8456-1.5916-1.0214-.7805-2.5977-2.8594-2.5977-2.8594,0,0-.1508-.1948-.2471-.2559-.0963-.0611-.2955-.1211-.3951-.0179-.0997.1031-.0584.2336-.0115.378.047.1443.0802.2108.197.354.1169.1432.9515,1.0831.9515,1.0831.3267.3468.6057.7443.96,1.058,1.1232.9948,2.4023,1.7612,3.7912,2.3526.274.1166.6116.3043.8855.4777s.638.4147.7333.5934c-.0681.0029-.9719-.2905-1.0346-.3104-1.0954-.3469-2.0698-.67-3.1708-.883-1.3813-.2672-1.9694-.6123-3.0001-1.0219-.9654-.3836-1.9031-.8159-2.7347-1.4758-.0225-.0178-.0799-.0517-.1065-.0653-.2047-.1039-.3815-.1925-.5131.0213-.136.2207.0007.4679.2707.6155.3236.1769.5911.3535.9126.5352.079.0447.2096.1134.2887.1512.6185.2958,1.2305.5768,1.8618.8438.6437.2722,1.2819.5676,1.9462.7781.5961.1889,1.4103.289,2.018.4462,1.0394.2689,1.8841.5617,2.928.8104,1.0592.2523,1.7176,1.0236,1.7088,2.113-.0005.0682.0005.2493-.0177.3173-.0651-.0231-.1758-.1449-.2281-.1849-.3077-.2357-.5908-.5093-.9183-.7117-.4666-.2882-.9135-.5341-1.4279-.701-.7048-.2285-1.6032-.4491-2.3369-.5721-1.2545-.2101-2.3004-.1704-3.5541-.4382-.4338-.0927-.9585-.3229-1.374-.481-.345-.1312-.6537-.3555-.9941-.502-.1207-.0519-.3402-.1027-.4189.0227-.1081.1722-.0656.3008.148.4332.0761.0472.1623.105.24.1493.8179.4674,1.8452.8663,2.253.9498s1.3997.2069,1.3997.2069c1.5823.1582,2.4952.2313,4.2235.7546,1.1705.3545,2.057.9463,2.8055,1.8775.3118.3878.3347.8249.3967,1.5676l.1585,6.9607c-.0054,1.9573-.0605,4.3126-.05,6.2701.0093,1.746-.0396,3.6641-.0487,5.4102-.0061,1.1804.0007,2.8735,0,4.0538-.001,1.7178.0211,3.2353.0243,4.9531.0015.8066.0295,1.579.0243,2.3856-.0097,1.54-.0446,3.6207-.0487,5.1607-.0059,2.2438.0093,3.3308,0,5.5746-.0062,1.4933.0581,2.7545.0484,4.2479-.0077,1.1769.0214,2.354.0207,3.5309-.0003.599-.0463,1.1981-.0437,1.797.0098,2.2736.0385,4.5472.0453,6.8208.0049,1.6467-.0152,3.2935-.0212,4.9402-.0095,2.6049-.0172,5.2098-.0244,7.8148-.0026.9723.0052,1.9447-.0073,2.9169-.0028.2183-.0242.4598-.1208.6476-.1332.259-.2829.487-.4721.7137-.1127.1351-.3767.5692-.5052.6911-.0649-.1579-.0701-.4406-.1124-.7274-.0193-.1307-.0428-.3399-.0545-.4736-.0209-.2399-.0201-.502-.3257-.5643-.171-.0348-.3689.2557-.4995.5486-.146.3275-.2873.6484-.383.9938-.0836.3019-.1797.6011-.2881.8949-.0407.1106-.0892.3643-.2667.0741-.3246-.5308-.4254-.4621-.5921.1702-.1933.7331-.3532,1.3228-.5756,2.1033-.0387.1356-.2078.7867-.2795.9119-.0984-.0959-.2503-.582-.3437-.7011-.0929-.1186-.3123-.2977-.384-.2595-.1277.0679-.2167.2532-.2493.4057-.059.2756-.0629.564-.0781.8477-.0222.4149-.0493.8305-.0455,1.2456.0031.3428.0532.6851.0689,1.0281.003.0643-.0583.1315-.09.1974-.035-.0591-.0811-.1145-.1036-.1782-.4324-1.227-.8609-2.4554-1.2934-3.6824-.0844-.2396-.0529-.4167.1691-.5837.7942-.5972,1.4533-1.2747,2.0601-2.085.1045-.1395-.7854.169-.7394-.0091.0446-.1727,1.0735-1.2858,1.1867-1.3876.4584-.4119.7747-1.1117,1.0315-1.6523.1377-.2899-1.094.2452-1.0381.1678.1787-.2474.3848-.6119.488-.8179.0888-.1773.1543-.3338.2062-.488.1944-.5778.3606-1.4366.5018-2.0276.0483-.2024-.7973.4536-.7973.4536,0,0,.2146-.9065.253-1.1428.1199-.7382.23-1.478.3281-2.2194.0208-.157-.0049-.329-.0495-.4822-.024-.0825-.0837-.2045-.1627-.2154-.0702-.0096-.2234.0981-.2741.1714-.1103.1592-.1955.2982-.2927.5041-.0857.1815-.2993.758-.4321.9099-.0037-.2092.0472-.8723.0211-1.0787-.0217-.1711-.0601-.5091-.1723-.5388s-.3224.225-.4311.3718c-.3008.4069-.611.8915-.8245,1.3511-.173.3723-.32.7954-.3654.8019-.0401.0057-.2172-.9183-.3815-.9348-.1375-.0137-.3291.7226-.3643.8385-.1415.4669-.2337.6879-.4147,1.196-.0278.0782-.2497.5934-.2933.5957s-.1372-.3257-.1658-.4141c-.083-.256-.1579-.4711-.2604-.7178-.0585-.1407-.2795-.4078-.4078-.4124s-.2245.1823-.2257.4385c-.0023.4695-.0471.9393-.0383,1.4083.0201,1.0759.0621,2.1512.0947,3.2269.0046.1545.0066.309.0098.4635-.1094-.1296-.2422-.2459-.3243-.3909-.3907-.6901-.7836-1.3798-1.1446-2.0856-.2849-.557-.5383-1.1317-.7726-1.7119-.0449-.1112.0413-.2963.1074-.4267.1183-.2329.3492-.4229.482-.6487.1505-.2559.3356-.6169.5088-.856.21-.29.315-.4943.5528-.7634.1616-.1829-.3733-.1476-.4889-.3706-.0755-.1456.4425-.4688.5606-.5928.1375-.1443.2319-.3516.3162-.5086.07-.1305.288-.515.1993-.6736-.1149-.2053-.5567-.1718-.5567-.1718,0,0,.3277-.2828.5567-.5705.2799-.3516.5179-.7379.6049-.9966.1978-.5886.2513-.8439.3776-1.4532.0244-.1174-.5978-.1211-.6457-.2582-.0399-.1141.3276-.4926.4239-.8042.1908-.6177.295-1.2074.2772-1.8283-.0045-.157-.598.3093-.6942.2681s.0596-.708.0458-1.5053c-.0111-.6422-.105-.8958-.2084-1.5293-.0217-.1331-.1811-.5533-.2567-.5533s-.2131.4097-.2602.5382c-.1021.2787-.1651.5715-.2564.8546-.0508.1575-.2016.9209-.2372.9418-.0425.025-.2586-.4992-.2978-.6575-.0692-.2795-.2125-.3312-.2755-.0894-.2019.7752-.3149,1.2983-.417,1.9241-.012.0732-.1189.9707-.1323.949-.4193-.6805-.555-.4669-.6311-.1504-.171.712-.3116,1.4313-.4722,2.1459-.0173.0771-.0583.4903-.0927.4972s-.1437-.4103-.1757-.4833c-.0897-.204-.1426-.4293-.2603-.6142-.0701-.1102-.2335-.2282-.3476-.2177-.0914.0085-.2289.1984-.2452.3199-.079.5889-.2007,1.1867-.1649,1.7727.0471.7712.2283,1.534.3481,2.301.0122.0784.036.3109.0345.3914-.0518-.0693-.1521-.2829-.1908-.3588-.537-1.0521-1.0714-2.1055-1.6036-3.16-.033-.0652-.0718-.1478-.059-.2125.0782-.3945.2825-.9694.4414-1.3307.3063-.6967.4542-1.2291.5966-1.9794.1111-.5858.2225-1.1784.2477-1.7717.0209-.4885-.0502-.989-.1431-1.4722-.1012-.5262-.2545-1.0455-.4307-1.5519-.043-.1234-.3018-.7055-.3912-.6894-.0747.0134-.0788.634-.0962.7836-.0258.2205-.0344.4193-.0664.653-.0081.0592-.1.6509-.1398.708-.024-.0595-.079-.7658-.0825-.8248-.055-.9279-.2035-1.6345-.5842-2.4332-.105-.2204-.3162-.5737-.5774-.6598-.1488-.0491-.2362.4734-.2704.3505-.1031-.3712-.2839-.9627-.3551-1.1272-.3093-.7148-.3918-.8729-.8297-1.5492-.1163-.1797-.3685-.5357-.4625-.5128s-.1077.4628-.1077.7148.0503.6839.0412.7332c-.0427-.0364-.2474-.559-.3208-.7148s-.3239-.6262-.5278-.9387c-.1215-.1863-.2344-.3926-.401-.5288-.0822-.0673-.1848.0764-.203.1295-.0774.2259-.1695.7332-.197.7377-.0393.0065-.4341-.7229-.4491-.7515-.0756-.1443-.3348-.5557-.4078-.669-.307-.4766-.445-.6898-.7732-1.1114-.0904-.1161-.322-.3778-.3861-.3641s-.049.4282-.0619.5911c-.0045.0567-.011.1634-.016.2199-.0077.0867-.0229.4124-.0596.4261s-.203-.2427-.2564-.3137c-.2504-.3331-.4864-.6769-.726-1.018-.2233-.3179-.4324-.647-.6747-.9496-.0649-.0811-.1209-.2389-.3041-.161-.1175.0499-.084.277-.0734.393.0381.4131.0931.8247.1327,1.2377.0048.0504.0298.4904.0048.5436-.0628-.0311-.2228-.4309-.2598-.4811-.0972-.1318-.1498-.3048-.2657-.4122-.1053-.0977-.2926-.2535-.4094-.1921s-.0789.3059-.0541.4477c.0326.1873.1124.4098.1573.5965.1913.7954.3127,1.4073.488,2.2063.021.0956.1026.4183.0719.4411s-.1959-.0923-.2888-.1469c-.0894-.0526-.1818-.1155-.2987-.1705-.1141-.0537-.4193-.2028-.4536-.165s.079.3368.1203.4605c.0468.1405.1145.3151.1642.4562.2034.5774.4042,1.1557.6014,1.7352.0173.051.0698.2879.0695.3449-.066-.0105-.2453-.1783-.2887-.2154-.1359-.116-.2016-.1787-.3368-.3001-.1108-.0995-.5063-.4422-.5911-.3712-.0798.0669.0785.5027.1336.6434.4687,1.1947.9575,2.3815,1.4357,3.5724.0237.059.1886.4109.1902.4787-.0667-.025-.3279-.3111-.3801-.3537-.1852-.1514-.3448-.3414-.5466-.4628-.1357-.0818-.4823-.2007-.5682-.132s.0044.402.0794.5164c.45.6862.9328,1.3508,1.4056,2.022.1033.1467.2335.268.333.4172.0284.0427.4888.5175.5018.5705-.056-.0037-.6017-.3823-.6455-.4073-.246-.1407-.4755-.3164-.7333-.4278-.1386-.0599-.5457-.1409-.587-.0516s.1766.3939.2868.4944c.4297.3918.7802.7265,1.2322,1.0934.2999.2433.9243.7357,1.2578.921.679.3774,1.1066.5705,1.8461.8666.1244.0498.4908.1438.4977.2056s-.3871.2232-.5292.3093c-.0825.05-.2624.1334-.3505.1787-.1442.0743-.4183.1945-.4131.2553s.4998.2026.6605.2327c.6598.1237,1.181.1292,1.8676.139.8274.0118,1.6503.0811,2.4127.4244.2761.1243.5972.3125.73.5612.4288.8024.7805,1.6462,1.1581,2.4757.0192.0421.069.1705.0691.2212-.0345-.0256-.1346-.122-.1697-.1467-.3529-.249-.6794-.5429-1.0627-.7405-.3633-.1873-.4366-.1185-.4183.1124.0102.1282.1043.5252.0504.5434-.0822.0278-.4463-.2766-.5544-.3482-.3803-.252-.6487-.4081-1.0551-.5424-.0548-.0181-.2697-.124-.3196-.0212-.0593.1223.0354.6709-.0137.6919-.0642.0275-.4808-.2517-.6461-.3441-.2324-.1299-.4678-.2543-.7098-.3637-.2387-.1079-.587-.282-.7473-.1858s-.027.6218-.1146.7469c-.0321.0458-.268-.0999-.3431-.1412-.2335-.1283-.4826-.2385-.736-.3201-.2144-.069-.5395-.1623-.6008-.0979s.0155.1933.0441.3851c.0044.0294.0321.1501.0458.2119.0248.1118.1092.4257.0642.4502-.0854.0464-.3502-.0446-.4582-.0619-.1017-.0162-.2551-.0658-.3551-.0756-.1168-.0115-.2817-.0072-.323.0573-.0519.0807.0092.2062.0709.2985.0447.0669.1091.1398.1755.1995.4216.3793.6092.5684,1.0492.9259.2199.1787.6255.4091.6152.4708-.008.048-.3141.0393-.4672.0685-.3143.06-.3476.2039-.0999.3987.6349.4995,1.1284.857,2.0311,1.0861.1351.0343.5808.0653.5877.1168s-.1942.141-.3471.2062c-.0991.0422-.3952.1738-.39.2801s.3167.1461.3167.1461c0,0,.4045.0432.4491.0458.6078.0359.8592.0465,1.4766.0367.1896-.003.8903-.077.952-.0447.0557.0293-.5755.4735-.4857.6587.0524.108.418.14.5361.1466.5957.0332.9647.0376,1.5436-.0626.6855-.1187,1.3522-.3636,2.0142-.5911.2268-.0779.3543-.09.4581.144.1821.4105.3873.811.563,1.2241.4849,1.1407.9604,2.2853,1.4369,3.4296.057.137.1018.2799.1412.4232.0136.0496.0686.233.064.2877-.0514-.0219-.1872-.1571-.2276-.1917-.6466-.5536-1.2834-1.1191-1.9385-1.6625-.2978-.247-.6235-.4631-.9528-.6669-.0756-.0468-.2511-.1774-.339-.1297-.11.0596-.0389.2795-.0051.3795.0184.0543.0739.192.0899.2483.0172.0607.1306.3162.1031.3345s-.271-.1416-.3294-.1736c-.2993-.1635-.5936-.3362-.8894-.5062-.272-.1562-.537-.3268-.8189-.4623-.1093-.0526-.3041-.1138-.3864-.0358s-.0174.2236-.0033.3324c.0192.1479.0499.2761.0585.4238.0198.341-.1338.43-.4124.2337-.4836-.3409-.9054-.6966-1.3818-1.0485-.1541-.1138-.4609-.2736-.5453-.2289s-.1349.3151-.1418.5505c-.0045.1545.0275.5207-.0137.555s-.4261-.2386-.5842-.3001c-.1635-.0636-.2727-.1588-.4389-.1992-.2474-.0601-.331.1687-.2209.3916.2852.5773.4216,1.0218,1.1456,1.5259.2931.2041.4144.3107.7034.4995.093.0607.4743.2704.4697.3345s-.3167.1346-.4181.1857c-.1195.0604-.2559.0876-.3757.1475-.3252.1623-.3487.359-.0379.5557.2105.1332.4583.2146.6981.2925.3387.11.6194.1898.963.2849.2717.0753.5446.108.8248.1375.2004.0211.6919.0642.7217.1306.0314.0701-.4195.3103-.4949.3918-.2494.2695-.2075.3846.1281.4535.7296.1496,1.3336.2324,2.0645.3759.0682.0134.3712.0504.3849.0985s-.1451.132-.1912.1818c-.0891.0963-.3158.2676-.2992.3538s.3299.1011.4838.1278c.1969.0342.3843.0318.5915.0249.9743-.0325,1.8335-.2952,2.5096-1.0645.4379-.4983.4993-.4554.7017.1827.2888.9106.5816,1.8203.8952,2.7225.3138.9028.6146,1.6825.9415,2.5808.0192.0526.055.2276.0609.285-.0629-.0272-.3031-.2408-.3487-.2857-.2609-.2565-.3012.1095-.5295.4564-.0399.0607-.9213-1.1171-1.2621-1.4073s-.801-.5919-1.4904-.895c-.3734-.1642-.2989-.1978-.2623.5674.0028.0579.0086.5202-.0275.4766-.3712-.4491-.8019-.7191-.8986-.7882-.8837-.6305-1.9282-.791-2.952-1.002-.3638-.075-.4715-.1299-.3925.1588.024.0878.307.7242.2841.7606-.0317.0504-.3895-.2039-.6438-.3076-.5537-.2258-1.0852-.35-1.668-.4814-.3464-.0781-.7088-.1062-1.0646-.111-.1203-.0016-.3419-.0623-.3921.1714-.0325.1512.1396.3368.2362.4498.1138.133.2433.2513.3705.375.0562.0546.393.3683.4261.4468-.08.0211-.2841-.0435-.4399-.0664-.2072-.0305-.5225-.0529-.7354-.0275-.2281.0272-.5224.0733-.5842.2108s.1857.6387.2987.7685c.5086.5842.8277.8277,1.5327,1.2322.0941.054.3533.1307.4368.2125-.111.0605-.4014.1608-.5183.2059-.1953.0755-.4055.116-.5939.2044-.1227.0575-.3358.1304-.3541.2587s.2143.2858.3482.3528c.11.055.2086.1302.3078.1626,1.1649.381,2.1385.7303,3.3397.9737.1695.0344,1.056.1342,1.141.2543.0649.0918-.9485.378-.9416.4811s.605.334.6805.3597c.7071.2405,1.1075.3519,2.012.4245.5551.0446,1.124.0561,1.686.1016.0613.0049.3282.0158.3367.0628.0092.0508-.1856.244-.2337.2956,0,0-.4124.4055-.1993.5911s1.3081-.0764,1.6059-.1852,1.537-.6629,2.1952-1.3179c.0485-.0482.1235-.0696.1861-.1035.0275.0634.0663.1245.0798.1907.0178.0869.024.1782.021.267-.043,1.2802-.1553,2.5627-.1088,3.8395.0294.8074.1249,1.7812.3103,2.6676.2227,1.0651.4718,2.0662.8126,3.0992.4577,1.3873.799,2.2463,1.3852,3.5815.5794,1.3197,1.2864,2.6184,1.472,2.938s.6851,1.086.9165,1.3678.3831.5869.3864.9031c-.0065.1375.0077.2933-.001.4399.0179,1.1946-.006,2.4045-.0021,3.5991.003.9409-.0286,1.8819-.0432,2.8229-.0278,1.7908-.0552,3.5815-.0802,5.3723-.0024.1718.0226.3441.0198.5158-.0087.5447.235,1.0731.0386,1.6358-.2057.5895-.3444,1.2027-.5074,1.8069-.2374.8799-.0168,1.7358.3936,2.4686.2261.4037.2256.6407.0957,1.0273-.3298.981-.1624,2.5744,1.1547,3.2991.2582.1421.4069.194.6782.252.5202.1111,1.0615.1328,1.5956.1654.2307.014.3943.0721.5106.2849.7163,1.3113,1.9343,1.9158,3.3064,2.2267,1.0746.2435,2.1745.3784,3.2661.5423.6147.0923,1.1478.2123,1.4247.9048.121.3024.5132.54.8339.7092.5785.3054,1.1979.5326,1.7955.803.1469.0665.3218.1431.4044.2678.4115.621.7741,1.2753,1.2013,1.8846.1873.2672.4719.4786.7468.6641.0753.0508.3948-.0011.4184-.1329.0236-.1317-.1166-.2144-.1973-.3008-.283-.3033-.5781-.5952-.8621-.8976-.0315-.0336-.3865-.5058-.3517-.5544s.5005.3518.5499.3918c.1443.1168.3651.2874.5828.3561.0961.0303.2828-.0383.3367-.1214.0452-.0698-.0124-.249-.0798-.3375-.0763-.1003-.2127-.1561-.3258-.2268-.2406-.1505-.5266-.2563-.7169-.4545-.7078-.7368-1.6015-1.1312-2.5291-1.4873-.4296-.1649-.8733-.326-1.2519-.5896-.0897-.0625-.159-.1837-.1885-.2321.0569.0001.2174.0756.2682.0933.4514.157.8707.2573,1.3324.3053.884.0922,1.6903.6066,2.5042.8957.7371.2618,1.3698.701,1.9794,1.1847.8773.696,1.7648,1.3756,2.7963,1.8461.8586.3917,1.7448.6854,2.6658.8748.1206.0248.3046.1105.3944-.0844.0898-.1949-.0862-.3152-.1874-.4128-.0971-.0936-.2695-.1443-.4115-.1503-.7501-.0312-1.4279-.3096-2.105-.5908-.1011-.042-.3139-.1457-.4045-.2133.1072-.0299.3443-.0631.4532-.0721.3107-.0258.629-.0056.9308-.0686.1093-.0228.3063-.0873.2684-.3533-.038-.266-.371-.2425-.371-.2425,0,0-.2352.0141-.3536.0314-1.1188.1638-2.1342.0524-3.0829-.7078-.7592-.6084-1.5308-1.2581-2.5179-1.5266-.204-.0555-.6905-.276-.8806-.3827.2299-.0067.7728.0239.9972.0558.8254.1174,1.6534.2296,2.4691.399.7584.1574,1.5102.3593,2.2504.5883,1.0914.3376,2.1779.6608,3.3422.5502.8008-.076,1.6033-.1339,2.4049-.2018.279-.0237.381-.248.2133-.4804-.1735-.2405-.3984-.2503-.6783-.1848-1.7503.4099-3.4937.4962-5.206-.1878-.0908-.0363-.338-.0923-.4224-.1443.0781-.06.3158-.1569.4041-.1854.5967-.1927,1.1981-.3712,1.7969-.5579.371-.1157.7476-.2194,1.1061-.3665.1335-.0547.2605-.2012.319-.3367.0411-.0954.0391-.3022-.0639-.3671-.1029-.0648-.2164.0356-.3193.0694-.0978.032-.1851.096-.2829.1277-.7653.2485-1.5173.5063-2.2705.7871-.3903.1454-.6938.2921-1.1334.5707-.0379.024-.1332.0543-.1978.0446-.2656-.0397-.5286-.0964-.7936-.1409-.9413-.1583-1.8806-.3307-2.8251-.4664-1.0642-.1529-2.135-.26-3.1992-.4135-.2919-.0421-.5776-.1613-.8512-.2798-.1222-.0529-.2577-.1775-.29-.2961-.0189-.0693.1353-.235.2438-.2811.41-.1735.8221-.368,1.2535-.4596,1.1052-.2345,2.2013.0246,3.2975.1439,1.0762.1171,2.1426.1672,3.1389-.3654.1641-.0877.47-.1201.3464-.421-.1063-.259-.366-.2205-.5894-.1845-.0838.0135-.1613.0751-.2384.1201-.8796.5143-1.8222.473-2.7907.3653-.9122-.1014-1.809-.3823-2.7507-.2031-.797.1517-1.5891.2803-2.2612.7859-.3783.2846-.4943.2466-.7073-.1953-.0714-.1481-.1337-.3019-.1851-.4581-.5426-1.6498-1.498-3.0193-2.8191-4.1354-.208-.1757-.2057-.3647-.1835-.6007.0391-.4144.1013-.8388.0525-1.2469-.1207-1.0092-.5942-1.8677-1.2249-2.6569-.3232-.4044-.6063-.8475-.8574-1.3008-.3099-.5594-.5323-1.1689-.8609-1.7156-.2023-.3365-.4811-.6888-.8145-.8738-1.2193-.6765-2.4255-.5716-3.5733.2258-.035.0243-.1732-.0244-.1928-.0696-.0397-.0916-.0406-.2042-.0408-.308-.0015-1.6323-.0026-3.2646.0009-4.8969.0065-2.9529-.0183-5.9066.044-8.8583l.0568-20.9207c-.0027-2.7123.0092-5.4246.0151-8.137.0042-1.9464,0-3.8928.0137-5.8392.0135-1.9179.0599-3.8356.0641-5.7534.0037-1.6625.0171-2.9325.016-4.5951-.0012-1.8727.0257-4.2653,0-6.1375-.014-1.0182.0623-1.8727.4403-2.8157.1154-.2878.2626-.5737.449-.8197.3429-.4526.7231-.8771,1.0925-1.3092.3779-.442.8018-.8509,1.1331-1.3249.505-.7225.9354-1.4965,1.4189-2.2346,1.6932-2.5844,3.1246-5.3015,4.1321-8.2271.3644-1.058.6455-2.1447.9616-3.2192.1051-.3572.0907-.7429.376-.9663.0398-.0312.2208-.2084.2784-.2451.1245-.0793.3626-.2435.7051-.3399.1289-.0363.2873.04.3378.074.4005.2705.7066.4009,1.0814.5463.2813.1091.5008-.0238.5064-.3185.0054-.2846.2019-.3865.4211-.3766.2059.0093.3652.1014.4811-.0069.0399-.0372.0082-.1168.0619-.2062.0619-.1031.2197-.0746.2898-.0832.1818-.022.384-.0234.5358-.0648.1298-.0354.5468-.1453.5697-.3057.0142-.0993-.2566-.362-.2658-.559s.249-.3604.6555-.5382c.0396-.0173.164-.0839.1922-.1583.0285-.0752-.0394-.1583-.055-.1695-.2967-.2135-.1769-.3662-.0641-.5773.0356-.0668.064-.1577.1008-.3208.0583-.2582-.0367-.3207-.2933-.2291-.0815.0291-.1843.1014-.2632.1395-.195.0942-.4928.3279-.7048.3542-.055.0068-.1558-.2969-.2371-.2921-.1168.0069-.2651.1784-.3537.2772-.3266.3641-.6215.7565-.9383,1.1297-.0588.0693-.1318.1442-.2156.1923-.0115-.0851-.0366-.2232-.0703-.2984-.0665-.1487-.0854-.3879-.235-.4302s-.3297.2293-.3766.3686c-.2895.8595-.7202,1.2824-1.4436,1.5426-.0625.0225-.4514.2238-.5203.2282.0159-.0688.2187-.4522.2519-.5112.425-.7554.8203-1.5312,1.3007-2.2499.1796-.2687.5374-.5094.8537-.5771.754-.1613,1.4835-.3439,2.1376-.7711.2364-.1543.3401-.2161.6321-.4186.3564-.2471.6691-.5067.9639-.771.1993-.1787.3987-.2543.3918-.3712s-.3518-.1223-.3299-.2681c.0206-.1375.6765-.588.7629-.6873.2148-.2468.351-.3605.5396-.6255.1553-.2184-.1332-.2276-.4261-.2887-.2905-.0606.1712-.5358.2885-.66.3901-.4127.8054-.8053,1.1592-1.2471.1495-.1866-.3573-.1429-.4087-.3542-.0549-.2256.4757-.6657.6003-.8385.106-.147.2491-.356.2749-.543.0092-.0668.0412-.2543-.0916-.2406-.1757.0182-.4314.1471-.4674.1008-.0321-.0412.1499-.4066.1913-.5515.0453-.1583.1049-.3141.1314-.4753.0186-.113.0236-.2473-.0205-.3477-.1104-.2512-.2506-.1143-.5863.1236-.1088.077-.3707.3084-.4766.3895-.0236-.1335.0067-.4881-.0046-.6369-.0084-.1107-.0359-.2713-.1219-.3242-.0486-.0299-.1884.0481-.2615.1084-.0892.0736-.1536.1782-.2252.272-.1632.2136-.5828,1.1031-.6515,1.0986s-.0918-.4536-.1833-.4995c-.2764-.1385-.4212.1231-.5192.3308-.1957.4146-.3819.8337-.5814,1.2463-.0471.0973-.2158.6174-.2832.7048-.0353-.0927.0069-.6255-.0756-.7973-.0658-.1371-.2069-.2326-.2948-.224s-.1108.1127-.1703.2286c-.0476.0926-.1111.3008-.1473.3984-.1589.4291-.3116.8605-.4752,1.2878-.0283.0737-.0919.3383-.1428.4033-.0586-.0613-.1521-.2231-.2474-.4078-.0696-.1348-.1788-.3299-.2475-.3139s-.1365.3379-.1832.4972c-.0486.1654-.0756.303-.1127.4744-.0808.3741-.1742.7479-.2997,1.1089-.0383.1101-.1275.5435-.2154.5611-.0687.0137-.2406-.3093-.2406-.3093,0,0-.2199-.2956-.2887-.2681s-.0749.5593-.0747.6896c.0008.6514.0913.8679.0542,1.5163-.0338.5898-.1546,1.1492-.4376,1.7426-.3049.6393-.6316,1.2531-.9351,1.8988-.1964.4178-.434.8179-.6799,1.2091-.0533.0848-.499.8365-.6143.8823-.0219-.0649.2-.8799.2171-.9321.1745-.5342.5241-1.643.7726-2.1471.2312-.4689-.4814-.0049-.3437-.4261.1168-.3574.4362-.998.5182-1.3273.0729-.2925.1781-.5942.082-.7003-.0871-.0962-.3969.0448-.5728.0825-.0468.01-.0803-.1633-.0997-.2612-.0458-.2321-.0441-.5104-.108-.7359-.0289-.1019-.1341-.1417-.2288-.1439-.0854-.002-.1569.0509-.2406.1409-.0683.0735-.2636.4296-.2944.4181-.379-.1409-.3264-.0433-.3425.1683-.0334.4398-.0297.8823-.0568,1.3228-.0115.1863.0032.4467-.3236.2219-.2328-.1602-.3093-.0093-.273.1981.0656.3756.1367.5703.1848.914.0187.1336.0298.3047-.0435.3643s-.5911-.311-.5436.0097c.0195.1318.2856.5725.3717.7097.2704.4307.4582.7836.7127,1.2304.199.3495.2134,1.0894.0107,1.3468-.8349,1.0605-1.8581,1.9534-2.6485,3.0587-.5609.7844-1.258,1.4699-1.8608,2.2263-.6404.8035-1.2408,1.6388-1.8604,2.4589-.0353.0468-.0807.0906-.1308.1197-.0334.0195-.0961.0281-.1224.0092-.0242-.0175-.033-.0828-.0221-.119.2581-.8578.4561-1.7407.7949-2.5656.6016-1.4645,1.2747-2.9006,1.945-4.3358.5443-1.1653,1.1308-2.3109,1.694-3.4675.6287-1.291,1.2468-2.587,1.8796-3.876.5896-1.2008,1.1929-2.3949,1.7887-3.5927.0665-.1337.1263-.271.1833-.4091.2787-.6744.5556-1.3494.8328-2.0245.1183-.2881.2139-.588.3571-.863.5316-1.0213.9138-1.9118,1.4545-2.9283.2739-.5148.5049-1.0861.7973-1.59.3217-.5543.5682-1.1318.8973-1.8362.0787-.1937.1607-.3141.2162-.4687.0679-.1892.1317-.2455.3253-.1788.3066.106.5911.1957.9039.2802.285.0769.473.1015.8885.1217.5066.0246.9916.0301,1.4971-.0243.5493-.0591,1.1316-.1307,1.6675-.2556,1.0135-.2361,1.8866-.4869,3.0003-.8429,0,0,.5771-.1445.5107-.4337-.0665-.2892-.3966-.2203-.5016-.1962-.7354.1687-1.3967.3925-2.1635.5842-1.3059.3265-2.5404.5703-3.8896.5567-.2072-.0021-.4165-.0474-.62-.0939-.1509-.0345-.3081-.1615-.1582-.2802.0698-.0554.3585-.2058.4366-.2444,1.1663-.5768,2.841-1.9359,2.9968-2.0689.1558-.1329.4844-.4086.4949-.4193.8111-.8317,1.3265-1.4251,2.0757-2.2888.2812-.3243.7904-1.086.7904-1.086m-8.042,23.2966c.1995-.0945.3668-.2045.4195-.1656s-.1684.3482-.1684.4651.1502.2002.1581.3162c.0066.0966-.1795.15-.2062.1684-.2933.2016-.4685.2863-.4951.6217-.0103.1298.1709.289.1892.4448.0179.1522-.5178.1558-.7286.165s-.4766-.0733-.6507.2749c-.0376.0751-.3856-.0051-.4767-.0184-.3423-.0498-.4177.3217-.5405.6644-.0188.0522-.584-.2392-.714-.2984-.0598-.0272-.1262-.2269-.1004-.3286.0356-.1405.2611-.3576.3349-.4877.1136-.2003.3374-.7594.4382-.7685s.0262.6478.2199.6736.6513-.572.8588-.8255c.1131-.1382.6556-.8493.7564-.8608s.118.2016.2417.2177.2642-.1637.4637-.2583Zm-.2953-7.6667c.0671.127.0206,1.1478.142,1.1685.1317.0224.1997-.2318.2704-.362.2345-.4319.4-.8072.6114-1.2512.0709-.1488.4563-.9849.5204-.9758.0674.0096.0871.6278.2062.6323s.4058-.5.614-.7927c.0475-.0668.4282-.6937.4949-.7469.0332.0615.0092.4811.0183.5865.0287.3304-.0167.4336.3941.1329.1519-.1113.4581-.3776.6278-.4582-.0543.1722-.2059.629-.2844.7893-.0573.1171-.1326.2966-.1922.4295-.0698.1556-.0257.2606.0275.3024.0642.0504.0465.0171.2749-.0458.0765-.0211.1961-.0425.2789-.0784-.0481.0811-.0864.1703-.1459.2418-.2083.2498-.4335.486-.6336.7419-.1353.1731-.2455.3772.0604.5035.2025.0836.1445.1875.0441.3048-.3868.4519-.761.9155-1.1659,1.3506-.256.2751-.2648.4407.0906.5398.2682.0748.1995.1877.0889.2995-.2797.2827-.5717.5547-.8746.8123-.1219.1037-.3162.223-.2997.3222.0098.0588.1856.1443.1993.2612s-.2035.2365-.5292.4743c-.389.284-.5615.4028-1.0105.707-.3525.2387-.6424.3282-.9896.3858-.1905.0316-.2733.0482-.4468.0756-.0866.0137-.2818.0344-.4124.0481.0415-.093.2126-.3391.2686-.4225.5886-.8772,1.1865-1.7482,1.7719-2.6276.6987-1.0497,1.3849-2.1076,2.0833-3.1575.1151-.173.15-.244.2736-.4121.0463-.063.1041-.1836.084-.2813s-.0895-.0915-.1734-.0646c-.106.0339-.148.0538-.4492.5193-.4657.7197-.718,1.0514-1.1645,1.7323-.3702.5645-.7968,1.2209-1.1724,1.7822-.3455.5162-.66.9243-.9796,1.4585-.1378.2304-.2909.4561-.4678.6567-.0753.0853-.4961.64-.4961.64,0,0-.0117-.5993-.0137-.7057-.0046-.2383-.0163-.4058-.0137-.614.0023-.1888-.0321-.6346-.0321-.6346l-.0137-.3643s.2304.3521.3368.3024c.1031-.0481.3811-.7543.4231-.8557.0729-.1759.0845-.3765.1514-.5557.0534-.1429.1839-1.0126.216-1.0172s.2635.7286.362.7194.1789-.2388.2154-.3208c.1204-.2708.2551-.8174.3712-1.0906l.4399-1.086Zm-9.5467,19.1171c-.0156.1204-.0944.2726-.1671.3351-.4546.3911-.7234.6981-1.0315,1.0854-.5501.6918-1.0132,1.4106-1.3491,2.2255-.3156.7656-.6253,1.575-.9308,2.3441-.2509.6317-.2824,1.1763-.5016,1.8224-.0768.2264-.36.5538-.5159.7485-.0356.0446-.1284.0629-.1951.0629s-.0555-.1418-.0459-.2071c.0438-.2949.0692-.5981.1593-.8798.4282-1.337.9001-2.8961,1.4661-4.2654.2368-.5728.3431-.7956.6299-1.351.1152-.2233.7115-1.2694.8307-1.488.3228-.5916.5477-.9494.8307-1.3237s.4061-.4615.5243-.5956c.033-.0374.2283-.2548.2681-.2411.0385.0132.0393.3332.0411.3828.0086.239.0056.7176.0056.7176l-.0189.6271Zm2.9827-10.3948c-.0305-.0535-.1072-.161-.0642-.2108.0951-.11.3872.1168.4055-.0619.0093-.0969-.2589-1.2464-.1902-1.2876.1247-.0748.4559.2209.4949.0137.0605-.3219.0435-.6873.0619-1.0264.0054-.0995-.0092-.3299.0229-.6003s.1329-.0687.2383-.142.1744-.4922.2474-.4032c.1363.1662.1633.7756.189.8351.0691.1599.4342-.0836.5304.0034s-.4258,1.1385-.5224,1.3503c-.0536.1177-.1951.5259-.1283.6086.1306.1615.3566.0569.2749.3024-.0944.2837-.2967.7854-.3898,1.0695-.0709.2164-.2089.7522-.435.6237-.2337-.1329-.6444-.9147-.7354-1.0745Zm-2.391,7.3521c.1255-.4197.3133-.8358.5505-1.2041.723-1.1227,1.6652-2.0595,2.6312-2.9712.0709-.067.1645-.1099.2476-.1641.0087.1082.0272.2165.0246.3244-.0107.4483-.4018.5909-.6752.8273-.1229.1063-.2529.1952-.3701.3154-.5374.5515-.9444,1.2241-1.3318,1.8862-.4108.7021-.7212,1.463-1.0757,2.1982-.0353.0732-.1515.3672-.1878.4399-.0113-.0957.0141-.3731.0144-.3723.0598-.4839.0585-.899.1724-1.2796Zm.0403,1.9269c.1787-.4004.9485-2.0689,1.4365-2.8593.2577-.4174.5412-.8714.8632-1.242.0771-.0888.2327-.3008.4227-.4899s.3621-.3929.3925-.3163c.0507.1277-.1568.7079-.1862.8042-.0912.2985-.2346.8134-.397,1.0745-.384.6172-.7743,1.2198-1.184,1.821-.1248.1831-.274.3536-.373.5496-.3014.5969-.8134,1.4508-1.0885,2.0602-.0317.0701-.3219.8128-.2076.8578.1089.0429.4103-.6858.4521-.775.1132-.2413.65-1.1997.7698-1.4365.2347-.4637.3839-.7165.5018-.8715.1065-.1401.8557-1.2469.8867-1.273-.0074.0551-.5824,1.3103-.6049,1.3609-.3909.8798-.7101,1.6272-1.1616,2.3644-.1308.2135-.2444.3782-.3641.5989-.0397.0732-.1451.2466-.1995.3118-.0417-.0684-.1242-.4325-.134-.5052-.0677-.5016-.0547-.6152-.0722-1.1788.006-.1394.0011-.1995.0011-.1995l.2463-.6562Zm-.4159,3.2286c-.5051.7859-.9021,1.4342-1.4106,2.218-.252.3885-.5939.927-.853,1.3097-.3122.4613-.8661,1.0979-1.0001,1.2646s-.3117.3975-.3743.429c-.0258-.0798.0409-.2853.0811-.525.0372-.222.1491-.5448.1788-.6274.323-.8985.568-1.5157.936-2.3166.2057-.4477.6919-1.2905.9585-1.6979.3234-.4943.3072-.4839.6967-.9324.1318-.1518.5801-.6319.5899-.5178.0175.203.1753.921.2097,1.1531.011.0741.0261.1821-.0127.2426Zm-5.359,4.8884c.0622-1.5813.5203-3.0334,1.231-4.4536.4798-.959,1.154-1.7714,1.6843-2.6853.1906-.3284.5859-.8811.8229-1.1889.4445-.5774.7078-.9322,1.1685-1.448.0448-.0501.4199-.478.4769-.5178.0081.0723-.1248.7452-.147.8065-.0331.0917-.1243.195-.1975.2578-.6378.5483-1.1332,1.2094-1.5516,1.9328-.3602.6228-.7338,1.2384-1.0737,1.8721-.2899.5405-.5814,1.0864-.7992,1.6578-.407,1.0678-.7586,2.1567-1.1389,3.2349-.1037.2939-.2256.5815-.3439.8701-.0262.0638-.0687.2006-.1096.1788s-.0391-.1353-.0406-.2034c-.0023-.1044.0115-.2091.0184-.3137ZM.8847,81.0718c.247.1495.8231.7627,1.0715.9104.0997.0594.1965.1468.3041.165.2473.0419.3836-.1124.2748-.339-.1995-.4156-.4805-.7944-.6586-1.2177-.3234-.7687-.601-1.5569-.886-2.3412-.0577-.1589.0214-.2843.1898-.1561.1505.1145.3601.4009.5201.1513.1133-.1766.0503-.5093-.0165-.7495-.1436-.5163-.3428-1.017-.5141-1.5258-.0605-.1799-.2193-.5648.0069-.4855.4152.1455.7049.3751.6405-.0596-.0522-.3524-.1787-.6932-.2576-1.0425-.0955-.4224-.2289-.8915-.3073-1.3174-.0109-.0596-.2882-1.1001-.2681-1.0997.1188.0022.4637.9758.6873,1.1135.1787.11.1718-.7629.2474-.7629.132,0,.4115.8865.488,1.0447.4866,1.0067.9076,2.0295,1.3833,3.0413.2161.4597.415.9276.62,1.3925.0164.0372.019.0804.028.1209-.0496-.0252-.1031-.0449-.1482-.0765-.4899-.3436-.97-.7024-1.4722-1.0269-.1711-.1106-.4844-.3119-.5981-.0982-.1088.2044.2036.314.3649.4268.7456.5219,1.5527.9758,2.2179,1.585.3948.3616.7372,1.275.9964,1.7771.0154.03-.1701-.0439-.283-.0791-.0899-.028-.2495-.0895-.3457-.1295-.8328-.3463-1.6227-.7624-2.2778-1.3998-.0714-.0695-.1669-.1287-.2616-.1535-.0505-.0133-.1365.0453-.1797.0948-.02.023.012.1097.0415.1533.0411.0607.0982.1124.155.1602.8857.7451,1.86,1.3882,2.9351,1.7703.5332.1896.7153.3866.9465.8491.0961.1922.2741.5872.3651.782-.2308-.0181-.5853-.1409-.8024-.2054-.6878-.2044-1.3638-.4484-2.0504-.6573-.1172-.0357-.3562-.093-.3972.0426-.0459.1518.1809.2602.3021.3027.9092.3192,1.8427.576,2.7329.9397.3503.1431.6821.4619.8932.785.3154.4827.4938.8838.7366,1.4125.0396.0862.405.7788.4199.8764-.0938-.0224-.5258-.3944-.6312-.4815-.4492-.3711-.9454-.7226-1.4761-.9381-.5852-.2376-1.2356-.316-1.8597-.4539-.0491-.0109-.1697-.0027-.1735.0864s.097.1168.1581.1367c.3683.1204.7401.2307,1.1113.342.89.2668,1.5388.6436,2.2468,1.2828.1067.0963.2274.1822.378.323.4227.3952,1.1034,1.1887,1.0861,1.3092-.0104.0586-.0826.0449-.1341.038-.0709-.0095-.165-.0292-.238-.0509-.9165-.2724-1.857-.2726-2.7828-.2652-.1149.001-.9416-.0137-.9462-.0733s.5802-.3014.7263-.3666c.4305-.1922.2253-.5245-.2244-.6984-.6395-.2474-1.3168-.422-1.9149-.7446-.6375-.3439-1.2023-.8228-1.7964-1.2462-.0547-.0391-.6106-.5368-.6558-.5893.0584.0227.6401.4715.6934.5029.218.1285.4227.2867.6533.3842.1359.0576.415.1321.4689.0281s-.0182-.3402-.1061-.4432c-.3294-.3864-.7177-.7238-1.0359-1.1182-.3821-.4735-.7153-.9866-1.0697-1.4825l-.3222-.4556Zm6.4712-2.3924c.0002-.2224-.0145-.4453-.0034-.6669.0107-.2157-.0276-.4394-.2625-.4428-.2812-.0042-.2216.2657-.2203.446.0029.4307.0088.8086-.0024,1.2387-.0109.4164-.0317.885-.0711,1.3004-.0049.0522-.0182.2738-.0381.3245-.0399-.0362-.1149-.2368-.1369-.2817-.3552-.7248-.7062-1.4517-1.0579-2.1783-.013-.0269-.0289-.0593-.0308-.0828-.0597-.7358-.0483-1.4081-.0666-2.1105-.0103-.3966.0013-.6616-.0652-1.0117-.0192-.1006-.0745-.253-.2257-.2484s-.1527.2299-.1521.3485c.0029.5493-.0155.9053-.0106,1.4546.0005.0626.0264.7367-.0042.7996-.0535-.0458-.2502-.4628-.2914-.5453-.214-.428-.3971-.8368-.6179-1.261-.5732-1.1014-1.1502-2.1443-1.7191-3.2479-.0533-.1035-.1224-.2548-.1798-.3566-.082-.1453-.1685-.2922-.218-.4494-.0197-.0624-.2453-.7994-.2139-.878.0652.0522.5341.7876.5751.8546.3806.6212.976,1.4205.8706,1.2784-.0934-.1259.5132.7515.5682.7423s.0795-.5726.0917-.7103c.021-.2369.0275-.646.0549-.6552s.4299.6154.5498.811c.3035.4952.611,1.034.905,1.535.0446.076.1077.1879.1718.2658.2169.2633.2565.1828.3574-.1375.0432-.1373.11-.6323.1466-.6369s.3013.4631.3731.5972c.2753.5146.3896.747.6533,1.2678.0609.1201.1506.3108.2199.417.0779.1191.187.2862.2933.2612.0779-.0183.109-.2721.1077-.3712-.0027-.2073-.0206-.543-.0206-.543,0,0-.0687-.6255-.0275-.6392s.3391.5773.3654.6437c.2847.7202.5605,1.3579.7618,2.1056.0962.3574.1575.9946.3162.9943s.0606-1.1573.2337-1.2005c.0825-.0206.4261.5361.6397,1.558.0978.4678.137.9467.1873,1.4221.0267.2523.0376.4519.0528.704.0156.2587.0141.5594.1856.543.1264-.012.3091-.423.3505-.5361.0596-.1627.0949-.2845.1375-.488.0129-.0615.0918-.5159.1375-.5705.0388.056.1908.5655.2044.6274.3195,1.4606.1558,2.7569-.207,4.0753-.123.4468-.378,1.0145-.5428,1.448-.0295.0776-.1969.544-.2519.544s-.2053-.3968-.2406-.4674c-.1237-.2474-.0412-.7561.0275-1.1547.0786-.4558.1598-.8578.2179-1.3179.0347-.2747.1304-.5418.1644-.8167.0132-.1064.0394-.2936-.1061-.3373s-.2631.1075-.2789.1849c-.1107.5419-.188,1.0906-.2808,1.6364-.0424.2495-.0896.6009-.1289.85-.0206.1306-.0409.7648-.1306.7561-.0786-.0077-.3024-.6186-.3574-.7423-.2064-.4643-.4173-.9409-.553-1.4147-.115-.4016-.1557-1.0043-.0381-1.4171.2269-.7961.2929-1.4919.3145-2.2976.0043-.1593-.04-.3315-.1072-.4768-.0402-.0868-.149-.2268-.2572-.1971s-.1141.2064-.1108.3076c.0104.321.0164.5676-.0042.9112-.0328.5472-.1584,1.1242-.2936,1.6574-.0217.0853-.0823.3162-.1463.3908-.0685-.0737-.1985-.3094-.2388-.3884-.1943-.3814-.4132-.8087-.5036-1.2131l.1786-2.8116Zm3.6086,17.0532c-.1283.0272-1.2895.2122-1.3311.11-.0209-.0514.2157-.2651.2726-.3712.0764-.1424.1657-.3572.0527-.4216-.1577-.0899-.6225.0188-.7927.0367-.3979.0418-.76.0853-1.2326.0596-.1852-.0101-.8441.0038-.8477-.0642-.0027-.0501.858-.3757.8202-.5224s-.6769-.1002-.7881-.1008c-.2222-.0011-.3526-.0082-.559-.0458-.5262-.0958-.9509-.271-1.3732-.5712-.0622-.0443-.5032-.3177-.5009-.3636s.3685-.0568.4376-.0687c.1566-.027.4113-.047.4193-.1168s-.2016-.2039-.3162-.2795c-.1439-.095-.2428-.1643-.3849-.2681-.3937-.2875-.6121-.5312-.9943-.834-.0463-.0367-.3331-.2792-.3574-.3437.0699-.0014.3357.0759.4078.0916.0635.0139.2657.0595.3253.0642.3137.0243.3626.0577.2649-.3592-.0171-.0729-.0423-.2171-.0587-.2881-.0309-.134-.0882-.3139-.0596-.3425s.329.1351.4235.1866c.2469.1346.4752.3035.7234.4353.286.1518.4268.0522.4706-.2462.0328-.224.016-.5109.0733-.5682.0458-.0458.3291.1146.6293.2732.3649.1928.7242.397,1.095.5775.2769.1348.337.0687.3789-.255.0158-.1217-.029-.3792.0212-.417.0836-.063.3729.1146.5423.2278.2959.1979.5804.3632.8524.5924.3735.3147.606.3798.5682-.1054-.0113-.1456-.0637-.4218-.0229-.4491.0717-.0478.3826.2417.5024.3319.5899.4442.7849.5118,1.1569.9726.1104.1368.3651.6346.3651.6346,0,0,.2054.3952.2141.4116.0961.1809.3246.5907.2347.6954s-.2752-.0332-.4028-.0926c-1.1697-.5442-2.3801-.965-3.643-1.2285-.845-.1763-1.6929-.3394-2.5405-.5031-.0627-.0121-.1732-.0541-.2009.0293s.0721.1422.1255.1594c.4922.1588.9864.2527,1.4894.3673.6387.1456,1.3038.2583,1.9256.4508,1.0216.3163,2.0731.5834,2.9795,1.1917.4847.3252.1412.7274-.0793.8972s-1.0591.3815-1.2859.4296Zm2.9945-1.4846c-.0683.0501-.2956.129-.3092.0961-.0452-.1096-.0252-.3177-.0117-.4346.0276-.2389.0759-.5124.1032-.6857.2337-1.4846.4586-2.5427.8214-3.8123.4138-1.4484.8789-2.395,1.3247-3.6804.0239-.0687.0351-.1487.0258-.22-.0084-.0646-.0048-.1607-.0814-.1865s-.1522.0522-.1812.1045c-.1888.3395-.3994.7953-.5523,1.1708-.2531.6215-.3998,1.0089-.6207,1.6432-.176.5051-.3877,1.175-.499,1.6918-.2165,1.0049-.4062,1.971-.5749,2.9863-.0208.1249-.0859.5681-.1098.6925-.0942-.1212-.2032-.5492-.2346-.685-.121-.5233-.2126-1.0538-.3005-1.584-.1343-.81-.3689-2.1559-.3827-2.4272s-.024-.7442.025-1.0961c.0114-.0815.0751-.4702.1122-.5658.0516.0848.2324.546.2589.6379.028.0974.0654.1816.1031.2786.0412.1063.0857.204.1443.3193.0539.1059.1795.3461.2268.3334s.1224-.222.1552-.3431c.0858-.3167.1158-.648.1866-.9694.1157-.5256.3593-1.5949.3593-1.5949,0,0,.0527-.3001.0916-.3047s.1528.2179.1879.2795c.0848.1489.2704.4513.3322.4307s.1057-.3999.1245-.543c.0663-.5025.1-.7377.1687-1.2509.0136-.1013.0622-.3916.0855-.4926.0741-.321.0925-.5935.1436-.6208.0606-.0324.1237.1466.2566.3666.0347.0574.2085.3712.2612.3528.0753-.0262.1115-.2288.1242-.3047.0464-.2792.071-.5516.1485-.8202.0652-.226.2382-.9323.3551-1.1433.0708.2325.1432.9258.1466,1.1593.007.4755-.0584.9765-.0753,1.4531-.0059.1672-.0553.5516-.0003.6066s.3549-.1222.4729-.1771c.1765-.0821.2377-.0065.2164.1404-.0805.5574-.2059,1.0884-.5909,1.548-.1058.1263-.1992.3452-.179.5082.0111.0895.263.1945.4156.212.386.0444.2651.3303.2267.5039-.1364.618-.3607,1.2047-.8534,1.6408-.212.1877-.4274.3757-.6624.5317-.1711.1135-.3062.2417-.1962.4288.0526.0894.2535.1563.3669.1333.3447-.0699.3296.0928.2338.3123-.2135.4886-.6079.6801-.9458.9839-.2767.2488-.2594.3535.0496.5402.327.1974.087.4674-.0321.6805-.0995.1779-.2189.4125-.323.5842-.1306.2154-.2451.3757-.5384.5911Zm11.0424,9.4001c.0301.0956.0227.1995.0191.2939-.0031.0853-.0079.1609-.0894.3338-.047-.1569-.0916-.224-.0773-.2744.0346-.1219.0967-.2361.1476-.3534Zm-.5342,3.9445c-.0896.0189-.451.1368-.4869.0974-.0458-.0504.2102-.4162.3242-.5961.1516-.2395.2606-.5058.4108-.7463.0565-.0905.2292-.4071.3087-.5042.0285.0967.0371.4862.0395.5835.0103.418.0063.8364.0074,1.2546l-.0731,9.5197c.0013.0946-.0169.2682-.069.2849-.0518.0114-.1576-.1338-.1807-.2062-.2443-.768-.6419-1.3406-1.0308-1.9678-.4171-.6726-.904-1.3029-1.3778-1.9387-.1955-.2623-.4478-.4816-.6539-.7369-.2922-.3619-.2617-.6544.0496-.9794.7327-.7648,1.4768-1.52,2.1793-2.3119.3342-.3768.6002-.8184.8663-1.2498.204-.3307.0129-.5715-.3136-.5028Zm-4.4917-2.1388c.0187-.1775.0381-.6517.11-.7973.0676.1185.2698.6182.3368.7332.0807.1386.2277.4412.2983.4245s.1193-.408.1531-.5528c.1446-.6217.4032-1.4846.5516-1.9411.0269-.0829.1799-.6378.1953-.7257.165-.9439.3561-.4654.4491-.197.0776.2241.3963.8954.452.6472.0321-.1431.0082-.2983.0137-.4472.0337-.9148.3499-1.7534.6752-2.4854.0158-.0355.1856-.3629.2154-.3907.0291.0451.0816.522.0871.5728.0412.3849.0509.6292.1631.9333.0433.1174.1755.3002.2584.281.1268-.0294.2874-.208.3787-.3308.1053-.1418.1768-.3085.2778-.454.0438-.0632.2824-.4055.3465-.4546.0261.0818-.0287.4803-.0338.5636-.0127.2074-.0445.3153-.044.4795l-.3936,2.5548c-.0905.3957-.2443.8844-.4491,1.2478-.131.2325-.2749.4949-.1993.5842s.431.0537.6119-.0204c.013-.0054.2939-.1291.2817-.1034-.3613.7602-.7281,1.4093-1.3437,2.2819-.073.1035-.3242.3318-.2887.4605.0275.0997.2184.0975.3975.0596.1057-.0224.4033-.1613.4033-.1613,0,0,.2986-.1849.3412-.1355.0047.0054-.2097.3348-.2176.3472-.4261.6702-.604.7756-1.1061,1.442-.2001.2656-.7635.8695-.9972,1.1116-.0101.0105-.0127.0294-.0238.0378-.2045.1558-.4099.3105-.6151.4655-.0256-.2117-.0952-.429-.0693-.6342.1168-.9301.2534-1.8578.3979-2.7841.0574-.3677.128-.6566.2485-1.0789.1715-.6006.4256-1.1937.6664-1.771.2693-.6454.5947-1.2855.8946-1.917.1037-.2183.2127-.3542.323-.545.0453-.0783.1093-.221.0577-.2802s-.2047-.0137-.2844.0256c-.1025.0505-.2084.1353-.2651.2289-.3241.5342-.461.8355-.7075,1.374-.1439.3145-.3927.8539-.5295,1.1959-.3979.995-.7276,1.8717-.866,2.9391-.0897.6909-.3096,1.3644-.2759,2.0743.0039.0836-.0351.184-.088.2493-.0273.0337-.1804.0273-.189.005-.1079-.2777-.1774-.5857-.2517-.8974-.2693-1.1311-.3405-2.2369-.3693-3.3994-.0056-.2249.0019-.6263.0219-.8156Zm-2.6742-9.1721c.1036.0076.2757-.4648.3396-.6064.2084-.4619.3518-.7809.5476-1.2487.0385-.0921.169-.377.2039-.4147.0312-.0337.108.1572.1581.2543.1111.216.1709.3245.2246.275.0422-.0391.142-.1696.2123-.3414.079-.1929.1204-.3104.2115-.4914.2197-.4368.4494-.8659.701-1.2859.0283-.0473.2314-.5252.2658-.5092s-.0115.5019-.0115.5567c0,.2612-.003.354.0321.5865.0252.1673.0929.3824.181.5041.0432-.012.1179-.0377.3115-.3506.1721-.2783.2704-.4775.4085-.7747.0255-.0549.2229-.4811.2785-.5221.0283.063-.0317.5253-.0363.5859-.0156.2079-.0417.4163-.083.6207-.1234.6103-.2433,1.2218-.3922,1.826,0,0-.2831.8921-.2259.9494s.2996-.0774.4353-.1283c.0978-.0367.1942-.0847.302-.1209.0011.1144-.0685.4393-.0981.5471-.2268.8248-.323,1.0447-.8393,1.7115-.1807.2334-.505.6712-.4239.7927s.4239-.0376.4239-.0376c0,0,.4532-.1511.5345-.071s-.1005.3449-.2093.4636c-.562.6132-1.1288,1.2234-1.7256,1.8021-.2175.2109-.2484.4181-.0766.5762.1944.1788.5522-.0258.4055.11-.2407.2227-.8783.7948-1.1462.9812-.2499.1738-.3936.0969-.4875-.2079-.0263-.0854-.0478-.1744-.0554-.2631-.0306-.3553-.055-.7111-.0817-1.0667.19-1.178.5916-2.2613,1.274-3.6941.2095-.4398.4129-.8296.6686-1.2449.1685-.2735.4477-.5389.6377-.8014.0692-.0956.168-.2627.0814-.3783s-.338-.051-.4283.0207c-.3167.2512-.5662.5969-.8506,1.0981-.2659.4686-.3247.6358-.5964,1.2172-.467.9991-.8191,1.9839-1.1118,3.016-.0258.0911-.0814.1738-.1232.2604-.045-.088-.105-.1714-.1328-.2646-.3407-1.1436-.3795-2.3231-.4014-3.5032-.0078-.4184-.0118-.8613.0043-1.2797.003-.0787.0139-.6212.0435-.6988.0617.0673.1741.4032.2887.7332s.2579.8096.3615.8172Zm-4.2587,7.5798c-.4216-.0229-.7267-.0649-1.2601-.1283-.0891-.0106-.5132-.0872-.5931-.1275-.1533-.0772-.1828-.1214-.0346-.2116.0249-.0151.1613-.0836.1879-.0974.1993-.1031.3736-.1434.3036-.4372-.0508-.2132-.5495-.1722-.7737-.1925-.9046-.0817-1.229-.1428-1.8465-.3499-.1831-.0614-.3715-.1084-.5515-.1774-.1168-.0447-.4013-.1109-.4082-.1799-.0046-.0458.3186-.133.4485-.178.1263-.0437.229-.0702.3488-.1244.1203-.0545.4216-.1512.4261-.2474s-.2734-.2415-.3673-.2908c-.6887-.3611-1.2353-.7497-1.7952-1.2428-.0557-.0491-.0999-.1155-.1451-.1691-.0751-.089-.3706-.5988-.3271-.6411s.4536.2039.6158.3001c.0231.0137.0505.031.0771.0446.5602.2866.5806.2741.5451-.3594-.01-.2122-.0172-.4055.0175-.5559.1417.0759.3746.2491.5103.3343.2484.1561.4279.3004.6673.4699.1692.1198.3835.2876.5574.399.1412.0906.3636.1852.5355.144.1526-.0366.1909-.2297.2071-.4085.0187-.2062-.1361-.7279-.0582-.7646s.5712.2644.7535.3808c.4376.2796.8514.596,1.2839.884.1267.0843.3674.2884.4416.2336s-.009-.4272-.0412-.5567c-.0349-.1404-.2065-.5354-.1673-.5728.0553-.0526.4789.2948.5797.3757.4174.3356.8084.619,1.1937.9852.5078.4827,1.0512,1.0437,1.5099,1.5763.0797.0926.0977.2384.1442.3597-.1268-.0054-.257.0059-.3798-.019-.905-.1832-1.8089-.3718-2.7122-.5633-.2033-.0431-.4027-.1045-.6039-.1572-.5162-.1353-1.0303-.2806-1.5507-.3972-.1045-.0234-.3323-.0114-.3511.0981s.2581.2581.2581.2581c0,0,.108.0521.1657.066.749.1801,1.498.36,2.2479.5361.7694.1808,1.5421.3484,2.3083.5417.2086.0527.3992.1771.5981.2686-.1388.2033-.2537.4296-.4221.6044-.2253.2338-.4756.4525-.7465.6301-.1917.1257-.4308.188-.6567.2501-.1109.0305-.6604.1736-.6821.0648-.0281-.1405.5186-.4647.4707-.5946s-.5074-.0377-.929-.0606Zm.6713,8.9788c-.0137-.1581-.5335-.1292-1.2784-.2406-1.2644-.1891-1.9781-.4076-3.5451-.8025-.1843-.0464-.552-.1717-.7324-.2857.2005-.0792.5919-.2046.7926-.2751.188-.0661.2585-.0866.4401-.1373.1494-.0416.504-.2199.5178-.3666,0,0,.1831-.2147-.5728-.3574-.7795-.1472-1.2603-.5629-1.8149-.9814-.204-.1539-.44-.4369-.5839-.6705.2681-.0412.6561-.022.9097.005.176.0187.3874.0688.5635.0935.2957.0416.3649-.1226.2337-.3895-.0854-.1737-.2109-.2815-.319-.4312-.0763-.1057-.4867-.4997-.5425-.6181.136-.039.5636.0779.8327.1323.7803.1885,1.283.264,2.1183.8002.0865.0555.3017.2267.4249.3181.1099.0815.3587.1974.3999.1653s-.1879-.6094-.1879-.6094l-.2704-.7881c.1705-.0111.7491.1605.9027.2062,1.0076.3001,1.9409.7314,2.6495,1.582.0923.1108.356.6895.5122.6358s.1042-.7533.1056-.9076c.0034-.3702.0983-.4573.4442-.266.5835.3227,1.0277.8001,1.3668,1.3721.1051.1774.1898.3338.321.4849.1178.1356.2732.3298.4401.3422.1072.0079.2734-.1839.3377-.3215.1187-.2537.2786-.2538.3884-.0587.2537.4508.7767,1.5278.7408,1.5724s-.2064-.0496-.2463-.0673c-.3-.1326-.5944-.2795-.8837-.4345-.7471-.4004-1.4008-.5617-2.3136-.8295-.312-.0915-.677-.1883-.9941-.2661-.6507-.1595-1.3052-.3103-1.9653-.4235-.7341-.1259-1.4749-.2168-2.2156-.296-.1346-.0144-.4075.0307-.4251.1565s.2159.236.3477.2764c.2554.0782.5294.1079.7937.1392,1.3306.1578,2.2435.3161,3.5084.6666,1.1663.3232,2.1797.5137,3.3968,1.2074.2522.1437.5328.3297.7914.4699.2559.1387.2927.3139.0895.5396-.6622.7354-1.4562,1.2777-2.3768,1.6349-.0584.0227-.2486.0691-.3176.0646.0219-.0663.1508-.1748.2069-.2381.069-.0778.1268-.1994.1514-.2866.0399-.1415.0753-.3452-.0151-.4371-.1111-.113-.4242-.046-.598-.0344-.3057.0204-.6117.0206-.921.0069-.6256-.0278-1.1897-.0664-1.8119-.1462-.3808-.0489-1.03-.2155-1.0956-.2455.0565-.0574.7863-.3093.7863-.3093,0,0,.5265-.1925.5127-.3505Zm5.7588-2.7751c-.5543-1.6097-1.1562-3.2029-1.7248-4.8077-.5432-1.5331-1.0684-3.0725-1.6016-4.6091-.0098-.0283-.0491-.1266-.0565-.1548-.0412-.1558-.2587-.8138-.2764-.9644.077.1191.4111.817.4792.9409.7607,1.3842,1.2107,2.8906,1.7343,4.3698.4881,1.3788,1.0289,2.7389,1.5463,4.1074.0159.0419.0334.084.043.1276l.8993,3.4827c.3618,1.4187.7079,2.8414,1.0815,4.257.2783,1.0546.5681,2.1072.8929,3.1481.3597,1.1531.7692,2.2907,1.1492,3.4376.2866.8651.5735,1.7306.8355,2.6033.1313.4375.2081.8914.3064,1.3385.0084.038.0285.0987-.0103.1216s-.1132-.0424-.1298-.0807c-.1064-.2473-.1954-.502-.3013-.7495-.8081-1.8892-1.4412-3.8337-1.93-5.8308-.2626-1.0731-.6274-2.1212-.9448-3.1809-.2491-.8317-.4929-1.6651-.7459-2.4956-.1479-.4855-.2571-1.072-.3595-1.5662-.0728-.351-.1454-.6889-.2282-1.0407-.073-.3104-.1187-.5021-.1826-.7303-.21-.8216-.2603-1.0974-.4759-1.7237Zm5.1072,15.082c-.0192-.0153-.4464-1.3324-.4598-1.3714-.6119-1.7796-1.1335-3.452-1.7011-5.2457-.3236-1.0225-.5273-2.0829-.7789-3.1278-.0257-.1067-.1217-.4429-.125-.555.0941.0588.3191.3197.3915.3984.6713.7287,1.0727,1.5091,1.3922,2.4676.184.5521.3454,1.1787.4667,1.7462.1589.7437.277,1.499.3586,2.2558.0754.7009.198,1.3791.2732,2.0685m.0243,4.6564c-.1638.0983-1.6286-3.5892-1.8598-4.3803-.1156-.3955-.489-1.4296-.7601-2.524-.2713-1.0952-.4402-2.2505-.3279-2.2838.2245-.0664,1.1455,3.7786,1.4142,4.6237.2687.8452,1.777,4.4183,1.5336,4.5643Zm.4503,2.5491c-.0412.189-.1222.3083-.1965.255s-.1522-.1404-.2101-.2253c-1.3168-1.9307-2.2181-4.0618-2.9767-6.2565-.2675-.774-.6335-1.8777-.8462-2.6699-.2203-.8203-.3111-1.3321-.4442-2.1673-.1479-.9273-.2105-2.4056-.1948-2.7713s.0405-1.0599.0919-1.5663c.0106-.1035.0262-.3721.0657-.4726.0344.11.1113.3212.1375.4124.1675.5845.3502,1.199.4554,1.7943.1161.657.1542,1.0906.208,1.7584.0203.2523.0743.8381.0992,1.0589.1072.9522.5798,2.4839,1.0088,3.7206.3204.9236.9993,2.93,1.3476,3.6036s.4213.8505.6224,1.2037c.1914.3362.2478.3912.5765.8373.3427.4648.2968,1.2959.2556,1.4849Zm-.0027-7.0659c-.0178-.0204-.0545-.3825-.0617-.4489-.0868-.802-.1451-1.608-.2606-2.4059-.2781-1.922-.776-3.7859-1.6717-5.5177-.3189-.6166-.8274-1.0715-1.453-1.3979-.0772-.0403-.1404-.1453-.1787-.2268-.0364-.0778-.049-.1595-.0663-.2476-.0363-.186-.0773-.3712-.1163-.5566.2031.0688.4276.1468.5609.2933.3609.3968.707.8141,1.0051,1.2593.5142.7679,1.1262,1.5015,1.4527,2.3587.281.7378.3567,1.204.5245,1.9428.1239.5457.2294,1.4051.2788,1.9609.0554.6238.0985,1.1307.1103,1.8252.0043.2535-.0201.5074-.0353.7608-.003.0496-.0145.3726-.0372.4211-.0227.0485-.0337-.0002-.0516-.0206Zm10.5996,34.6254c-.2966-.0186-.5915-.0723-.8859-.1188-.5285-.0834-1.0623-.1459-1.5828-.2657-.7556-.174-1.5392-.306-2.239-.6176-.5248-.2337-.9639-.6943-1.3846-1.111-.1644-.1628-.2095-.4768-.2457-.7309-.0449-.315-.2797-.4995-.5973-.3964-1.2177.3952-2.0275.2409-2.8614-.5694-.445-.4323-.6938-1.402-.4647-2.0066.1324-.3494.375-.6115.8107-.5899.1133.0056.3104,0,.3906-.0694.1031-.0892.1617-.1275.1591-.3804-.0011-.1123-.1381-.1944-.277-.238-.094-.0295-.2037-.0541-.3055-.049-.5243.0263-.7618-.2881-.9588-.7209-.4429-.9732-.2258-1.8987.1311-2.827.0912-.2372.168-.48.2482-.7214.1039-.3127.1318-.6824.3209-.9288.4651-.6056,1.1151-.915,1.8995-.91.9255.0253,1.6218.3986,2.1946,1.1681.5342.7176.6731,1.5214.8051,2.3413.0848.5267-.0245,1.0447-.366,1.4877-.1173.1522-.2928.3398-.0492.4914.2374.1477.405-.0361.4771-.2493.1235-.3651.2237-.7389.3165-1.1133.088-.355.1152-.3784.3699-.131.7449.7234,1.0685,1.6445,1.132,2.6505.0276.4376-.0547.8897-.14,1.3249-.0773.3947-.3151.7112-.6917.8863-.2244.1043-.3091.2552-.1691.4581.1489.2157.3481.1484.4981-.0075.1751-.1822.3252-.3886.4838-.5865.1772-.2211.3875-.2448.5747-.0439.5366.5758,1.1492,1.109,1.5599,1.7665.4777.7645.7778,1.6409,1.1446,2.4733.1295.294-.0891.3474-.2976.3344Z"/>
  <path class="cls-1" d="m42.0745,26.9407c.298.0056.5421-.262.5405-.5926-.002-.4105-.2768-.7581-.6046-.7645-.302-.006-.5154.2928-.507.7098.0061.3032.3051.6422.571.6472Z"/>
  <path class="cls-1" d="m18.1639,8.616c.0011-.4387-.1897-.6761-.5403-.6722-.3725.0042-.5779.1964-.5713.5347.0087.4432.1972.6801.5303.6663.3821-.0157.5805-.1962.5813-.5288Z"/>
  <path class="cls-1" d="m38.7266,26.3142c-.2216.0184-.6232.4179-.6306.6273-.011.3126.3478.6984.6414.6895.2836-.0086.4916-.2789.4862-.6321-.0056-.3658-.2518-.7051-.4971-.6848Z"/>
  <path class="cls-1" d="m22.6868,7.5571c.0005.303.4543.6993.8524.7045.2812-.0101.3301-.2362.3322-.4935.0024-.3122-.3726-.6829-.6956-.6926-.2516-.0076-.4895.2266-.4891.4816Z"/>
  <path class="cls-1" d="m21.2731,11.9137c.0026.2072.4858.5461.7743.5428.202-.0022.4167-.3309.4058-.621-.0118-.3137-.2868-.6087-.5568-.5973-.2454.0104-.6264.4232-.6233.6755Z"/>
  <path class="cls-1" d="m12.9399,21.71c.08-.3374-.2859-.6805-.6159-.6703-.3819.0117-.5287.1406-.5184.4551.0121.3688.3278.7224.65.6413.192-.0483.4426-.25.4843-.426Z"/>
  <path class="cls-1" d="m13.4469,23.8601c-.0318.3768.2219.6904.5372.6996.3497.0103.6306-.1764.6375-.4237.0078-.2784-.3678-.626-.7023-.6382-.2515-.0093-.4492.0886-.4723.3623Z"/>
  <path class="cls-1" d="m39.2828,16.0002c-.2275-.0053-.5066.434-.5136.8084-.0053.2817.1906.4874.4624.4855.2859-.002.4709-.2695.4756-.6876.0031-.2735-.2266-.6016-.4244-.6063Z"/>
  <path class="cls-1" d="m46.8227,30.6584c.009.2708.3535.5112.692.5027.3504-.0089.4061-.2381.4128-.5872-.0059-.2111-.3082-.5429-.5531-.5358-.2445.0071-.5604.3623-.5518.6204Z"/>
  <path class="cls-1" d="m11.5114,18.5871c.0231-.3015-.2736-.6332-.5626-.6389-.2989-.0059-.5101.1675-.5176.425-.0097.337.2723.6318.6106.636.285.0035.4478-.1365.4696-.4221Z"/>
  <path class="cls-1" d="m45.2148,27.9673c-.0117.3868.1855.6225.54.6084.1978-.0079.4477.0037.4754-.2849.0404-.4212-.2449-.8305-.5641-.8387-.2288-.0059-.443.2386-.4514.5152Z"/>
  <path class="cls-1" d="m24.0752,13.2736c-.003-.2598-.3511-.5838-.6411-.5966-.2719-.012-.4857.1883-.4967.4655-.0101.2535.3233.5676.6299.5934.2509.0211.5107-.2154.5078-.4623Z"/>
  <path class="cls-1" d="m24.5108,2.5216c.2955.0071.5178-.1791.5182-.4341.0004-.3079-.3231-.7525-.5287-.6653-.2156.0914-.4455.3057-.5257.52-.098.2621.2375.5722.5361.5794Z"/>
  <path class="cls-1" d="m10.4274,17.6595c.0098-.4007-.218-.7558-.4799-.7429-.2458.0121-.4791.0975-.5046.4005-.0314.3712.2542.7291.5674.7242.2753-.0043.3958-.166.4171-.3818Z"/>
  <path class="cls-1" d="m48.1171,29.4969c-.0067.2822.235.6381.4397.6473.2277.0102.5206-.2637.5402-.5052.025-.309-.2566-.6662-.5289-.6707-.2059-.0034-.445.2769-.451.5286Z"/>
  <path class="cls-1" d="m45.0418,26.5201c-.0204-.2869-.3488-.5823-.6481-.5685-.2488.0115-.4324.1254-.4548.3946-.0201.2418.3967.6242.6536.6163.2769-.0085.467-.1957.4493-.4424Z"/>
  <path class="cls-1" d="m11.5763,13.7853c-.0047.3137.2098.5649.4662.5459.2716-.0201.528-.3322.5225-.6533-.0302-.2371-.1027-.4623-.4108-.4789-.1947-.0106-.575.3859-.5779.5863Z"/>
  <path class="cls-1" d="m32.1321,10.8248c.009.3071.2165.5784.4436.5803.3011.0024.5038-.2251.4988-.5598-.0049-.3234-.241-.6232-.4733-.6009-.227.0217-.4766.3305-.4692.5804Z"/>
  <path class="cls-1" d="m48.8821,38.4323c.0038-.0001.0075-.0001.0113-.0002.0004-.0048-.0001-.0073.0003-.0121,0,0-.0116.0125-.0116.0124Z"/>
  <path class="cls-1" d="m52.1562,31.0355c-.2341.0032-.506.2604-.4988.4721.0133.3911.2067.6486.4808.6405.3199-.0094.5257-.1765.527-.4277.0019-.3654-.2383-.6885-.509-.6849Z"/>
  <path class="cls-1" d="m35.0198,27.2448c.2972.0175.418-.1735.4746-.39.0374-.3268-.1666-.5603-.4964-.6098-.2742-.0411-.522.1307-.5565.3856-.0385.285.2484.5947.5782.6141Z"/>
  <path class="cls-1" d="m40.3984,14.9155c-.2514-.0049-.4848.2866-.478.6248.0408.2014.0158.4823.3585.4954.2433.0093.5986-.355.5904-.5872-.0076-.2161-.2844-.5294-.4709-.533Z"/>
  <path class="cls-1" d="m10.9826,12.8675c.2734.0094.5869-.2097.602-.4207.0189-.2638-.2101-.4962-.5048-.5124-.3337-.0184-.6136.2067-.621.4996-.0057.2268.2319.4235.5239.4334Z"/>
  <path class="cls-1" d="m18.6072,13.3845c-.2172-.0272-.6011.3807-.6036.6173-.0035.3294.1075.4225.5185.4345.2914.0085.4827-.1972.4677-.5278-.0115-.2519-.0829-.4866-.3826-.524Z"/>
  <path class="cls-1" d="m16.5991,14.1717c.3151.0201.2776-.1924.2825-.3492-.0027-.3606-.27-.6723-.5496-.6776-.2659-.0049-.4413.1833-.4299.4615.0123.3016.3219.5414.697.5653Z"/>
  <path class="cls-1" d="m12.6992,23.1303c-.0379-.2514-.2052-.4241-.4854-.4263-.3041-.0024-.5842.2529-.5725.5116.0122.2704.2613.4907.5441.4814.2847-.0094.5567-.2815.5137-.5667Z"/>
  <path class="cls-1" d="m25.5039,5.0424c.3016-.0041.4447-.1606.4456-.4877.0009-.3149-.1786-.5391-.4246-.5302-.2755.0099-.5475.3202-.5435.6142.0048.3564.2474.3998.5225.4037Z"/>
  <path class="cls-1" d="m23.0024,10.5515c-.0059-.2593-.2505-.5023-.4875-.4841-.2879.022-.5634.2817-.5596.5276.004.2585.223.4462.5143.4409.3049-.0056.5388-.2182.5328-.4844Z"/>
  <path class="cls-1" d="m40.283,26.2933c-.2921-.0116-.4151.119-.4171.3745-.0022.2796.3674.6145.663.5978.252-.0142.3165-.1794.3173-.3978.0012-.3516-.2285-.5751-.5632-.5745Z"/>
  <path class="cls-1" d="m19.5486,10.7917c.291-.0342.3174-.2871.3408-.5038.0281-.2607-.2697-.5547-.5281-.5576-.3242-.0035-.3317.2322-.3503.4941.0004.2755.2769.5981.5377.5673Z"/>
  <path class="cls-1" d="m34.5558,8.9211c-.2388-.0128-.5211.2708-.5145.5193.0068.2573.0936.4687.4037.4792.2723.0076.5479-.2879.5408-.588-.0065-.2758-.1796-.3972-.43-.4105Z"/>
  <path class="cls-1" d="m20.7152,15.2374c-.2641.0137-.4111.1862-.4427.426-.0335.2551.3105.5514.5951.5385.2365-.0107.4026-.1049.3986-.3746-.0065-.3093-.2751-.6041-.551-.59Z"/>
  <path class="cls-1" d="m38.3442,17.5262c-.2612.009-.5039.287-.5122.5868-.0063.2286.1804.4324.4081.4454.2877.0164.5179-.2002.5195-.4886.0016-.3069-.1851-.5515-.4153-.5435Z"/>
  <path class="cls-1" d="m52.1262,39.2365c.0046-.2689-.2502-.5068-.5597-.5297-.3232-.0239-.4053.1827-.4341.4306-.0093.2433.2331.4924.478.5047.2241.0112.5125-.2156.5157-.4056Z"/>
  <path class="cls-1" d="m26.3406,6.3148c.2554-.0011.431-.1298.4452-.4009.014-.2689-.3266-.634-.5747-.5736-.1633.0398-.2936.2147-.3734.2776-.0112.4539.1964.6982.5029.6969Z"/>
  <path class="cls-1" d="m22.4152,14.3093c.2654-.0462.3964-.2352.4117-.4766-.0227-.3016-.1063-.5276-.4299-.5485-.2386-.0154-.4777.2032-.4772.425.0005.2668.2887.636.4954.6Z"/>
  <path class="cls-1" d="m25.5267,6.3574c.0176-.2994-.194-.5184-.4861-.5132-.2684.0049-.4131.1504-.4241.4162-.0126.3074.1821.5009.4923.502.2903.0212.403-.1508.4178-.405Z"/>
  <path class="cls-1" d="m51.7064,36.903c-.2383.0183-.4386.1137-.4138.4331-.0043.2816.27.6412.5063.6124.3029-.0369.3492-.3004.3766-.533.0273-.2322-.2492-.5294-.4691-.5125Z"/>
  <path class="cls-1" d="m33.9296,7.734c.0133.2532.0447.5308.3846.4704.3757.0118.5467-.1232.5516-.4026.0035-.2003-.2791-.4769-.5082-.4681-.2458.0094-.4426.1227-.428.4003Z"/>
  <path class="cls-1" d="m48.3913,28.8017c.2025.0784.4861-.2635.4803-.5118-.0073-.314-.1476-.4711-.4103-.4592-.2604.0118-.5625.2994-.4821.5245.0643.1801.2387.3794.412.4466Z"/>
  <path class="cls-1" d="m38.2871,14.4158c.2902-.0182.3384-.2421.3763-.4689-.0234-.2583-.1136-.4744-.397-.5161-.2165-.0319-.5128.2921-.5094.5275.0028.1992.3077.4715.5301.4575Z"/>
  <path class="cls-1" d="m39.7497,17.4746c-.0114.2255.2111.4792.4652.4774.2465-.0018.3773-.1599.4033-.3917.0298-.2655-.2086-.5737-.4406-.5773-.3114-.0049-.3894.2157-.4279.4917Z"/>
  <path class="cls-1" d="m14.5696,12.4383c-.0044-.2764-.1809-.4441-.46-.423-.3556.0269-.3575.3293-.3806.5638-.0278.2828.2156.374.4401.4058.2225.0316.4055-.2388.4006-.5466Z"/>
  <path class="cls-1" d="m24.0475,5.8977c.2903-.0297.3966-.2237.3891-.4969.0005-.2498-.1959-.4736-.4204-.4789-.1955-.0046-.4454.2612-.4485.477-.0031.2166.2748.5198.4798.4988Z"/>
  <path class="cls-1" d="m23.2967,11.9001c.0105.3354.1814.5377.4382.5175.2809-.022.3744-.2144.3773-.4628.0035-.2954-.2082-.5382-.4449-.503-.2554.038-.4008.1854-.3706.4483Z"/>
  <path class="cls-1" d="m32.3867,17.1367c.2386-.0697.42-.2195.4175-.3923-.0169-.4121-.2162-.6258-.4673-.6003-.2585.0263-.345.2055-.3506.4343-.0064.2598.2358.6063.4005.5582Z"/>
  <path class="cls-1" d="m35.5635,27.6882c-.2738-.0098-.4713.1455-.4271.4106.0265.1591.2021.3833.3458.4141.2864.0614.5549-.1759.5458-.3995-.0125-.303-.22-.3992-.4644-.4252Z"/>
  <path class="cls-1" d="m50.87,30.5287c.2731-.0185.3349-.2053.3314-.4372-.0016-.3123-.1984-.6018-.3987-.5293-.1675.0607-.3694.2278-.4125.3868-.0756.2784.2268.5967.4799.5797Z"/>
  <path class="cls-1" d="m43.6973,27.4391c.0594-.2408-.2352-.5193-.5125-.5209-.2003.0292-.4285.0756-.4423.3636-.011.2301.3416.5167.6084.4611.1356-.0283.3152-.1775.3464-.3038Z"/>
  <path class="cls-1" d="m34.4579,10.494c-.2349-.0602-.3971.142-.4269.3696-.0115.2944.1672.4808.4323.4814.2364.0005.5552-.2556.4728-.419-.0926-.1835-.2896-.3837-.4781-.4321Z"/>
  <path class="cls-1" d="m51.5149,29.9573c-.0168.244.2294.4945.4966.5018.2187.0188.3217-.1161.3221-.3481.0005-.2457-.2681-.5405-.4993-.5471-.2721-.0078-.3062.1996-.3195.3934Z"/>
  <path class="cls-1" d="m38.173,25.8986c.0311-.2886-.1384-.3932-.3674-.3808-.2186.0119-.5131-.01-.493.3622-.0176.2612.0906.4333.3639.4632.2751.0302.4659-.1609.4966-.4446Z"/>
  <path class="cls-1" d="m10.6753,14.3043c.2366.0017.3641-.1045.3222-.3507-.0083-.3287-.2034-.5928-.4128-.5063-.1553.0641-.3277.2662-.3522.428-.0414.2734.1602.4271.4428.429Z"/>
  <path class="cls-1" d="m18.2653,6.1927c.288.0109.5718-.2225.5412-.4274-.0368-.2465-.1937-.405-.4532-.4177-.2383-.0117-.371.1304-.3696.3557.0015.2239.0401.4529.2816.4894Z"/>
  <path class="cls-1" d="m37.7975,24.2314c-.1411.0392-.2531.1828-.3275.2402.0163.3534.2991.6292.541.6247.2349-.0044.2994-.1638.2958-.3614-.0051-.2726-.2833-.5664-.5093-.5035Z"/>
  <path class="cls-1" d="m32.6684,8.5842c.1151-.0258.2444-.2275.2687-.3665.0435-.2499-.1993-.5361-.3969-.4863-.1321.0333-.2355.1807-.2863.2228-.0016.4719.1531.6884.4145.6299Z"/>
  <path class="cls-1" d="m33.683,12.0261c.0322-.2391-.0662-.4987-.3643-.5226-.2419-.0194-.3882.1275-.3765.4066-.0134.2526.0974.4471.3807.4023.1378-.0219.3447-.1724.36-.2863Z"/>
  <path class="cls-1" d="m20.433,10.184c.2382-.0042.3738-.0925.3428-.3276.0123-.3058-.1881-.4167-.4-.3875-.129.0178-.324.2027-.3306.3214-.0115.2056.1129.3986.3877.3937Z"/>
  <path class="cls-1" d="m39.3768,18.476c.0213.3304.3069.2734.5123.3046.2267.0344.2722-.1214.2715-.3101-.0009-.2632-.1304-.3844-.4927-.3713-.141.0066-.308.1132-.2911.3769Z"/>
  <polygon class="cls-1" points="1.2212 81.5024 1.2068 81.5206 1.2132 81.5286 1.2212 81.5024"/>
  <circle class="cls-1" cx="13.029" cy="24.9142" r=".2921"/>
  <circle class="cls-1" cx="11.751" cy="24.3665" r=".2921"/>
  <circle class="cls-1" cx="15.4511" cy="21.9443" r=".2921"/>
  <path class="cls-1" d="m16.484,23.373c.1613,0,.2921-.1308.2921-.2922s-.1308-.2921-.2921-.2921-.2921.1308-.2921.2921.1307.2922.2921.2922Z"/>
  <circle class="cls-1" cx="15.585" cy="24.123" r=".2921"/>
  <circle class="cls-1" cx="9.9861" cy="23.1128" r=".2921"/>
  <circle class="cls-1" cx="9.0328" cy="22.0299" r=".2921"/>
  <circle class="cls-1" cx="10.6443" cy="21.6935" r=".2921"/>
  <path class="cls-1" d="m9.1097,20.642c-.1613,0-.2921.1308-.2921.2921s.1308.2921.2921.2921.2922-.1308.2922-.2921-.1308-.2921-.2922-.2921Z"/>
  <circle class="cls-1" cx="17.0091" cy="20.5203" r=".2921"/>
  <circle class="cls-1" cx="15.938" cy="20.0942" r=".2921"/>
  <path class="cls-1" d="m14.6654,19.4137c.0076-.1612-.1169-.298-.2781-.3055-.1611-.0075-.2979.117-.3055.2781s.1169.2979.2781.3055c.1611.0076.2979-.1169.3055-.2781Z"/>
  <circle class="cls-1" cx="12.9164" cy="20.644" r=".2921"/>
  <circle class="cls-1" cx="13.0333" cy="19.0151" r=".2921"/>
  <circle class="cls-1" cx="9.9471" cy="19.9292" r=".2921"/>
  <circle class="cls-1" cx="8.5106" cy="19.7574" r=".2921"/>
  <path class="cls-1" d="m9.6811,18.9285c0-.2122-.1721-.3842-.3842-.3842s-.3842.172-.3842.3842.172.3842.3842.3842.3842-.172.3842-.3842Z"/>
  <path class="cls-1" d="m8.306,18.1418c.2115,0,.383-.1715.383-.3831s-.1715-.383-.383-.383-.3831.1714-.3831.383.1715.3831.3831.3831Z"/>
  <circle class="cls-1" cx="7.4452" cy="17.3655" r=".2921"/>
  <circle class="cls-1" cx="7.2322" cy="16.2245" r=".2921"/>
  <circle class="cls-1" cx="7.0673" cy="14.8842" r=".2921"/>
  <circle class="cls-1" cx="7.5965" cy="13.9494" r=".2921"/>
  <path class="cls-1" d="m11.0572,15.0594c0,.2164.1731.3918.3867.3918s.3866-.1754.3866-.3918-.1731-.3918-.3866-.3918-.3867.1754-.3867.3918Z"/>
  <circle class="cls-1" cx="8.4166" cy="12.9025" r=".4249"/>
  <circle class="cls-1" cx="9.7334" cy="11.2388" r=".3289"/>
  <circle class="cls-1" cx="12.7621" cy="11.8699" r=".2409"/>
  <circle class="cls-1" cx="13.9131" cy="13.7295" r=".2921"/>
  <circle class="cls-1" cx="15.1846" cy="13.324" r=".2921"/>
  <circle class="cls-1" cx="15.8238" cy="12.4304" r=".2921"/>
  <circle class="cls-1" cx="14.9731" cy="11.5422" r=".2112"/>
  <circle class="cls-1" cx="12.7515" cy="10.2172" r=".2921"/>
  <circle class="cls-1" cx="12.3872" cy="8.8013" r=".2921"/>
  <circle class="cls-1" cx="12.6965" cy="7.6947" r=".2921"/>
  <circle class="cls-1" cx="11.7015" cy="7.6449" r=".2457"/>
  <path class="cls-1" d="m13.099,6.6621c.1293.0095.2419-.0876.2515-.2169.0095-.1293-.0876-.2419-.2169-.2514s-.2419.0876-.2515.2169c-.0095.1293.0876.2419.2169.2514Z"/>
  <circle class="cls-1" cx="14.5936" cy="6.6224" r=".2921"/>
  <path class="cls-1" d="m14.2499,8.0281c.1613,0,.2921-.1308.2921-.2922s-.1308-.2921-.2921-.2921-.2921.1308-.2921.2921.1308.2922.2921.2922Z"/>
  <circle class="cls-1" cx="15.9682" cy="7.3442" r=".2921"/>
  <path class="cls-1" d="m13.1397,5.2238c.1404,0,.2542-.1138.2542-.2542s-.1138-.2542-.2542-.2542-.2542.1138-.2542.2542.1138.2542.2542.2542Z"/>
  <circle class="cls-1" cx="12.3735" cy="4.0312" r=".2921"/>
  <path class="cls-1" d="m15.3221,3.1824c.1613,0,.2921-.1308.2921-.2921s-.1308-.2922-.2921-.2922-.2921.1308-.2921.2922.1307.2921.2921.2921Z"/>
  <circle class="cls-1" cx="15.4911" cy="4.7901" r=".2549"/>
  <circle class="cls-1" cx="17.3841" cy="2.9727" r=".2921"/>
  <circle class="cls-1" cx="17.8085" cy="3.8199" r=".2285"/>
  <circle class="cls-1" cx="16.7861" cy="5.4471" r=".2921"/>
  <circle class="cls-1" cx="16.4769" cy="6.4506" r=".2921"/>
  <circle class="cls-1" cx="16.2156" cy="8.6913" r=".2921"/>
  <circle class="cls-1" cx="16.5456" cy="9.7498" r=".2921"/>
  <path class="cls-1" d="m16.5799,12.0215c.1613,0,.2921-.1308.2921-.2922s-.1308-.2921-.2921-.2921-.2921.1308-.2921.2921.1307.2922.2921.2922Z"/>
  <path class="cls-1" d="m16.6222,10.7109c0-.2139-.1733-.3872-.3871-.3872s-.3872.1733-.3872.3872.1734.3871.3872.3871.3871-.1733.3871-.3871Z"/>
  <path class="cls-1" d="m14.8409,10.6485c0-.2477-.2008-.4485-.4485-.4485s-.4484.2008-.4484.4485.2007.4484.4484.4484.4485-.2007.4485-.4484Z"/>
  <path class="cls-1" d="m17.8446,11.1142c-.1613,0-.2921.1307-.2921.2921s.1308.2921.2921.2921.2922-.1308.2922-.2921-.1308-.2921-.2922-.2921Z"/>
  <path class="cls-1" d="m17.2239,13.3549c.2043,0,.3698-.1655.3698-.3698s-.1655-.3698-.3698-.3698-.3698.1656-.3698.3698.1655.3698.3698.3698Z"/>
  <path class="cls-1" d="m18.2994,12.1314c-.2113,0-.3826.1713-.3826.3827s.1713.3826.3826.3826.3826-.1713.3826-.3826-.1713-.3827-.3826-.3827Z"/>
  <circle class="cls-1" cx="17.7963" cy="15.2346" r=".3744"/>
  <path class="cls-1" d="m18.9394,14.7064c-.159-.0276-.3102.0789-.3378.2378-.0276.159.0789.3102.2378.3378.159.0276.3102-.0789.3378-.2378.0276-.159-.0789-.3102-.2378-.3378Z"/>
  <circle class="cls-1" cx="15.3565" cy="17.3998" r=".2921"/>
  <path class="cls-1" d="m17.4239,17.174c0-.2378-.1927-.4306-.4305-.4306s-.4306.1928-.4306.4306.1928.4305.4306.4305.4305-.1927.4305-.4305Z"/>
  <circle class="cls-1" cx="19.2674" cy="15.7777" r=".2921"/>
  <circle class="cls-1" cx="20.1953" cy="17.2005" r=".2921"/>
  <circle class="cls-1" cx="21.3363" cy="17.4823" r=".2921"/>
  <circle class="cls-1" cx="23.3775" cy="14.994" r=".3882"/>
  <path class="cls-1" d="m24.4601,16.2484c.2543,0,.4604-.2061.4604-.4604s-.2061-.4604-.4604-.4604-.4604.2062-.4604.4604.2062.4604.4604.4604Z"/>
  <circle class="cls-1" cx="23.4949" cy="16.376" r=".3749"/>
  <path class="cls-1" d="m25.4188,13.1227c0-.1945-.1577-.3521-.3521-.3521s-.3521.1577-.3521.3521.1577.3522.3521.3522.3521-.1577.3521-.3522Z"/>
  <circle class="cls-1" cx="24.6707" cy="11.2216" r=".3273"/>
  <path class="cls-1" d="m23.7454,10.2796c0,.192.1556.3477.3476.3477s.3477-.1556.3477-.3477-.1556-.3477-.3477-.3477-.3476.1556-.3476.3477Z"/>
  <path class="cls-1" d="m20.6042,8.6406c0,.1675.1358.3032.3033.3032s.3033-.1357.3033-.3032-.1358-.3033-.3033-.3033-.3033.1358-.3033.3033Z"/>
  <path class="cls-1" d="m20.1874,8.0352c.0333-.2011-.1028-.3911-.304-.4243-.2011-.0333-.3911.1028-.4243.3039-.0333.2012.1028.3911.304.4244s.3911-.1028.4243-.304Z"/>
  <path class="cls-1" d="m18.9244,6.6754c-.1761,0-.319.1428-.319.3189s.1428.319.319.319.3189-.1428.3189-.319-.1428-.3189-.3189-.3189Z"/>
  <circle class="cls-1" cx="20.1609" cy="6.5674" r=".2921"/>
  <circle class="cls-1" cx="19.563" cy="5.5364" r=".2921"/>
  <circle class="cls-1" cx="21.4394" cy="5.7358" r=".2921"/>
  <circle class="cls-1" cx="22.0649" cy="6.6774" r=".2921"/>
  <circle class="cls-1" cx="23.8176" cy="6.5606" r=".2921"/>
  <path class="cls-1" d="m24.4293,7.0245c-.1613,0-.2921.1308-.2921.2921s.1308.2921.2921.2921.2922-.1308.2922-.2921-.1308-.2921-.2922-.2921Z"/>
  <circle class="cls-1" cx="21.7693" cy="4.1274" r=".2921"/>
  <circle class="cls-1" cx="20.8208" cy="4.1824" r=".2921"/>
  <circle class="cls-1" cx="22.2023" cy="2.3472" r=".2921"/>
  <circle class="cls-1" cx="22.7041" cy="1.4262" r=".2921"/>
  <circle class="cls-1" cx="24.4705" cy=".6083" r=".2921"/>
  <path class="cls-1" d="m25.6183.8798c.1614,0,.2922-.1308.2922-.2921s-.1308-.2921-.2922-.2921-.2921.1308-.2921.2921.1308.2921.2921.2921Z"/>
  <circle class="cls-1" cx="26.9449" cy=".2921" r=".2921"/>
  <path class="cls-1" d="m24.046,4.612c.187,0,.3386-.1516.3386-.3387s-.1516-.3386-.3386-.3386-.3387.1516-.3387.3386.1517.3387.3387.3387Z"/>
  <circle class="cls-1" cx="22.6994" cy="4.9225" r=".3424"/>
  <path class="cls-1" d="m28.0034,1.9933c.1613,0,.2921-.1308.2921-.2921s-.1308-.2922-.2921-.2922-.2921.1308-.2921.2922.1308.2921.2921.2921Z"/>
  <circle class="cls-1" cx="28.9107" cy="2.7871" r=".2921"/>
  <circle class="cls-1" cx="28.6564" cy="3.9144" r=".2921"/>
  <path class="cls-1" d="m29.5573,4.557c.1351,0,.2446-.1095.2446-.2445s-.1095-.2446-.2446-.2446-.2445.1095-.2445.2446.1095.2445.2445.2445Z"/>
  <circle class="cls-1" cx="29.2956" cy="5.4952" r=".2921"/>
  <circle class="cls-1" cx="30.4572" cy="5.6671" r=".2921"/>
  <circle class="cls-1" cx="31.0895" cy="4.3886" r=".2921"/>
  <path class="cls-1" d="m31.8456,6.1104c.1613,0,.2921-.1308.2921-.2921s-.1308-.2922-.2921-.2922-.2921.1308-.2921.2922.1307.2921.2921.2921Z"/>
  <circle class="cls-1" cx="29.1719" cy="6.9868" r=".2921"/>
  <circle class="cls-1" cx="29.5228" cy="7.7101" r=".2921"/>
  <circle class="cls-1" cx="28.8076" cy="8.5814" r=".2921"/>
  <circle class="cls-1" cx="28.2577" cy="8.1346" r=".2921"/>
  <circle class="cls-1" cx="27.5773" cy="6.9868" r=".2921"/>
  <circle class="cls-1" cx="27.0755" cy="7.9559" r=".2921"/>
  <circle class="cls-1" cx="27.3621" cy="8.8602" r=".2921"/>
  <circle class="cls-1" cx="26.5394" cy="9.9216" r=".2921"/>
  <circle class="cls-1" cx="27.7422" cy="9.7979" r=".2921"/>
  <circle class="cls-1" cx="29.5293" cy="9.3306" r=".2921"/>
  <circle class="cls-1" cx="30.0242" cy="10.9045" r=".2921"/>
  <path class="cls-1" d="m31.1274,13.6081c0,.2018.1636.3654.3654.3654s.3654-.1636.3654-.3654-.1636-.3654-.3654-.3654-.3654.1636-.3654.3654Z"/>
  <path class="cls-1" d="m30.9005,17.4688c0,.2068.1676.3743.3744.3743s.3743-.1675.3743-.3743-.1676-.3743-.3743-.3743-.3744.1676-.3744.3743Z"/>
  <circle class="cls-1" cx="32.7117" cy="17.6885" r=".2921"/>
  <path class="cls-1" d="m31.9315,14.9254c0,.1841.1493.3334.3335.3334s.3334-.1493.3334-.3334-.1493-.3335-.3334-.3335-.3335.1493-.3335.3335Z"/>
  <path class="cls-1" d="m33.0062,14.4134c.2139,0,.3873-.1734.3873-.3873s-.1734-.3873-.3873-.3873-.3873.1734-.3873.3873.1733.3873.3873.3873Z"/>
  <path class="cls-1" d="m33.1874,12.7545c0-.1836-.1488-.3324-.3324-.3324s-.3323.1488-.3323.3324.1488.3323.3323.3323.3324-.1488.3324-.3323Z"/>
  <circle class="cls-1" cx="34.8699" cy="15.4135" r=".2921"/>
  <circle class="cls-1" cx="36.1552" cy="13.183" r=".2921"/>
  <path class="cls-1" d="m34.3681,13.5188c.2139,0,.3873-.1734.3873-.3873s-.1734-.3873-.3873-.3873-.3873.1734-.3873.3873.1734.3873.3873.3873Z"/>
  <path class="cls-1" d="m35.4999,11.6606c0,.2139.1733.3873.3873.3873s.3873-.1734.3873-.3873-.1734-.3873-.3873-.3873-.3873.1734-.3873.3873Z"/>
  <circle class="cls-1" cx="35.6191" cy="14.4168" r=".2921"/>
  <circle class="cls-1" cx="36.925" cy="14.2106" r=".2921"/>
  <circle class="cls-1" cx="34.3475" cy="16.5956" r=".2921"/>
  <path class="cls-1" d="m33.2546,5.6843c.1613,0,.2921-.1308.2921-.2921s-.1308-.2922-.2921-.2922-.2921.1308-.2921.2922.1308.2921.2921.2921Z"/>
  <circle class="cls-1" cx="34.2719" cy="4.966" r=".2921"/>
  <path class="cls-1" d="m33.6014,4.2024c.1553.0438.3167-.0466.3605-.2018s-.0465-.3167-.2018-.3605-.3167.0466-.3605.2018c-.0438.1552.0465.3167.2018.3605Z"/>
  <circle class="cls-1" cx="32.6841" cy="4.5742" r=".2921"/>
  <circle class="cls-1" cx="35.6397" cy="6.7668" r=".2921"/>
  <circle class="cls-1" cx="36.217" cy="7.8528" r=".2921"/>
  <circle class="cls-1" cx="36.8082" cy="8.8151" r=".2921"/>
  <circle class="cls-1" cx="35.9696" cy="9.9492" r=".2921"/>
  <path class="cls-1" d="m37.3434,9.8426c.1077,0,.1951-.0873.1951-.1951s-.0873-.195-.1951-.195-.1951.0873-.1951.195.0873.1951.1951.1951Z"/>
  <path class="cls-1" d="m39.7637,10.5574c.1614,0,.2922-.1308.2922-.2921s-.1308-.2921-.2922-.2921-.2921.1308-.2921.2921.1308.2921.2921.2921Z"/>
  <circle class="cls-1" cx="40.9253" cy="10.8839" r=".2921"/>
  <circle class="cls-1" cx="40.6847" cy="9.7155" r=".2921"/>
  <circle class="cls-1" cx="41.915" cy="11.475" r=".2921"/>
  <path class="cls-1" d="m41.9632,10.0626c.1613,0,.2921-.1308.2921-.2921s-.1308-.2921-.2921-.2921-.2922.1308-.2922.2921.1308.2921.2922.2921Z"/>
  <circle class="cls-1" cx="43.0767" cy="10.8083" r=".2921"/>
  <circle class="cls-1" cx="42.788" cy="12.2104" r=".2921"/>
  <circle class="cls-1" cx="44.5063" cy="12.4579" r=".2921"/>
  <circle class="cls-1" cx="43.111" cy="14.3344" r=".2921"/>
  <circle class="cls-1" cx="44.3345" cy="15.2485" r=".2921"/>
  <path class="cls-1" d="m42.4631,14.9041c-.1599-.0217-.3071.0902-.3289.2501-.0217.1599.0902.3071.2501.3289.1599.0217.3071-.0902.3289-.2501.0217-.1599-.0902-.3071-.2501-.3289Z"/>
  <circle class="cls-1" cx="41.4545" cy="15.7846" r=".2921"/>
  <circle class="cls-1" cx="41.1796" cy="16.5475" r=".2921"/>
  <circle class="cls-1" cx="41.7274" cy="17.7503" r=".2921"/>
  <circle class="cls-1" cx="40.9803" cy="18.2178" r=".2921"/>
  <circle class="cls-1" cx="43.3378" cy="17.4342" r=".2921"/>
  <circle class="cls-1" cx="42.4924" cy="16.5544" r=".2921"/>
  <circle class="cls-1" cx="42.025" cy="18.8983" r=".2921"/>
  <circle class="cls-1" cx="40.0867" cy="19.3312" r=".2921"/>
  <circle class="cls-1" cx="38.5815" cy="21.8125" r=".2921"/>
  <circle class="cls-1" cx="37.5492" cy="21.1262" r=".2921"/>
  <circle class="cls-1" cx="39.6537" cy="21.407" r=".2921"/>
  <circle class="cls-1" cx="38.8633" cy="20.4172" r=".2921"/>
  <circle class="cls-1" cx="38.5677" cy="19.316" r=".2921"/>
  <circle class="cls-1" cx="37.3993" cy="20.0804" r=".2921"/>
  <circle class="cls-1" cx="36.4164" cy="20.0804" r=".2921"/>
  <circle class="cls-1" cx="36.3807" cy="30.5375" r=".2515"/>
  <path class="cls-1" d="m35.4078,29.5759c0-.1389-.1126-.2515-.2515-.2515s-.2515.1126-.2515.2515.1126.2515.2515.2515.2515-.1126.2515-.2515Z"/>
  <path class="cls-1" d="m34.7989,30.7118c.1389,0,.2515-.1126.2515-.2515s-.1126-.2515-.2515-.2515-.2515.1125-.2515.2515.1126.2515.2515.2515Z"/>
  <circle class="cls-1" cx="35.7319" cy="31.1293" r=".2515"/>
  <circle class="cls-1" cx="33.9245" cy="28.8015" r=".2515"/>
  <path class="cls-1" d="m33.7784,28.0032c.1389,0,.2515-.1126.2515-.2515s-.1126-.2515-.2515-.2515-.2515.1126-.2515.2515.1125.2515.2515.2515Z"/>
  <path class="cls-1" d="m33.4042,26.4687c-.1389,0-.2515.1125-.2515.2515s.1126.2515.2515.2515.2515-.1126.2515-.2515-.1126-.2515-.2515-.2515Z"/>
  <path class="cls-1" d="m34.6196,25.4354c.0669-.1218.0224-.2747-.0993-.3415-.1217-.0669-.2746-.0224-.3415.0993s-.0224.2746.0993.3415.2746.0224.3415-.0993Z"/>
  <circle class="cls-1" cx="35.2459" cy="25.1661" r=".2515"/>
  <circle class="cls-1" cx="36.0514" cy="23.4977" r=".2515"/>
  <path class="cls-1" d="m36.7311,23.4429c0,.1389.1126.2515.2515.2515s.2515-.1125.2515-.2515-.1126-.2515-.2515-.2515-.2515.1126-.2515.2515Z"/>
  <circle class="cls-1" cx="36.2366" cy="25.6641" r=".4283"/>
  <path class="cls-1" d="m38.5106,23.5916c0-.1389-.1125-.2515-.2515-.2515s-.2515.1126-.2515.2515.1126.2515.2515.2515.2515-.1126.2515-.2515Z"/>
  <circle class="cls-1" cx="39.6019" cy="23.7083" r=".2515"/>
  <path class="cls-1" d="m38.0091,30.5724c0,.1389.1126.2515.2515.2515s.2515-.1126.2515-.2515-.1126-.2515-.2515-.2515-.2515.1126-.2515.2515Z"/>
  <path class="cls-1" d="m41.4204,28.0532c.1389,0,.2515-.1126.2515-.2515s-.1126-.2515-.2515-.2515-.2515.1126-.2515.2515.1125.2515.2515.2515Z"/>
  <path class="cls-1" d="m41.2913,29.1068c-.1389,0-.2515.1126-.2515.2515s.1126.2515.2515.2515.2515-.1126.2515-.2515-.1126-.2515-.2515-.2515Z"/>
  <circle class="cls-1" cx="40.1442" cy="30.0902" r=".2515"/>
  <circle class="cls-1" cx="41.2822" cy="31.1019" r=".2515"/>
  <circle class="cls-1" cx="40.5793" cy="32.3434" r=".2515"/>
  <path class="cls-1" d="m40.3328,33.8638c.1389,0,.2515-.1126.2515-.2515s-.1126-.2515-.2515-.2515-.2515.1126-.2515.2515.1126.2515.2515.2515Z"/>
  <path class="cls-1" d="m42.5967,33.2512c-.1389,0-.2515.1126-.2515.2515s.1126.2515.2515.2515.2515-.1126.2515-.2515-.1125-.2515-.2515-.2515Z"/>
  <path class="cls-1" d="m44.6821,34.3973c0,.1389.1126.2515.2515.2515s.2515-.1126.2515-.2515-.1126-.2515-.2515-.2515-.2515.1125-.2515.2515Z"/>
  <path class="cls-1" d="m43.7084,31.981c.1389,0,.2515-.1126.2515-.2515s-.1125-.2515-.2515-.2515-.2515.1126-.2515.2515.1126.2515.2515.2515Z"/>
  <path class="cls-1" d="m43.3863,32.3448c0-.1902-.1542-.3445-.3445-.3445s-.3445.1543-.3445.3445.1542.3445.3445.3445.3445-.1542.3445-.3445Z"/>
  <circle class="cls-1" cx="45.7461" cy="33.3932" r=".2515"/>
  <path class="cls-1" d="m46.0149,31.8505c0,.1389.1125.2515.2515.2515s.2515-.1126.2515-.2515-.1126-.2515-.2515-.2515-.2515.1126-.2515.2515Z"/>
  <circle class="cls-1" cx="44.2399" cy="29.6048" r=".2515"/>
  <circle class="cls-1" cx="41.0511" cy="25.3152" r=".2515"/>
  <circle class="cls-1" cx="40.4745" cy="24.4664" r=".2515"/>
  <circle class="cls-1" cx="40.7618" cy="23.589" r=".2515"/>
  <circle class="cls-1" cx="41.9942" cy="24.6844" r=".2515"/>
  <circle class="cls-1" cx="42.7201" cy="24.3926" r=".2515"/>
  <path class="cls-1" d="m42.9799,23.5641c.1389,0,.2515-.1125.2515-.2515s-.1126-.2515-.2515-.2515-.2515.1126-.2515.2515.1126.2515.2515.2515Z"/>
  <circle class="cls-1" cx="44.1693" cy="23.0084" r=".2515"/>
  <circle class="cls-1" cx="44.3768" cy="24.3558" r=".2515"/>
  <path class="cls-1" d="m44.6183,23.8172c0,.1389.1125.2515.2515.2515s.2515-.1126.2515-.2515-.1126-.2515-.2515-.2515-.2515.1126-.2515.2515Z"/>
  <path class="cls-1" d="m45.2988,24.7356c.1307.0469.2747-.0209.3217-.1517.047-.1307-.0209-.2747-.1516-.3217-.1307-.0469-.2748.0209-.3217.1517-.0469.1307.0209.2747.1517.3217Z"/>
  <path class="cls-1" d="m46.4815,24.3631c.1389,0,.2515-.1126.2515-.2515s-.1126-.2515-.2515-.2515-.2515.1125-.2515.2515.1126.2515.2515.2515Z"/>
  <circle class="cls-1" cx="45.3444" cy="25.7343" r=".2515"/>
  <circle class="cls-1" cx="45.9549" cy="26.4768" r=".2515"/>
  <circle class="cls-1" cx="46.9717" cy="25.3715" r=".3268"/>
  <circle class="cls-1" cx="47.0788" cy="26.3732" r=".2515"/>
  <circle class="cls-1" cx="49.9452" cy="25.2869" r=".2515"/>
  <path class="cls-1" d="m48.6287,26.3709c.1624-.0938.218-.3015.1243-.4638-.0938-.1624-.3014-.2181-.4638-.1243-.1624.0938-.218.3014-.1243.4637.0938.1624.3014.2181.4638.1243Z"/>
  <circle class="cls-1" cx="48.417" cy="26.9617" r=".2515"/>
  <path class="cls-1" d="m50.9768,27.0173c.1389,0,.2515-.1126.2515-.2515s-.1126-.2515-.2515-.2515-.2515.1126-.2515.2515.1125.2515.2515.2515Z"/>
  <path class="cls-1" d="m52.0395,27.2449c.1335.0383.2727-.039.311-.1725.0382-.1335-.0391-.2727-.1725-.311-.1335-.0382-.2728.0391-.311.1725-.0383.1335.039.2728.1725.311Z"/>
  <path class="cls-1" d="m53.101,27.7145c.1307.0469.2747-.0211.3216-.1518.0469-.1307-.021-.2747-.1517-.3217-.1307-.0469-.2747.0211-.3217.1518-.0469.1307.0211.2747.1518.3217Z"/>
  <path class="cls-1" d="m52.1634,28.9265c0,.1389.1126.2515.2515.2515s.2515-.1125.2515-.2515-.1126-.2515-.2515-.2515-.2515.1126-.2515.2515Z"/>
  <path class="cls-1" d="m49.904,29.6555c.1768,0,.3201-.1433.3201-.3201s-.1433-.3201-.3201-.3201-.3201.1433-.3201.3201.1433.3201.3201.3201Z"/>
  <path class="cls-1" d="m53.0257,30.4081c0,.1389.1125.2515.2515.2515s.2515-.1126.2515-.2515-.1126-.2515-.2515-.2515-.2515.1126-.2515.2515Z"/>
  <circle class="cls-1" cx="53.122" cy="32.106" r=".2515"/>
  <path class="cls-1" d="m52.5314,32.9061c0-.1389-.1125-.2515-.2515-.2515s-.2515.1126-.2515.2515.1126.2515.2515.2515.2515-.1126.2515-.2515Z"/>
  <circle class="cls-1" cx="48.4664" cy="33.6396" r=".2515"/>
  <path class="cls-1" d="m49.3259,34.0005c-.1389,0-.2515.1125-.2515.2515s.1126.2515.2515.2515.2515-.1126.2515-.2515-.1126-.2515-.2515-.2515Z"/>
  <path class="cls-1" d="m47.9502,36.4147c0,.1389.1126.2515.2515.2515s.2515-.1126.2515-.2515-.1126-.2515-.2515-.2515-.2515.1126-.2515.2515Z"/>
  <path class="cls-1" d="m49.9385,37.0906c0,.1389.1126.2515.2515.2515s.2515-.1126.2515-.2515-.1126-.2515-.2515-.2515-.2515.1126-.2515.2515Z"/>
  <path class="cls-1" d="m50.6188,33.2513c0,.2835.2299.5133.5134.5133s.5133-.2298.5133-.5133-.2298-.5134-.5133-.5134-.5134.2299-.5134.5134Z"/>
  <path class="cls-1" d="m49.6755,33.5483c0,.1389.1125.2515.2515.2515s.2515-.1126.2515-.2515-.1126-.2515-.2515-.2515-.2515.1126-.2515.2515Z"/>
  <circle class="cls-1" cx="48.8453" cy="35.4437" r=".368"/>
  <circle class="cls-1" cx="49.9351" cy="35.9046" r=".36"/>
  <path class="cls-1" d="m49.1562,37.0536c.136-.0281.2235-.1611.1954-.2971-.0281-.136-.1611-.2235-.2971-.1954-.136.0281-.2235.1611-.1954.2971.0281.136.1611.2235.2971.1954Z"/>
  <path class="cls-1" d="m48.8552,39.6991c.014.1381.1374.2388.2756.2248.1382-.014.2388-.1374.2248-.2756-.014-.1382-.1374-.2388-.2756-.2248-.1382.014-.2388.1374-.2248.2756Z"/>
  <circle class="cls-1" cx="53.332" cy="35.0637" r=".2515"/>
  <path class="cls-1" d="m52.4233,33.7588c0,.1794.1454.325.3249.325s.325-.1455.325-.325-.1454-.325-.325-.325-.3249.1454-.3249.325Z"/>
  <path class="cls-1" d="m51.4204,36.3508c0-.1794-.1455-.3249-.325-.3249s-.325.1454-.325.3249.1455.325.325.325.325-.1454.325-.325Z"/>
  <path class="cls-1" d="m51.1155,34.5681c0-.1794-.1454-.325-.3249-.325s-.325.1455-.325.325.1454.325.325.325.3249-.1455.3249-.325Z"/>
  <circle class="cls-1" cx="50.2383" cy="39.4648" r=".325"/>
  <circle class="cls-1" cx="51.4058" cy="40.7418" r=".325"/>
  <path class="cls-1" d="m50.4565,40.7563c.1794,0,.325-.1454.325-.3249s-.1455-.325-.325-.325-.325.1454-.325.325.1454.3249.325.3249Z"/>
  <circle class="cls-1" cx="52.556" cy="40.0388" r=".325"/>
  <circle class="cls-1" cx="52.9394" cy="37.3824" r=".325"/>
  <circle class="cls-1" cx="52.6382" cy="38.4139" r=".325"/>
  <path class="cls-1" d="m52.0946,34.9085c0,.1389.1126.2515.2515.2515s.2515-.1126.2515-.2515-.1126-.2515-.2515-.2515-.2515.1126-.2515.2515Z"/>
  <path class="cls-1" d="m53.2042,39.0114c-.1389,0-.2515.1126-.2515.2515s.1126.2515.2515.2515.2515-.1125.2515-.2515-.1126-.2515-.2515-.2515Z"/>
  <circle class="cls-1" cx="53.7154" cy="37.8297" r=".2515"/>
  <circle class="cls-1" cx="53.4233" cy="36.4421" r=".2515"/>
  <path class="cls-1" d="m49.8971,27.3952c-.1624.0938-.2181.3014-.1243.4638.0938.1624.3015.218.4638.1243.1624-.0938.2181-.3015.1243-.4638-.0938-.1624-.3014-.218-.4637-.1243Z"/>
  <path class="cls-1" d="m49.95,26.2762c-.1389,0-.2515.1125-.2515.2515s.1126.2515.2515.2515.2515-.1126.2515-.2515-.1126-.2515-.2515-.2515Z"/>
  <circle class="cls-1" cx="28.2819" cy="4.847" r=".2921"/>
  <path class="cls-1" d="m28.3275,5.6345c0,.1351.1095.2446.2445.2446s.2446-.1095.2446-.2446-.1095-.2445-.2446-.2445-.2445.1095-.2445.2445Z"/>
  <path class="cls-1" d="m49.0706,32.5949c0,.2835.2299.5133.5134.5133s.5133-.2298.5133-.5133-.2298-.5134-.5133-.5134-.5134.2299-.5134.5134Z"/>
  <path class="cls-1" d="m49.9282,31.4781c0,.2835.2299.5133.5134.5133s.5133-.2298.5133-.5133-.2298-.5134-.5133-.5134-.5134.2299-.5134.5134Z"/>
  <path class="cls-1" d="m50.7921,38.3037c.0046-.2689-.2502-.5068-.5597-.5297-.3232-.0239-.4053.1827-.4341.4306-.0093.2433.2331.4924.478.5047.2241.0112.5125-.2156.5157-.4056Z"/>
  <path class="cls-1" d="m52.2685,35.5079c-.2383.0183-.4386.1137-.4138.4331-.0043.2816.27.6412.5063.6124.3029-.0369.3492-.3004.3766-.533.0273-.2322-.2492-.5294-.4691-.5125Z"/>
  <path class="cls-1" d="m51.1662,28.0365c-.2383.0183-.4386.1137-.4138.4331-.0043.2816.27.6412.5063.6124.3029-.0369.3492-.3004.3766-.533.0273-.2322-.2492-.5294-.4691-.5125Z"/>
  <path class="cls-1" d="m47.1489,27.3503c-.2383.0183-.4386.1137-.4138.4331-.0043.2816.27.6412.5063.6124.3029-.0369.3492-.3004.3766-.533.0273-.2322-.2492-.5294-.4691-.5125Z"/>
  <path class="cls-1" d="m44.3492,27.8743c-.2383.0183-.4386.1137-.4138.4331-.0043.2816.27.6412.5063.6124.3029-.0369.3492-.3004.3766-.533.0273-.2322-.2492-.5294-.4691-.5125Z"/>
  <path class="cls-1" d="m38.9264,28.8012c-.2383.0183-.4386.1137-.4138.4331-.0043.2816.27.6412.5063.6124.3029-.0369.3492-.3004.3766-.533.0273-.2322-.2492-.5294-.4691-.5125Z"/>
  <path class="cls-1" d="m36.4673,28.6547c-.2383.0183-.4386.1137-.4138.4331-.0043.2816.27.6412.5063.6124.3029-.0369.3492-.3004.3766-.533.0273-.2322-.2492-.5294-.4691-.5125Z"/>
  <path class="cls-1" d="m37.744,27.7521c-.2738-.0098-.4713.1455-.4271.4106.0265.1591.2021.3833.3458.4141.2864.0614.5549-.1759.5458-.3995-.0125-.303-.22-.3992-.4644-.4252Z"/>
  <path class="cls-1" d="m39.4281,25.0657c-.2738-.0098-.4713.1455-.4271.4106.0265.1591.2021.3833.3458.4141.2864.0614.5549-.1759.5458-.3995-.0125-.303-.22-.3992-.4644-.4252Z"/>
  <path class="cls-1" d="m43.3707,25.0005c-.2738-.0098-.4713.1455-.4271.4106.0265.1591.2021.3833.3458.4141.2864.0614.5549-.1759.5458-.3995-.0125-.303-.22-.3992-.4644-.4252Z"/>
  <path class="cls-1" d="m36.6165,26.6002c-.2738-.0098-.4713.1455-.4271.4106.0265.1591.2021.3833.3458.4141.2864.0614.5549-.1759.5458-.3995-.0125-.303-.22-.3992-.4644-.4252Z"/>
  <path class="cls-1" d="m39.9302,27.9045c-.2738-.0098-.4713.1455-.4271.4106.0265.1591.2021.3833.3458.4141.2864.0614.5549-.1759.5458-.3995-.0125-.303-.22-.3992-.4644-.4252Z"/>
  <path class="cls-1" d="m41.0572,13.2375c.2902-.0182.3384-.2421.3763-.4689-.0234-.2583-.1136-.4744-.397-.5161-.2165-.0319-.5128.2921-.5094.5275.0028.1992.3077.4715.5301.4575Z"/>
  <path class="cls-1" d="m41.5104,14.7039c.2902-.0182.3384-.2421.3763-.4689-.0234-.2583-.1136-.4744-.397-.5161-.2165-.0319-.5128.2921-.5094.5275.0028.1992.3077.4715.5301.4575Z"/>
  <path class="cls-1" d="m39.8262,12.3405c.2902-.0182.3384-.2421.3763-.4689-.0234-.2583-.1136-.4744-.397-.5161-.2165-.0319-.5128.2921-.5094.5275.0028.1992.3077.4715.5301.4575Z"/>
  <path class="cls-1" d="m36.4413,16.1084c.2902-.0182.3384-.2421.3763-.4689-.0234-.2583-.1136-.4744-.397-.5161-.2165-.0319-.5128.2921-.5094.5275.0028.1992.3077.4715.5301.4575Z"/>
  <path class="cls-1" d="m40.4522,20.2801c-.0114.2255.2111.4792.4652.4774.2465-.0018.3773-.1599.4033-.3917.0298-.2655-.2086-.5737-.4406-.5773-.3114-.0049-.3894.2157-.4279.4917Z"/>
  <circle class="cls-1" cx="44.3345" cy="13.7976" r=".2921"/>
  <path class="cls-1" d="m38.6224,12.9959c.2902-.0182.3384-.2421.3763-.4689-.0234-.2583-.1136-.4744-.397-.5161-.2165-.0319-.5128.2921-.5094.5275.0028.1992.3077.4715.5301.4575Z"/>
  <path class="cls-1" d="m37.1841,12.8343c.2902-.0182.3384-.2421.3763-.4689-.0234-.2583-.1136-.4744-.397-.5161-.2165-.0319-.5128.2921-.5094.5275.0028.1992.3077.4715.5301.4575Z"/>
  <path class="cls-1" d="m38.7403,11.4704c.2902-.0182.3384-.2421.3763-.4689-.0234-.2583-.1136-.4744-.397-.5161-.2165-.0319-.5128.2921-.5094.5275.0028.1992.3077.4715.5301.4575Z"/>
  <path class="cls-1" d="m34.5135,14.5979c.2139,0,.3873-.1734.3873-.3873s-.1734-.3873-.3873-.3873-.3873.1734-.3873.3873.1734.3873.3873.3873Z"/>
  <path class="cls-1" d="m33.5881,15.8008c.2139,0,.3873-.1734.3873-.3873s-.1734-.3873-.3873-.3873-.3873.1734-.3873.3873.1734.3873.3873.3873Z"/>
  <path class="cls-1" d="m37.294,11.3174c.2902-.0182.3384-.2421.3763-.4689-.0234-.2583-.1136-.4744-.397-.5161-.2165-.0319-.5128.2921-.5094.5275.0028.1992.3077.4715.5301.4575Z"/>
  <path class="cls-1" d="m33.2547,9.9716c.2902-.0182.3384-.2421.3763-.4689-.0234-.2583-.1136-.4744-.397-.5161-.2165-.0319-.5128.2921-.5094.5275.0028.1992.3077.4715.5301.4575Z"/>
  <path class="cls-1" d="m27.4445,13.6161c.2902-.0182.3384-.2421.3763-.4689-.0234-.2583-.1136-.4744-.397-.5161-.2165-.0319-.5128.2921-.5094.5275.0028.1992.3077.4715.5301.4575Z"/>
  <path class="cls-1" d="m30.9206,7.4199c.2902-.0182.3384-.2421.3763-.4689-.0234-.2583-.1136-.4744-.397-.5161-.2165-.0319-.5128.2921-.5094.5275.0028.1992.3077.4715.5301.4575Z"/>
  <path class="cls-1" d="m33.018,7.236c.2902-.0182.3384-.2421.3763-.4689-.0234-.2583-.1136-.4744-.397-.5161-.2165-.0319-.5128.2921-.5094.5275.0028.1992.3077.4715.5301.4575Z"/>
  <path class="cls-1" d="m27.4445,11.9951c.2902-.0182.3384-.2421.3763-.4689-.0234-.2583-.1136-.4744-.397-.5161-.2165-.0319-.5128.2921-.5094.5275.0028.1992.3077.4715.5301.4575Z"/>
  <path class="cls-1" d="m24.7476,14.9376c.2902-.0182.3384-.2421.3763-.4689-.0234-.2583-.1136-.4744-.397-.5161-.2165-.0319-.5128.2921-.5094.5275.0028.1992.3077.4715.5301.4575Z"/>
  <path class="cls-1" d="m26.9913,5.1672c.2902-.0182.3384-.2421.3763-.4689-.0234-.2583-.1136-.4744-.397-.5161-.2165-.0319-.5128.2921-.5094.5275.0028.1992.3077.4715.5301.4575Z"/>
  <path class="cls-1" d="m25.6047,3.5725c.2902-.0182.3384-.2421.3763-.4689-.0234-.2583-.1136-.4744-.397-.5161-.2165-.0319-.5128.2921-.5094.5275.0028.1992.3077.4715.5301.4575Z"/>
  <path class="cls-1" d="m27.314,3.369c.2902-.0182.3384-.2421.3763-.4689-.0234-.2583-.1136-.4744-.397-.5161-.2165-.0319-.5128.2921-.5094.5275.0028.1992.3077.4715.5301.4575Z"/>
  <path class="cls-1" d="m23.5706,3.6698c.2903-.0297.3966-.2237.3891-.4969.0005-.2498-.1959-.4736-.4204-.4789-.1955-.0046-.4454.2612-.4485.477-.0031.2166.2748.5198.4798.4988Z"/>
  <path class="cls-1" d="m19.4492,8.9809c.0333-.2011-.1028-.3911-.304-.4243-.2011-.0333-.3911.1028-.4243.3039-.0333.2012.1028.3911.304.4244s.3911-.1028.4243-.304Z"/>
  <path class="cls-1" d="m19.1729,4.5347c.0333-.2011-.1028-.3911-.304-.4243-.2011-.0333-.3911.1028-.4243.3039-.0333.2012.1028.3911.304.4244s.3911-.1028.4243-.304Z"/>
  <path class="cls-1" d="m17.9166,7.1935c.0333-.2011-.1028-.3911-.304-.4243-.2011-.0333-.3911.1028-.4243.3039-.0333.2012.1028.3911.304.4244s.3911-.1028.4243-.304Z"/>
  <path class="cls-1" d="m15.8639,9.2474c0-.2139-.1733-.3872-.3871-.3872s-.3872.1733-.3872.3872.1734.3871.3872.3871.3871-.1733.3871-.3871Z"/>
  <path class="cls-1" d="m14.7895,16.5382c.0231-.3015-.2736-.6332-.5626-.6389-.2989-.0059-.5101.1675-.5176.425-.0097.337.2723.6318.6106.636.285.0035.4478-.1365.4696-.4221Z"/>
  <path class="cls-1" d="m14.4973,15.2583c.0231-.3015-.2736-.6332-.5626-.6389-.2989-.0059-.5101.1675-.5176.425-.0097.337.2723.6318.6106.636.285.0035.4478-.1365.4696-.4221Z"/>
  <path class="cls-1" d="m12.237,15.389c0,.2164.1731.3918.3867.3918s.3866-.1754.3866-.3918-.1731-.3918-.3866-.3918-.3867.1754-.3867.3918Z"/>
  <path class="cls-1" d="m10.8918,16.1096c.0231-.3015-.2736-.6332-.5626-.6389-.2989-.0059-.5101.1675-.5176.425-.0097.337.2723.6318.6106.636.285.0035.4478-.1365.4696-.4221Z"/>
  <path class="cls-1" d="m9.2286,15.3948c.0231-.3015-.2736-.6332-.5626-.6389-.2989-.0059-.5101.1675-.5176.425-.0097.337.2723.6318.6106.636.285.0035.4478-.1365.4696-.4221Z"/>
  <path class="cls-1" d="m11.9984,20.3298c.0231-.3015-.2736-.6332-.5626-.6389-.2989-.0059-.5101.1675-.5176.425-.0097.337.2723.6318.6106.636.285.0035.4478-.1365.4696-.4221Z"/>
  <path class="cls-1" d="m14.3231,22.5712c.0231-.3015-.2736-.6332-.5626-.6389-.2989-.0059-.5101.1675-.5176.425-.0097.337.2723.6318.6106.636.285.0035.4478-.1365.4696-.4221Z"/>
  <path class="cls-1" d="m15.7242,23.1018c.0231-.3015-.2736-.6332-.5626-.6389-.2989-.0059-.5101.1675-.5176.425-.0097.337.2723.6318.6106.636.285.0035.4478-.1365.4696-.4221Z"/>
  <path class="cls-1" d="m12.7119,17.9948c.0231-.3015-.2736-.6332-.5626-.6389-.2989-.0059-.5101.1675-.5176.425-.0097.337.2723.6318.6106.636.285.0035.4478-.1365.4696-.4221Z"/>
  <path class="cls-1" d="m31.5376,9.3176c.0231-.3015-.2736-.6332-.5626-.6389-.2989-.0059-.5101.1675-.5176.425-.0097.337.2723.6318.6106.636.285.0035.4478-.1365.4696-.4221Z"/>
  <path class="cls-1" d="m14.3449,9.2092c0-.2139-.1733-.3872-.3871-.3872s-.3872.1733-.3872.3872.1734.3871.3872.3871.3871-.1733.3871-.3871Z"/>
  <path class="cls-1" d="m11.754,16.9934c.2734.0094.5869-.2097.602-.4207.0189-.2638-.2101-.4962-.5048-.5124-.3337-.0184-.6136.2067-.621.4996-.0057.2268.2319.4235.5239.4334Z"/>
  <path class="cls-1" d="m16.3929,16.1451c0-.2378-.1927-.4306-.4305-.4306s-.4306.1928-.4306.4306.1928.4305.4306.4305.4305-.1927.4305-.4305Z"/>
</svg>