<?xml version="1.0" encoding="UTF-8"?>
<svg id="Ebene_2" data-name="Ebene 2" xmlns="http://www.w3.org/2000/svg" viewBox="0 0 37.5698 104.2919">
  <defs>
    <style>
      .cls-1 {
        fill: #6a4e3b;
        stroke-width: 0px;
      }
    </style>
  </defs>
  <g>
    <path class="cls-1" d="m33.8466,90.2313c-.9129-.0263-.9037-.1095-1.0388-.965-.1023-.6508-1.9007-7.9258-1.9007-7.9258l-1.7505-7.1255s-.2343-.8521-.0083-.8991c.2237-.0465.4625.9007.4625.9007l1.9718,7.6924,1.5519,6.104s.3903,1.6124.4938,1.6855c.1146.0809,1.1593.0458,1.1593.0458,0,0,.493-.0016.7011,0,.576.0043,1.3384.0272,1.4297-.055.0721-.0649-.3849-1.2564-.6405-1.865-.6451-1.8257-1.027-2.7148-1.5458-4.2296-.6873-2.0068-1.9938-5.6134-2.1909-6.2349s-.9863-2.995-1.3237-4.044c-.4759-1.4798-1.0733-3.4526-.995-3.195s-.2352-.658.0411-.6692.568,1.1403.7666,1.7255c.3362.991.6068,1.9466.9014,2.9519.0316.1078.163.6166.2079.7205.0847-.1044.2003-.5354.2397-.6547.1405-.4253.2111-.906.3087-1.3428.2108-.9433.5301-1.7653,1.2566-2.5099.4768-.4887.5168-1.4.7667-2.117.0938-.269.0701-.7821.3437-.7851s.4288.5102.4209.7582c-.0587,1.8459-.0046,3.6901-1.1677,5.3476-.4151.5915-.4499,1.5497-.4219,2.3321.0543,1.5201.2133,3.0441.4514,4.5471.1433.9047.4785,1.7872.7963,2.6543.647,1.7656,1.0227,2.8551,1.7161,4.6782,0,0,.4212,1.0795.6138,1.7005.1914.6174.1625.7948-.4123.7948-.9223,0-3.2048-.0214-3.2048-.0214Zm-6.5878,8.3527c-.1903-1.5442-.3375-3.0041-.4786-4.5528-.462-5.071-.8831-10.1457-1.335-15.2177-.412-4.6248-.8434-9.2478-1.2667-13.8715-.1556-1.6996-.3329-3.3976-.4593-5.0994-.0226-.3047-.0532-.7177-.0984-.7751-.0378-.0481-1.4158.015-1.4158.015l-1.5322.0511s-1.5373.0152-1.6007.0965.0741,1.2223.0741,1.2223c0,0,.0593.7149.0828,1.0432.2333,3.2557.4402,6.5135.6982,9.7672.3411,4.3013.7358,8.5983,1.081,12.8993.4387,5.4672.7917,10.865,1.2236,16.3327.0565.715.0852.9676.1217,1.7162.0091.2647.0848,1.2025.2434,1.2293,1.0382.1755,2.3407.1604,3.3898.1826.7157.0152,1.3936.0243,1.5275-.1582.1778-.2424.1097-.8669.0782-1.4017l-.3338-3.479ZM.7326,93.7882c-.0882.3073-.228.6676-.1581.8454.0836.2127.3368.3093.8385.5705.5479.2852,1.148.5851,1.3112.525.1306-.0481.224-.3888.3574-.7423.0739-.1957.1266-.3407.1945-.5389.6302-1.8396,1.2598-3.6793,1.8935-5.5177,1.4416-4.1826,2.8855-8.3645,4.3284-12.5467.6216-1.8016,1.388-3.9369,1.9895-5.7453.0593-.1782.0271-.3637-.1379-.8128s-.375-1.1538-.349-1.8041c.0232-.5803.0524-1.1264.2665-1.935.1467-.5541.4003-1.0682.4385-1.4663.0692-.7208-.1773-1.0035-.4018-1.3976s-.4809-.4089-.6864.0285c-.2261.4815-.3838.9961-.5598,1.5003-.7584,2.1736-1.5488,4.3369-2.2567,6.5269-.5458,1.6887-1.0955,3.157-1.6507,4.8312-1.0137,3.0564-2.0878,6.3289-3.0182,9.4154-.6818,2.2617-1.3055,4.4997-1.9527,6.7719-.1211.4252-.2474.7973-.4468,1.4915Zm11.7556-40.5952c-.018.1741-.0561.3826-.0583.5914-.0099.9404.0918,2.2575.6577,3.0958.1645.2036,1.0243-.1662,1.1415-.2058s.1734-.2008.0183-.8764-.4186-2.3877-.3954-3.6918c.0349-1.9605,1.244-3.4447,2.2661-4.9932,1.4043-2.1276,1.8894-4.3737.8022-6.8058-.2195-.4911-.4112-.9984-.5701-1.5123-.8628-2.7909-1.3893-5.5938-.9507-8.5621.1807-1.2229-.1654-2.5314-.3327-3.7928-.0392-.2953-.304-.5743-.5032-.8311-.2479-.3196-.4467-.2354-.5356.1358-.4798,2.0053-1.1298,3.9891-1.3929,6.0228-.4247,3.2832.1216,6.5111,1.1972,9.6361.8914,2.5902.8023,5.1203-.3727,7.5981-.625,1.3181-1.0427,2.6784-.9714,4.1914Zm9.4029,5.1641c.4017-.0122,1.1868-.0119,1.5372-.0491-.0962-.4261-.3694-1.1089-.5726-1.4602-.1627-.2812-.5597-.732-.7196-1.0142-.1864-.3292-.452-.6533-.5372-1.6757s.184-1.3316.333-2.4241c.1773-1.3003.533-2.5796.6582-3.8827.1273-1.3245-.1483-2.77-.8025-3.9568-.0764-.1386-.7415-1.4496-.8672-1.561-.0341.1367.292,1.1388.2556,1.9079s-.415,1.6394-.8369,2.4506c-.6199,1.192-1.4127,2.2931-2.0524,3.4759-.8434,1.5593-1.344,3.2102-.8691,5.0068.191.7228.3629,1.4644.6711,2.1391.4254.9314.3943,1.2504,1.7454,1.1774.2562-.0208.8869-.0759,1.0954-.0852l.9616-.0487ZM3.4025,95.6355c-.0163.0914-.1032.2081-.0437.2952.0848.1239.6232.0412.6232.0412,0,0,.5819-.0642.7354-.2154.105-.1035.193-.4186.2268-.5155.9494-2.8725,1.7126-5.2794,2.6736-8.0467.9222-2.6558,1.8258-5.3185,2.6947-7.9922.7202-2.2159,1.4593-4.2969,2.1046-6.5357.0259-.09.1574-.4997.142-.5544-.0241-.0859-.126-.1375-.3597-.5063s-.2589-.4559-.291-.4559c-.0412,0-.1655.3094-.2121.4499-.6429,1.6988-1.2934,3.3958-1.8798,5.1147-2.0099,5.8913-3.9969,11.7905-5.9891,17.6879-.1533.4538-.3184.8802-.425,1.2334Zm5.9245-30.5992c-.1119-.2365-.3642-.4005-.5568-.5934-1.0328-1.0334-1.1814-2.115-1.362-3.4988-.1429-1.0946-.4286-2.1144-1.0114-2.6721s-1.3393-1.2606-1.5005-1.3016c-.0112.1429.3903,1.0151.539,1.6059s-.0417,3.6186-.049,5.5287c-.0072,1.9077.5951,3.5625,2.1119,4.8223.3457.2871.4695.2395.5936-.158.1775-.5684.3779-1.1298.5786-1.6906.1909-.5333.4313-1.4386.6567-2.0424Zm23.1594,10.5618c.1311.4896.2799,1.1515.422,1.589.0506.1558.5455,1.8061.6625,1.8144s-.213-1.6408-.2275-1.8174c-.1055-1.2811-.2545-2.5668.3582-3.7735.2146-.4226.5608-.7893.7162-1.228.1696-.4788.4512-1.1791.5608-3.37-.1569,1.7442-1.3205,2.5953-1.4768,3.0836-.4164,1.3006-.7137,2.3355-1.0153,3.702Zm-19.2914-18.0173s.9268.7066,1.6416,1.6345c.7148.9279.6814.9336.8935,1.2922s.3614.7106.5214.9925c.1656.4485.4145.8851.4808,1.3478.1887,1.317.5731,2.2432,1.4859,3.2017.1701.208.6601.8582.8371.995.0177-.2018-.0611-.8257-.0726-1.0259-.0479-.8503-.1647-2.7678-.1528-2.5901-.1514-2.0529-.0962-3.3748-.9073-4.9276-.0457-.0795-.0687-.1415-.1053-.2239-1.5701-3.1251-1.3824-6.1574.4714-9.1065.6627-1.0542,1.6182-2.3643,2.0746-3.6241.5112-1.5884.4765-2.081-.0969-3.3599-.0779-.1737-.0147-.5826.0958-.6325.2185-.0986.6947-.1157.7531-.0037.6061,1.1617,1.2378,2.3234,1.6911,3.5485.6842,1.8491.2734,3.7238-.1069,5.5818-.1857.907-.3603,1.8208-.4581,2.7402-.1039.9772.0799,1.8647.8022,2.6544.884.9663,1.0809,2.1904,1.1499,3.4976.1418,2.6888.4316,5.37.671,8.0535.2741,3.0721.5557,6.1436.8411,9.2148.4269,4.5944.9474,9.1823,1.2599,13.7845.2143,3.1562.5365,5.7554.926,8.8592.1917,1.2125.2636,2.3737.3286,3.5784.0129.2445.0258.6482-.1339.8642-.1425.1926-.4486.2106-.601.2305-1.0881.184-1.8686.1376-3.1357.0981-.4749-.0064-1.0894-.0401-1.4743-.0951-1.0222-.1459-1.0149-.1402-1.0887-1.2131-.3963-5.7619-.7731-11.5252-1.2036-17.2845-.357-4.7757-.8315-9.543-1.1492-14.321-.1506-2.2646-1.0701-4.1192-2.4131-5.8607-.3465-.4493-.5171-1.0445-.7236-1.5897-.3263-.8614-.5504-1.7667-.9322-2.6009-.8227-1.7974-2.2561-3.0372-3.8977-4.0726-.9889-.6238-1.4886-1.5889-1.8081-2.6896-.3741-1.2889-.7279-2.5956-1.2584-3.8218-.252-.5824-.7646-1.1215-1.3326-1.4898-.0987-.051-.5018-.2749-.543-.2337s.1831.4221.2244.5184c.795,1.8502.9333,3.818,1.1319,5.7912.2488,2.4717,1.495,4.5304,3.0757,6.3717,1.035,1.2057,1.7637,2.4015,1.0785,4.0569-.8317,2.0095-.3617,3.8732.8102,5.5986.3421.5037.3883.5897.9193,1.0669.3887.3494.9193.4987.8467.7723s-.5308.1005-.8461-.0486-.7477-.691-.785-.6416c-.1925.4536-.3917,1.1629-.543,1.6061-1.8179,5.3263-3.6022,10.7471-5.3944,16.0821-.6188,1.8422-.9546,2.9324-1.5352,4.7872-.3114.9948-.3773,1.1806-.6938,1.3024s-1.5793.2465-1.9687.1004-2.2421-1.066-2.6767-1.3084c-.3574-.1993-.0559-.9033.069-1.3724.1317-.4945.333-1.1586.5143-1.7578.7618-2.5168,1.4875-5.0445,2.2451-7.5627.8-2.6591,1.6828-5.3136,2.5412-7.954.6102-1.8768,1.2264-3.7301,1.9093-5.5827.1636-.4439.1546-.7977-.2387-1.1542-1.7675-1.6022-2.6139-3.512-2.4272-5.9295.1169-1.5145.1618-3.0429.1043-4.5599-.0439-1.1581-.5509-2.1943-1.3571-3.0559-.1225-.1309-.2687-.299-.3651-.4456-.1098-.1901-.3574-.543-.1993-.7148s.6879.1457.8454.2818c.3804.3288.701.645,1.0651.9958.3629.3496.6694.6329,1.1198.9616,1.1563.8764,1.6289,1.7742,1.8845,2.9732.1801.8448.375,1.6868.5857,2.5245.0496.1974.3362.8923.4753,1.0384.2382.2502.4869.6086.5781.5903s.3382-.9601.4534-1.2563c.213-.6516.1001-1.1933-.3088-1.817-1.494-2.2791-2.4989-4.7272-2.5615-7.5393-.0394-1.7703-.4816-3.4948-1.7092-4.9085-.1206-.1389-.1169-.5574.0022-.688.1342-.1472.4948-.2122.7047-.1463,2.0711.6504,3.0522,2.2454,3.5978,4.218.279,1.0086.5224,2.0407.942,2.9914.2362.5352.5591.8867,1.0338,1.3136.1164.0955.4929.3012.566.2556s-.0203-.3515-.0497-.4536c-.6248-2.1719-.5427-4.3163.2551-6.4286.2211-.5853.487-1.1536.7287-1.7312.9095-2.174.8291-4.3265.086-6.5563-1.1675-3.5033-1.692-7.1117-1.0547-10.7953.2543-1.4698.6804-2.9123,1.0753-4.3543.2498-.9122.4578-1.7884.0074-2.7079-.1033-.2109-.1089-.7485.0468-.808s.4843.341.6425.5697c.2497.361.3614.8305.6468,1.1515.8267.9298,1.3871,1.9415,1.3636,3.2261-.0039.2116.0725.5854.2026.6386s.4194-.2411.5552-.4183c1.1597-1.514,2.3469-3.0104,3.4265-4.5805.4112-.5981.5376-1.3865.8486-2.0629.0956-.2079.3736-.4679.5669-.467.4351.002.3475.3582.2995.6706-.2948,1.9162-.1986,3.8203.2515,5.7019.074.3092.2668.5999.4451.8726,2.1026,3.2151,3.6152,6.6889,4.4128,10.445.4502,2.1203.5189,4.2765-.0031,6.4144-.5323,2.1799-1.1315,4.3463-1.5752,6.5441-.4033,1.998-.0654,4.0023.3076,5.9797.0698.3699.1897.8246.2923,1.1938.1463.5262.5637.2367.7845-.0158.472-.5399.93-1.0946,1.3591-1.6692.6389-.8558,1.3196-1.6925,1.851-2.6133.639-1.1073.6384-2.335.3888-3.5815-.1462-.7302-.1926-1.483-.2395-2.2284-.0098-.1555-.0404-.4303.1733-.4857s.4317.1817.4768.3139c.4392,1.2877,1.3798,2.1363,2.424,2.9267.9693.7337,1.3748,2.1586.8757,3.422-.392.9924-.8619,2.0115-1.5327,2.824-1.4131,1.7116-1.9859,3.5779-1.9638,5.7981.0171,1.7129-.1969,3.4471-.4262,4.2949s-.6648,1.9516-.9015,2.4933-1.5651,4.0244-1.416,6.2509c.0111.1659.0018.4814-.1651.5109s-.2547-.2633-.2902-.4163c-.0654-.2817-.1062-.5839-.0789-.8701.2157-2.2617.9414-4.3833,1.8274-6.455.8192-1.9155,1.0299-3.9248.9511-5.9774-.0439-1.1445-.0451-2.2891.4941-3.3247.4094-.7862.9662-1.4942,1.4085-2.265.5904-1.0288,1.2296-2.0463,1.6676-3.1409.3767-.9416-.0487-1.8399-.7396-2.5372-.524-.5288-1.0442-1.0941-1.6147-1.6096-.1993-.2612-.5197-.7271-.598-.7561-.0241.1046.1312.898.1512,1.0516.0687.7286.1936,1.5766.1166,2.3106-.1313,1.2522-.7357,2.3227-1.5373,3.2817-1.075,1.2861-2.206,2.5312-3.1945,3.8809-.3772.5151-.407.9924-.5794,1.6453-.0507.1919-.0696.6819-.11.8798-.0352.1726-.0043.49-.182.4991s-.3385-.3249-.3227-.4667c.082-.7379.1336-1.4414.3864-2.1852.2351-.6446.2536-.9732.0758-1.5641-.7955-2.6439-1.0358-5.3552-.4982-8.08.3299-1.6723.7703-3.3256,1.2261-4.9694.8344-3.0093.6113-5.9686-.2525-8.9287-.8372-2.8691-2.0675-5.5457-3.7609-8.0068-.9516-1.3831-1.0171-2.9631-1.0554-4.5565-.009-.3752-.0858-.7487-.1314-1.123-.2291.2615-.4745.5106-.6847.7865-1.1236,1.4754-2.2278,2.9656-3.359,4.4351-1.2359,1.6056-1.414,3.3871-1.1772,5.3529.2976,2.4704,1.1406,4.7584,1.9218,7.084.729,2.1703.0727,4.1885-.9366,6.1117-.3325.6336-.7737,1.2114-1.1788,1.8055-1.6751,2.4564-1.5825,5.0581-.6138,7.7181.09.2472.2913.4873.5332.6142.7133.3742,2.0451.9561,2.062,1.0264s-.8922,3.1112-.8922,3.1112c-.48.0089-.3183-.4055-.2068-.8335.1655-.5369.098-.3053.2433-.8462.0551-.2054.157-.5311.212-.7991l.0962-.4049c-.1785-.1491-.9668-.5268-1.3945-.7221-.3999-.1825-.9445-.4571-1.2963-.6116l-1.1984.4134Z"/>
    <path class="cls-1" d="m13.5266,88.1395c-.2545,1.1124-.4673,2.1387-.7258,3.1534-.6057,2.3779-1.2219,4.7534-1.8607,7.1226-.1479.5485-.2103.8444.3038,1.0084.6547.2088,1.6564.4641,2.3187.6481.4424.123.6152.3045.7485-.1917.4494-1.6723.9628-3.6578,1.378-5.3381.4012-1.6236.725-3.2672,1.0532-4.9079.6494-3.2466,1.2784-6.4973,1.9157-9.7463.0115-.0588.0229-.1283.0504-.2382.0733-.2933.2233-.6483.3832-.6483s.0336.7117.0028.9602c-.1287,1.0385-.2624,1.8759-.45,2.904-.4018,2.2023-.809,4.4054-1.2934,6.5905-.7051,3.1805-1.4854,6.3442-2.2185,9.5186-.0864.3741-.1734.5495-.2738,1.0607s-.3711.9022-1.0772.639c-1.1061-.4123-2.0951-.5795-3.1774-1.0526-.5343-.2335-.3584-.4139-.115-1.33s.4705-1.7077.7146-2.686c.6126-2.4545,1.1575-4.9259,1.7437-7.3872.0429-.1802.143-.5066.3036-.499.134.0064.3343.068.2752.4198Z"/>
    <path class="cls-1" d="m15.9049,17.068c-.0663.5189-.2037,1.1393-.2105,1.7611-.0087.7901.099,1.5809.1321,2.3725.0076.1828-.0043.4445-.1299.5549s-.4075-.0537-.526-.1686c-1.2625-1.2236-1.4039-2.7852-1.1584-4.3875.1072-.7001.2316-1.3332-.1183-1.9913-.0737-.1387-.0226-.411.0749-.5476.0554-.0777.3419-.0541.4888.008.8665.3663,1.4754,1.3496,1.4475,2.3986Zm-1.4354,1.0622c-.0415.7586.0338,1.1058.2056,1.6666s.4616.9683.5369.9746-.073-.2434-.0974-1.1806.0938-1.5938.1797-2.4845c.0223-.2314-.0473-.4749-.0973-.708-.0154-.0718-.0488-.1892-.1615-.1908s-.1402.0947-.1562.1562c-.1649.6322-.3684,1.0079-.4099,1.7665Z"/>
    <path class="cls-1" d="m29.162,35.607c-.0769-1.1289.4114-3.567,1.7583-4.791.1536-.1395.1647-.1672.5177-.306s.9018-.0487,1.1903.1821c.1644.1315.0896.7842-.086,1.0771-.472.7875-1.0645,1.5018-1.5931,2.2564-.5471.781-.8132,1.6454-.758,2.6113.0089.1565-.1101.4618-.2438.485s-.3379-.1675-.3889-.2976c-.1821-.4643-.3539-.5832-.3965-1.2172Zm.5676-.9874c-.008.1931-.0901.9947.0183,1.0315s-.0129-.2444.2583-.9255,2.0021-2.72,2.0148-3.2736c.0127-.5565-.2502-.4221-.3997-.4059-.1878.0367-.4167.2895-.5442.4373-.7221.837-1.2196,2.0708-1.3475,3.1363Z"/>
    <path class="cls-1" d="m23.9227,22.2687c.1083-.6746.1706-1.3617.3476-2.0177.0699-.2591.3761-.6029.6088-.6316.2867-.0353.6944.1394.8988.3622.5068.5525.4795,1.2541.3165,1.947-.1296.551-.3432,1.0941-.3851,1.6508-.0521.6937.0504,1.3978.0511,2.0974.0003.2347.0505.6422-.1648.7043s-.5455-.17-.6158-.3393c-.5004-1.2056-1.0801-2.3993-1.0571-3.7732Zm1.726-1.0842c.0032-.2262-.3222-.7943-.5118-.7943s-.4864.4755-.5033.7285c-.0529.7898-.152,1.4827.027,2.3813s.4586,1.4945.5442,1.495-.0458-.8712-.0487-1.777.4894-1.8072.4926-2.0334Z"/>
    <path class="cls-1" d="m8.4943,27.941c-.0294.2665-.0507.5341-.0896.7992-.1258.8577.121,1.5792.7328,2.1979.4785.4839.928.9973,1.3758,1.5103.0851.0975.2353.2503.1499.3846s-.3652.0887-.4758.0188c-.2739-.173-.5065-.4121-.7534-.6273-.761-.663-1.514-1.3355-2.2831-1.9889-.8739-.7425-1.132-1.8214-.5867-2.7903.2564-.4556.6503-.801,1.2482-.6123.5348.1688.7392.5655.6818,1.1079Zm-.7028.5161c.0206-.2887.1784-.6505.008-.8818s-.499-.0609-.6694.1826-.1909.3212-.2252.6855.0962.8111.2612,1.0585.7976.9656.9865.8729-.251-1.2097-.306-1.4434-.0756-.1856-.055-.4743Z"/>
    <path class="cls-1" d="m12.0461,81.0106c.0365.2373.1726.58.5269.9233,1.0358,1.0034,1.5178,2.131,1.4044,3.6039-.107,1.3897.6329,2.3784,1.8847,2.9925.1991.0977.571.2752.496.4998s-.7356.0557-.9331-.0585c-1.3482-.7797-2.2313-1.7421-2.0811-3.3756.1233-1.3413-.475-2.3099-1.2597-3.1992-.4848-.5494-.6362-1.1431-.6471-1.7994-.0046-.2754.1264-.8315.3045-.8315s.3252.1038.2977.5024c-.0101.1463-.0296.505.0069.7423Z"/>
    <path class="cls-1" d="m17.8095,12.4438c-.0016-.0299-.0008.3803-.003-.0886s.4282-1.1149.627-1.1151.6314.4928.8043.9346.3148,1.8259.5462,2.72c.1702.6576.5073,1.2704.7284,1.9174.0751.2198.1809.647.0294.7264s-.5465-.1119-.7381-.2681c-1.5265-1.245-1.7764-3.0317-1.9941-4.8266Zm.5184.5014c-.003.2074.6102,2.2846.7981,2.7307s.6042.8788.7234.8478-.2313-.5234-.4625-1.1806-.3372-1.7446-.5842-2.6899c-.0361-.1381-.2487-.2821-.3615-.2821s-.1102.3669-.1132.5743Z"/>
    <path class="cls-1" d="m33.7362,41.3304c.6507.0112.9776.4398.6303,1.0111-.3953.6504-.9227,1.24-1.4739,1.7715-.8773.8458-1.8152,1.6294-2.7445,2.4192-.1552.1319-.4529.3616-.5985.2388s.0676-.4225.1715-.5903c.78-1.2602,1.5718-2.5131,2.3727-3.7601.4309-.671,1.1008-1.0995,1.6424-1.0902Zm.1694.9302c.0008-.1646-.5216-.5906-.8684-.1324-.4919.5821-.939,1.2921-1.3953,1.9039-.0245.0329-.8569,1.1514-.7904,1.2372s1.1707-1.0292,1.2392-1.0906c.3983-.3566.7897-.7221,1.1656-1.1022.1844-.1864.6485-.6514.6492-.816Z"/>
    <path class="cls-1" d="m32.3738,66.512c.2845-1.9219.7403-3.2501,1.9537-4.6931.3415-.4061.809-.7778,1.3031-.3343.4887.4387.2376.9503-.0832,1.4491-.8704,1.3537-1.6884,2.7411-2.5477,4.1022-.1111.1759-.2925.48-.5193.4101s-.1236-.7389-.1066-.9341Zm2.948-4.2843c0-.1672-.2466-.3773-.3798-.3044s-.8632.9375-.9981,1.1928c-.4015.7602-.4579,1.085-.7979,1.8768-.0414.0965-.3152.9537-.2001,1.0444s.6341-.9262.6938-1.0102c.5861-.826.9029-1.5565,1.4797-2.389.0667-.0963.2025-.2431.2025-.4103Z"/>
    <path class="cls-1" d="m17.4607,1.1357c.2921.7851.2649,1.2339.0978,1.8557s-.1387,1.3991.1611,2.1869c.063.1655.0238.5424-.1161.6127s-.422-.2138-.5125-.3847c-.6679-1.2601-1.5075-2.5453-1.3631-3.9511s.5176-1.4552.6642-1.4552.7765.3506,1.0686,1.1357Zm-1.1126,1.1849c.0902.7777.4864,1.8001.6562,1.8001s.1552-1.5519.1095-2.0813-.4175-.9858-.5842-.9859-.2717.4894-.1815,1.2671Z"/>
    <path class="cls-1" d="m13.1906,67.2151c-.0146-.1486-.0207-.3051-.0322-.4426.0046-.1856.0112-.3898.2671-.3898s.268.2324.2937.3691c.0766.4069.0527.8353.1501,1.2353.2417.9915.8357,1.762,1.5996,2.4225.5631.4869,1.0865,1.0196,1.6452,1.5118.8545.7527,1.1842,1.7733,1.4608,2.8191.0367.1386.0735.384-.1046.4507-.1849.0692-.2204.0178-.3616-.0678-.0393-.0238-.1183-.2445-.1271-.3026-.3047-2.0029-1.9404-2.9824-3.248-4.2047-.9936-.9288-1.4-2.0994-1.543-3.4011Z"/>
    <path class="cls-1" d="m7.7862,40.9128c-.4036-.7522.3596-1.4724.8429-1.5928.7061-.1759,1.1577.1285,1.4282.7609.1645.3845.3303.7703.4622,1.1666.2156.648.4265,1.2996.5895,1.9619.0472.1918-.0111.536-.1387.6117-.1517.09-.5023.0464-.6418-.0788-.7306-.6559-1.1856-1.0239-1.8596-1.7377-.2326-.2464-.2792-.3397-.6827-1.0918Zm2.3963,1.3225c.0391-.3676-.3461-1.1615-.5562-1.6188-.111-.2417-.3396-.491-.5761-.5883-.1273-.0524-.5281.1865-.5508.3334-.0451.2917-.0039.6782.1647.9031.2805.3743.6799.6641,1.0519.9612.0808.0645.4275.377.4666.0094Z"/>
    <path class="cls-1" d="m13.4024,74.9758c.1146.0046.2887.1191.3292.5054.1269,1.2095.536,1.3559,1.1238,1.9992s.6857,1.4801.7692,2.2507c.1401,1.2937.4942,2.1475,1.6307,3.1324.0985.067.2678.2001.1468.4201s-.5477.0501-.6409-.0679c-.4966-.6283-.9764-1.2791-1.3738-1.9727-.1811-.3163-.2693-.88-.3002-1.2631-.095-1.1779-.0639-1.4058-1.2689-2.8116-.7193-.8392-.6618-1.7395-.6676-1.9332s.1205-.2644.2517-.2591Z"/>
    <path class="cls-1" d="m27.0832,87.286c-.1624.0005-.0321-.3952.0072-.4612,1.0378-1.7429.2055-4.0533,1.0113-5.8165.3797-.8309.7757-1.3714,1.2485-2.1556.0695-.1153.216-.3575.4222-.2202s.0601.4222-.0345.5395c-1.1187,1.3871-1.6833,2.6552-1.5998,4.4531.0427.9189-.249,2.616-.4552,3.0834s-.4374.5769-.5998.5774Z"/>
    <path class="cls-1" d="m31.3549,86.0586c0,.2017-.5756.3712-.8677.8133s-.3902.8608-.4382,1.2963-.0612,1.0623-.1625,1.5701c-.1221.612-.3487,1.1411-.6317,1.7618-.1187.21-.3532.378-.5189.378s.0342-.3782.1292-.5301c.6598-1.0954.6552-2.2481.7642-3.4033.0811-.8591.3716-1.573,1.2054-1.9468.1069-.0479.5202-.1412.5202.0606Z"/>
  </g>
  <path class="cls-1" d="m13.3245,57.6092s2.2682,1.283,2.3988,1.2899,1.3747-.598,1.3747-.598l.2818.3437s-1.4923.609-1.5237.723l-.339,1.2291-.2818-.433s.118-.7446.0934-.8569-2.2575-1.3683-2.2575-1.3683l.1434-.4142.11.0848Z"/>
</svg>