<svg xmlns="http://www.w3.org/2000/svg" xmlns:xlink="http://www.w3.org/1999/xlink" width="352" height="87" viewBox="0 0 352 87">
  <defs>
    <clipPath id="clip-logo-neu-weiss">
      <rect width="352" height="87"/>
    </clipPath>
  </defs>
  <g id="logo-neu-weiss" clip-path="url(#clip-logo-neu-weiss)">
    <path id="Pfad_19" data-name="Pfad 19" d="M34.1,52.12c-6.08,0-10.4,3.68-13.68,8.24V52.28H20.1L12.34,55v.48c2.72.48,4.08,2.4,4.08,7.52v41.92c0,5.12-.24,7.84-3.52,7.84v.48H23.94v-.48c-3.28,0-3.52-2.72-3.52-7.84V92.36a18.72,18.72,0,0,0,10.96,3.6c10.56,0,18.88-9.12,18.88-22.48C50.26,61.24,43.7,52.12,34.1,52.12ZM31.7,94.84c-6.88,0-11.28-5.28-11.28-12.32V61.4c2.8-3.44,6.48-6.4,11.44-6.4,9.12,0,14.08,9.52,14.08,19.92C45.94,85.4,40.9,94.84,31.7,94.84Zm53.44-4a4.475,4.475,0,0,1-3.36,1.92c-2.56,0-2.72-2.88-2.72-6.08V64.44c0-7.04-3.28-12.32-10.64-12.32-9.28,0-13.12,8.24-14.08,11.44l.48.24c2.64-5.04,6.48-8.88,11.92-8.88,8.32,0,8.32,8.96,8.32,11.28v6.96L67.3,75.32c-9.76,2.8-14.24,6.72-14.24,12.32,0,4.88,3.84,8.32,9.28,8.32,4.48,0,9.28-2.72,12.88-6.96.08,2.96.72,6.96,4.16,6.96,2.64,0,4.96-2.4,6.24-4.8ZM64.58,93.08c-4.24,0-7.12-2.8-7.12-6.88,0-4.64,2.48-7.2,10.64-9.76l6.96-2.16v14C72.66,90.36,68.5,93.08,64.58,93.08Zm26.8-48.32a3.52,3.52,0,1,0-3.52-3.52A3.551,3.551,0,0,0,91.38,44.76Zm-9.84,68.48c8.32-1.52,12.96-7.44,12.96-16.4V52.28h-.32L86.42,55v.48c2.72.48,4.08,2.4,4.08,7.52V97.8c0,8-2.16,13.2-9.04,14.96Zm51.04-60.96h-.32l-7.92,1.12v.48c2.72.48,4.24,1.28,4.24,6.4v26.8c-3.92,3.36-8.16,5.68-12.56,5.68-5.44,0-8.16-3.52-8.16-10.24V52.28h-.32L99.62,53.4v.48c2.72.48,4.24,1.28,4.24,6.4v23.2c0,8.16,3.92,12.48,10,12.48,5.44,0,10.4-3.52,14.8-8.16l.88,8.16h.32l6.8-2.08V93.4c-2.88-.64-4.08-2.24-4.08-7.36Zm25.12-.16c-4,0-7.36,3.68-10.64,8.72V52.28h-.32L138.98,55v.48c2.72.48,4.08,2.4,4.08,7.52V86.68c0,5.12-.24,7.84-3.52,7.84V95h11.04v-.48c-3.28,0-3.52-2.72-3.52-7.84V62.12c2.32-3.68,4.8-5.52,7.68-5.52a10.5,10.5,0,0,1,4.32,1.12h.48l1.2-4.96A7.966,7.966,0,0,0,157.7,52.12Zm34.8,38.72a4.475,4.475,0,0,1-3.36,1.92c-2.56,0-2.72-2.88-2.72-6.08V64.44c0-7.04-3.28-12.32-10.64-12.32-9.28,0-13.12,8.24-14.08,11.44l.48.24c2.64-5.04,6.48-8.88,11.92-8.88,8.32,0,8.32,8.96,8.32,11.28v6.96l-7.76,2.16c-9.76,2.8-14.24,6.72-14.24,12.32,0,4.88,3.84,8.32,9.28,8.32,4.48,0,9.28-2.72,12.88-6.96.08,2.96.72,6.96,4.16,6.96,2.64,0,4.96-2.4,6.24-4.8Zm-20.56,2.24c-4.24,0-7.12-2.8-7.12-6.88,0-4.64,2.48-7.2,10.64-9.76l6.96-2.16v14C180.02,90.36,175.86,93.08,171.94,93.08ZM249.46,64.6c0-8.16-3.92-12.48-10-12.48-5.44,0-9.92,3.52-14.16,8.24-1.2-5.44-4.72-8.24-9.6-8.24-5.36,0-9.6,3.52-13.76,8.08V52.28h-.32L193.86,55v.48c2.72.48,4.08,2.4,4.08,7.52V86.68c0,5.12-.24,7.84-3.52,7.84V95h11.04v-.48c-3.28,0-3.52-2.72-3.52-7.84V61c3.84-3.36,7.2-5.52,11.6-5.52q8.16,0,8.16,10.08V86.68c0,5.12-.24,7.84-3.52,7.84V95h11.04v-.48c-3.28,0-3.52-2.72-3.52-7.84V64.6a24.344,24.344,0,0,0-.24-3.52c3.92-3.36,7.44-5.6,11.84-5.6q8.16,0,8.16,10.08V86.68c0,5.12-.24,7.84-3.52,7.84V95h11.04v-.48c-3.28,0-3.52-2.72-3.52-7.84Zm38,26.24a4.476,4.476,0,0,1-3.36,1.92c-2.56,0-2.72-2.88-2.72-6.08V64.44c0-7.04-3.28-12.32-10.64-12.32-9.28,0-13.12,8.24-14.08,11.44l.48.24c2.64-5.04,6.48-8.88,11.92-8.88,8.32,0,8.32,8.96,8.32,11.28v6.96l-7.76,2.16c-9.76,2.8-14.24,6.72-14.24,12.32,0,4.88,3.84,8.32,9.28,8.32,4.48,0,9.28-2.72,12.88-6.96.08,2.96.72,6.96,4.16,6.96,2.64,0,4.96-2.4,6.24-4.8ZM266.9,93.08c-4.24,0-7.12-2.8-7.12-6.88,0-4.64,2.48-7.2,10.64-9.76l6.96-2.16v14C274.98,90.36,270.82,93.08,266.9,93.08Z" transform="translate(-11 -37)" fill="#fff"/>
    <path id="Pfad_20" data-name="Pfad 20" d="M23.989,24V5.079h1.917V17.9l5.383-5.066H33.84l-5.579,5.115L34.34,24H31.667l-5.762-5.9V24Zm19.7,0V12.831h1.7V15.15a5.913,5.913,0,0,1,1.636-2.075,3.524,3.524,0,0,1,2.112-.623,3.86,3.86,0,0,1,.659.055,4.051,4.051,0,0,1,.635.165l-.635,1.721a4.74,4.74,0,0,0-.623-.165,3.048,3.048,0,0,0-.562-.055,2.579,2.579,0,0,0-2.271,1.093,5.806,5.806,0,0,0-.757,3.29V24Zm24.048-6.848a3.214,3.214,0,0,0-.983-2.277,3.481,3.481,0,0,0-2.423-.8,3.264,3.264,0,0,0-3.394,3.076ZM69.79,18.7h-8.85v.171a4.092,4.092,0,0,0,1.025,2.9,3.479,3.479,0,0,0,2.673,1.1,3.563,3.563,0,0,0,2.026-.6,5.282,5.282,0,0,0,1.6-1.825l1.453.977a5.594,5.594,0,0,1-5.176,3.052,5.386,5.386,0,0,1-4.126-1.685,6.21,6.21,0,0,1-1.575-4.419,6.043,6.043,0,0,1,1.563-4.3A5.25,5.25,0,0,1,64.418,12.4a5.047,5.047,0,0,1,3.925,1.587,6.19,6.19,0,0,1,1.447,4.333Zm18.8-.183a4.4,4.4,0,0,0-1.031-3.046,3.818,3.818,0,0,0-5.377-.092,4.253,4.253,0,0,0-.964,2.966,4.57,4.57,0,0,0,.97,3.125,3.479,3.479,0,0,0,2.753,1.1A3.438,3.438,0,0,0,87.618,21.5,4.278,4.278,0,0,0,88.588,18.519Zm1.855-5.688V24H88.588V21.974a4.883,4.883,0,0,1-1.715,1.862,4.378,4.378,0,0,1-2.338.641,4.936,4.936,0,0,1-3.876-1.654,6.341,6.341,0,0,1-1.471-4.376,6.423,6.423,0,0,1,1.428-4.388,4.826,4.826,0,0,1,3.821-1.63,4.588,4.588,0,0,1,2.435.629A4.534,4.534,0,0,1,88.54,14.93v-2.1Zm11.487,1.575H99.88V12.831h2.051v-4.5h1.953v4.5h2.051v1.575h-2.051V24h-1.953Zm13.2-6.958a1.34,1.34,0,0,1,.409-.983,1.354,1.354,0,0,1,.995-.409,1.33,1.33,0,0,1,.983.415,1.374,1.374,0,0,1,.409,1,1.33,1.33,0,0,1-.4.977,1.344,1.344,0,0,1-.989.4,1.365,1.365,0,0,1-.995-.4A1.349,1.349,0,0,1,115.126,7.447ZM115.578,24V12.831h1.929V24Zm17,.7-5.53-11.865H129.2l3.357,7.8,3.369-7.8h2.148Zm23.474-6.177a4.4,4.4,0,0,0-1.031-3.046,3.818,3.818,0,0,0-5.377-.092,4.253,4.253,0,0,0-.964,2.966,4.57,4.57,0,0,0,.97,3.125,3.479,3.479,0,0,0,2.753,1.1,3.438,3.438,0,0,0,2.679-1.068A4.278,4.278,0,0,0,156.057,18.519Zm1.855-5.688V24h-1.855V21.974a4.883,4.883,0,0,1-1.715,1.862,4.378,4.378,0,0,1-2.338.641,4.936,4.936,0,0,1-3.876-1.654,6.341,6.341,0,0,1-1.471-4.376,6.423,6.423,0,0,1,1.428-4.388,4.826,4.826,0,0,1,3.821-1.63,4.588,4.588,0,0,1,2.435.629,4.534,4.534,0,0,1,1.666,1.874v-2.1Zm19.739,5.615a4.373,4.373,0,0,0-1.025-3.027,3.833,3.833,0,0,0-5.383-.085,4.253,4.253,0,0,0-.964,2.966,4.57,4.57,0,0,0,.97,3.125,3.479,3.479,0,0,0,2.753,1.1,3.418,3.418,0,0,0,2.679-1.08A4.325,4.325,0,0,0,177.651,18.446Zm1.855-5.615V23.8a9.552,9.552,0,0,1-.244,2.588,3.648,3.648,0,0,1-.806,1.379,4.839,4.839,0,0,1-1.91,1.257,7.494,7.494,0,0,1-2.594.415,6.1,6.1,0,0,1-3.961-1.16A4.162,4.162,0,0,1,168.508,25h2.148v.146a2.328,2.328,0,0,0,.867,1.941,3.878,3.878,0,0,0,2.454.684,4.676,4.676,0,0,0,1.959-.372,2.691,2.691,0,0,0,1.239-1.1,2.9,2.9,0,0,0,.366-.964,8.556,8.556,0,0,0,.11-1.575v-1.88a4.729,4.729,0,0,1-1.7,1.837,4.432,4.432,0,0,1-2.356.641,4.962,4.962,0,0,1-3.876-1.636,6.254,6.254,0,0,1-1.471-4.346,6.291,6.291,0,0,1,1.428-4.34,4.861,4.861,0,0,1,3.821-1.605,4.66,4.66,0,0,1,2.441.629,4.361,4.361,0,0,1,1.66,1.849V12.831Zm19.165,4.321a3.214,3.214,0,0,0-.983-2.277,3.481,3.481,0,0,0-2.423-.8,3.264,3.264,0,0,0-3.394,3.076Zm2.051,1.55h-8.85v.171a4.092,4.092,0,0,0,1.025,2.9,3.479,3.479,0,0,0,2.673,1.1,3.563,3.563,0,0,0,2.026-.6,5.282,5.282,0,0,0,1.6-1.825l1.453.977a5.594,5.594,0,0,1-5.176,3.052,5.386,5.386,0,0,1-4.126-1.685,6.21,6.21,0,0,1-1.575-4.419,6.043,6.043,0,0,1,1.563-4.3,5.25,5.25,0,0,1,4.016-1.672,5.047,5.047,0,0,1,3.925,1.587,6.19,6.19,0,0,1,1.447,4.333ZM210.976,24V12.831h1.868v1.721a4.687,4.687,0,0,1,1.733-1.6,5.024,5.024,0,0,1,2.344-.525,4.317,4.317,0,0,1,3.088,1.05A3.821,3.821,0,0,1,221.12,16.4V24h-1.953V17.42a3.773,3.773,0,0,0-.714-2.521,2.762,2.762,0,0,0-2.2-.824,3.8,3.8,0,0,0-1.556.311,3.078,3.078,0,0,0-1.166.885,2.709,2.709,0,0,0-.507,1,8.5,8.5,0,0,0-.153,1.953V24Zm21.594-9.595H230.52V12.831h2.051v-4.5h1.953v4.5h2.051v1.575h-2.051V24H232.57Zm15.344-1.575v5.493a5.849,5.849,0,0,0,.714,3.363,3.513,3.513,0,0,0,4.81.012,5.924,5.924,0,0,0,.7-3.375V12.831h1.953v6.519a5.2,5.2,0,0,1-1.294,3.827,6.182,6.182,0,0,1-7.593-.006,5.207,5.207,0,0,1-1.294-3.821V12.831ZM267.189,24V12.831h1.7V15.15a5.913,5.913,0,0,1,1.636-2.075,3.524,3.524,0,0,1,2.112-.623,3.86,3.86,0,0,1,.659.055,4.051,4.051,0,0,1,.635.165l-.635,1.721a4.74,4.74,0,0,0-.623-.165,3.048,3.048,0,0,0-.562-.055,2.579,2.579,0,0,0-2.271,1.093,5.806,5.806,0,0,0-.757,3.29V24Z" transform="translate(78 57)" fill="#fff"/>
  </g>
</svg>
