<?xml version="1.0" encoding="UTF-8"?>
<svg id="Ebene_2" data-name="Ebene 2" xmlns="http://www.w3.org/2000/svg" viewBox="0 0 281.857 278.149">
  <defs>
    <style>
      .cls-1 {
        fill: #6a4e3b;
        stroke-width: 0px;
      }
    </style>
  </defs>
  <g>
    <path class="cls-1" d="m188.55,41.576c-.065.209-.326.309-.782.297-.457-.011-.976-.084-1.557-.216-.583-.133-1.12-.276-1.614-.431-.493-.154-.83-.26-1.009-.316-1.196-.374-2.113-.8-2.751-1.278-.639-.479-1.133-1.364-1.484-2.656-.727-2.82-1.392-5.654-1.995-8.503-.604-2.848-1.194-5.708-1.773-8.581l-3.9-1.071-4.447,14.22c-.14.448-.054.804.258,1.065s.647.448,1.006.561c.418.131.827.243,1.225.334.397.092.792.198,1.181.32.208.065.308.194.297.388-.011.194-.04.365-.087.515-.075.24-.191.376-.349.408-.158.033-.342.016-.551-.049-1.316-.412-2.64-.851-3.972-1.316-1.332-.466-2.656-.904-3.971-1.315-.718-.225-1.436-.425-2.152-.599-.717-.176-1.434-.375-2.152-.6-.179-.056-.266-.173-.259-.352.007-.179.029-.327.066-.447.121-.389.346-.532.676-.429.269.084.528.173.778.268.249.095.493.179.733.254.449.141.951.24,1.507.299.555.06.952-.187,1.19-.735.293-.729.589-1.597.888-2.604.298-1.007.564-1.883.798-2.631.309-.987.619-1.981.933-2.983s.625-1.996.933-2.983c.645-2.063,1.297-4.124,1.958-6.183.66-2.06,1.313-4.12,1.958-6.184.233-.747.47-1.503.708-2.266.239-.763.44-1.512.605-2.248.126-.617-.075-1.049-.604-1.297-.531-.248-1.019-.442-1.468-.582-.179-.057-.361-.104-.545-.146-.184-.04-.366-.09-.545-.146-.449-.141-.594-.464-.435-.973.103-.329.304-.447.603-.354,1.016.317,2.016.663,3,1.036.983.374,1.983.719,3,1.037,1.405.439,2.814.814,4.228,1.125,1.412.311,2.807.681,4.183,1.111,1.136.355,2.302.852,3.499,1.488,1.196.637,2.263,1.396,3.202,2.281.938.884,1.611,1.907,2.02,3.069.408,1.161.388,2.46-.061,3.896-.561,1.794-1.546,3.186-2.955,4.173-1.409.987-3.018,1.593-4.827,1.814-.653.092-1.299.111-1.939.059-.641-.053-1.278-.112-1.914-.18.646,2.763,1.369,5.517,2.168,8.262.799,2.745,1.63,5.468,2.494,8.166.252.769.567,1.417.943,1.945s.915.983,1.616,1.367c.17.086.472.196.905.332.433.136.613.323.538.562Zm-2.263-27.251c.823-2.631.706-4.646-.351-6.043-1.058-1.397-2.812-2.48-5.264-3.247l-1.48-.463c-.299-.093-.673-.186-1.12-.276-.448-.091-.87-.107-1.265-.051-.396.058-.659.295-.79.714l-3.899,12.471c.291.223.641.414,1.051.574.409.161.793.298,1.152.41,1.196.374,2.402.637,3.62.787,1.216.151,2.375.119,3.477-.095,1.101-.214,2.072-.697,2.916-1.452.843-.753,1.494-1.863,1.952-3.329Z"/>
    <path class="cls-1" d="m203.024,51.681c-.084.133-.203.233-.357.302-.155.069-.299.062-.431-.021-.742-.468-1.465-.951-2.169-1.451-.704-.499-1.44-.991-2.208-1.476l-1.073-.677c-.795-.501-1.597-.979-2.403-1.432-.807-.454-1.595-.923-2.363-1.407-.106-.066-.137-.179-.093-.337.043-.157.091-.275.141-.355.083-.132.159-.224.228-.272.067-.05.176-.046.326.011.166.03.331.106.495.229.163.122.325.233.484.333.185.117.354.232.504.346.15.114.319.229.504.347.371.233.763.36,1.177.38.413.021.754-.182,1.021-.605l10.027-15.903c.284-.45.426-.852.426-1.203s-.252-.688-.755-1.005c-.372-.234-.762-.452-1.171-.655-.41-.202-.816-.394-1.221-.575-.212-.134-.243-.319-.092-.558.167-.265.381-.371.644-.316.385.095.769.234,1.152.42.383.187.75.354,1.102.501.825.335,1.66.657,2.502.966s1.68.597,2.513.862c.096.023.21.077.343.16.291.185.337.436.136.753-1.972,3.128-3.959,6.265-5.961,9.41-2.003,3.146-3.998,6.296-5.986,9.449-.267.425-.263.844.013,1.259.275.414.585.729.93.947.265.167.545.325.84.475.294.149.575.307.84.474.106.066.13.175.074.324-.058.149-.103.251-.136.304Zm14.126-29.543c-.417.663-1.012,1.076-1.781,1.239-.77.163-1.486.035-2.148-.383s-1.086-1.009-1.271-1.773c-.185-.765-.068-1.478.35-2.141.417-.662,1.011-1.075,1.781-1.238.769-.163,1.485-.036,2.148.382.662.418,1.086,1.01,1.271,1.773.185.765.068,1.479-.35,2.141Z"/>
    <path class="cls-1" d="m220.162,64.861c-.192.206-.54.269-1.041.186-.502-.082-1.046-.246-1.63-.492-.585-.245-1.122-.51-1.607-.792-.486-.283-.822-.509-1.005-.68-1.191-1.112-1.975-2.121-2.35-3.028-.375-.906-.374-1.827.004-2.76.377-.934,1.112-1.984,2.202-3.152,1.774-1.901,3.559-3.804,5.356-5.706,1.795-1.902,3.592-3.793,5.39-5.674l-2.474-2.309c-.161-.149-.33-.232-.507-.248-.178-.016-.324-.078-.439-.185-.115-.107-.097-.24.053-.4.085-.092.319-.217.702-.374.382-.157.639-.261.771-.31.047.088.14.195.277.323l2.681,2.501,4.106-4.332c.848.147,1.687.213,2.518.195.83-.019,1.667-.041,2.508-.07.088-.003.171,0,.25.008.078.008.14.033.186.076.207.192.234.369.085.529l-6.458,6.509c.733.685,1.471,1.352,2.214,2.002.743.65,1.47,1.307,2.18,1.97.297.277.286.589-.034.932-.407.436-.804.472-1.194.108l-4.192-3.912c-1.625,1.741-3.26,3.482-4.907,5.225-1.647,1.742-3.293,3.495-4.939,5.26l-2.469,2.646c-.535.573-.663,1.193-.384,1.859.277.667.646,1.213,1.104,1.641.641.599,1.368,1.084,2.179,1.454.111.019.257.069.438.151.18.083.305.156.374.22.229.214.248.424.055.63Z"/>
    <path class="cls-1" d="m238.059,91.983c-.316.204-.702.126-1.157-.232-.456-.359-.888-.798-1.297-1.316-.409-.52-.691-.896-.844-1.134-.578-.896-.681-1.836-.31-2.82.371-.986.853-1.856,1.447-2.612-1.71-.164-3.274-.739-4.693-1.726-1.419-.985-2.597-2.203-3.531-3.65-1.529-2.369-1.975-4.403-1.337-6.102s2.076-3.27,4.313-4.714c1.975-1.274,3.959-2.547,5.956-3.816,1.996-1.27,3.99-2.528,5.981-3.776.79-.51.938-1.146.446-1.909-.136-.211-.286-.413-.447-.606-.163-.194-.312-.396-.447-.606-.051-.079-.043-.168.023-.267.066-.1.126-.166.179-.2.289-.187.532-.157.729.09.7.854,1.371,1.734,2.014,2.644.642.908,1.313,1.79,2.014,2.644-.075.347-.27.622-.586.826-.658.425-1.338.845-2.04,1.26-.702.416-1.395.845-2.079,1.286-1.624,1.01-3.249,2.03-4.876,3.062-1.628,1.031-3.258,2.074-4.89,3.128-.5.323-1.025.68-1.574,1.071-.55.392-1.001.833-1.356,1.323-.551.765-.718,1.646-.502,2.646.215.998.561,1.865,1.037,2.604.526.815,1.208,1.541,2.047,2.175.837.634,1.744,1.056,2.719,1.266s1.935.066,2.881-.433c.481-.236.956-.497,1.426-.781.469-.283.927-.57,1.375-.859l10.716-6.972c.342-.221.52-.494.534-.819.013-.326-.074-.634-.26-.923-.17-.264-.349-.512-.537-.745-.188-.233-.367-.481-.536-.744-.153-.237-.098-.44.166-.61.263-.17.484-.145.664.075.256.282.501.59.736.923.233.334.474.663.722.989l2.035,2.546c.145.167.294.342.449.521.153.181.29.363.409.548.085.131.071.27-.039.416-.111.146-.206.245-.285.296-5.764,3.608-11.489,7.247-17.176,10.917-.658.425-1.101.925-1.326,1.499-.226.574-.109,1.217.35,1.928.136.211.285.385.449.521.163.138.304.298.423.482.187.289.148.52-.115.689Z"/>
    <path class="cls-1" d="m247.567,118.848c-.121.036-.215.047-.284.035-.75-.104-1.403-.458-1.958-1.062-.555-.604-.935-1.251-1.14-1.941-.374-1.262-.276-2.28.295-3.054.571-.774,1.348-1.487,2.332-2.138-1.391-.83-2.644-1.831-3.758-3.003-1.116-1.173-1.91-2.556-2.382-4.147-.33-1.111-.422-2.22-.276-3.325.146-1.105.55-2.083,1.213-2.934.663-.851,1.595-1.453,2.797-1.811,1.262-.374,2.446-.374,3.554,0,1.107.374,2.133.969,3.078,1.783.944.814,1.791,1.74,2.54,2.776s1.379,2.034,1.893,2.993c.355.646.7,1.312,1.034,1.997.333.686.664,1.355.989,2.011.841-.249,1.806-.576,2.896-.981,1.089-.404,1.936-.909,2.542-1.514.575-.596,1.035-1.304,1.379-2.125s.397-1.637.156-2.448c-.41-1.382-1.091-2.356-2.044-2.924s-2.139-.819-3.559-.758c-.159.015-.324.038-.493.072-.17.034-.334.059-.493.073-.189.023-.38-.043-.573-.197-.193-.156-.321-.339-.383-.549-.169-.57-.188-1.129-.056-1.675.132-.546.514-.912,1.145-1.1.36-.106.693-.141,1-.1,1.046.113,2.007.515,2.882,1.204.874.688,1.634,1.517,2.282,2.484.646.969,1.108,1.918,1.384,2.85.481,1.622.617,3.183.409,4.684-.209,1.5-.774,2.819-1.693,3.958-.921,1.139-2.252,1.968-3.994,2.484-1.953.579-3.922,1.155-5.91,1.729-1.987.572-3.954,1.214-5.901,1.922-.652.226-1.19.532-1.614.92-.425.388-.525.957-.303,1.708.116.39.335.774.661,1.152.324.377.504.626.54.746.027.091-.035.158-.185.202Zm.544-8.74c1.316-.521,2.655-.992,4.018-1.413,1.362-.421,2.729-.851,4.103-1.29l-.187-.631c-.276-.932-.724-1.918-1.344-2.96s-1.367-1.989-2.24-2.841c-.874-.853-1.834-1.475-2.882-1.866s-2.127-.423-3.239-.093c-1.442.428-2.411,1.156-2.906,2.186-.496,1.029-.538,2.234-.128,3.617.196.66.567,1.334,1.114,2.022.547.687,1.153,1.324,1.817,1.912.665.587,1.289,1.039,1.873,1.356Z"/>
    <path class="cls-1" d="m246.777,137.448c-.157.01-.308-.021-.453-.089-.146-.07-.225-.198-.236-.386-.061-.97-.1-1.956-.116-2.96s-.056-2.006-.119-3.006l-.104-1.642c-.041-.657-.106-1.312-.194-1.966-.088-.654-.153-1.31-.194-1.966-.008-.125.041-.215.148-.269.106-.054.207-.084.3-.09s.188-.012.282-.018c.094-.006.188.004.284.029.128.055.21.229.245.526.034.296.054.608.059.938.004.329.01.54.017.635.027.438.153.821.378,1.153.225.331.587.48,1.088.449,2.408-.151,4.809-.287,7.203-.406,2.395-.12,4.78-.254,7.156-.404,2.439-.153,4.885-.315,7.34-.485,2.454-.171,4.9-.332,7.339-.485.218-.015.46-.046.724-.093.263-.049.468-.155.615-.321.148-.136.226-.267.234-.392.008-.127.006-.283-.006-.471-.036-.563-.164-1.112-.386-1.647-.222-.536-.35-1.069-.383-1.601-.022-.345.17-.529.577-.555.25-.016.435.169.553.554.119.385.2.686.246.903.319,1.078.675,2.249,1.069,3.512.393,1.262.826,2.396,1.297,3.403.004.062.023.123.059.185.035.061.054.106.056.138.012.188-.044.309-.166.363-.122.055-.261.087-.417.098-.876.055-1.744.102-2.605.14-.861.038-1.729.086-2.604.141l-13.134.827c-2.408.152-4.823.319-7.244.504-2.422.184-4.836.352-7.244.503-.5.031-.839.265-1.016.7-.177.435-.252.855-.227,1.262.021.344.058.671.109.982.05.311.086.622.106.935.01.156-.071.256-.24.298-.17.042-.302.066-.396.072Z"/>
    <path class="cls-1" d="m248.389,166.95c-.155-.024-.243-.071-.264-.138-.294-.143-.629-.428-1.004-.853-.376-.426-.722-.887-1.039-1.382-.317-.496-.545-.897-.686-1.206-.547-1.136-.933-2.381-1.158-3.734-.226-1.354-.236-2.664-.031-3.933.17-1.052.529-2.192,1.077-3.42.548-1.229,1.188-2.245,1.921-3.047,1.424-1.547,3.13-2.572,5.116-3.076,1.986-.505,3.983-.595,5.995-.27,2.289.37,4.335,1.161,6.139,2.373,1.804,1.212,3.149,2.905,4.035,5.08.381.982.659,2.059.835,3.229.175,1.172.181,2.268.016,3.288-.295,1.825-.926,3.373-1.894,4.646-.967,1.271-2.188,2.193-3.661,2.765-1.473.571-3.137.707-4.993.407-.526-.086-.848-.257-.964-.514-.118-.257-.138-.617-.063-1.081.1-.619.215-1.235.347-1.849.13-.614.262-1.228.393-1.841.202-.856.372-1.71.509-2.56.138-.852.276-1.71.416-2.575.17-1.053.34-2.104.51-3.155.17-1.052.309-2.109.417-3.17-.49-.111-.964-.22-1.423-.325-.458-.106-.936-.199-1.431-.279-1.145-.185-2.35-.237-3.617-.156-1.268.081-2.469.347-3.604.798-1.137.451-2.1,1.104-2.888,1.962-.79.855-1.293,1.964-1.514,3.325-.225,1.393-.224,2.757.004,4.096.228,1.338.736,2.61,1.525,3.817.233.323.494.627.781.912.288.284.532.585.735.904.129.179.179.362.149.548-.025.154-.107.268-.246.341-.139.072-.286.097-.44.071Zm11.487-3.618c1.273.174,2.505.263,3.695.265s2.221-.292,3.094-.881c.873-.589,1.439-1.688,1.699-3.296.235-1.454.032-2.701-.609-3.74-.641-1.041-1.518-1.904-2.628-2.592-1.111-.688-2.266-1.255-3.462-1.702-.156.768-.302,1.522-.437,2.263-.136.739-.263,1.48-.383,2.223-.2,1.237-.377,2.479-.53,3.724-.154,1.244-.3,2.49-.438,3.737Z"/>
    <path class="cls-1" d="m221.372,208.453c-.312-.209-.394-.594-.245-1.154.149-.56.38-1.131.694-1.712.314-.582.549-.99.707-1.225.593-.885,1.415-1.353,2.466-1.402,1.052-.051,2.042.047,2.972.293-.527-1.636-.619-3.3-.277-4.993.342-1.694.993-3.258,1.952-4.689,1.569-2.343,3.26-3.559,5.072-3.646,1.812-.088,3.825.609,6.038,2.091,1.953,1.308,3.908,2.625,5.865,3.955,1.957,1.329,3.903,2.661,5.838,3.994.781.523,1.424.407,1.93-.348.14-.209.266-.426.379-.651s.24-.442.379-.65c.052-.078.137-.106.254-.085.117.022.202.051.254.086.286.191.355.426.207.704-.506.98-1.049,1.946-1.628,2.897-.58.949-1.123,1.915-1.629,2.896-.348.068-.678,0-.99-.21-.651-.437-1.306-.895-1.966-1.373-.66-.479-1.328-.946-2.004-1.399-1.571-1.09-3.152-2.177-4.745-3.262-1.592-1.085-3.196-2.168-4.81-3.249-.495-.331-1.03-.672-1.607-1.02-.578-.35-1.161-.59-1.752-.721-.921-.202-1.797-.007-2.628.588-.831.593-1.491,1.255-1.979,1.983-.54.807-.936,1.721-1.185,2.742-.25,1.02-.278,2.02-.084,2.998.194.978.707,1.802,1.54,2.473.408.349.835.682,1.282,1,.447.317.891.625,1.334.922l10.648,7.073c.338.227.66.281.964.165.305-.116.553-.318.744-.604.175-.261.331-.523.471-.787.14-.266.297-.528.471-.788.157-.234.365-.265.626-.09.26.174.325.387.194.639-.158.348-.343.694-.556,1.042-.214.347-.421.698-.622,1.055l-1.531,2.878c-.096.198-.197.405-.301.618-.105.213-.218.41-.34.593-.087.13-.22.173-.398.129-.178-.044-.306-.092-.384-.144-5.598-3.861-11.208-7.675-16.832-11.44-.651-.436-1.285-.644-1.902-.623-.617.021-1.161.382-1.631,1.085-.14.208-.24.414-.301.619-.061.203-.153.396-.275.579-.191.286-.418.343-.678.168Z"/>
    <path class="cls-1" d="m196.398,228.647c-.256-.316-.202-.623.164-.918.536-.434,1.099-.859,1.688-1.275.59-.417,1.165-.853,1.725-1.306.829-.67,1.661-1.373,2.495-2.109.835-.736,1.679-1.449,2.532-2.139.098-.079.223-.05.375.09.152.138.268.256.347.354.158.195.115.391-.129.588-.243.197-.438.355-.584.474-.122.098-.254.195-.398.292-.144.096-.276.193-.398.292-.706.571-.811,1.239-.312,2.006,1.09,1.496,2.232,2.97,3.427,4.422,1.195,1.452,2.373,2.896,3.536,4.333.217.268.438.542.666.822.226.279.448.554.665.822.478.54,1.071,1.198,1.78,1.976.709.776,1.356,1.352,1.94,1.726,1.415.95,2.78.895,4.095-.17,1.193-.966,2.043-2.157,2.549-3.574.506-1.417.75-2.884.731-4.4-1.414-1.799-2.831-3.575-4.25-5.329l-4.257-5.262-2.04-2.521c-.295-.365-.671-.506-1.125-.42-.454.085-.84.257-1.157.513-.195.158-.369.329-.522.514s-.315.345-.485.483c-.097.078-.208.066-.331-.035-.123-.103-.214-.189-.273-.263-.079-.098-.137-.232-.175-.402-.038-.172.017-.316.163-.435.536-.434,1.081-.844,1.634-1.23.554-.388,1.098-.799,1.634-1.231.829-.671,1.642-1.359,2.44-2.065.799-.707,1.625-1.405,2.477-2.095.122-.099.253-.074.393.075.141.147.25.271.329.369.158.194.127.381-.092.558-.219.178-.389.315-.511.414-.122.099-.249.19-.38.277-.132.086-.258.179-.38.277-.707.571-.811,1.24-.312,2.006.251.36.515.711.791,1.053.276.341.552.682.828,1.023,1.695,2.095,3.395,4.195,5.1,6.303,1.705,2.106,3.417,4.197,5.136,6.274.276.341.625.622,1.047.846.422.222.84.166,1.254-.169.317-.256.582-.552.795-.885.213-.335.479-.63.795-.886.171-.138.354-.085.552.158.039.049.078.108.115.18.037.07.053.128.048.172-.004.044-.026.092-.065.144-.039.052-.061.1-.065.144-.34.477-.728.931-1.163,1.365-.436.433-.833.876-1.193,1.328-.355.408-.673.837-.955,1.286-.281.448-.617.831-1.007,1.146-.17.138-.374.161-.609.07-.299-.121-.647-.353-1.046-.695s-.783-.707-1.155-1.092c-.372-.385-.666-.711-.883-.979-.102.969-.313,2.017-.632,3.142-.319,1.125-.744,2.193-1.274,3.207s-1.185,1.836-1.965,2.467c-2.241,1.812-4.156,2.547-5.746,2.2-1.589-.346-3.242-1.578-4.957-3.697-1.538-1.9-3.068-3.806-4.594-5.715-1.524-1.91-3.056-3.814-4.593-5.715-.375-.463-.766-.66-1.174-.592-.408.067-.807.26-1.197.575-.195.158-.375.334-.541.528-.165.194-.333.36-.503.498-.146.118-.294.147-.444.087-.149-.061-.274-.151-.372-.273Z"/>
    <path class="cls-1" d="m167.917,241.925c-.059-.146-.044-.32.042-.524.087-.204.171-.373.252-.507.261-.443.706-.909,1.336-1.399s1.192-.835,1.686-1.034c.756-.305,1.469-.338,2.138-.101.67.236,1.286.613,1.849,1.13.562.516,1.083,1.033,1.562,1.55.23-1.275.736-2.534,1.519-3.778.783-1.245,1.799-2.118,3.048-2.621.843-.34,1.734-.623,2.673-.849.939-.227,1.88-.26,2.823-.099,2.078.379,3.906,1.289,5.483,2.731s2.746,3.107,3.507,4.997c.913,2.268,1.329,4.473,1.247,6.617-.082,2.144-.716,4.071-1.902,5.782-1.186,1.71-2.97,3.046-5.354,4.006-.523.211-1.146.343-1.867.397-.721.054-1.455.054-2.204,0-.748-.054-1.375-.165-1.881-.332l3.406,8.458c.375.93.828,1.363,1.36,1.302.532-.062,1.191-.252,1.976-.568.262-.105.52-.218.776-.338.255-.12.515-.232.776-.338.117-.047.243-.047.38,0,.137.047.229.128.275.244.082.203.062.363-.06.48-.035.081-.088.137-.161.166-.072.029-.146.075-.222.14-.563.362-1.143.705-1.739,1.03-.595.323-1.189.673-1.782,1.047-.592.373-1.167.749-1.725,1.126-.558.376-1.107.774-1.647,1.195-.028.012-.074.046-.135.104-.061.058-.106.094-.135.105-.145.059-.256.035-.332-.069s-.138-.215-.184-.331c-1.452-3.604-2.883-7.199-4.294-10.786-1.411-3.586-2.842-7.182-4.293-10.785l-2.617-6.496c-.199-.495-.462-.979-.789-1.456-.326-.477-.728-.821-1.203-1.035-.474-.215-1.017-.198-1.627.047-.29.117-.543.286-.758.509-.215.221-.467.391-.758.508-.203.082-.352.006-.446-.226Zm13.851,10.989c.398.988.977,1.836,1.734,2.545.758.707,1.626,1.186,2.604,1.434.979.247,2.005.155,3.081-.278,1.395-.562,2.401-1.355,3.018-2.381.618-1.026.967-2.172,1.048-3.437.082-1.267-.029-2.548-.332-3.844-.302-1.298-.677-2.498-1.122-3.603-.398-.988-.912-2.014-1.543-3.077-.631-1.063-1.37-1.999-2.219-2.805-.849-.808-1.806-1.359-2.871-1.656s-2.223-.193-3.473.31c-1.046.422-1.874,1.135-2.482,2.141-.609,1.005-.976,2.106-1.101,3.306-.125,1.198.005,2.278.392,3.237l3.266,8.108Z"/>
    <path class="cls-1" d="m108.322,273.85c.022-.219.078-.379.166-.479.089-.102.258-.14.508-.114.312.031.623.069.933.117.311.046.622.086.933.117.343.034.742-.021,1.197-.163.456-.144.705-.434.749-.87l2.961-29.509c.044-.437-.143-.771-.561-1.001-.417-.23-.797-.363-1.141-.397-.343-.035-.68-.053-1.01-.055s-.651-.018-.963-.05c-.281-.027-.405-.198-.374-.51.009-.093.018-.18.026-.257.008-.078.017-.164.026-.257.022-.219.143-.316.36-.295,1.092.109,2.188.251,3.288.425,1.101.173,2.212.316,3.334.429.624.062,1.257.11,1.899.144.642.032,1.277.064,1.903.097.409.01.809.019,1.202.025.394.009.792.032,1.197.073.187.019.265.184.234.496-.013.124-.046.302-.101.533-.054.23-.159.338-.315.322-.343-.034-.701-.078-1.074-.132-.372-.053-.729-.097-1.073-.131-.342-.034-.757.019-1.244.158-.487.141-.751.429-.795.865l-1.488,14.824,18.846,1.892,1.488-14.824c.044-.438-.143-.771-.561-1.001-.417-.231-.797-.363-1.141-.398-.343-.034-.68-.053-1.01-.054-.331-.002-.667-.02-1.01-.055-.218-.021-.335-.112-.351-.271-.027-.035-.035-.122-.021-.263.014-.14.024-.241.031-.304.009-.094.055-.23.136-.411.131-.05.228-.072.29-.065,1.091.109,2.171.249,3.241.42,1.069.17,2.15.31,3.241.419.655.066,1.304.115,1.945.148.643.032,1.277.064,1.903.097.409.01.801.018,1.179.023.377.007.769.03,1.174.07.218.022.289.108.21.258.044.193.063.305.061.337-.013.124-.044.286-.096.486-.051.199-.171.29-.358.271-.343-.034-.692-.077-1.05-.129-.356-.052-.707-.095-1.05-.129-.374-.037-.796.015-1.268.156-.47.142-.728.431-.772.867-.269,2.681-.545,5.361-.831,8.041-.284,2.68-.56,5.345-.826,7.995-.222,2.213-.438,4.443-.648,6.689-.209,2.246-.425,4.476-.647,6.689-.044.437.151.771.584,1.004.434.232.837.367,1.211.404.343.035.695.062,1.054.083.36.02.712.048,1.055.082.218.021.331.158.336.411.006.253.003.441-.009.566-.028.28-.167.408-.417.383-.405-.04-.793-.096-1.165-.164-.371-.068-.757-.139-1.16-.211-.62-.094-1.248-.188-1.885-.283-.635-.096-1.281-.176-1.936-.241-1.091-.109-2.193-.189-3.306-.237-1.112-.049-2.215-.128-3.306-.237-.218-.022-.318-.127-.299-.313.019-.188.036-.359.052-.515.034-.344.208-.499.519-.468.344.035.677.084,1.001.147.324.064.658.113,1,.148.344.034.742-.021,1.197-.164.456-.143.705-.433.749-.869l1.31-13.048-18.846-1.891-1.272,12.673c-.062.623.067,1.062.388,1.314.322.252.778.409,1.37.468.343.035.702.062,1.078.085.375.021.735.05,1.078.085.187.019.279.129.273.334-.004.204-.013.368-.026.493-.038.374-.18.549-.43.523-.749-.074-1.517-.184-2.306-.325-.789-.143-1.573-.253-2.352-.331l-1.403-.141c-1.122-.112-2.24-.193-3.353-.242-1.112-.049-2.214-.128-3.306-.237-.156-.016-.258-.089-.309-.22-.05-.131-.067-.274-.051-.43Z"/>
    <path class="cls-1" d="m84.251,233.393c.065-.143.133-.216.203-.218.216-.246.579-.493,1.089-.742.51-.249,1.046-.461,1.607-.635.562-.174,1.01-.287,1.345-.341,1.24-.226,2.543-.268,3.908-.126,1.365.142,2.632.48,3.8,1.014.969.443,1.974,1.093,3.012,1.946,1.04.854,1.849,1.74,2.427,2.66,1.115,1.783,1.65,3.7,1.609,5.748-.04,2.049-.484,3.999-1.331,5.852-.964,2.108-2.27,3.872-3.917,5.289-1.647,1.418-3.637,2.266-5.969,2.543-1.047.106-2.16.089-3.335-.053-1.175-.142-2.233-.427-3.174-.856-1.681-.769-3.007-1.788-3.977-3.059-.97-1.27-1.534-2.691-1.694-4.263-.16-1.572.151-3.213.933-4.923.222-.484.472-.749.75-.793.279-.046.632.03,1.06.226.57.261,1.134.535,1.69.824.557.289,1.114.578,1.67.867.772.422,1.55.812,2.333,1.17.784.358,1.575.721,2.372,1.085.969.443,1.938.886,2.907,1.329.969.443,1.951.857,2.946,1.243.237-.443.468-.871.691-1.286.225-.414.44-.85.649-1.306.482-1.055.852-2.203,1.11-3.445.258-1.243.321-2.472.187-3.688-.133-1.215-.508-2.317-1.125-3.305-.616-.988-1.551-1.769-2.805-2.342-1.282-.586-2.598-.947-3.95-1.082-1.35-.136-2.712.017-4.085.457-.374.14-.736.31-1.086.512-.351.201-.706.357-1.067.468-.207.077-.397.077-.568,0-.142-.065-.23-.175-.264-.327-.033-.153-.018-.301.047-.443Zm.44,12.036c-.505,1.181-.917,2.345-1.235,3.492-.317,1.146-.308,2.219.028,3.217.336.998,1.246,1.836,2.727,2.513,1.339.612,2.596.748,3.768.405,1.173-.343,2.239-.958,3.196-1.847.958-.889,1.811-1.852,2.56-2.887-.699-.354-1.388-.694-2.065-1.021s-1.358-.646-2.042-.959c-1.14-.521-2.289-1.021-3.449-1.5-1.159-.478-2.322-.949-3.488-1.413Z"/>
    <path class="cls-1" d="m54.558,245.482c.477-.622,1.105-.979,1.887-1.071s1.483.101,2.104.576c.622.477.99,1.104,1.104,1.883.114.777-.067,1.478-.543,2.1-.476.621-1.105.979-1.886,1.071-.781.092-1.482-.1-2.104-.576-.622-.477-.99-1.104-1.104-1.882-.114-.778.067-1.479.543-2.101Zm16.758-28.133c.096-.125.223-.214.383-.269.161-.056.303-.035.427.061.697.533,1.373,1.081,2.028,1.643.656.562,1.344,1.118,2.065,1.671l1.007.771c.747.571,1.501,1.12,2.263,1.645.762.525,1.504,1.063,2.225,1.616.1.076.121.19.062.344-.058.152-.116.267-.173.342-.095.124-.179.208-.251.251-.072.043-.18.029-.324-.041-.162-.046-.319-.137-.472-.272-.152-.137-.303-.262-.452-.376-.174-.134-.331-.264-.471-.391-.139-.127-.296-.257-.471-.391-.348-.267-.727-.429-1.137-.486-.409-.057-.767.113-1.072.511l-11.433,14.924c-.324.423-.501.81-.534,1.16-.032.351.189.708.661,1.069.349.268.717.521,1.106.759.39.239.777.467,1.164.684.199.153.213.341.041.564-.19.249-.413.335-.67.257-.375-.13-.744-.304-1.108-.523-.364-.221-.715-.42-1.052-.599-.791-.409-1.593-.806-2.403-1.19-.811-.384-1.619-.747-2.424-1.087-.093-.032-.202-.096-.327-.191-.273-.209-.296-.464-.067-.762,2.249-2.936,4.513-5.878,6.793-8.828,2.281-2.952,4.554-5.907,6.822-8.866.305-.398.339-.816.102-1.254-.236-.438-.517-.781-.84-1.029-.249-.189-.513-.373-.793-.548-.28-.176-.544-.358-.793-.549-.099-.076-.114-.187-.043-.33.071-.144.125-.24.163-.289Z"/>
    <path class="cls-1" d="m58.066,203.321c.117-.105.253-.175.41-.212.157-.036.298.016.424.155.651.721,1.295,1.469,1.932,2.245.637.775,1.292,1.535,1.963,2.279l1.102,1.222c.441.488.899.961,1.375,1.418.476.457.934.93,1.375,1.418.084.093.102.193.051.302-.05.108-.11.194-.18.257-.069.063-.139.126-.209.189-.07.062-.15.114-.241.154-.135.037-.308-.05-.52-.26-.21-.211-.421-.443-.63-.698-.208-.255-.345-.417-.408-.486-.293-.325-.631-.548-1.014-.668-.382-.119-.759-.011-1.131.325-1.791,1.616-3.586,3.217-5.387,4.8-1.8,1.583-3.584,3.172-5.352,4.768-1.814,1.638-3.628,3.286-5.444,4.946-1.814,1.66-3.63,3.309-5.444,4.947-.163.146-.332.321-.509.523-.176.201-.27.413-.282.635-.032.197-.011.349.06.452.073.104.172.225.298.364.378.419.82.769,1.327,1.05.507.281.939.619,1.296,1.015.231.256.195.52-.107.793-.186.168-.445.139-.777-.09-.333-.228-.583-.412-.754-.554-.92-.646-1.928-1.341-3.021-2.085-1.093-.744-2.138-1.363-3.133-1.857-.042-.046-.095-.082-.161-.107-.064-.026-.108-.05-.129-.073-.126-.14-.158-.27-.097-.388.062-.119.151-.231.267-.336.652-.588,1.302-1.166,1.952-1.731.651-.565,1.301-1.144,1.952-1.73l9.769-8.818c1.791-1.617,3.577-3.251,5.358-4.901,1.782-1.649,3.568-3.284,5.358-4.9.373-.336.492-.729.36-1.18-.132-.45-.334-.826-.608-1.129-.23-.256-.462-.489-.696-.701-.232-.212-.455-.434-.665-.666-.105-.116-.104-.244.003-.383.107-.139.195-.239.265-.303Z"/>
    <path class="cls-1" d="m30.843,182.882c2.148-1.165,4.3-1.831,6.453-2.001,2.154-.169,4.148.237,5.981,1.222,1.835.983,3.371,2.619,4.61,4.905.478.882.739,1.907.785,3.076.046,1.17-.062,2.235-.326,3.197l8.801-4.771c.386-.209.52-.486.404-.833-.117-.347-.25-.658-.399-.934-.134-.248-.283-.488-.444-.722-.162-.232-.31-.474-.444-.721-.194-.358-.112-.635.246-.829.414-.224.732-.129.956.284.463.854.898,1.724,1.306,2.606.408.885.843,1.754,1.306,2.607.388.716.8,1.41,1.236,2.083.436.673.848,1.367,1.236,2.083.105.193.099.348-.016.463-.116.116-.229.204-.338.264-.386.21-.683.121-.892-.265-.119-.221-.232-.444-.337-.673-.106-.227-.218-.451-.338-.672-.104-.192-.285-.46-.542-.803-.257-.342-.523-.438-.798-.289-2.865,1.554-5.747,3.107-8.647,4.66-2.899,1.555-5.782,3.107-8.647,4.66-1.294.702-2.572,1.403-3.832,2.104-1.259.701-2.516,1.408-3.768,2.122-.591.356-.951.694-1.081,1.014-.129.32-.023.797.32,1.431.149.275.334.532.551.771.219.238.402.495.551.771.165.303.109.528-.167.678-.248.135-.48.101-.697-.103-.057-.04-.247-.258-.568-.654-.321-.396-.712-.87-1.172-1.423-.459-.553-.909-1.103-1.348-1.648-.438-.546-.811-1.004-1.118-1.372s-.467-.566-.482-.594c-.12-.221-.063-.447.167-.679.135-.145.413-.34.832-.585.42-.245.843-.483,1.27-.715.427-.231.751-.407.971-.526-1.437-.219-2.818-.745-4.143-1.577-1.324-.833-2.337-1.896-3.04-3.19-1.03-1.901-1.396-3.778-1.101-5.632.297-1.854,1.054-3.547,2.271-5.08,1.219-1.533,2.695-2.771,4.431-3.711Zm2.265,4.278c-.936.507-1.891,1.097-2.865,1.767-.973.67-1.817,1.431-2.532,2.281-.715.851-1.161,1.787-1.337,2.81-.176,1.022.071,2.153.743,3.393.403.744,1.019,1.436,1.846,2.074s1.726,1.096,2.695,1.372c.97.276,1.89.232,2.761-.133.884-.407,1.767-.851,2.648-1.328.882-.479,1.763-.956,2.645-1.434.771-.418,1.546-.847,2.324-1.286.778-.439,1.559-.889,2.342-1.35,1.36-.844,2.306-1.944,2.835-3.301.53-1.356.385-2.792-.437-4.308-.776-1.432-1.712-2.387-2.808-2.862-1.095-.476-2.274-.629-3.538-.461-1.263.168-2.524.521-3.782,1.061-1.258.54-2.438,1.107-3.54,1.705Z"/>
    <path class="cls-1" d="m7.847,160.927c.243-.062.498-.013.764.146.267.159.431.36.492.603.108.426-.001.761-.328,1.005-.386.26-.771.526-1.154.801-.383.275-.768.542-1.155.802-.545.397-.953.863-1.221,1.399-.268.537-.314,1.155-.137,1.854.292,1.154.913,1.91,1.859,2.269.947.358,1.953.402,3.015.134,1.033-.262,2.066-.523,3.099-.785,1.033-.261,2.077-.541,3.132-.841-.246-.972-.5-1.941-.761-2.91-.261-.968-.515-1.938-.761-2.91-.054-.213-.01-.394.129-.542.141-.148.301-.246.483-.292.213-.054.407-.055.582-.002.175.053.293.201.354.443.154.608.301,1.217.439,1.828.139.612.285,1.222.438,1.828l.519,2.051,17.633-4.464c.668-.169,1.23-.473,1.684-.911.455-.438.586-1.037.394-1.797-.085-.334-.19-.654-.316-.962-.126-.308-.228-.612-.305-.917-.046-.182.005-.332.153-.45.148-.118.298-.197.45-.235.334-.085.543.04.628.374.261,1.033.502,2.079.722,3.139s.46,2.106.722,3.139c.146.577.289,1.139.427,1.686.139.547.292,1.09.461,1.629.13.387.256.759.379,1.116.122.356.234.732.334,1.127.115.456-.009.729-.374.822-.333.084-.551.026-.65-.175-.1-.201-.176-.408-.23-.621-.054-.212-.098-.419-.133-.62-.034-.201-.079-.408-.133-.621-.223-.881-.61-1.389-1.162-1.524-.551-.135-1.207-.106-1.966.086l-17.678,4.475.657,2.598c.054.213.137.442.247.688.111.247.251.446.418.598.039.022.094.049.166.079.073.03.116.076.131.137.062.243.001.388-.181.434-.061.016-.306.037-.735.064-.429.028-.663.031-.701.008-.167-.021-.27-.077-.308-.164-.038-.088-.073-.191-.104-.313-.054-.212-.096-.412-.127-.598-.031-.187-.073-.386-.127-.599l-.634-2.506c-.638.162-1.276.323-1.914.484-.638.162-1.276.323-1.914.484-2.794.708-4.932.466-6.415-.728-1.481-1.192-2.553-3.094-3.214-5.707-.2-.789-.232-1.59-.098-2.399s.102-1.608-.098-2.399c.691-.206,1.376-.437,2.056-.689.68-.253,1.369-.468,2.067-.645Z"/>
    <path class="cls-1" d="m35.135,136.72c.157-.008.307.023.452.094s.223.199.233.387c.053.971.083,1.957.091,2.961s.039,2.006.094,3.007l.09,1.643c.036.657.095,1.313.178,1.968.083.654.142,1.31.178,1.967.007.126-.042.214-.15.268-.107.053-.208.082-.301.087s-.188.01-.282.016c-.094.005-.188-.006-.284-.032-.128-.056-.208-.231-.24-.528-.032-.296-.049-.608-.052-.938-.001-.329-.006-.541-.011-.635-.024-.438-.146-.823-.369-1.156-.222-.333-.583-.486-1.084-.459-2.409.132-4.811.248-7.206.347-2.395.101-4.782.215-7.16.345-2.44.134-4.888.275-7.343.425-2.455.15-4.903.292-7.343.425-.218.012-.46.042-.725.087-.264.046-.47.151-.618.316-.149.134-.229.264-.238.39-.008.126-.008.282.002.471.031.562.155,1.113.373,1.65s.341,1.072.37,1.604c.019.345-.175.527-.582.55-.25.014-.433-.172-.548-.559-.115-.386-.194-.688-.238-.905-.31-1.081-.656-2.254-1.04-3.521-.382-1.265-.806-2.403-1.269-3.413-.003-.062-.022-.124-.057-.186-.034-.061-.053-.106-.055-.139-.01-.188.046-.308.168-.362.123-.054.262-.084.418-.093.876-.048,1.745-.088,2.606-.119.862-.031,1.73-.071,2.606-.119l13.14-.718c2.41-.132,4.826-.279,7.248-.443,2.423-.163,4.839-.312,7.248-.443.501-.027.841-.258,1.021-.691.181-.434.259-.854.237-1.26-.019-.345-.052-.672-.101-.983-.048-.311-.081-.623-.098-.936-.009-.156.073-.255.243-.296.171-.04.303-.063.396-.069Z"/>
    <path class="cls-1" d="m37.076,107.094c.124.021.214.053.27.093.627.425,1.057,1.031,1.288,1.816.232.787.288,1.535.167,2.245-.221,1.298-.758,2.168-1.612,2.61-.854.443-1.866.739-3.036.89.882,1.358,1.565,2.81,2.048,4.354.484,1.545.587,3.136.309,4.772-.194,1.144-.601,2.179-1.22,3.105-.618.929-1.413,1.628-2.383,2.098-.969.472-2.072.602-3.308.391-1.297-.221-2.36-.742-3.19-1.567-.829-.824-1.487-1.81-1.976-2.958-.488-1.147-.839-2.352-1.054-3.612-.215-1.26-.341-2.434-.378-3.521-.033-.736-.049-1.486-.046-2.249.003-.762.002-1.509,0-2.24-.865-.147-1.875-.279-3.032-.397-1.156-.116-2.139-.037-2.948.237-.779.281-1.504.715-2.176,1.299-.672.585-1.079,1.295-1.22,2.129-.242,1.421-.061,2.596.544,3.525.604.93,1.558,1.68,2.859,2.25.15.058.308.108.475.152.167.045.326.096.475.152.18.062.323.206.428.43.104.226.139.445.102.661-.1.588-.33,1.097-.689,1.528-.36.432-.864.592-1.512.481-.371-.063-.685-.18-.941-.352-.889-.563-1.574-1.348-2.055-2.352-.48-1.003-.797-2.082-.951-3.237-.153-1.153-.148-2.21.015-3.167.284-1.669.85-3.129,1.699-4.384.849-1.254,1.938-2.188,3.266-2.806,1.329-.615,2.889-.771,4.68-.467,2.008.342,4.03.694,6.066,1.056,2.036.363,4.084.655,6.144.879.685.085,1.303.047,1.855-.113s.893-.627,1.024-1.399c.068-.401.041-.843-.084-1.325-.124-.481-.176-.785-.155-.908.016-.093.101-.126.255-.1Zm-4.345,7.604c-1.411-.112-2.82-.281-4.229-.505-1.408-.224-2.825-.44-4.251-.651l-.11.648c-.163.958-.196,2.04-.1,3.249.097,1.208.349,2.388.757,3.537.409,1.15.996,2.133,1.764,2.946.767.814,1.723,1.318,2.865,1.513,1.483.252,2.674.025,3.572-.68.899-.705,1.469-1.769,1.71-3.189.116-.679.08-1.448-.108-2.307-.188-.858-.45-1.698-.788-2.518-.337-.82-.698-1.502-1.083-2.044Z"/>
    <path class="cls-1" d="m52.135,78.464c.366.179.446.479.239.902-.303.619-.633,1.242-.992,1.869-.359.627-.696,1.264-1.013,1.911-.468.957-.925,1.946-1.371,2.966-.446,1.021-.91,2.023-1.392,3.008-.055.113-.181.14-.378.077-.196-.061-.351-.119-.464-.175-.225-.109-.269-.305-.131-.587.137-.281.248-.507.33-.676.069-.141.148-.284.238-.433.09-.147.169-.292.238-.434.399-.816.211-1.466-.564-1.949-1.619-.896-3.277-1.75-4.973-2.562-1.696-.811-3.374-1.622-5.036-2.435-.31-.151-.626-.306-.95-.464-.323-.158-.64-.313-.95-.465-.661-.288-1.477-.634-2.448-1.039-.97-.404-1.8-.652-2.487-.744-1.684-.265-2.897.362-3.641,1.883-.674,1.38-.941,2.818-.801,4.316s.539,2.931,1.195,4.298c2.042,1.033,4.075,2.044,6.102,3.034,2.027.991,4.054,1.981,6.081,2.972l2.914,1.424c.422.206.822.175,1.197-.095.376-.27.653-.588.832-.954.11-.225.196-.453.257-.685.061-.232.139-.446.236-.644.055-.112.16-.148.314-.108.155.042.274.082.359.123.113.056.222.152.328.291.107.14.119.294.036.463-.303.619-.623,1.221-.961,1.806s-.658,1.187-.961,1.806c-.468.958-.915,1.925-1.34,2.902-.425.979-.879,1.96-1.36,2.945-.069.141-.198.174-.388.098-.189-.075-.341-.141-.454-.195-.225-.11-.276-.292-.152-.545.124-.254.22-.45.289-.592.069-.141.145-.277.228-.412.083-.133.159-.271.228-.411.399-.816.211-1.467-.564-1.95-.38-.22-.767-.427-1.162-.62-.394-.192-.788-.385-1.182-.578-2.421-1.183-4.849-2.369-7.285-3.56-2.435-1.189-4.87-2.361-7.305-3.517-.394-.192-.829-.301-1.306-.325-.477-.023-.832.204-1.066.683-.179.366-.294.746-.347,1.139-.052.393-.168.772-.347,1.138-.096.197-.285.228-.567.09-.056-.027-.116-.065-.18-.114-.063-.048-.102-.094-.117-.136-.014-.041-.015-.094-.001-.157.014-.063.013-.115-.001-.158.107-.575.267-1.151.479-1.728s.385-1.146.52-1.707c.149-.521.257-1.043.322-1.569.065-.525.208-1.015.428-1.465.096-.196.271-.304.522-.32.322-.017.736.046,1.242.188s1.009.31,1.508.501c.5.192.904.363,1.213.515-.316-.921-.567-1.959-.753-3.114-.186-1.154-.252-2.303-.199-3.445s.299-2.164.739-3.065c1.265-2.59,2.692-4.063,4.279-4.422,1.587-.357,3.605.062,6.055,1.259,2.196,1.073,4.388,2.153,6.577,3.24,2.188,1.088,4.381,2.167,6.577,3.24.535.262.973.275,1.314.041.342-.234.622-.577.842-1.027.11-.225.199-.46.267-.707.068-.245.15-.467.246-.664.083-.169.205-.258.366-.266.161-.009.312.021.453.09Z"/>
    <path class="cls-1" d="m63.925,54.581c.164.146.325.319.48.521.157.202.308.409.454.622.19.211.386.415.586.614.2.199.385.415.555.649.357.4.853.903,1.489,1.508.636.606,1.076,1.102,1.321,1.486.125.236.125.425,0,.565-1.289,1.454-2.583,2.902-3.884,4.346-1.3,1.443-2.595,2.892-3.884,4.345-.915,1.032-1.817,2.074-2.709,3.126-.891,1.053-1.794,2.095-2.708,3.126-.083.094-.207.162-.371.205-.164.043-.304.013-.422-.091-.117-.104-.206-.287-.266-.551-.243-1.095-.476-2.19-.697-3.287-.221-1.097-.464-2.18-.728-3.252-.706-2.888-1.391-5.787-2.054-8.7-.663-2.911-1.447-5.794-2.351-8.648-.104-.259-.214-.514-.329-.763-.115-.248-.266-.455-.454-.622-.281-.249-.542-.333-.781-.252-.239.081-.486.218-.741.41-.317.264-.617.543-.899.837-.282.295-.558.594-.828.898-.583.656-1.163,1.347-1.74,2.069-.578.723-1.065,1.474-1.463,2.252-.26.481-.365,1.049-.314,1.7.05.651.19,1.227.42,1.723.206.476.476.904.81,1.283.333.38.565.731.696,1.057.099.172.055.362-.132.574-.042.047-.121.112-.238.197-.117.085-.222.085-.316.002-.773-.686-1.527-1.395-2.259-2.128s-1.485-1.442-2.258-2.129c-.305-.27-.312-.568-.021-.897.416-.469.866-.929,1.349-1.38.484-.45.943-.922,1.38-1.414,1.642-1.852,3.261-3.714,4.858-5.586,1.596-1.871,3.216-3.733,4.858-5.585.208-.234.452-.228.733.022.094.083.167.19.219.319.052.131.104.261.157.391.081.239.14.479.176.722s.085.494.146.757c.434,2.061.858,4.133,1.272,6.216.413,2.084.882,4.153,1.405,6.208.086.328.227.914.422,1.756.195.844.413,1.802.655,2.874.242,1.073.5,2.129.773,3.167.273,1.038.538,1.933.794,2.683.255.75.478,1.208.665,1.375.281.249.571.276.871.08.299-.195.542-.398.729-.609.332-.375.66-.744.982-1.107.322-.363.639-.722.951-1.073.603-.68,1.241-1.422,1.914-2.229.673-.806,1.232-1.661,1.677-2.564.445-.903.594-1.839.447-2.808-.07-.439-.203-.892-.397-1.357-.195-.465-.403-.88-.625-1.244-.195-.299-.396-.592-.602-.88-.206-.286-.384-.581-.536-.883-.123-.192-.08-.406.128-.641.187-.211.398-.212.632-.005Z"/>
    <path class="cls-1" d="m88.847,39.085c.088.13.114.226.08.286.097.312.119.752.066,1.316-.053.565-.152,1.133-.297,1.703s-.281,1.012-.41,1.325c-.454,1.176-1.098,2.31-1.93,3.399-.833,1.092-1.781,1.996-2.846,2.715-.883.596-1.96,1.114-3.23,1.556-1.271.442-2.449.671-3.535.685-2.104.021-4.019-.521-5.745-1.623-1.727-1.103-3.16-2.498-4.299-4.187-1.297-1.922-2.121-3.955-2.472-6.1-.351-2.145-.037-4.284.942-6.419.455-.95,1.05-1.89,1.783-2.819s1.529-1.684,2.386-2.262c1.532-1.034,3.093-1.634,4.683-1.799,1.59-.166,3.097.093,4.521.776,1.425.683,2.663,1.804,3.714,3.361.298.442.394.794.286,1.055-.107.262-.355.523-.745.786-.52.351-1.048.688-1.585,1.013-.537.325-1.074.649-1.611.974-.762.439-1.501.899-2.215,1.381-.715.482-1.436.969-2.162,1.459-.883.597-1.767,1.192-2.649,1.788-.883.596-1.749,1.218-2.597,1.865.254.434.5.854.737,1.261.237.407.496.818.776,1.233.649.962,1.436,1.876,2.362,2.744.926.869,1.942,1.562,3.049,2.082,1.107.52,2.242.774,3.407.763,1.164-.01,2.318-.401,3.461-1.173,1.169-.788,2.163-1.724,2.982-2.806.82-1.082,1.399-2.324,1.739-3.726.076-.392.119-.789.13-1.193.011-.404.063-.788.156-1.154.042-.217.141-.379.297-.484.129-.087.269-.105.417-.054.148.051.266.142.354.271Zm-10.5-5.898c-.745-1.048-1.523-2.006-2.336-2.875s-1.733-1.419-2.76-1.653c-1.027-.232-2.216.106-3.566,1.018-1.221.824-1.991,1.825-2.31,3.005-.32,1.179-.35,2.409-.09,3.689s.635,2.511,1.128,3.689c.667-.412,1.317-.822,1.949-1.23.632-.407,1.26-.821,1.883-1.242,1.039-.7,2.064-1.421,3.077-2.161,1.012-.74,2.021-1.486,3.025-2.239Z"/>
    <path class="cls-1" d="m122.342,32.488c.124.389-.039.653-.486.796-.657.209-1.336.4-2.037.574-.701.174-1.395.37-2.082.589-1.015.323-2.046.676-3.091,1.058-1.046.383-2.091.74-3.136,1.072-.12.038-.226-.034-.317-.22-.092-.185-.156-.336-.194-.456-.076-.238.035-.405.334-.501.298-.095.537-.171.716-.228.149-.048.309-.09.478-.128.168-.036.328-.079.478-.127.865-.275,1.206-.86,1.02-1.755-.471-1.79-1-3.578-1.584-5.365-.586-1.787-1.158-3.561-1.719-5.322-.104-.328-.211-.664-.321-1.008-.109-.343-.216-.679-.321-1.008-.249-.677-.562-1.506-.939-2.487-.378-.981-.772-1.752-1.18-2.312-.972-1.4-2.264-1.845-3.876-1.332-1.463.466-2.688,1.268-3.675,2.403s-1.747,2.414-2.282,3.833c.664,2.189,1.338,4.358,2.022,6.509.685,2.149,1.369,4.299,2.053,6.449l.983,3.09c.143.448.441.715.896.8.454.086.876.066,1.264-.057.239-.076.463-.172.673-.288s.419-.207.628-.274c.119-.037.218.014.295.153.077.141.13.254.159.344.038.12.043.266.016.438-.027.174-.13.288-.309.346-.657.209-1.314.394-1.97.553-.657.159-1.313.344-1.97.553-1.015.323-2.023.669-3.024,1.036-1.001.368-2.024.719-3.069,1.051-.15.048-.262-.022-.339-.213-.077-.188-.134-.343-.172-.463-.076-.238.021-.401.289-.486.269-.086.478-.152.627-.199.149-.048.301-.088.455-.12s.305-.073.455-.12c.866-.276,1.206-.86,1.02-1.756-.104-.427-.221-.85-.354-1.268-.133-.418-.266-.836-.399-1.254-.817-2.568-1.637-5.144-2.459-7.726-.822-2.583-1.657-5.153-2.504-7.712-.133-.418-.355-.807-.667-1.168-.312-.361-.723-.461-1.23-.3-.388.124-.742.303-1.062.536s-.675.412-1.062.535c-.209.066-.361-.05-.456-.349-.019-.059-.033-.129-.042-.208s-.003-.139.018-.179c.02-.038.058-.075.113-.109.055-.034.092-.07.113-.11.49-.32,1.017-.603,1.58-.848s1.094-.513,1.594-.804c.479-.251.931-.534,1.357-.851.425-.315.877-.551,1.354-.702.208-.066.407-.015.593.156.234.222.475.563.722,1.028.246.464.473.942.679,1.436.206.494.362.904.466,1.233.447-.866,1.024-1.765,1.731-2.697.706-.932,1.49-1.772,2.353-2.524.863-.751,1.771-1.278,2.727-1.583,2.747-.874,4.798-.861,6.153.039,1.354.9,2.446,2.649,3.273,5.247.741,2.329,1.475,4.66,2.201,6.994.726,2.334,1.46,4.665,2.201,6.993.181.568.473.895.878.979.405.086.847.052,1.324-.101.239-.076.47-.175.695-.296.225-.12.441-.214.65-.28.179-.058.327-.03.445.08.117.11.2.241.248.39Z"/>
  </g>
  <g>
    <g>
      <path class="cls-1" d="m159.587,184.64c-1.129-.033-1.118-.136-1.285-1.194-.127-.805-2.351-9.805-2.351-9.805l-2.165-8.815s-.29-1.054-.01-1.112c.277-.058.572,1.114.572,1.114l2.439,9.516,1.92,7.551s.483,1.995.611,2.085c.142.1,1.434.057,1.434.057,0,0,.61-.002.867,0,.713.005,1.656.034,1.769-.068.089-.08-.476-1.554-.792-2.307-.798-2.259-1.27-3.358-1.912-5.232-.85-2.483-2.466-6.944-2.71-7.713-.244-.769-1.22-3.705-1.637-5.003-.589-1.831-1.328-4.271-1.231-3.952s-.291-.814.051-.828.703,1.411.948,2.134c.416,1.226.751,2.408,1.115,3.652.039.133.202.763.257.891.105-.129.248-.662.297-.81.174-.526.261-1.121.382-1.661.261-1.167.656-2.184,1.554-3.105.59-.605.639-1.732.948-2.619.116-.333.087-.968.425-.971s.53.631.521.938c-.073,2.283-.006,4.565-1.444,6.615-.513.732-.557,1.917-.522,2.885.067,1.88.264,3.766.558,5.625.177,1.119.592,2.211.985,3.284.8,2.184,1.265,3.532,2.123,5.787,0,0,.521,1.335.759,2.104.237.764.201.983-.51.983-1.141,0-3.965-.027-3.965-.027Zm-8.15,10.333c-.235-1.91-.417-3.716-.592-5.632-.572-6.273-1.092-12.551-1.651-18.825-.51-5.721-1.043-11.44-1.567-17.16-.193-2.103-.412-4.203-.568-6.308-.028-.377-.066-.888-.122-.959-.047-.06-1.751.019-1.751.019l-1.895.063s-1.902.019-1.98.119.092,1.512.092,1.512c0,0,.073.884.102,1.29.289,4.027.545,8.058.864,12.083.422,5.321.91,10.637,1.337,15.957.543,6.763.979,13.441,1.514,20.204.07.885.105,1.197.151,2.123.011.327.105,1.488.301,1.521,1.284.217,2.896.198,4.193.226.885.019,1.724.03,1.89-.196.22-.3.136-1.072.097-1.734l-.413-4.304Zm-32.814-5.933c-.109.38-.282.826-.196,1.046.103.263.417.383,1.037.706.678.353,1.42.724,1.622.649.162-.06.277-.481.442-.918.091-.242.157-.421.241-.667.78-2.276,1.558-4.552,2.342-6.826,1.783-5.174,3.569-10.347,5.354-15.521.769-2.229,1.717-4.87,2.461-7.107.073-.22.033-.45-.171-1.005s-.464-1.427-.432-2.232c.029-.718.065-1.393.33-2.394.181-.685.495-1.321.542-1.814.086-.892-.219-1.241-.497-1.729s-.595-.506-.849.035c-.28.596-.475,1.232-.692,1.856-.938,2.689-1.916,5.365-2.792,8.074-.675,2.089-1.355,3.905-2.042,5.976-1.254,3.781-2.583,7.829-3.734,11.647-.843,2.798-1.615,5.566-2.416,8.377-.15.526-.306.986-.553,1.845Zm14.542-50.218c-.022.215-.069.473-.072.732-.012,1.163.114,2.793.814,3.83.204.252,1.267-.206,1.412-.255s.215-.248.023-1.084-.518-2.954-.489-4.567c.043-2.425,1.539-4.261,2.803-6.177,1.737-2.632,2.337-5.41.992-8.419-.272-.608-.509-1.235-.705-1.871-1.067-3.452-1.719-6.92-1.176-10.592.224-1.513-.205-3.131-.412-4.692-.048-.365-.376-.71-.622-1.028-.307-.395-.553-.291-.663.168-.594,2.481-1.398,4.935-1.723,7.451-.525,4.061.15,8.055,1.481,11.92,1.103,3.204.992,6.334-.461,9.399-.773,1.631-1.29,3.313-1.202,5.185Zm11.632,6.388c.497-.015,1.468-.015,1.902-.061-.119-.527-.457-1.372-.708-1.806-.201-.348-.692-.906-.89-1.255-.231-.407-.559-.808-.664-2.073s.228-1.647.412-2.999c.219-1.609.659-3.191.814-4.803.157-1.638-.183-3.427-.993-4.895-.095-.171-.917-1.793-1.073-1.931-.042.169.361,1.409.316,2.36s-.513,2.028-1.035,3.032c-.767,1.475-1.748,2.837-2.539,4.3-1.043,1.929-1.663,3.971-1.075,6.194.236.894.449,1.812.83,2.646.526,1.152.488,1.547,2.159,1.457.317-.026,1.097-.094,1.355-.105l1.189-.06Zm-22.871,46.115c-.02.113-.128.257-.054.365.105.153.771.051.771.051,0,0,.72-.079.91-.266.13-.128.239-.518.281-.638,1.174-3.553,2.119-6.531,3.307-9.954,1.141-3.285,2.259-6.579,3.334-9.887.891-2.741,1.805-5.316,2.603-8.085.032-.111.195-.618.176-.686-.03-.106-.156-.17-.445-.626s-.32-.564-.36-.564c-.051,0-.205.383-.262.557-.795,2.102-1.6,4.201-2.325,6.327-2.486,7.288-4.944,14.585-7.409,21.881-.19.561-.394,1.089-.526,1.526Zm7.329-37.853c-.138-.293-.45-.495-.689-.734-1.278-1.278-1.461-2.616-1.685-4.328-.177-1.354-.53-2.616-1.251-3.306-.721-.69-1.657-1.559-1.856-1.61-.014.177.483,1.256.667,1.987s-.052,4.476-.061,6.839c-.009,2.36.736,4.407,2.613,5.965.428.355.581.296.734-.195.22-.703.467-1.398.716-2.091.236-.66.534-1.78.812-2.527Zm28.649,13.066c.162.606.346,1.425.522,1.966.063.193.675,2.234.82,2.244s-.263-2.03-.281-2.248c-.13-1.585-.315-3.175.443-4.668.265-.523.694-.976.886-1.519.21-.592.558-1.459.694-4.169-.194,2.158-1.634,3.211-1.827,3.815-.515,1.609-.883,2.889-1.256,4.58Zm-23.864-22.288s1.146.874,2.031,2.022c.884,1.148.843,1.155,1.105,1.599s.447.879.645,1.228c.205.555.513,1.095.595,1.667.233,1.629.709,2.775,1.838,3.961.21.257.817,1.062,1.036,1.231.022-.25-.076-1.021-.09-1.269-.059-1.052-.204-3.424-.189-3.204-.187-2.539-.119-4.175-1.122-6.096-.057-.098-.085-.175-.13-.277-1.942-3.866-1.71-7.617.583-11.265.82-1.304,2.002-2.925,2.566-4.483.632-1.965.589-2.574-.12-4.156-.096-.215-.018-.721.119-.782.27-.122.859-.143.932-.005.75,1.437,1.531,2.874,2.092,4.39.846,2.287.338,4.607-.132,6.905-.23,1.122-.446,2.252-.567,3.39-.129,1.209.099,2.307.992,3.284,1.094,1.195,1.337,2.71,1.422,4.327.175,3.326.534,6.643.83,9.963.339,3.8.687,7.6,1.04,11.399.528,5.684,1.172,11.359,1.559,17.052.265,3.904.664,7.12,1.145,10.959.237,1.5.326,2.936.407,4.427.016.302.032.802-.166,1.069-.176.238-.555.26-.743.285-1.346.228-2.312.17-3.879.121-.588-.008-1.348-.05-1.824-.118-1.265-.181-1.256-.173-1.347-1.501-.49-7.128-.956-14.257-1.489-21.382-.442-5.908-1.029-11.805-1.422-17.716-.186-2.801-1.324-5.096-2.985-7.25-.429-.556-.64-1.292-.895-1.967-.404-1.066-.681-2.185-1.153-3.217-1.018-2.223-2.791-3.757-4.822-5.038-1.223-.772-1.841-1.966-2.237-3.327-.463-1.594-.9-3.211-1.557-4.728-.312-.721-.946-1.387-1.649-1.843-.122-.063-.621-.34-.672-.289s.226.522.278.641c.983,2.289,1.155,4.723,1.4,7.164.308,3.058,1.849,5.604,3.805,7.882,1.28,1.491,2.182,2.971,1.334,5.019-1.029,2.486-.447,4.791,1.002,6.926.423.623.48.729,1.137,1.32.481.432,1.137.617,1.047.955s-.657.124-1.047-.06-.925-.855-.971-.794c-.238.561-.485,1.439-.672,1.987-2.249,6.589-4.456,13.295-6.673,19.894-.766,2.279-1.181,3.628-1.899,5.922-.385,1.231-.467,1.461-.858,1.611s-1.954.305-2.435.124-2.774-1.319-3.311-1.619c-.442-.247-.069-1.117.085-1.698.163-.612.412-1.433.636-2.175.942-3.113,1.84-6.24,2.777-9.355.99-3.289,2.082-6.573,3.144-9.839.755-2.322,1.517-4.614,2.362-6.906.202-.549.191-.987-.295-1.428-2.186-1.982-3.234-4.345-3.003-7.335.145-1.874.2-3.764.129-5.641-.054-1.433-.682-2.715-1.679-3.78-.152-.162-.332-.37-.452-.551-.136-.235-.442-.672-.247-.884s.851.18,1.046.349c.471.407.867.798,1.318,1.232.449.433.828.783,1.385,1.189,1.43,1.084,2.015,2.195,2.331,3.678.223,1.045.464,2.087.724,3.123.061.244.416,1.104.588,1.285.295.31.602.753.715.73s.418-1.188.561-1.554c.263-.806.124-1.476-.382-2.248-1.848-2.819-3.091-5.848-3.169-9.327-.049-2.19-.596-4.323-2.114-6.072-.149-.172-.145-.689.003-.851.166-.182.612-.262.872-.181,2.562.805,3.776,2.778,4.451,5.218.345,1.248.646,2.524,1.165,3.701.292.662.692,1.097,1.279,1.625.144.118.61.373.7.316s-.025-.435-.062-.561c-.773-2.687-.671-5.34.316-7.953.273-.724.603-1.427.901-2.142,1.125-2.689,1.026-5.352.106-8.11-1.444-4.334-2.093-8.798-1.305-13.354.315-1.818.842-3.603,1.33-5.387.309-1.128.566-2.212.009-3.35-.128-.261-.135-.926.058-.999s.599.422.795.705c.309.447.447,1.027.8,1.424,1.023,1.15,1.716,2.402,1.687,3.991-.005.262.09.724.251.79s.519-.298.687-.517c1.435-1.873,2.903-3.724,4.239-5.666.509-.74.665-1.715,1.05-2.552.118-.257.462-.579.701-.578.538.003.43.443.37.83-.365,2.37-.246,4.726.311,7.054.091.383.33.742.551,1.08,2.601,3.977,4.472,8.274,5.459,12.921.557,2.623.642,5.29-.004,7.935-.658,2.697-1.4,5.377-1.949,8.095-.499,2.472-.081,4.951.381,7.397.086.458.235,1.02.362,1.477.181.651.697.293.97-.019.584-.668,1.151-1.354,1.681-2.065.79-1.059,1.632-2.094,2.29-3.233.79-1.37.79-2.889.481-4.43-.181-.903-.238-1.834-.296-2.757-.012-.192-.05-.532.214-.601s.534.225.59.388c.543,1.593,1.707,2.643,2.999,3.62,1.199.908,1.701,2.67,1.083,4.233-.485,1.228-1.066,2.488-1.896,3.493-1.748,2.117-2.457,4.426-2.429,7.173.021,2.119-.244,4.264-.527,5.313-.284,1.049-.822,2.414-1.115,3.084s-1.936,4.978-1.752,7.733c.014.205.002.595-.204.632s-.315-.326-.359-.515c-.081-.348-.131-.722-.098-1.076.267-2.798,1.165-5.422,2.261-7.985,1.013-2.37,1.274-4.855,1.177-7.394-.054-1.416-.056-2.832.611-4.113.506-.973,1.195-1.848,1.742-2.802.73-1.273,1.521-2.531,2.063-3.885.466-1.165-.06-2.276-.915-3.139-.648-.654-1.292-1.353-1.997-1.991-.247-.323-.643-.899-.74-.935-.03.129.162,1.111.187,1.301.085.901.239,1.95.144,2.858-.162,1.549-.91,2.873-1.902,4.06-1.33,1.591-2.729,3.131-3.952,4.801-.467.637-.504,1.228-.717,2.035-.063.237-.086.844-.136,1.088-.044.214-.005.606-.225.617s-.419-.402-.399-.577c.101-.913.165-1.783.478-2.703.291-.797.314-1.204.094-1.935-.984-3.271-1.281-6.625-.616-9.995.408-2.069.953-4.114,1.517-6.147,1.032-3.723.756-7.384-.312-11.045-1.036-3.549-2.558-6.86-4.652-9.905-1.177-1.711-1.258-3.666-1.306-5.637-.011-.464-.106-.926-.163-1.389-.283.323-.587.632-.847.973-1.39,1.825-2.756,3.669-4.155,5.486-1.529,1.986-1.749,4.19-1.456,6.622.368,3.056,1.411,5.886,2.377,8.763.902,2.685.09,5.181-1.159,7.56-.411.784-.957,1.499-1.458,2.233-2.072,3.039-1.958,6.257-.759,9.548.111.306.36.603.66.76.882.463,2.53,1.183,2.551,1.27s-1.104,3.849-1.104,3.849c-.594.011-.394-.502-.256-1.031.205-.664.121-.378.301-1.047.068-.254.194-.657.262-.989l.119-.501c-.221-.184-1.196-.652-1.725-.893-.495-.226-1.168-.565-1.604-.757l-1.482.511Z"/>
      <path class="cls-1" d="m134.45,182.052c-.315,1.376-.578,2.646-.898,3.901-.749,2.942-1.512,5.88-2.302,8.811-.183.679-.26,1.045.376,1.247.81.258,2.049.574,2.868.802.547.152.761.377.926-.237.556-2.069,1.191-4.525,1.705-6.604.496-2.009.897-4.042,1.303-6.071.803-4.016,1.581-8.038,2.37-12.057.014-.073.028-.159.062-.295.091-.363.276-.802.474-.802s.042.88.003,1.188c-.159,1.285-.325,2.321-.557,3.592-.497,2.724-1.001,5.45-1.6,8.153-.872,3.934-1.838,7.848-2.744,11.775-.107.463-.215.68-.339,1.312s-.459,1.116-1.333.79c-1.368-.51-2.592-.717-3.931-1.302-.661-.289-.443-.512-.142-1.645.301-1.133.582-2.113.884-3.323.758-3.036,1.432-6.094,2.157-9.138.053-.223.177-.627.376-.617.166.008.414.084.34.519Z"/>
      <path class="cls-1" d="m137.392,94.133c-.082.642-.252,1.409-.26,2.179-.011.977.123,1.956.163,2.935.009.226-.005.55-.161.686s-.504-.066-.651-.209c-1.562-1.514-1.737-3.445-1.433-5.428.133-.866.287-1.649-.146-2.463-.091-.172-.028-.508.093-.677.069-.096.423-.067.605.01,1.072.453,1.825,1.67,1.791,2.967Zm-1.776,1.314c-.051.938.042,1.368.254,2.062s.571,1.198.664,1.206-.09-.301-.12-1.461.116-1.972.222-3.074c.028-.286-.059-.587-.12-.876-.019-.089-.06-.234-.2-.236s-.173.117-.193.193c-.204.782-.456,1.247-.507,2.185Z"/>
      <path class="cls-1" d="m153.792,117.067c-.095-1.396.509-4.413,2.175-5.927.19-.173.204-.207.64-.379s1.116-.06,1.472.225c.203.163.111.97-.106,1.332-.584.974-1.317,1.858-1.971,2.791-.677.966-1.006,2.035-.938,3.23.011.194-.136.571-.302.6s-.418-.207-.481-.368c-.225-.574-.438-.721-.49-1.506Zm.702-1.221c-.01.239-.111,1.23.023,1.276s-.016-.302.32-1.145,2.477-3.365,2.492-4.05c.016-.688-.31-.522-.494-.502-.232.045-.515.358-.673.541-.893,1.035-1.509,2.562-1.667,3.88Z"/>
      <path class="cls-1" d="m147.31,100.566c.134-.835.211-1.684.43-2.496.086-.321.465-.746.753-.781.355-.044.859.172,1.112.448.627.684.593,1.551.392,2.409-.16.682-.425,1.353-.476,2.042-.064.858.062,1.729.063,2.595,0,.29.062.794-.204.871s-.675-.21-.762-.42c-.619-1.491-1.336-2.968-1.308-4.668Zm2.135-1.341c.004-.28-.399-.983-.633-.983s-.602.588-.623.901c-.065.977-.188,1.834.033,2.946s.567,1.849.673,1.849-.057-1.078-.06-2.198c-.004-1.121.605-2.236.609-2.515Z"/>
      <path class="cls-1" d="m128.225,107.583c-.036.33-.063.661-.111.989-.156,1.061.15,1.954.907,2.719.592.599,1.148,1.234,1.702,1.868.105.121.291.31.185.476s-.452.11-.589.023c-.339-.214-.627-.51-.932-.776-.941-.82-1.873-1.652-2.824-2.46-1.081-.919-1.4-2.253-.726-3.452.317-.564.804-.991,1.544-.757.662.209.914.7.843,1.371Zm-.869.638c.026-.357.221-.805.01-1.091s-.617-.075-.828.226-.236.397-.279.848.119,1.003.323,1.309.987,1.195,1.22,1.08-.311-1.496-.379-1.786-.094-.23-.068-.587Z"/>
      <path class="cls-1" d="m132.618,173.233c.045.294.213.717.652,1.142,1.281,1.241,1.878,2.636,1.737,4.458-.132,1.719.783,2.942,2.331,3.702.246.121.706.34.614.618s-.91.069-1.154-.072c-1.668-.965-2.76-2.155-2.574-4.176.153-1.659-.588-2.857-1.558-3.958-.6-.68-.787-1.414-.801-2.226-.006-.341.156-1.029.377-1.029s.402.128.368.622c-.012.181-.037.625.009.918Z"/>
      <path class="cls-1" d="m139.748,88.412c-.002-.037,0,.47-.004-.11s.53-1.379.776-1.379.781.61.995,1.156.389,2.259.676,3.365c.211.814.628,1.572.901,2.372.093.272.224.8.036.899s-.676-.138-.913-.332c-1.888-1.54-2.197-3.75-2.467-5.971Zm.641.62c-.004.257.755,2.826.987,3.378s.747,1.087.895,1.049-.286-.647-.572-1.461-.417-2.158-.723-3.328c-.045-.171-.308-.349-.447-.349s-.136.454-.14.71Z"/>
      <path class="cls-1" d="m159.45,124.147c.805.014,1.209.544.78,1.251-.489.805-1.141,1.534-1.823,2.191-1.085,1.046-2.245,2.016-3.395,2.993-.192.163-.56.447-.74.295s.084-.523.212-.73c.965-1.559,1.944-3.109,2.935-4.651.533-.83,1.362-1.36,2.032-1.349Zm.21,1.151c0-.204-.645-.731-1.074-.164-.609.72-1.162,1.598-1.726,2.355-.03.041-1.06,1.424-.978,1.53s1.448-1.273,1.533-1.349c.493-.441.977-.893,1.442-1.363.228-.231.802-.806.803-1.009Z"/>
      <path class="cls-1" d="m157.765,155.298c.352-2.377.916-4.021,2.417-5.806.422-.502,1.001-.962,1.612-.414.605.543.294,1.176-.103,1.793-1.077,1.675-2.089,3.391-3.152,5.075-.137.218-.362.594-.642.507s-.153-.914-.132-1.155Zm3.647-5.3c0-.207-.305-.467-.47-.377s-1.068,1.16-1.235,1.476c-.497.94-.566,1.342-.987,2.322-.051.119-.39,1.18-.248,1.292s.784-1.146.858-1.25c.725-1.022,1.117-1.925,1.83-2.955.083-.119.25-.301.25-.508Z"/>
      <path class="cls-1" d="m139.316,74.424c.361.971.328,1.526.121,2.296s-.172,1.731.199,2.705c.078.205.029.671-.144.758s-.522-.265-.634-.476c-.826-1.559-1.865-3.149-1.686-4.888s.64-1.8.822-1.8.961.434,1.322,1.405Zm-1.376,1.466c.112.962.602,2.227.812,2.227s.192-1.92.136-2.575-.517-1.22-.723-1.22-.336.605-.225,1.567Z"/>
      <path class="cls-1" d="m134.034,156.167c-.018-.184-.026-.377-.04-.547.006-.23.014-.482.33-.482s.332.288.363.457c.095.503.065,1.033.186,1.528.299,1.227,1.034,2.18,1.979,2.997.697.602,1.344,1.261,2.035,1.87,1.057.931,1.465,2.194,1.807,3.487.045.171.091.475-.129.558-.229.086-.273.022-.447-.084-.049-.029-.146-.302-.157-.374-.377-2.478-2.4-3.689-4.018-5.201-1.229-1.149-1.732-2.597-1.909-4.207Z"/>
      <path class="cls-1" d="m127.349,123.63c-.499-.93.445-1.821,1.043-1.97.873-.218,1.432.159,1.767.941.203.476.409.953.572,1.443.267.802.528,1.608.729,2.427.058.237-.014.663-.172.757-.188.111-.621.057-.794-.097-.904-.811-1.467-1.267-2.3-2.15-.288-.305-.345-.42-.845-1.351Zm2.964,1.636c.048-.455-.428-1.437-.688-2.003-.137-.299-.42-.607-.713-.728-.157-.065-.653.231-.681.412-.056.361-.005.839.204,1.117.347.463.841.822,1.301,1.189.1.08.529.466.577.012Z"/>
      <path class="cls-1" d="m134.296,165.768c.142.006.357.147.407.625.157,1.496.663,1.677,1.39,2.473s.848,1.831.951,2.784c.173,1.6.611,2.657,2.017,3.875.122.083.331.248.182.52s-.677.062-.793-.084c-.614-.777-1.208-1.582-1.699-2.44-.224-.391-.333-1.089-.371-1.563-.118-1.457-.079-1.739-1.57-3.478-.89-1.038-.819-2.152-.826-2.392s.149-.327.311-.321Z"/>
      <path class="cls-1" d="m151.22,180.996c-.201,0-.04-.489.009-.57,1.284-2.156.254-5.014,1.251-7.195.47-1.028.96-1.697,1.545-2.667.086-.143.267-.442.522-.272s.074.522-.043.667c-1.384,1.716-2.082,3.285-1.979,5.509.053,1.137-.308,3.236-.563,3.814s-.541.714-.742.714Z"/>
      <path class="cls-1" d="m156.504,179.478c0,.25-.712.459-1.073,1.006s-.483,1.065-.542,1.604-.076,1.314-.201,1.942c-.151.757-.431,1.412-.781,2.179-.147.26-.437.468-.642.468s.042-.468.16-.656c.816-1.355.81-2.781.945-4.21.1-1.063.46-1.946,1.491-2.408.132-.059.643-.175.643.075Z"/>
    </g>
    <path class="cls-1" d="m134.2,144.284s2.806,1.587,2.967,1.596,1.701-.74,1.701-.74l.349.425s-1.846.753-1.885.894l-.419,1.52-.349-.536s.146-.921.116-1.06-2.793-1.693-2.793-1.693l.177-.512.136.105Z"/>
  </g>
</svg>