<?xml version="1.0" encoding="UTF-8"?>
<svg id="jeep" xmlns="http://www.w3.org/2000/svg" viewBox="0 0 379.8926 180.4455">
  <defs>
    <style>
      .cls-1, .cls-2, .cls-3 {
        stroke-width: 0px;
      }

      .cls-2 {
        fill: #505b4b;
      }

      .cls-3 {
        fill: #fff;
      }
    </style>
  </defs>
  <path class="cls-1" d="m365.5789,83.8815c-.1289,2.6586-.0201,3.6189-.0633,6.2789-.0363,2.2397.1332,4.4821.1577,6.7238.0439,3.9948.1211,7.9922.0093,11.9835-.0243.8694-.5791,1.9682-1.2512,2.5241-1.392,1.1511-1.5225,2.6712-.7824,3.8096.4097.63,2.1733.7363,3.222.5347,5.4337-1.0452,9.853,1.3765,11.4597,6.6849,1.6568,5.4741,1.8851,11.1137,1.2005,16.7565-.4714,3.8857-1.3797,4.7985-5.9483,5.8367-1.4699.3341-1.9661.674-1.8211,2.0271.2064,1.9247.4313,3.8474.6584,5.7698.0954.8078.557,2.1352.2652,2.3252-1.0744.6994-1.6782,2.1233-3.6039,1.6895-2.5527-.5752-5.2827-.3083-7.9133-.6076-3.1258-.3557-6.2576-.7938-9.3204-1.4885-.9294-.2109-1.9901-1.2402-2.3807-2.1551-.987-2.3123-1.6249-4.7733-2.4104-7.1723-.0758-.2315-.2047-.4456-.3089-.6678-.0424.3006-.0984.5999-.1253.9019-.6951,7.8192-2.6515,15.3069-6.0462,22.3873-1.6236,3.3863-4.2778,5.6915-7.8885,6.8807-2.6936.8872-5.314,2.0253-8.0447,2.7642-5.0647,1.3703-9.6044-.3329-13.9509-2.7953-1.5902-.9007-3.3555-1.585-4.7403-2.731-1.5451-1.2787-3.1199-2.7765-4.0295-4.5193-2.5825-4.9482-3.9201-10.2546-4.1003-15.9107-.1584-4.977.0703-9.8623,1.9008-14.5038,3.0283-7.6788,7.5498-13.978,15.7898-16.9403,6.0848-2.1875,11.7711-1.089,17.0146,1.9752,3.6531,2.1348,6.8621,4.9997,8.4879,9.296,1.2154,3.2115,2.9668,6.2207,4.4987,9.3106.1199.2418.3912.4088.5922.6106.0421-.2953.1679-.607.1136-.8833-.5109-2.6-1.0727-5.1902-1.5808-7.7908-.8821-4.5148-1.9076-9.0112-2.5438-13.5612-.44-3.1471-2.6974-3.8802-5.0488-4.4277-5.1812-1.2062-10.381-2.4111-15.6362-3.1951-3.6191-.5399-7.3465-.5306-11.0203-.4679-2.5966.0442-4.0106,2.0797-4.7413,4.2561-1.9126,5.6967-4.1977,11.2382-5.4331,17.2079-1.2543,6.061-3.5993,11.9022-5.5587,17.8091-1.1348,3.4209-3.4516,4.5463-6.8804,3.5456-5.8037-1.6938-11.6645-2.591-17.7561-3.016-12.5092-.8728-24.91.7098-37.3673.6856-9.3809-.0182-18.7634.3915-28.1435.6676-2.0417.0601-4.0994.2297-6.11.5783-6.2904,1.0904-12.1621-1.0652-18.1805-2.1479-2.3901-.4301-4.8228-.7122-7.2476-.8361-2.5336-.1293-5.0833-.0476-7.6219.0498-4.0679.156-8.1345.3697-12.1963.6402-.6533.0436-1.6861.3565-1.8524.8025-1.372,3.68-4.795,3.1978-7.2629,2.88-4.2083-.5419-8.3624-1.9167-12.3633-3.4124-1.2496-.4671-2.3938-2.3273-2.7795-3.766-.8419-3.1413-1.1621-6.4218-1.7032-9.6442-.355-2.1135-.6226-4.2481-1.1077-6.3318-.9508-4.0835-2.0103-8.1419-3.0554-12.2028-.713-2.7708-3.1785-4.5897-6.0043-4.8347-4.5497-.3944-9.0871-.7149-13.6386-1.4026-6.3217-.9552-12.9096-.7367-19.3253-.2516-3.5659.2698-5.6255,3.6302-6.8855,6.8145-2.0612,5.2087-3.7636,10.5589-5.6405,15.8412-.3755,1.0568-.8632,2.0735-1.2848,3.1145-.8803,2.174-1.9066,4.3041-2.5927,6.5383-1.3435,4.3745-4.6384,6.8783-9.2548,6.7627-5.1089-.128-10.2177-.265-15.3269-.3794-.7145-.016-1.4571-.0332-2.1431.1316-4.9574,1.1903-9.7669.3946-14.5845-.8718-1.7543-.4611-3.6027-.6193-5.4203-.769-1.9072-.1571-3.2755-.5139-4.4134-2.5393-1.7977-3.1996-4.6497-5.37-8.1044-7.1561C.0606,135.5817-2.7831,127.7683,3.1427,120.1625c2.1033-2.6998,5.5881-2.7694,8.8327-2.031,2.7516.6262,2.8257.7098,2.8743-2.1648.0778-4.5992-.0351-9.2016.032-13.8011.0653-4.484.291-8.9654.3742-13.4494.0379-2.0435-.0466-4.0932-.164-6.135-.4053-7.0466-.5087-14.0955-1.2838-21.1423-.5649-5.1363.2867-10.4252.4628-15.6476.0622-1.8444-.2118-3.7207.0305-5.534.4313-3.2266,1.0474-6.4367,1.7541-9.6163.9082-4.0861,1.9336-8.1483,3.0078-12.1943.4446-1.6746,1.0417-3.3288,1.7619-4.9044.6421-1.4049,1.7221-1.9151,3.4724-1.8204,5.0818.2752,10.1874.0937,15.2724.3321,2.8407.1333,5.6573.7574,8.4885,1.1326.9113.1207,1.8374.2396,2.7515.2082,2.1517-.0737,3.9869-.2382,5.0887-2.848.772-1.8287,2.867-3.1065,4.3969-4.6041.5824-.5701,1.4031-.9581,1.8316-1.6143C64.9639-.0154,68.9238-.5978,73.6324.4508c2.0625.4592,4.2837.4167,6.4176.3064,7.2382-.3745,14.4045.3225,21.6119.8548,7.8211.5776,15.7079.3235,23.566.3254,9.1047.0023,18.2127.0169,27.3129-.2209,5.9264-.1547,11.8406-.761,17.7619-1.1387,1.328-.0849,2.6664-.0093,3.9942-.0964,3.3852-.2221,5.5601,1.2385,7.6617,3.9924,2.8339,3.7134,6.4402,6.8443,9.7935,10.1456.4332.4264,1.331.5137,2.0185.5285,6.7224.1446,13.4456.2568,20.169.3457,8.1974.1083,16.3952.2432,24.5927.2456,3.0155.0009,4.8226,1.2845,6.3898,3.8683,3.7167,6.1273,7.8376,12.0079,11.6814,18.0605,1.753,2.7603,3.3425,5.6381,4.8187,8.5574,2.4415,4.8283,4.7417,9.7283,7.0812,14.6078,1.5576,3.2488,3.9727,5.6167,7.6271,5.8198,6.7404.3745,13.5025.339,20.2524.569,3.7734.1286,7.5411.4383,11.3102.6821,6.4433.4167,12.9213,1.4841,19.3209,1.1287,11.1939-.6216,22.075,1.1249,33.0027,2.867,1.1997.1913,2.4828.4729,3.4843,1.1002.8123.5088,1.6835,1.5516,1.7853,2.4424.2537,2.2197.0837,4.4878.0837,6.7365.1707.0017.0384,1.7008.2091,1.7025Zm-114.4364,61.7587c.0108.0669.0217.1337.0325.2005,3.7901,0,7.5842.1098,11.3693-.0274,4.9604-.1797,4.9519-.2641,5.4832-5.3647.0633-.608.2712-1.201.3375-1.809.5555-5.0891,1.2492-10.1694,1.6-15.273.5113-7.4389.8183-14.8932,1.126-22.3445.2704-6.5474.4428-13.0992.6118-19.6503.0428-1.6585-.3628-2.7095-2.5115-2.9984-3.1676-.4258-7.1024-.3635-7.2418-5.2366-.0041-.1432-.5342-.4422-.653-.375-.2258.1277-.3453.4607-.4843.7215-.6423,1.2055-1.0148,2.6996-1.9621,3.5704-2.8336,2.6048-8.4822,2.828-11.1576.6384-.3562-.2916-.8557-.5938-1.2824-.5849-4.5862.097-9.1707.3536-13.7565.3714-5.1181.0198-10.2533.0633-15.3517-.3071-8.3783-.6086-16.738-.9719-25.1159-.1596-2.4075.2333-3.5506-.606-3.7312-3.1662-.2654-3.7644-.4198-7.5424-.4503-11.316-.0396-4.8992-.0263-9.8046.1754-14.6986.2272-5.5114.7695-11.0096,1.0063-16.5209.0835-1.9434.4863-3.1511,2.6976-3.2062,4.2982-.107,8.5928-.3957,12.8909-.4545,4.4056-.0603,8.9212-.5189,13.1911.2682,4.4687.8238,8.751,1.7662,13.3412,1.0074,2.6192-.4328,5.2247-.1835,6.81,2.798,3.8767,7.2909,7.9476,14.4788,11.9735,21.6896.2756.4938.764,1.0721,1.2607,1.2025,1.7632.4629,3.5609.8362,5.3673,1.0838,4.1945.5751,6.3267,2.7627,6.2659,7.0394-.048,3.3719-.0234,6.5965,1.6184,9.7348,1.197,2.2882,3.683,3.7317,5.9758,2.7139.4058-.1802.8243-.6388.9624-1.0591.4602-1.4002-.7233-4.0372-1.9319-5.0132-1.0118-.8171-2.0976-1.7113-2.7148-2.815-1.5972-2.856-3.2091-5.7502-4.3614-8.8005-4.6564-12.3272-12.8155-22.5777-19.6676-33.6017-1.049-1.6878-2.5821-2.6044-4.5205-3.3888-2.4449-.9894-4.7435-.846-7.1952-.8001-6.2244.1166-12.4525.1468-18.6778.0793-5.9112-.0642-11.821-.2855-17.7307-.4589-2.768-.0812-5.5339-.2373-8.3021-.3083-1.055-.027-2.1362.0529-2.0853,1.5701.2158,6.4378.5822,12.8751.6046,19.3136.0295,8.4886-.1045,16.9814-.3695,25.466-.2232,7.1442-1.0658,14.2805-1.04,21.4182.0388,10.7475.6504,21.4917.8815,32.2404.0409,1.9019.6283,2.5248,2.4564,2.533,10.3325.046,20.6645.1885,30.997.24,5.1126.0255,10.2271-.0183,15.3384-.1327,4.8873-.1092,9.7719-.3443,14.6572-.5368,2.7563-.1085,5.5108-.2697,8.2677-.3536,1.2619-.0385,2.7746.0348,2.6597,1.7352-.0978,1.4471-1.2345,2.3061-2.8104,2.2269-1.3311-.0669-2.6629-.2967-3.9888-.259-6.5423.186-13.0817.5877-19.6242.6328-12.1841.0838-24.3696-.0333-36.5545-.0515-2.9626-.0044-5.9261.0134-8.8874.0898-2.756.0711-2.917.3659-2.8853,3.0224.0305,2.5606-.2101,5.1243-.1774,7.6848.0414,3.231.1981,6.4629.4185,9.6866.0293.4278.6807,1.0915,1.1213,1.1618,1.4873.2373,3.0122.3678,4.5176.3301,1.793-.045,3.5981-.5494,5.3667-.4219,3.4461.2484,6.8677.8228,10.3055,1.2079,1.0143.1137,2.0523.1055,3.0738.0499,3.7633-.2047,7.5213-.5494,11.2866-.6617,5.4225-.1616,10.8569-.0184,16.2728-.2809,4.976-.2411,9.9344-.8469,14.9005-1.292ZM33.9106,15.9494c-.0046.0912-.0091.1824-.0136.2736-2.0373,0-4.0787.0806-6.1109-.022-2.1769-.1097-3.4047.6551-3.9141,2.9164-.7869,3.4931-1.9346,6.9034-2.7871,10.3836-.9432,3.8506-2.2005,7.7076-2.4697,11.6205-.4214,6.1243-.2841,12.3024-.0986,18.4492.2555,8.4729,1.0508,16.9359,1.1095,25.4067.0645,9.3072-.4514,18.6.0408,27.9323.2648,5.0209.7502,10.2428-.8599,15.2498-.1818.5652-.2178,1.2521-.0884,1.8305.9351,4.18,1.9053,8.3527,2.9329,12.5109.1564.6329.5633,1.5801,1.0306,1.701,4.0585,1.0504,8.1168,2.297,12.2571,2.7731,3.1981.3677,6.512-.3324,9.7781-.473,1.8968-.0816,2.8939-.9363,3.45-2.7844,1.3194-4.3853,2.7713-8.7337,4.2822-13.0576,2.537-7.2608,5.2317-14.4669,7.7206-21.7437,1.2893-3.7698,2.3028-7.6352,3.3943-11.4706.538-1.8906,1.9322-3.14,3.6476-3.242,3.2545-.1935,6.5395.1265,9.8119.2308,2.6471.0845,5.2977.2893,7.9406.2169,3.2588-.0892,6.5176-.6493,9.7647-.5631,3.1495.0835,3.151.3315,3.8057-2.7333.1276-.5974.2149-1.2122.2385-1.8221.3423-8.8744.6904-17.7487.9939-26.6245.1505-4.4046.1097-8.8176.3395-13.2172.3188-6.1025.8726-12.1926,1.2002-18.2948.1411-2.6285-.0316-5.274-.0633-7.9117-.0147-1.2262.009-2.4547-.0592-3.678-.1262-2.2645-.7123-2.8168-3.0391-2.7488-2.9709.0867-5.9466.4513-8.9073.3428-4.5811-.1677-9.0858.6581-13.7499.2142-4.6122-.439-9.3642.3548-14.01-.7807-.665-.1626-1.4242.0841-2.1409.1046-1.6376.0469-3.2803.1651-4.9131.0873-6.8394-.3253-13.6758-.7122-20.5134-1.0766Zm81.799,1.2443c-.8398,0-1.3267.0122-1.6232.0028-2.4616,0-4.9286.098-7.3827-.0371-1.4434-.0795-1.7967.5111-1.7716,1.7672.0509,2.5543.0489,5.1097.066,7.6647.0461,6.9232.2967,13.8524.0904,20.7681-.3539,11.8615-.9828,23.7148-1.5235,35.5704-.0977,2.1422-.5301,4.2857-.4547,6.4161.1855,5.2444.4779,5.2788,5.8591,5.5743,4.8979.269,9.7704.9743,14.664,1.3611,1.6037.1268,3.2706.0217,4.8488-.285,1.1449-.2226,2.1563-1.3267,3.367-.1603.9442.9096,2.3766,1.6118,2.7977,2.7105,1.4234,3.714,2.5515,7.5463,3.6803,11.3666.9798,3.3163,1.6002,6.7516,2.7624,9.9971,1.0797,3.0155,1.2865,2.7546,4.5126,2.4692,6.0101-.5317,12.036-.9738,18.0647-1.1803,4.8896-.1676,9.7932.0469,14.6899.1298,1.4167.0239,2.0583-.5533,2.0636-1.995.0383-10.2906.0983-20.5812.1657-30.8717.0488-7.4448.0668-14.8904.2018-22.3338.0723-3.9846.4208-7.9636.5375-11.9483.1019-3.4807.0949-6.9662.0618-10.4489-.0466-4.9094-.1421-9.8187-.255-14.7271-.0611-2.6581-.4435-5.3341-.229-7.9652.1681-2.0618-.6803-2.5426-2.373-2.6188-3.7871-.1705-7.5732-.5091-11.3599-.5121-6.0439-.0047-12.0947.4467-18.1306.278-11.6494-.3253-21.6853-.4923-33.3298-.9921Zm122.1901,56.6223c.0038.0234.0075.0467.0113.0701,1.4338,0,2.8694-.0451,4.3009.0126,1.4457.0581,1.6786-.4948,1.4265-1.8738-.645-3.5274-1.1654-7.0824-1.5882-10.6438-.2746-2.314.0884-4.5385,2.2556-5.9614,1.0639-.6985.6906-1.3767.3837-2.3436-1.8014-5.6739-6.2079-9.8659-8.54-15.2271-1.3051-3.0005-3.7139-4.1314-6.8869-4.1335-2.1321-.0014-4.2673-.4161-6.3957-.3743-8.2665.1626-16.5766-.2104-24.715,1.8106-.6299.1563-1.405-.1058-2.0743-.303-2.9085-.8567-2.9248-.855-2.9714,2.094-.0097.6141-.0814,1.2269-.1199,1.8406-.3322,5.2993-.755,10.5953-.95,15.8997-.0783,2.1309.3773,4.2779.5311,6.4218.212,2.9556.3442,5.917.5594,8.8724.0904,1.2412.1985,2.5013,1.9373,2.62,2.6559.1811,5.3029.4977,7.9593.6654,4.8877.3086,9.7786.5715,14.6701.8139,3.1726.1573,6.3508.3765,9.5228.3278,3.5633-.055,7.1226-.3804,10.6835-.5882Zm68.4255,22.788c-3.3774.2781-6.4271.4817-9.4625.8142-.719.0788-1.8069.4183-2.0186.9301-1.8706,4.523-3.6484,9.0875-5.3248,13.6868-2.6928,7.3881-5.2987,14.8081-7.9184,22.2227-1.1598,3.2826-2.3506,6.5583-3.3648,9.8867-.784,2.5728-.4741,2.9027,2.2979,3.3147,2.4346.3618,4.9159.5208,7.2962,1.0995,1.7258.4196,2.138-.3159,2.5373-1.6778.9186-3.1325,2.0344-6.2084,2.9104-9.3517,2.3191-8.3218,6.2775-16.0832,8.2329-24.538,1.0049-4.3451,3.8618-6.8746,8.5134-6.8563,2.3377.0092,4.6836.1262,7.01.3556,4.875.4808,9.6487,1.9361,14.6526,1.2407,1.2412-.1726,2.6054.3917,3.8899.7105,2.6733.6631,5.299,1.5735,8.0033,2.0415,3.3927.5873,5.1578,1.8492,5.31,5.2044.2461,5.4231.6958,10.7971,1.7942,16.1183,1.095,5.3046,2.0153,10.6483,3.2544,15.9179.255,1.0841,1.4095,2.2121,2.444,2.8101,3.1619,1.8273,6.6286.3298,9.9569.5039.3061.016,1.0122-1.0562.9453-1.5423-.4023-2.9216-.7844-5.8704-1.5375-8.7136-1.1513-4.3467-2.7904-8.5671-3.8779-12.927-2.0034-8.0323-3.7608-16.126-5.6111-24.1963-.623-2.7171-1.8313-3.4034-4.6523-3.0227-1.6781.2266-3.4325.2066-5.1164.0011-2.8091-.3429-5.5719-1.1333-8.3846-1.3628-7.019-.5729-14.0603-.8691-21.0822-1.4115-3.6706-.2835-7.3192-.8524-10.6977-1.2587Zm54.8184-11.1119c.0628-3.1371.062-3.1286-2.9792-3.416-.6065-.0574-1.2013-.2761-1.8067-.3029-6.0835-.2692-12.1794-.8445-18.2478-.6363-3.4328.1178-6.713.0846-10.0253-.7696-1.5751-.4062-3.2143-.6979-4.8361-.7653-6.1364-.2554-12.2786-.3644-18.4161-.5956-3.2422-.1222-6.4767-.4711-9.7192-.5615-4.9894-.1392-9.9825-.1762-14.9741-.1826-1.2077-.0015-2.4751.1163-3.5991.5099-.5775.2024-1.2511,1.1181-1.2785,1.7381-.1486,3.3542-.1561,6.7175-.1148,10.0764.0225,1.8359.3965,3.6748.3358,5.5032-.1864,5.6186-.4642,11.235-.7915,16.8474-.1644,2.8196-.5437,5.626-.7629,8.4433-.0872,1.1197.0023,2.2527-.0007,3.3797-.0032,1.2037.0381,2.4115-.0431,3.6105-.2213,3.2652-.5165,6.5255-.7284,9.7912-.0291.448.2484.9159.3839,1.3746.2765-.3829.6549-.7276.8142-1.1542,2.7496-7.3633,5.4336-14.7513,8.213-22.1032,2.2394-5.9237,4.9226-11.7051,6.7516-17.7484.9866-3.2601,3.0401-4.5541,5.7409-5.1836,2.9601-.6899,6.0716-1.2751,9.0766-1.1208,7.6399.3926,15.256,1.2396,22.8844,1.8723,3.5633.2956,7.1356.4831,10.6988.7809,3.1475.263,6.287.6195,9.4315.9188,2.5354.2412,5.0818.7084,7.6071.6193,2.7413-.0967,3.3763.0361,4.3989,2.6037.3032.7613.5152,1.5599.8374,2.3121.1312.3065.4443.5351.6748.7992.1581-.3475.4522-.6944.4541-1.0428.0295-5.1991.0204-10.3984.0204-15.5978Zm-18.0664,61.708c-.836-9.4354-4.5746-17.0583-12.7279-21.6333-2.9322-1.6454-6.8676-1.5313-10.3627-2.1147-.513-.0856-1.1291.4039-1.6884.648-1.2168.5309-2.3835,1.2374-3.6498,1.5816-3.0412.8263-5.3435,2.6786-6.9506,5.2246-1.7902,2.8361-3.2215,5.8994-4.7869,8.8755-.135.2566-.1202.5985-.1495.9032-.7489,7.7793-1.6903,15.5748,2.1259,22.936.2791.5383.3579,1.1773.6023,1.7378.2344.5376.4343,1.2353.8718,1.5157,2.9213,1.8725,5.7801,3.9086,8.8974,5.3906,3.2237,1.5328,6.7589,2.4177,10.382,1.3976,2.2337-.6289,4.4516-1.3977,6.5592-2.3607,1.336-.6104,2.7025-1.487,3.6324-2.5981,5.2483-6.2708,6.0738-14.0282,7.245-21.5038ZM71.3806,5.0214c-3.2982-1.0705-5.4575,1.4278-7.6913,3.7146-.9212.943-1.757,1.9695-2.6323,2.9574-.9415,1.0625-.3868,1.3723.7105,1.4342,4.1522.2341,8.2372,1.7208,12.4783.5198.9315-.2638,2.0306.065,3.0526.1202,2.4467.1322,4.9037.473,7.3379.3522,5.1063-.2534,10.1951-.9629,15.3011-1.094,6.8529-.176,13.7173-.0718,20.5731.0767,7.8428.1698,15.68.6098,23.5229.7583,4.7922.0909,9.591-.2297,14.3859-.2021,2.6532.0153,5.3015.434,7.9573.5539,4.9833.2251,9.9703.3661,14.9559.5391.612.0212,1.2313.0879,1.8356.0238,1.3205-.1401,1.653-.6955.6263-1.7265-1.4373-1.4433-2.8922-2.8706-4.2897-4.3517-1.0884-1.1533-2.2226-1.8969-3.9508-1.9837-5.6174-.2819-11.2195-1.0071-16.8366-1.124-7.3715-.1533-14.7538.0276-22.1276.2169-6.8586.176-13.714.8216-20.5672.7713-8.6929-.0637-17.3816-.6383-26.0733-.9595-6.0316-.223-12.0652-.3901-18.5686-.5971Zm108.5871,126.8982c.0485,0,.0971-.0002.1456-.0002,0-1.1254.0205-2.2511-.0039-3.3759-.0692-3.1823-.8016-3.9864-3.923-3.9927-4.8963-.0097-9.799-.0584-14.6876.1618-4.9002.2207-9.7886.7266-14.6782,1.1528-3.6516.3183-4.1306.8665-3.1979,4.3919,1.0723,4.0527,2.2959,8.0736,3.6536,12.0399,1.0813,3.1586,3.1904,4.2049,6.4625,3.6508,1.1019-.1866,2.219-.3968,3.3296-.3997,7.3215-.0193,14.6431.0255,21.9645-.0048.3127-.0014.8905-.5339.8945-.8252.0584-4.2657.0402-8.5323.0402-12.7986Zm-85.6437-24.2867c1.3316,0,2.9239.4642,3.936-.1043,1.6881-.9485-.4923-2.4264-.0892-3.7222.0591-.1901.0288-.4073.0458-.6113.281-3.3587-.1535-3.8443-3.5386-3.8158-2.8637.0241-5.7284.169-8.5904.1234-4.8918-.078-9.7833-.2282-14.6719-.4233-1.5942-.0636-2.4281.5734-2.9297,2.0689-.9107,2.7156-1.9829,5.3767-2.9728,8.0661-2.9305,7.9618-5.8577,15.9248-8.7779,23.8904-1.2629,3.4449-2.569,6.876-3.7358,10.3535-.862,2.569-.4248,3.1702,2.2405,3.1374,1.7262-.0212,3.5936-.8207,5.1365-.3724,1.9199.5576,2.4336-.305,2.9211-1.6044,1.3972-3.7238,2.9724-7.4038,4.0394-11.2234,1.9104-6.8391,4.6201-13.3056,7.5639-19.7598,1.7681-3.8766,4.3794-5.6114,8.1104-5.9345,3.7447-.3242,7.5395-.0712,11.3125-.0683Zm19.0668,1.5878c.0037-.0718.0073-.1438.011-.2156,2.3329.1669,4.9727-.3083,6.9369.6301,4.56,2.1784,8.1469,5.4835,8.2926,11.1736.0359,1.4038.3023,2.819.6119,4.1954,1.2337,5.4847,2.7203,10.9207,3.7291,16.4449.6752,3.6976,2.1384,6.3333,6.0151,7.0998,1.5726.3108,3.1681.5057,4.7532.7534-.3559-1.5391-.6049-3.1124-1.0855-4.6115-2.5566-7.9734-5.2697-15.898-7.7322-23.8999-1.7389-5.6506-3.1897-11.3907-4.7159-17.1051-.4322-1.6179-1.1877-2.0997-3.0003-2.22-6.4156-.4258-12.8089-1.2068-19.2041-1.9129-5.3004-.5852-5.6815-.1993-4.6268,5.0916.6388,3.2049,1.5038,3.9928,4.7994,4.2624,1.7355.1419,3.4769.2117,5.2156.3139Zm238.3099-31.1552c-.0002.0024-.0002.0047-.0003.0071,1.5307,0,3.0639.0541,4.5909-.021.8593-.0423,1.7082-.2974,2.5618-.4566-.7333-.6455-1.4321-1.3385-2.2179-1.9121-.2918-.213-.7891-.1377-1.19-.2091-4.7955-.8536-9.5681-1.8838-14.3935-2.5034-3.1151-.4-6.3076-.2602-9.465-.2503-3.2464.0102-6.4931.2323-9.7385.21-1.5071-.0104-3.0075-.4206-4.5184-.5788-3.5568-.3724-7.1202-.6829-10.6768-1.0569-1.8317-.1927-3.656-.6805-5.4814-.6689-7.8783.05-15.7554.2632-23.6338.3472-1.5033.016-2.6411.0606-2.6018,2.0408.0366,1.8402.6899,2.3633,2.6106,2.3517,5.408-.0326,10.8181.2505,16.2271.4151,4.867.1481,9.7521.6428,14.5964.3804,7.9952-.4331,15.8998-.4947,23.6732,1.7579.6717.1947,1.4259.1401,2.1418.1413,5.8386.01,11.6771.0056,17.5157.0056Zm-92.1754-13.889c-.5591-1.0177-.8594-2.4889-1.6528-2.8371-2.4949-1.0953-5.1934-1.7166-7.7756-2.6279-1.2404-.4378-1.6448-.0449-1.7933,1.1519-.5424,4.3709.1136,8.5108,2.0859,12.47.7966,1.599,2.0021,2.2252,3.6937,2.1241,1.5944-.0953,2.7282-.8807,3.195-2.4115.7676-2.5168,1.4499-5.0597,2.247-7.8694Zm115.2432,68.0382c-.0136-.6221-.0122-1.0954-.0365-1.4241-.0974-2.6412-.0996-3.6475-.5759-6.1413-.6561-3.4357-2.9237-5.0806-6.3646-4.7761-2.4578.2175-2.9759.972-2.233,3.4122,1.4293,4.6953,2.9082,9.3754,4.3365,14.071.3497,1.1495.2909,2.5848,2.0898,2.4801,1.8883-.11,2.742-1.2267,2.7994-3.0109.0493-1.531-.0157-3.0783-.0157-4.6108Zm-370.1035-3.5388c.4944,1.3026.8968,2.4209,1.3411,3.5223,1.3124,3.2531,4.2679,4.4646,7.1857,5.6824.684.2856,1.4733.3186,2.2141.4679.0294-.6839.1782-1.3877.068-2.0484-.5495-3.2957-1.1479-6.5837-1.776-9.8654-.1322-.6905-.3775-1.3894-.7152-2.0051-1.1789-2.149-5.0446-2.7186-6.2151-.8041-.9297,1.5207-1.404,3.3199-2.1026,5.0503Z"/>
  <path class="cls-1" d="m94.5008,180.4406c-6.3627.145-11.2578-2.9674-15.8962-6.6726-1.3535-1.0813-2.7385-2.1797-3.8611-3.4837-4.944-5.7434-4.7881-12.6489-3.8229-19.4897.6362-4.5097,1.6503-9.0993,3.3887-13.2819,1.6596-3.993,4.3886-7.5639,6.8249-11.2015,1.0644-1.5893,2.6721-2.8038,3.8585-4.3246,4.7741-6.1196,9.8-6.3048,16.4567-4.8384,2.6645.587,5.1929,1.8732,7.7198,2.9852,5.0162,2.2073,8.0121,6.5171,10.9549,10.8401.8629,1.2674,1.4027,2.7849,2.3865,3.9347,3.7647,4.3994,4.4762,9.5459,3.9148,15.024-.5874,5.7312-1.4531,11.3785-4.4843,16.475-3.5545,5.9762-8.5093,10.4018-15.1025,12.3948-3.9194,1.1849-8.2125,1.134-12.3377,1.6387Zm28.2935-31.1971c.8098-6.5695-5.6299-17.6004-12.9746-20.764-1.8236-.7855-3.3076-2.3281-5.027-3.3951-1.617-1.0033-3.2588-2.0556-5.0298-2.7039-4.345-1.5903-7.873.7067-11.0102,3.131-5.8079,4.4882-9.6251,10.491-11.6906,17.532-.7138,2.4331-1.0171,4.9835-1.6064,7.4568-1.97,8.2686.2573,15.0166,6.9758,20.3554,8.9023,7.0742,19.0066,5.9294,27.4003,1.5378,8.4333-4.4123,12.3693-12.3647,12.9625-23.15Z"/>
  <path class="cls-2" d="m251.1426,145.6402c-4.9661.4451-9.9245,1.0509-14.9005,1.292-5.4159.2625-10.8503.1193-16.2728.2809-3.7654.1122-7.5233.457-11.2866.6617-1.0215.0557-2.0595.0638-3.0738-.0499-3.4378-.3851-6.8594-.9596-10.3055-1.2079-1.7687-.1276-3.5737.3769-5.3667.4219-1.5054.0378-3.0303-.0928-4.5176-.3301-.4406-.0703-1.092-.734-1.1213-1.1618-.2205-3.2237-.3772-6.4556-.4185-9.6866-.0328-2.5605.2079-5.1243.1774-7.6848-.0316-2.6565.1294-2.9513,2.8853-3.0224,2.9613-.0764,5.9249-.0942,8.8874-.0898,12.1849.0182,24.3704.1353,36.5545.0515,6.5424-.0451,13.0818-.4468,19.6242-.6328,1.3259-.0377,2.6577.1921,3.9888.259,1.5759.0792,2.7127-.7798,2.8104-2.2269.1149-1.7004-1.3978-1.7737-2.6597-1.7352-2.7569.084-5.5114.2451-8.2677.3536-4.8853.1925-9.7699.4276-14.6572.5368-5.1114.1144-10.2258.1582-15.3384.1327-10.3325-.0515-20.6645-.1939-30.997-.24-1.828-.0082-2.4155-.6311-2.4564-2.533-.2312-10.7487-.8428-21.4929-.8815-32.2404-.0258-7.1376.8168-14.274,1.04-21.4182.2651-8.4847.399-16.9775.3695-25.466-.0224-6.4385-.3888-12.8758-.6046-19.3136-.0509-1.5172,1.0303-1.5971,2.0853-1.5701,2.7682.071,5.5341.2271,8.3021.3083,5.9098.1735,11.8195.3948,17.7307.4589,6.2252.0676,12.4533.0373,18.6778-.0793,2.4517-.0459,4.7503-.1893,7.1952.8001,1.9383.7844,3.4714,1.701,4.5205,3.3888,6.8521,11.024,15.0112,21.2745,19.6676,33.6017,1.1523,3.0503,2.7642,5.9444,4.3614,8.8005.6172,1.1038,1.703,1.998,2.7148,2.815,1.2086.976,2.392,3.613,1.9319,5.0132-.1381.4203-.5566.8789-.9624,1.0591-2.2928,1.0179-4.7788-.4256-5.9758-2.7139-1.6418-3.1383-1.6664-6.3629-1.6184-9.7348.0608-4.2767-2.0714-6.4643-6.2659-7.0394-1.8065-.2476-3.6042-.6209-5.3673-1.0838-.4967-.1304-.9851-.7087-1.2607-1.2025-4.0259-7.2108-8.0968-14.3987-11.9735-21.6896-1.5854-2.9815-4.1908-3.2309-6.81-2.798-4.5902.7588-8.8726-.1836-13.3412-1.0074-4.2699-.7871-8.7855-.3285-13.1911-.2682-4.2982.0588-8.5928.3475-12.8909.4545-2.2113.0551-2.6142,1.2628-2.6976,3.2062-.2368,5.5112-.779,11.0095-1.0063,16.5209-.2017,4.894-.215,9.7994-.1754,14.6986.0305,3.7736.1849,7.5517.4503,11.316.1805,2.5602,1.3237,3.3995,3.7312,3.1662,8.3779-.8123,16.7376-.449,25.1159.1596,5.0985.3703,10.2337.3268,15.3517.3071,4.5857-.0178,9.1703-.2743,13.7565-.3714.4267-.009.9262.2933,1.2824.5849,2.6753,2.1895,8.324,1.9664,11.1576-.6384.9473-.8708,1.3198-2.365,1.9621-3.5704.139-.2608.2585-.5938.4843-.7215.1188-.0672.6489.2318.653.375.1394,4.8732,4.0742,4.8108,7.2418,5.2366,2.1487.2889,2.5543,1.3399,2.5115,2.9984-.169,6.551-.3414,13.1029-.6118,19.6503-.3077,7.4513-.6146,14.9056-1.126,22.3445-.3508,5.1037-1.0445,10.184-1.6,15.273-.0664.608-.2742,1.201-.3375,1.809-.5314,5.1006-.5228,5.185-5.4832,5.3647-3.7851.1372-7.5792.0274-11.3693.0274-.0108-.0669-.0217-.1337-.0325-.2005Zm-58.626-61.855c-.0084-.1155-.0168-.2312-.0252-.3468-.6655.2353-1.4464.3241-1.9715.7377-.9644.7597-2.5295,1.7438-2.4927,2.5746.0689,1.5545,1.7077,1.5359,3.135,1.5362,2.6448.0005,5.2964.1729,7.9325.4122,2.8465.2582,5.6844.6347,8.5151,1.0371,1.7333.2464,2.199-.4483,1.936-2.0703-.3297-2.033-1.4303-3.3008-3.3042-3.3822-4.5736-.1987-9.1498-.3363-13.725-.4984Z"/>
  <path class="cls-2" d="m33.9106,15.9494c6.8375.3644,13.674.7513,20.5134,1.0766,1.6327.0778,3.2755-.0405,4.9131-.0873.7167-.0205,1.4759-.2672,2.1409-.1046,4.6458,1.1354,9.3978.3417,14.01.7807,4.6641.4439,9.1688-.382,13.7499-.2142,2.9607.1085,5.9364-.2561,8.9073-.3428,2.3268-.0679,2.9129.4844,3.0391,2.7488.0681,1.2233.0445,2.4519.0592,3.678.0317,2.6377.2044,5.2832.0633,7.9117-.3276,6.1022-.8813,12.1923-1.2002,18.2948-.2298,4.3996-.189,8.8126-.3395,13.2172-.3034,8.8758-.6515,17.7501-.9939,26.6245-.0235.6099-.1108,1.2246-.2385,1.8221-.6547,3.0649-.6562,2.8168-3.8057,2.7333-3.2471-.0861-6.5058.4739-9.7647.5631-2.6429.0724-5.2935-.1325-7.9406-.2169-3.2724-.1043-6.5573-.4243-9.8119-.2308-1.7153.102-3.1096,1.3514-3.6476,3.242-1.0914,3.8354-2.1049,7.7008-3.3943,11.4706-2.4888,7.2769-5.1835,14.483-7.7206,21.7437-1.5109,4.324-2.9629,8.6724-4.2822,13.0576-.5561,1.8481-1.5532,2.7028-3.45,2.7844-3.2661.1406-6.58.8407-9.7781.473-4.1403-.476-8.1986-1.7226-12.2571-2.7731-.4673-.121-.8742-1.0681-1.0306-1.701-1.0276-4.1582-1.9978-8.3309-2.9329-12.5109-.1294-.5784-.0934-1.2653.0884-1.8305,1.6101-5.007,1.1247-10.2289.8599-15.2498-.4922-9.3322.0237-18.625-.0408-27.9323-.0587-8.4708-.854-16.9338-1.1095-25.4067-.1854-6.1468-.3228-12.3249.0986-18.4492.2692-3.9129,1.5266-7.7699,2.4697-11.6205.8525-3.4802,2.0002-6.8905,2.7871-10.3836.5094-2.2613,1.7372-3.0261,3.9141-2.9164,2.0322.1026,4.0736.022,6.1109.022.0046-.0912.0091-.1824.0136-.2736Zm12.081,7.5649l-.0042-.1435c-.7173,0-1.436-.0292-2.1516.0052-2.8409.1364-3.2164.6611-3.1911,3.5352.0132,1.4991-.3766,2.9979-.515,4.5032-.1199,1.3039-.1481,2.6165-.2061,3.9259-.1898,4.2807-.1945,8.579-.6052,12.8383-.5657,5.8663-1.571,11.6906-2.123,17.5579-.2955,3.1414,1.9957,5.6146,5.1143,5.7267,7.9579.2862,15.9402.8272,23.8776.4744,7.299-.3244,14.486-.2045,21.6742,1.0284,3.5965.6168,4.7274-.1596,5.5438-3.7147.2263-.9854.191-2.0308.2762-3.0488.3076-3.6736.3176-7.402.9818-11.01,1.6629-9.0345.6414-17.8897-1.1036-26.7577-.4764-2.4212-1.8733-3.4839-4.2132-3.6396-2.348-.1561-4.6999-.3028-7.0365-.5712-4.0522-.4654-8.0817-1.2809-12.1433-1.4737-4.9951-.237-10.0154-.0612-15.0207.081-3.0554.0869-6.1031.4462-9.1542.683Z"/>
  <path class="cls-2" d="m117.8639,17.3032c11.6445.4998,19.526.5573,31.1754.8826,6.0359.1687,12.5379-.4977,18.5818-.4931,3.7867.0029,7.1216.5566,10.9088.7271,1.6927.0761,2.5411.557,2.373,2.6188-.2145,2.6311.1679,5.3071.229,7.9652.1129,4.9084.2084,9.8177.255,14.7271.0331,3.4827.0401,6.9682-.0618,10.4489-.1167,3.9847-.4652,7.9637-.5375,11.9483-.135,7.4433-.153,14.889-.2018,22.3338-.0674,10.2905-.1274,20.5811-.1657,30.8717-.0053,1.4417-.647,2.0189-2.0636,1.995-4.8967-.0829-9.8003-.2974-14.6899-.1298-6.0287.2066-12.0546.6487-18.0647,1.1803-3.2261.2854-3.4328.5463-4.5126-2.4692-1.1622-3.2455-1.7826-6.6809-2.7624-9.9971-1.1287-3.8203-2.2568-7.6525-3.6803-11.3666-.4211-1.0986-1.8534-1.8009-2.7977-2.7105-1.2108-1.1664-2.2221-.0623-3.367.1603-1.5782.3067-3.2451.4119-4.8488.285-4.8936-.3868-9.7661-1.0921-14.664-1.3611-5.3812-.2955-5.6736-.3299-5.8591-5.5743-.0754-2.1303.357-4.2739.4547-6.4161.5408-11.8555,1.1696-23.7089,1.5235-35.5704.2063-6.9156-.0442-13.8449-.0904-20.7681-.017-2.555-.015-5.1104-.066-7.6647-.0251-1.2561.3283-1.8467,1.7716-1.7672,2.4541.1351,4.9212.0371,7.3827.0371.4547-.015,3.3515.1067,3.7775.1067Zm-7.477,39.9457c.1735,2.3908.2423,5.8882.7767,9.313.1864,1.1946,1.2977,2.6316,2.3847,3.2093,1.6624.8834,3.659,1.1642,5.5348,1.6122,1.4788.3533,2.994.5515,4.4849.8579,1.8004.37,3.5802,1.0364,5.3904,1.1219,3.7669.1778,7.5496-.0138,11.3227.0755,6.4149.1519,12.8278.3928,19.2404.6279.7063.0258,1.4112.2324,2.1063.399,2.0592.4935,4.0904,1.1526,6.1744,1.4827,3.2369.5127,5.3701-1.4065,5.5514-4.6367.4982-8.8787,1.1586-17.7504,1.5008-26.6347.1194-3.0995-.3316-6.2553-.8323-9.335-.5689-3.4996-2.8178-5.6836-6.3505-6.1128-3.5442-.4307-7.1305-.5057-10.6946-.7847-6.7824-.531-13.685.7907-20.3683-1.3258-.47-.1489-1.0177-.0437-1.5281-.0757-6.4843-.4052-12.9669-.8399-19.4543-1.1858-.7158-.0382-1.912.2321-2.1089.6917-.7907,1.8465-1.6658,3.796-1.8054,5.7576-.5654,7.944-.8699,15.9067-1.325,24.9424Zm5.8358,27.4738c.0185-.1291.037-.2581.0555-.3872,2.6141.3824,5.225.7892,7.8444,1.1306.6959.0907,1.4713.1385,2.1144-.0782.7663-.2581,2.0672-.9268,2.0168-1.2337-.1457-.8867-.6622-2.0994-1.3792-2.4273-1.6451-.7518-3.4704-1.2156-5.2694-1.4974-2.1184-.3317-4.2851-.367-6.433-.4949-1.9414-.1156-3.8852-.2361-5.8288-.2546-1.5135-.0144-2.3816,1.0278-2.2318,2.351.0811.7163,1.0829,1.7354,1.8247,1.8947,2.39.5132,4.8521.6903,7.2864.997Z"/>
  <path class="cls-3" d="m237.8996,73.8159c-3.561.2078-7.1202.5332-10.6835.5882-3.172.0487-6.3502-.1705-9.5228-.3278-4.8915-.2424-9.7824-.5053-14.6701-.8139-2.6565-.1677-5.3034-.4843-7.9593-.6654-1.7388-.1186-1.847-1.3788-1.9373-2.62-.2152-2.9554-.3474-5.9167-.5594-8.8724-.1537-2.1439-.6094-4.2909-.5311-6.4218.195-5.3043.6178-10.6003.95-15.8997.0385-.6137.1101-1.2265.1199-1.8406.0466-2.949.0629-2.9507,2.9714-2.094.6693.1972,1.4444.4593,2.0743.303,8.1384-2.021,16.4485-1.648,24.715-1.8106,2.1284-.0418,4.2635.3729,6.3957.3743,3.173.0021,5.5818,1.133,6.8869,4.1335,2.3321,5.3612,6.7386,9.5532,8.54,15.2271.307.9669.6803,1.6451-.3837,2.3436-2.1672,1.4229-2.5303,3.6474-2.2556,5.9614.4228,3.5614.9433,7.1164,1.5882,10.6438.2522,1.379.0192,1.932-1.4265,1.8738-1.4315-.0577-2.8671-.0126-4.3009-.0126-.0038-.0234-.0075-.0467-.0113-.0701Z"/>
  <path class="cls-2" d="m306.3251,96.6039c3.3785.4063,7.0272.9752,10.6977,1.2587,7.022.5424,14.0632.8386,21.0822,1.4115,2.8127.2296,5.5756,1.0199,8.3846,1.3628,1.6839.2056,3.4383.2255,5.1164-.0011,2.821-.3808,4.0292.3056,4.6523,3.0227,1.8503,8.0703,3.6077,16.164,5.6111,24.1963,1.0875,4.3599,2.7266,8.5804,3.8779,12.927.7531,2.8432,1.1352,5.792,1.5375,8.7136.0669.4861-.6393,1.5583-.9453,1.5423-3.3283-.1741-6.7951,1.3233-9.9569-.5039-1.0345-.598-2.1891-1.7259-2.444-2.8101-1.2391-5.2697-2.1594-10.6133-3.2544-15.9179-1.0984-5.3212-1.5481-10.6953-1.7942-16.1183-.1522-3.3552-1.9172-4.617-5.31-5.2044-2.7043-.468-5.3301-1.3784-8.0033-2.0415-1.2845-.3188-2.6487-.8831-3.8899-.7105-5.0039.6954-9.7776-.76-14.6526-1.2407-2.3264-.2294-4.6723-.3464-7.01-.3556-4.6516-.0183-7.5084,2.5112-8.5134,6.8563-1.9554,8.4548-5.9137,16.2162-8.2329,24.538-.876,3.1433-1.9918,6.2192-2.9104,9.3517-.3994,1.3619-.8115,2.0974-2.5373,1.6778-2.3803-.5788-4.8616-.7378-7.2962-1.0995-2.7719-.4119-3.0819-.7419-2.2979-3.3147,1.0142-3.3284,2.205-6.6041,3.3648-9.8867,2.6197-7.4146,5.2255-14.8346,7.9184-22.2227,1.6764-4.5993,3.4543-9.1638,5.3248-13.6868.2116-.5118,1.2996-.8514,2.0186-.9301,3.0354-.3326,6.0851-.5361,9.4625-.8142Z"/>
  <path class="cls-2" d="m361.1435,85.492c0,5.1993.0091,10.3987-.0204,15.5978-.002.3484-.296.6953-.4541,1.0428-.2304-.264-.5436-.4926-.6748-.7992-.3222-.7522-.5342-1.5507-.8374-2.3121-1.0225-2.5675-1.6576-2.7004-4.3989-2.6037-2.5254.0891-5.0718-.3781-7.6071-.6193-3.1445-.2993-6.2841-.6558-9.4315-.9188-3.5632-.2978-7.1355-.4853-10.6988-.7809-7.6284-.6327-15.2445-1.4797-22.8844-1.8723-3.0051-.1544-6.1166.4309-9.0766,1.1208-2.7008.6295-4.7543,1.9236-5.7409,5.1836-1.829,6.0433-4.5122,11.8247-6.7516,17.7484-2.7794,7.3519-5.4633,14.7399-8.213,22.1032-.1593.4266-.5377.7713-.8142,1.1542-.1355-.4587-.413-.9266-.3839-1.3746.2119-3.2658.5071-6.5261.7284-9.7912.0812-1.199.0399-2.4068.0431-3.6105.003-1.1269-.0865-2.26.0007-3.3797.2193-2.8173.5985-5.6237.7629-8.4433.3273-5.6124.6051-11.2288.7915-16.8474.0607-1.8284-.3133-3.6673-.3358-5.5032-.0412-3.3589-.0337-6.7222.1148-10.0764.0274-.6201.701-1.5358,1.2785-1.7381,1.124-.3936,2.3914-.5114,3.5991-.5099,4.9917.0065,9.9847.0435,14.9741.1826,3.2424.0904,6.477.4393,9.7192.5615,6.1375.2312,12.2797.3402,18.4161.5956,1.6218.0674,3.261.359,4.8361.7653,3.3122.8542,6.5925.8874,10.0253.7696,6.0684-.2081,12.1643.3672,18.2478.6363.6054.0268,1.2002.2455,1.8067.3029,3.0412.2874,3.042.2789,2.9792,3.416Z"/>
  <path class="cls-3" d="m343.0771,147.2c-1.1713,7.4756-1.9968,15.2329-7.245,21.5038-.9299,1.1111-2.2963,1.9877-3.6324,2.5981-2.1076.9629-4.3254,1.7318-6.5592,2.3607-3.623,1.0201-7.1583.1352-10.382-1.3976-3.1172-1.482-5.976-3.5181-8.8974-5.3906-.4375-.2804-.6373-.9781-.8718-1.5157-.2444-.5605-.3231-1.1994-.6023-1.7378-3.8163-7.3612-2.8748-15.1567-2.1259-22.936.0293-.3047.0145-.6466.1495-.9032,1.5654-2.9761,2.9967-6.0394,4.7869-8.8755,1.6072-2.546,3.9094-4.3983,6.9506-5.2246,1.2662-.3441,2.433-1.0507,3.6498-1.5816.5594-.2441,1.1755-.7336,1.6884-.648,3.4951.5834,7.4306.4693,10.3627,2.1147,8.1534,4.5751,11.8919,12.198,12.7279,21.6333Zm-9.5128,1.2957c-.4765-1.6247-.7385-4.0749-1.8883-5.9931-1.114-1.8585-2.9844-3.4016-4.8211-4.6412-1.2446-.84-3.105-1.4847-4.5182-1.2369-6.8653,1.2039-12.0611,8.7973-10.4978,15.4203.3501,1.4828.995,2.8948,1.483,4.3466,1.668,4.9615,8.4657,7.6488,13.0197,5.0675,4.7386-2.6859,6.2755-7.2687,7.2227-12.9631Z"/>
  <path class="cls-2" d="m71.3806,5.0214c6.5034.207,12.537.3742,18.5686.5971,8.6917.3212,17.3804.8958,26.0733.9595,6.8532.0503,13.7087-.5952,20.5672-.7713,7.3738-.1893,14.756-.3703,22.1276-.2169,5.6171.1169,11.2192.8421,16.8366,1.124,1.7282.0867,2.8625.8303,3.9508,1.9837,1.3976,1.4811,2.8524,2.9084,4.2897,4.3517,1.0267,1.031.6941,1.5864-.6263,1.7265-.6043.0641-1.2236-.0026-1.8356-.0238-4.9856-.173-9.9726-.3141-14.9559-.5391-2.6558-.1199-5.3041-.5386-7.9573-.5539-4.7949-.0277-9.5937.2929-14.3859.2021-7.8429-.1485-15.6801-.5885-23.5229-.7583-6.8558-.1485-13.7202-.2528-20.5731-.0767-5.1061.1311-10.1948.8406-15.3011,1.094-2.4341.1208-4.8912-.22-7.3379-.3522-1.022-.0552-2.1212-.384-3.0526-.1202-4.241,1.201-8.3261-.2857-12.4783-.5198-1.0973-.0619-1.652-.3718-.7105-1.4342.8753-.9878,1.7111-2.0143,2.6323-2.9574,2.2339-2.2868,4.3932-4.7852,7.6913-3.7146Z"/>
  <path class="cls-2" d="m179.9677,131.9196c0,4.2663.0182,8.533-.0402,12.7986-.004.2913-.5818.8239-.8945.8252-7.3214.0303-14.643-.0145-21.9645.0048-1.1106.0029-2.2278.2131-3.3296.3997-3.2721.5541-5.3813-.4922-6.4625-3.6508-1.3577-3.9663-2.5813-7.9872-3.6536-12.0399-.9328-3.5254-.4538-4.0736,3.1979-4.3919,4.8896-.4262,9.778-.9321,14.6782-1.1528,4.8886-.2202,9.7913-.1715,14.6876-.1618,3.1214.0062,3.8538.8104,3.923,3.9927.0245,1.1248.0039,2.2506.0039,3.3759-.0485,0-.0971.0002-.1456.0002Z"/>
  <path class="cls-2" d="m94.324,107.6314c-3.7729-.0014-7.5677-.2544-11.3124.0698-3.731.3231-6.3423,2.0579-8.1104,5.9345-2.9438,6.4541-5.6535,12.9206-7.5639,19.7598-1.067,3.8196-2.6422,7.4995-4.0394,11.2234-.4876,1.2994-1.0013,2.162-2.9211,1.6044-1.5429-.4483-3.4103.3512-5.1365.3724-2.6653.0328-3.1025-.5684-2.2405-3.1374,1.1669-3.4775,2.4729-6.9086,3.7358-10.3535,2.9201-7.9656,5.8473-15.9286,8.7779-23.8904.9899-2.6894,2.0621-5.3505,2.9728-8.0661.5016-1.4955,1.3355-2.1325,2.9297-2.0689,4.8886.1951,9.7801.3453,14.6719.4233,2.862.0456,5.7267-.0993,8.5904-.1234,3.3851-.0285,3.8196.4571,3.5386,3.8158-.017.2041.0133.4213-.0458.6113-.4031,1.2957,1.7774,2.7737.0892,3.7222-1.0121.5685-2.6044.1043-3.936.1028Z"/>
  <path class="cls-2" d="m113.3908,109.2207c-1.7387-.1022-3.4801-.172-5.2156-.3139-3.2957-.2696-4.1606-1.0575-4.7994-4.2624-1.0547-5.2909-.6736-5.6769,4.6268-5.0916,6.3952.7061,12.7885,1.4871,19.2041,1.9129,1.8127.1203,2.5682.6021,3.0003,2.22,1.5262,5.7144,2.977,11.4545,4.7159,17.1051,2.4626,8.0019,5.1756,15.9265,7.7322,23.8999.4806,1.4991.7296,3.0725,1.0855,4.6115-1.5851-.2477-3.1806-.4427-4.7532-.7534-3.8767-.7665-5.3399-3.4022-6.0151-7.0998-1.0088-5.5242-2.4954-10.9602-3.7291-16.4449-.3096-1.3764-.576-2.7916-.6119-4.1954-.1457-5.69-3.7326-8.9951-8.2926-11.1736-1.9642-.9384-4.604-.4632-6.9369-.6301-.0036.0718-.0073.1438-.011.2156Z"/>
  <path class="cls-2" d="m351.7006,78.0655c-5.8386,0-11.6771.0044-17.5157-.0056-.7159-.0012-1.4701.0533-2.1418-.1413-7.7734-2.2526-15.678-2.191-23.6732-1.7579-4.8443.2624-9.7295-.2323-14.5964-.3804-5.409-.1646-10.8191-.4477-16.2271-.4151-1.9207.0117-2.574-.5114-2.6106-2.3517-.0393-1.9802,1.0984-2.0247,2.6018-2.0408,7.8783-.084,15.7555-.2971,23.6338-.3472,1.8254-.0116,3.6497.4762,5.4814.6689,3.5566.374,7.12.6845,10.6768,1.0569,1.5109.1582,3.0113.5684,4.5184.5788,3.2454.0223,6.4921-.1997,9.7385-.21,3.1574-.0099,6.3499-.1497,9.465.2503,4.8255.6196,9.598,1.6497,14.3935,2.5034.4009.0714.8982-.0038,1.19.2091.7858.5737,1.4846,1.2666,2.2179,1.9121-.8535.1592-1.7024.4143-2.5618.4566-1.527.0751-3.0602.021-4.5909.021,0-.0024.0002-.0047.0003-.0071Z"/>
  <path class="cls-2" d="m259.5252,64.1765c-.7971,2.8097-1.4794,5.3526-2.247,7.8694-.4669,1.5308-1.6006,2.3162-3.195,2.4115-1.6916.1011-2.8971-.5251-3.6937-2.1241-1.9723-3.9592-2.6283-8.0991-2.0859-12.47.1485-1.1968.5528-1.5897,1.7933-1.1519,2.5822.9113,5.2807,1.5326,7.7756,2.6279.7934.3483,1.0937,1.8194,1.6528,2.8371Z"/>
  <path class="cls-2" d="m374.7943,132.2282c0,1.5325.0392,3.0664-.0101,4.5973-.0575,1.7842-.9111,2.9009-2.7994,3.0109-1.799.1048-1.7401-1.3306-2.0898-2.4801-1.4283-4.6956-2.9072-9.3757-4.3365-14.071-.743-2.4403-.2248-3.1948,2.233-3.4122,3.4409-.3044,5.7086,1.3404,6.3646,4.7761.4762,2.4938.3933,3.1228.5637,5.9101.0243.3165.0487,1.1563.0745,1.6688Z"/>
  <path class="cls-3" d="m4.6649,128.6759c.6986-1.7305,1.1729-3.5296,2.1026-5.0503,1.1706-1.9145,5.0363-1.3449,6.2151.8041.3377.6157.583,1.3146.7152,2.0051.6281,3.2817,1.2265,6.5697,1.776,9.8654.1101.6606-.0386,1.3644-.068,2.0484-.7408-.1492-1.5302-.1823-2.2141-.4679-2.9178-1.2178-5.8733-2.4293-7.1857-5.6824-.4443-1.1014-.8467-2.2197-1.3411-3.5223Z"/>
  <path class="cls-3" d="m122.7943,149.2435c-.5932,10.7853-4.5291,18.7376-12.9625,23.15-8.3937,4.3916-18.498,5.5364-27.4003-1.5378-6.7185-5.3388-8.9458-12.0868-6.9758-20.3554.5892-2.4733.8926-5.0237,1.6064-7.4568,2.0655-7.041,5.8827-13.0438,11.6906-17.532,3.1371-2.4243,6.6652-4.7213,11.0102-3.131,1.7709.6483,3.4128,1.7007,5.0298,2.7039,1.7194,1.067,3.2034,2.6096,5.027,3.3951,7.3448,3.1636,13.7844,14.1946,12.9746,20.764Zm-22.096-14.3681c-1.0895,0-1.7086-.0442-2.3197.0074-3.3121.2793-6.5052,1.333-8.1997,4.206-2.5899,4.3913-3.9762,9.0671-1.8968,14.3436,1.6471,4.1794,6.7782,8.3147,11.2175,7.7584,4.9479-.6199,10.1343-3.2965,11.6685-8.9705.8834-3.2676.859-6.4779-.3177-9.3536-1.9074-4.6617-4.6451-8.6544-10.1521-7.9913Z"/>
  <path class="cls-1" d="m194.3255,83.5164c4.5752.1622,7.3425.5686,11.9161.7673,1.8739.0815,2.9744,1.3492,3.3042,3.3822.263,1.622-.2026,2.3167-1.936,2.0703-2.8307-.4024-5.6686-.7789-8.5151-1.0371-2.6362-.2392-5.2877-.4117-7.9325-.4122-1.4273-.0002-3.0661.0184-3.135-1.5362-.0368-.8308,1.5283-1.8149,2.4927-2.5746.5251-.4136,1.3059-.5024,1.9715-.7377.0084.1156,1.8258-.0376,1.8342.0779Z"/>
  <path class="cls-1" d="m45.9916,23.5143c3.0511-.2369,6.0988-.5962,9.1542-.683,5.0053-.1422,10.0256-.318,15.0207-.081,4.0616.1928,8.0911,1.0083,12.1433,1.4737,2.3366.2684,4.6885.4151,7.0365.5712,2.3399.1556,3.7368,1.2183,4.2132,3.6396,1.745,8.868,2.7666,17.7232,1.1036,26.7577-.6641,3.608-.6741,7.3365-.9818,11.01-.0852,1.0179-.0499,2.0633-.2762,3.0488-.8165,3.5551-1.9473,4.3316-5.5438,3.7147-7.1882-1.2329-14.3752-1.3528-21.6742-1.0284-7.9374.3529-15.9197-.1882-23.8776-.4744-3.1186-.1121-5.4098-2.5853-5.1143-5.7267.552-5.8672,1.5573-11.6915,2.123-17.5579.4107-4.2593.4154-8.5576.6052-12.8383.058-1.3093.0863-2.6219.2061-3.9259.1384-1.5053.5282-3.0041.515-4.5032-.0252-2.8741.3502-3.3988,3.1911-3.5352.7156-.0344,1.4343-.0052,2.1516-.0052l.0042.1435Zm16.9782,3.557c-6.9839.3811-11.7882.6975-16.5977.87-1.3018.0468-1.9104.5498-2.06,1.7365-.1021.8101-.15,1.6301-.1698,2.447-.1167,4.8135-.0275,9.6414-.3758,14.4377-.3831,5.275-1.2069,10.5168-1.7324,15.7837-.0975.9772.1107,2.1036.5471,2.9767.3369.6739,1.2262,1.4609,1.9141,1.5049,3.4683.222,6.9512.2733,10.429.2786,5.4105.0083,10.8259-.2268,16.23-.0611,4.5637.1398,9.1149.6957,13.6704,1.0816,1.7847.1511,2.9931-.3835,3.2343-2.3735.726-5.9897,1.7948-11.9569,2.1469-17.9671.3096-5.2864-.1272-10.6204-.3182-15.9302-.0605-1.6801-.7351-2.8611-2.7959-2.8872-3.0573-.0387-6.1174-.2481-9.166-.5069-5.6938-.4834-11.3802-1.0546-14.956-1.3907Z"/>
  <path class="cls-1" d="m110.3869,57.249c.4551-9.0358.7595-16.9984,1.325-24.9424.1396-1.9616,1.0147-3.9111,1.8054-5.7576.1969-.4596,1.3931-.7299,2.1089-.6917,6.4874.3459,12.97.7805,19.4543,1.1858.5104.032,1.0581-.0732,1.5281.0757,6.6833,2.1165,13.586.7948,20.3683,1.3258,3.5641.279,7.1504.3541,10.6946.7847,3.5327.4292,5.7816,2.6132,6.3505,6.1128.5007,3.0797.9517,6.2355.8323,9.335-.3422,8.8843-1.0026,17.756-1.5008,26.6347-.1812,3.2302-2.3145,5.1494-5.5514,4.6367-2.084-.3302-4.1151-.9892-6.1744-1.4827-.695-.1665-1.3999-.3732-2.1063-.399-6.4126-.2351-12.8255-.476-19.2404-.6279-3.7731-.0894-7.5558.1022-11.3227-.0755-1.8101-.0855-3.59-.7519-5.3904-1.1219-1.4909-.3064-3.0061-.5045-4.4849-.8579-1.8758-.448-3.8724-.7288-5.5348-1.6122-1.087-.5776-2.1982-2.0147-2.3847-3.2093-.5344-3.4248-.6032-6.9223-.7767-9.313Zm59.9357-17.279c-.0769-.5697-.329-1.7821-.3862-3.0036-.1019-2.1768-1.262-3.0472-3.3372-3.1505-8.1623-.4062-16.3237-.8368-24.4817-1.321-1.7227-.1022-3.4308-.462-5.1438-.7151-1.7048-.2519-3.4121-.7604-5.1099-.7271-3.27.0642-6.5001.4176-9.7538-.5078-1.1794-.3354-2.607.2303-3.9248.3452-1.6218.1416-2.2878.9764-2.306,2.6198-.0998,8.9898-.3994,17.9797-.354,26.9681.0264,5.2116.6499,5.2578,5.7072,6.2243,7.3465,1.4039,14.6105,2.5586,22.1766,2.0793,5.2654-.3336,10.6107.4249,15.9083.847,2.3348.1859,4.6347.782,6.9606,1.1217.8995.1314,1.9074.2539,2.0761-1.1244.2089-1.707.5782-3.4019.6766-5.1137.4574-7.9593.8452-15.9226,1.2919-24.5421Z"/>
  <path class="cls-1" d="m116.2228,84.7228c-2.4343-.3067-4.8964-.4838-7.2864-.997-.7418-.1592-1.7435-1.1784-1.8247-1.8947-.1499-1.3232.7182-2.3653,2.2318-2.351,1.9436.0185,3.8874.139,5.8288.2546,2.1479.1279,4.3146.1632,6.433.4949,1.799.2818,3.6242.7456,5.2694,1.4974.717.3278,1.2335,1.5406,1.3792,2.4273.0504.3069-1.2504.9756-2.0168,1.2337-.6431.2167-1.4185.169-2.1144.0782-2.6194-.3414-4.0098-.2529-6.6239-.6353-.0185.1291-1.2575-.2372-1.276-.1081Z"/>
  <path class="cls-1" d="m333.5643,148.4957c-.9472,5.6944-2.4841,10.2773-7.2227,12.9631-4.5539,2.5812-11.3516-.1061-13.0197-5.0675-.4881-1.4517-1.133-2.8638-1.483-4.3466-1.5633-6.623,3.6324-14.2164,10.4978-15.4203,1.4132-.2478,3.2736.3969,4.5182,1.2369,1.8367,1.2396,3.7071,2.7828,4.8211,4.6412,1.1498,1.9182,1.4118,4.3684,1.8883,5.9931Zm-17.3772,1.8568c0,.8188-.0185,1.6382.0033,2.4564.082,3.0718,2.3939,3.9366,4.7205,4.9225,2.1824.9247,4.0222.2122,5.2095-1.3752,1.3736-1.8364,2.4107-4.0065,3.2051-6.1742,1.1246-3.0685.0995-5.5863-2.7122-7.3341-.4278-.2659-.8844-.5655-1.1721-.9623-1.1374-1.5685-2.5301-1.435-4.0894-.7838-3.0045,1.2552-5.1961,5.1438-5.1648,9.2506Z"/>
  <path class="cls-1" d="m100.6983,134.8754c5.507-.6631,8.2447,3.3296,10.1521,7.9913,1.1766,2.8757,1.2011,6.086.3177,9.3536-1.5341,5.674-6.7206,8.3506-11.6685,8.9705-4.4392.5564-9.5704-3.5789-11.2175-7.7584-2.0795-5.2766-.6932-9.9524,1.8968-14.3436,1.6945-2.873,4.8876-3.9267,8.1997-4.206.6111-.0515,1.2302-.0074,2.3197-.0074Zm.6367,4.245c-2.5601-.185-4.8553.1968-6.6138,2.0493-3.1015,3.2674-3.4625,7.0589-1.7417,11.0712,1.1567,2.697,3.3614,3.9573,6.2885,4.0541,3.0454.1007,5.2754-1.6515,7.1642-3.583.9136-.9343,1.1739-2.8074,1.1694-4.2535-.0044-1.4156-.778-2.8158-1.1151-4.2459-1.0646-4.5166-1.8412-5.764-5.1516-5.0921Z"/>
  <path class="cls-3" d="m62.9698,27.0713c3.5758.336,9.2622.9073,14.956,1.3907,3.0486.2588,6.1087.4683,9.166.5069,2.0608.0261,2.7355,1.2071,2.7959,2.8872.191,5.3098.6279,10.6438.3182,15.9302-.3521,6.0102-1.4209,11.9774-2.1469,17.9671-.2411,1.99-1.4496,2.5246-3.2343,2.3735-4.5555-.386-9.1067-.9418-13.6704-1.0816-5.4042-.1657-10.8196.0694-16.23.0611-3.4779-.0053-6.9607-.0566-10.429-.2786-.688-.044-1.5772-.8309-1.9141-1.5049-.4364-.8731-.6446-1.9995-.5471-2.9767.5255-5.2669,1.3493-10.5087,1.7324-15.7837.3482-4.7963.259-9.6242.3758-14.4377.0198-.8169.0677-1.6369.1698-2.447.1496-1.1867.7583-1.6897,2.06-1.7365,4.8095-.1725,9.6139-.4889,16.5977-.87Z"/>
  <path class="cls-3" d="m170.4449,39.991c-.4467,8.6195-.8084,16.3838-1.2658,24.3431-.0984,1.7117-.1806,3.6485-.3895,5.3555-.1687,1.3783-1.8312,1.1919-2.7307,1.0605-2.326-.3397-4.6258-.9358-6.9606-1.1217-5.2976-.4221-10.6429-1.1806-15.9083-.847-7.5662.4793-14.8301-.6754-22.1766-2.0793-5.0573-.9665-5.6808-1.0127-5.7072-6.2243-.0454-8.9884.2541-17.9783.354-26.9681.0182-1.6433.6842-2.4782,2.306-2.6198,1.3178-.1149,2.7454-.6806,3.9248-.3452,3.2538.9254,6.4838.572,9.7538.5078,1.6978-.0332,3.4051.4753,5.1099.7271,1.713.2531,3.4211.6129,5.1438.7151,8.158.4842,16.0997.566,24.2621.9723,2.0752.1034,3.9877,1.1338,4.0896,3.3107.0572,1.2215.1178,2.6435.1947,3.2133Z"/>
  <path class="cls-3" d="m316.1871,150.3524c-.0313-4.1068,2.1603-7.9954,5.1648-9.2506,1.5593-.6513,2.9519-.7847,4.0894.7838.2877.3968.7443.6964,1.1721.9623,2.8118,1.7478,3.8369,4.2656,2.7122,7.3341-.7944,2.1677-1.8315,4.3378-3.2051,6.1742-1.1874,1.5874-3.0271,2.2998-5.2095,1.3752-2.3266-.9859-4.6385-1.8507-4.7205-4.9225-.0218-.8182-.0033-1.6376-.0034-2.4564Z"/>
  <path class="cls-3" d="m101.3349,139.1204c3.3103-.6719,4.0869.5755,5.1516,5.0921.3371,1.4302,1.1106,2.8303,1.1151,4.2459.0045,1.4462-.2558,3.3193-1.1694,4.2535-1.8888,1.9315-4.1188,3.6837-7.1642,3.583-2.9271-.0968-5.1317-1.3571-6.2885-4.0541-1.7208-4.0124-1.3598-7.8039,1.7417-11.0712,1.7585-1.8525,4.0537-2.2342,6.6138-2.0493Z"/>
</svg>