<svg xmlns="http://www.w3.org/2000/svg" xmlns:xlink="http://www.w3.org/1999/xlink" width="1639.066" height="913.326" viewBox="0 0 1639.066 913.326">
  <defs>
    <clipPath id="clip-Index-logo-design-s1-1">
      <rect width="1639.067" height="913.326"/>
    </clipPath>
  </defs>
  <g id="Index-logo-design-s1-1" clip-path="url(#clip-Index-logo-design-s1-1)">
    <g id="PajuramaCopyright-Zugspitze-12" transform="translate(27.868 35.291)" fill="#ad9274">
      <path d="M 440.1751708984375 872.3358764648438 C 431.0265808105469 872.3364868164062 421.1593933105469 871.7493286132812 410.8481750488281 870.5905151367188 C 401.5867919921875 869.5496826171875 391.898193359375 868.060302734375 381.2287902832031 866.0369262695312 C 361.4883728027344 862.2935180664062 341.9499816894531 857.3831176757812 323.05517578125 852.63427734375 C 306.7405700683594 848.5343017578125 291.3309631347656 844.6614990234375 276.7319641113281 841.7606811523438 C 268.900390625 840.2047119140625 261.98876953125 839.0651245117188 255.6023712158203 838.2769165039062 C 248.4703826904297 837.3969116210938 242.1315765380859 836.9689331054688 236.2237854003906 836.9689331054688 C 230.4651794433594 836.9689331054688 225.319580078125 837.373291015625 220.4923706054688 838.205322265625 C 180.2153778076172 845.1472778320312 152.9849853515625 849.5153198242188 132.2003784179688 852.3685302734375 C 110.9451751708984 855.2863159179688 96.03477478027344 856.6453247070312 85.27637481689453 856.6453247070312 C 76.38137817382812 856.6453247070312 69.94797515869141 855.7590942382812 64.4163818359375 853.771728515625 C 59.30397796630859 851.9348754882812 55.40737915039062 849.3392944335938 50.47417831420898 846.0531005859375 C 46.98877716064453 843.7310791015625 43.03817749023438 841.0994873046875 37.90077972412109 838.260498046875 C 33.57518005371094 835.8701171875 29.60597801208496 833.1043090820312 26.10317802429199 830.0397338867188 C 22.69697761535645 827.0595092773438 19.60577774047852 823.6860961914062 16.91537857055664 820.0131225585938 C 11.77877807617188 813.00048828125 7.889978408813477 804.714111328125 5.026578426361084 794.6801147460938 C 2.471778154373169 785.727294921875 0.7087782025337219 775.2277221679688 -0.3632217645645142 762.5811157226562 C -1.475021719932556 749.465087890625 -1.732021808624268 735.1376953125 -1.831621766090393 724.1209106445312 C -1.924421787261963 713.8681030273438 -2.318021774291992 703.6470947265625 -3.034821748733521 692.8739013671875 C -3.675421714782715 683.2467041015625 -4.563021659851074 673.3731079101562 -5.748621940612793 662.6889038085938 C -7.955221652984619 642.8023071289062 -10.79622173309326 623.6340942382812 -13.80402183532715 603.3406982421875 C -17.88962173461914 575.7753295898438 -22.11422157287598 547.271484375 -24.73362159729004 516.200927734375 C -26.1478214263916 499.4291076660156 -26.9736213684082 483.4515075683594 -27.25842094421387 467.3551025390625 C -27.57962226867676 449.2133178710938 -27.20922088623047 431.4485168457031 -26.12642097473145 413.0455017089844 C -22.51582145690918 351.6783142089844 -16.35462188720703 298.3385009765625 -10.91842174530029 251.2774963378906 C -7.249221801757812 219.5133056640625 -3.783621788024902 189.510498046875 -1.833021759986877 162.7313079833984 C -0.9450217485427856 150.5427093505859 -0.8200217485427856 137.368896484375 -1.450821757316589 122.4573059082031 C -2.007421731948853 109.2987060546875 -3.063821792602539 96.48930358886719 -4.085421562194824 84.10150146484375 C -5.40382194519043 68.11690521240234 -6.649021625518799 53.01890182495117 -6.663021564483643 39.06290435791016 C -6.670621871948242 31.60490417480469 -6.328022003173828 25.06950378417969 -5.615421772003174 19.0829029083252 C -4.824021816253662 12.43250370025635 -3.594021797180176 6.573103427886963 -1.855621814727783 1.169903635978699 C 1.900578260421753 -10.50509643554688 10.59097862243652 -18.62909698486328 24.71237754821777 -23.66669654846191 C 31.27757835388184 -26.00869560241699 38.91797637939453 -27.67529678344727 48.07057952880859 -28.76149559020996 C 56.46617889404297 -29.75809669494629 65.96837615966797 -30.24229621887207 77.12017822265625 -30.24229621887207 C 102.2053756713867 -30.24229621887207 132.4153747558594 -27.71609687805176 164.3989715576172 -25.04149627685547 C 203.2711791992188 -21.79109573364258 247.3299713134766 -18.10669708251953 291.9189758300781 -18.10669708251953 C 297.1697692871094 -18.10669708251953 302.4009704589844 -18.15829658508301 307.4675903320312 -18.25989723205566 C 324.7711791992188 -18.60669708251953 341.5273742675781 -18.78269577026367 357.2707824707031 -18.78269577026367 C 415.4755859375 -18.78269577026367 453.7895812988281 -16.47069549560547 490.8419799804688 -14.23489665985107 C 523.1583862304688 -12.28489589691162 553.6825561523438 -10.44309616088867 594.142578125 -10.44309616088867 C 610.3645629882812 -10.44309616088867 625.2683715820312 -11.22189617156982 641.0457763671875 -12.89409637451172 C 655.3446044921875 -14.40969657897949 668.6947631835938 -16.45689582824707 684.1529541015625 -18.82729721069336 C 720.3233642578125 -24.3738956451416 765.3388061523438 -31.27669715881348 847.8447875976562 -34.56569671630859 C 851.603759765625 -34.71549606323242 855.3670043945312 -34.79149627685547 859.0296020507812 -34.79149627685547 C 890.2367553710938 -34.79149627685547 913.6033935546875 -29.38929557800293 938.3419799804688 -23.66989707946777 C 952.1941528320312 -20.46709632873535 966.5181884765625 -17.15549659729004 982.8613891601562 -14.6508960723877 C 1001.336364746094 -11.81949615478516 1019.907592773438 -10.44309616088867 1039.635986328125 -10.44309616088867 C 1061.317993164062 -10.44309616088867 1080.828979492188 -12.02229595184326 1099.2841796875 -15.27089595794678 C 1115.411010742188 -18.1094970703125 1128.728759765625 -21.87289619445801 1140.478637695312 -25.19349670410156 C 1158.45556640625 -30.27349662780762 1173.981201171875 -34.66089630126953 1194.086547851562 -34.66089630126953 C 1195.783569335938 -34.66089630126953 1197.518920898438 -34.6288948059082 1199.24462890625 -34.56569671630859 C 1218.27294921875 -33.868896484375 1236.22119140625 -32.80269622802734 1252.590209960938 -31.39689636230469 C 1268.179931640625 -30.05809593200684 1282.849731445312 -28.36689567565918 1296.1923828125 -26.37029647827148 C 1308.79541015625 -24.48429679870605 1320.651977539062 -22.26009559631348 1331.432373046875 -19.75909614562988 C 1341.498168945312 -17.42409706115723 1351.006591796875 -14.75869655609131 1359.693969726562 -11.83709621429443 C 1367.776123046875 -9.119096755981445 1375.19140625 -6.188296318054199 1382.363403320312 -2.877296447753906 C 1388.74755859375 0.069903664290905 1394.78857421875 3.252103567123413 1400.831420898438 6.850903511047363 C 1412.056518554688 13.53610324859619 1421.549926757812 20.66410446166992 1430.730590820312 27.55750274658203 L 1431.74072265625 28.31590270996094 C 1447.144775390625 39.87830352783203 1458.958740234375 52.54690551757812 1471.24462890625 70.67710113525391 C 1483.079833984375 88.14290618896484 1494.881958007812 109.9131011962891 1511.216430664062 140.0445098876953 C 1516.887817382812 150.5059051513672 1523.315795898438 162.3632965087891 1530.37841796875 175.1943054199219 C 1540.306396484375 193.2311096191406 1548.865356445312 209.6065063476562 1556.544555664062 225.2565002441406 C 1566.425170898438 245.3928985595703 1574.99658203125 264.6819152832031 1582.02099609375 282.5883178710938 C 1590.366943359375 303.8638916015625 1596.828979492188 323.9385070800781 1601.227416992188 342.2546997070312 C 1603.660766601562 352.3875122070312 1605.514770507812 362.1990966796875 1606.73779296875 371.4172973632812 C 1608.034423828125 381.1895141601562 1608.658813476562 390.572509765625 1608.59375 399.3056945800781 C 1608.210571289062 450.7688903808594 1604.876220703125 485.5057067871094 1597.084228515625 519.2041015625 C 1593.174194335938 536.1140747070312 1588.06982421875 553.1044921875 1581.020385742188 572.6738891601562 C 1574.834838867188 589.8452758789062 1567.068603515625 609.2446899414062 1555.838745117188 635.5753173828125 C 1550.145385742188 648.9251098632812 1545.506225585938 660.24267578125 1541.413208007812 670.2280883789062 C 1535.3154296875 685.1041259765625 1530.4990234375 696.8541259765625 1525.813598632812 706.37451171875 C 1520.912719726562 716.3320922851562 1516.2021484375 723.7133178710938 1510.539794921875 730.30712890625 C 1504.718383789062 737.085693359375 1497.50634765625 743.507080078125 1487.155151367188 751.1279296875 C 1477.163330078125 758.484130859375 1464.457397460938 766.8132934570312 1447.195190429688 777.8681030273438 C 1436.7001953125 784.589111328125 1427.792358398438 790.5291137695312 1419.933349609375 795.7700805664062 C 1407.091430664062 804.3339233398438 1396.947998046875 811.0980834960938 1387.128540039062 816.4293212890625 C 1376.733520507812 822.0728759765625 1367.160766601562 825.8336791992188 1356.089965820312 828.623291015625 C 1350.203369140625 830.1065063476562 1343.809936523438 831.3361206054688 1336.544555664062 832.38232421875 C 1329.352416992188 833.4180908203125 1321.265014648438 834.2794799804688 1311.820434570312 835.01611328125 C 1294.754150390625 836.3466796875 1273.098388671875 837.2985229492188 1239.408813476562 838.1983032226562 C 1233.361572265625 838.3596801757812 1226.975219726562 838.4417114257812 1220.427124023438 838.44189453125 C 1163.23193359375 838.4434814453125 1095.424194335938 832.294921875 1023.635192871094 825.7850952148438 C 983.0127563476562 822.1016845703125 941.007568359375 818.292724609375 898.8432006835938 815.4072875976562 C 851.1551513671875 812.1441040039062 809.968994140625 810.5579223632812 772.93115234375 810.5579223632812 C 750.0501708984375 810.5579223632812 728.1287841796875 811.1735229492188 707.7757568359375 812.3875122070312 C 695.2755737304688 813.13330078125 680.9829711914062 815.7402954101562 662.7957763671875 820.59228515625 C 646.57080078125 824.9208984375 629.1900024414062 830.5164794921875 610.7887573242188 836.440673828125 C 561.9263916015625 852.1716918945312 506.5443725585938 870.0015258789062 448.0081787109375 872.1917114257812 C 445.45458984375 872.287109375 442.8191833496094 872.335693359375 440.1751708984375 872.3358764648438 Z" stroke="none"/>
      <path d="M 859.0301513671875 -34.29150390625 C 855.3742065429688 -34.29150390625 851.6173706054688 -34.2156982421875 847.8645629882812 -34.06610107421875 C 765.3863525390625 -30.7783203125 720.3863525390625 -23.877685546875 684.2283935546875 -18.33306884765625 C 668.7639770507812 -15.961669921875 655.4085693359375 -13.9136962890625 641.0982055664062 -12.39691162109375 C 625.302978515625 -10.722900390625 610.3823852539062 -9.943115234375 594.142578125 -9.943115234375 C 553.66796875 -9.943115234375 523.1365966796875 -11.7855224609375 490.812744140625 -13.73590087890625 C 453.767333984375 -15.9713134765625 415.4608154296875 -18.28289794921875 357.2706298828125 -18.28271484375 C 341.52880859375 -18.28271484375 324.7757568359375 -18.10687255859375 307.4774169921875 -17.7598876953125 C 302.4072265625 -17.6583251953125 297.1729736328125 -17.606689453125 291.9197998046875 -17.606689453125 C 247.3099365234375 -17.606689453125 203.23974609375 -21.2918701171875 164.3575439453125 -24.54351806640625 C 132.3843994140625 -27.21710205078125 102.1845703125 -29.74249267578125 77.1202392578125 -29.74249267578125 C 65.9884033203125 -29.74249267578125 56.50537109375 -29.25927734375 48.129638671875 -28.26507568359375 C 39.0145263671875 -27.18328857421875 31.4097900390625 -25.5252685546875 24.88037109375 -23.1959228515625 C 10.9154052734375 -18.214111328125 2.3255615234375 -10.19390869140625 -1.379638671875 1.3228759765625 C -3.1082763671875 6.6953125 -4.3311767578125 12.52392578125 -5.1190185546875 19.14190673828125 C -5.8292236328125 25.1085205078125 -6.170654296875 31.62451171875 -6.1629638671875 39.06231689453125 C -6.1490478515625 52.9979248046875 -4.9046630859375 68.0863037109375 -3.5872802734375 84.060302734375 C -2.5650634765625 96.452880859375 -1.5081787109375 109.2675170898438 -0.951171875 122.4360961914062 C -0.31982421875 137.3671264648438 -0.445068359375 150.5596923828125 -1.334228515625 162.7675170898438 C -3.2857666015625 189.55712890625 -6.7520751953125 219.5645141601562 -10.421875 251.3339233398438 C -15.8570556640625 298.3884887695312 -22.017578125 351.7213134765625 -25.6275634765625 413.0748901367188 C -26.7095947265625 431.4651184082031 -27.07958984375 449.2173156738281 -26.7586669921875 467.3460998535156 C -26.4739990234375 483.4315185546875 -25.648681640625 499.3981018066406 -24.235595703125 516.15869140625 C -21.617431640625 547.2135009765625 -17.393798828125 575.70947265625 -13.3094482421875 603.26708984375 C -10.301025390625 623.5653076171875 -7.45947265625 642.7379150390625 -5.2515869140625 662.6336669921875 C -4.0654296875 673.3253173828125 -3.177001953125 683.2061157226562 -2.5360107421875 692.8406982421875 C -1.8184814453125 703.62353515625 -1.4246826171875 713.8538818359375 -1.3316650390625 724.1165161132812 C -1.183837890625 740.4678955078125 -0.7314453125 752.3176879882812 0.135009765625 762.5388793945312 C 1.2042236328125 775.1528930664062 2.96142578125 785.6215209960938 5.50732421875 794.5429077148438 C 8.3541259765625 804.5189208984375 12.2177734375 812.7537231445312 17.3187255859375 819.7177124023438 C 19.9874267578125 823.361083984375 23.0538330078125 826.707275390625 26.432373046875 829.663330078125 C 29.9083251953125 832.7045288085938 33.84814453125 835.44970703125 38.142578125 837.8228759765625 C 43.2982177734375 840.671875 47.2579345703125 843.3096923828125 50.7515869140625 845.6369018554688 C 55.6563720703125 848.904296875 59.5303955078125 851.485107421875 64.5853271484375 853.3010864257812 C 70.0604248046875 855.2681274414062 76.4415283203125 856.1453247070312 85.2763671875 856.1453247070312 C 96.0113525390625 856.1453247070312 110.900146484375 854.7879028320312 132.13232421875 851.8731079101562 C 152.9110107421875 849.0208740234375 180.135986328125 844.6535034179688 220.4075927734375 837.7127075195312 C 225.2625732421875 836.875732421875 230.4361572265625 836.4689331054688 236.2237548828125 836.4689331054688 C 242.152587890625 836.4689331054688 248.51171875 836.8978881835938 255.6650390625 837.7807006835938 C 262.064208984375 838.5703125 268.9881591796875 839.7119140625 276.8323974609375 841.2703247070312 C 291.4449462890625 844.1735229492188 306.86181640625 848.0477294921875 323.183837890625 852.1494750976562 C 342.07080078125 856.8958740234375 361.6009521484375 861.8037109375 381.325927734375 865.5443115234375 C 391.982177734375 867.5651245117188 401.657958984375 869.0529174804688 410.9061279296875 870.092529296875 C 421.1983642578125 871.2493286132812 431.046142578125 871.8358764648438 440.17578125 871.8358764648438 C 442.809326171875 871.8358764648438 445.4383544921875 871.7874755859375 447.9893798828125 871.69189453125 C 506.456787109375 869.5045166015625 561.8037719726562 851.6859130859375 610.6353759765625 835.9647216796875 C 629.0427856445312 830.0385131835938 646.4293823242188 824.44091796875 662.666748046875 820.109130859375 C 680.88720703125 815.248291015625 695.2113647460938 812.6359252929688 707.7459716796875 811.8883056640625 C 728.108154296875 810.6735229492188 750.0391845703125 810.0576782226562 772.93017578125 810.0576782226562 C 809.982177734375 810.0576782226562 851.1825561523438 811.64453125 898.8858032226562 814.9085083007812 C 941.0589599609375 817.7943115234375 983.0700073242188 821.603515625 1023.69775390625 825.2872924804688 C 1095.46875 831.7951049804688 1163.259399414062 837.94189453125 1220.42724609375 837.94189453125 C 1226.967041015625 837.94189453125 1233.348754882812 837.8599243164062 1239.3955078125 837.698486328125 C 1273.076171875 836.7988891601562 1294.72412109375 835.8475341796875 1311.781616210938 834.5175170898438 C 1321.215209960938 833.7819213867188 1329.2919921875 832.9216918945312 1336.47314453125 831.8875122070312 C 1343.721435546875 830.8436889648438 1350.09814453125 829.6173095703125 1355.9677734375 828.1383056640625 C 1366.996337890625 825.3594970703125 1376.533203125 821.6127319335938 1386.890014648438 815.9899291992188 C 1396.689331054688 810.6694946289062 1406.824584960938 803.910888671875 1419.656005859375 795.3541259765625 C 1427.516845703125 790.1118774414062 1436.426513671875 784.1705322265625 1446.925537109375 777.4468994140625 C 1464.179321289062 766.397705078125 1476.877807617188 758.073486328125 1486.858764648438 750.7252807617188 C 1497.17822265625 743.1279296875 1504.36474609375 736.7301025390625 1510.160400390625 729.9813232421875 C 1515.79443359375 723.4207153320312 1520.483520507812 716.0720825195312 1525.364990234375 706.1536865234375 C 1530.042724609375 696.6484985351562 1534.856323242188 684.9057006835938 1540.950561523438 670.0385131835938 C 1545.044189453125 660.051513671875 1549.684204101562 648.7321166992188 1555.379028320312 635.3792724609375 C 1566.604736328125 609.0577392578125 1574.367553710938 589.6663208007812 1580.5498046875 572.5045166015625 C 1587.592407226562 552.9541015625 1592.691528320312 535.981689453125 1596.596923828125 519.0914916992188 C 1604.380126953125 485.4310913085938 1607.7109375 450.7258911132812 1608.09375 399.3020935058594 C 1608.158569335938 390.5921020507812 1607.535522460938 381.2322998046875 1606.2421875 371.48291015625 C 1605.021362304688 362.2818908691406 1603.170532226562 352.4875183105469 1600.741333007812 342.3713073730469 C 1596.34814453125 324.0775146484375 1589.892944335938 304.02490234375 1581.555419921875 282.7708740234375 C 1574.5361328125 264.8770751953125 1565.97021484375 245.6007080078125 1556.095825195312 225.4766845703125 C 1548.419921875 209.8336791992188 1539.864379882812 193.465087890625 1529.9404296875 175.435302734375 C 1522.876953125 162.6029052734375 1516.448608398438 150.7449340820312 1510.776733398438 140.28271484375 C 1494.44921875 110.1638793945312 1482.651977539062 88.4027099609375 1470.83056640625 70.95751953125 C 1458.577758789062 52.87591552734375 1446.797607421875 40.24267578125 1431.440551757812 28.7156982421875 L 1430.430419921875 27.95709228515625 C 1421.260131835938 21.07171630859375 1411.77783203125 13.951904296875 1400.575439453125 7.2802734375 C 1394.547729492188 3.69049072265625 1388.52197265625 0.5164794921875 1382.15380859375 -2.42352294921875 C 1374.998168945312 -5.72686767578125 1367.599365234375 -8.651123046875 1359.534545898438 -11.36328125 C 1350.862426757812 -14.27972412109375 1341.369384765625 -16.940673828125 1331.3193359375 -19.2720947265625 C 1320.551513671875 -21.77008056640625 1308.708251953125 -23.99188232421875 1296.1181640625 -25.87591552734375 C 1282.786010742188 -27.87091064453125 1268.126586914062 -29.5609130859375 1252.54736328125 -30.898681640625 C 1236.186401367188 -32.30389404296875 1218.24658203125 -33.3695068359375 1199.226196289062 -34.06591796875 C 1197.504638671875 -34.12890625 1195.77490234375 -34.160888671875 1194.0859375 -34.160888671875 C 1174.050048828125 -34.160888671875 1158.555541992188 -29.78228759765625 1140.614379882812 -24.7122802734375 C 1128.853149414062 -21.388671875 1115.522583007812 -17.62152099609375 1099.370849609375 -14.7783203125 C 1080.88671875 -11.52471923828125 1061.347412109375 -9.943115234375 1039.635986328125 -9.943115234375 C 1019.882202148438 -9.943115234375 1001.286560058594 -11.3212890625 982.786376953125 -14.15667724609375 C 966.4248046875 -16.664306640625 952.091796875 -19.97808837890625 938.2305908203125 -23.18267822265625 C 913.5205688476562 -28.89569091796875 890.1807861328125 -34.2918701171875 859.0301513671875 -34.29150390625 M 859.0300903320312 -35.29156494140625 C 925.3379516601562 -35.2923583984375 956.329345703125 -10.943115234375 1039.635986328125 -10.943115234375 C 1127.495361328125 -10.943115234375 1148.398193359375 -36.92724609375 1199.262817382812 -35.0653076171875 C 1357.207763671875 -29.281494140625 1394.390625 -0.3447265625 1432.041015625 27.9158935546875 C 1469.69140625 56.17669677734375 1484.052978515625 89.9951171875 1530.81640625 174.953125 C 1563.694580078125 234.6848754882812 1609.63232421875 326.9758911132812 1609.09375 399.3095092773438 C 1608.353149414062 498.7911071777344 1596.705932617188 541.0267333984375 1556.298828125 635.771484375 C 1515.8916015625 730.5162963867188 1526.683959960938 727.5573120117188 1447.464721679688 778.2891235351562 C 1368.245727539062 829.0206909179688 1379.955200195312 834.9447021484375 1239.422119140625 838.6981201171875 C 1233.23828125 838.86328125 1226.888305664062 838.9419555664062 1220.42724609375 838.9419555664062 C 1098.50927734375 838.9419555664062 928.8682250976562 811.0577392578125 772.9301147460938 811.0577392578125 C 750.8887329101562 811.0577392578125 729.1250610351562 811.61474609375 707.8056030273438 812.886474609375 C 644.3617553710938 816.6710815429688 550.8343505859375 868.8449096679688 448.0267333984375 872.6912841796875 C 445.424560546875 872.7886352539062 442.7979736328125 872.8358764648438 440.1756591796875 872.8358764648438 C 368.1510009765625 872.8358764648438 289.1669921875 837.468994140625 236.223876953125 837.468994140625 C 230.710205078125 837.468994140625 225.48876953125 837.8516235351562 220.577392578125 838.6981201171875 C 144.111328125 851.8773803710938 106.6531982421875 857.145263671875 85.2764892578125 857.145263671875 C 59.4068603515625 857.145263671875 57.0867919921875 849.4342041015625 37.658935546875 838.6981201171875 C 2.1771240234375 819.0905151367188 -1.8310546875 779.4810791015625 -2.3316650390625 724.12548828125 C -3.2520751953125 622.4072875976562 -34.3919677734375 545.012939453125 -26.6258544921875 413.01611328125 C -20.5228271484375 309.2899169921875 -7.1082763671875 228.26611328125 -2.3316650390625 162.6948852539062 C 2.2108154296875 100.3353271484375 -15.193603515625 40.99371337890625 -2.3316650390625 1.0167236328125 C 5.6258544921875 -23.71624755859375 34.8963623046875 -30.7425537109375 77.1201171875 -30.7425537109375 C 132.6253662109375 -30.7425537109375 210.543701171875 -18.606689453125 291.919677734375 -18.606689453125 C 297.093505859375 -18.606689453125 302.2603759765625 -18.655517578125 307.4573974609375 -18.75970458984375 C 325.578369140625 -19.123046875 342.084228515625 -19.28265380859375 357.2706298828125 -19.28265380859375 C 467.05322265625 -19.2828369140625 508.0311279296875 -10.943115234375 594.142578125 -10.943115234375 C 671.8143920898438 -10.943115234375 696.5445556640625 -29.034912109375 847.8247680664062 -35.0653076171875 C 851.673828125 -35.21875 855.4063110351562 -35.29150390625 859.0300903320312 -35.29156494140625 Z" stroke="none" fill="#ad9274"/>
    </g>
  </g>
</svg>
