<svg xmlns="http://www.w3.org/2000/svg" xmlns:xlink="http://www.w3.org/1999/xlink" width="1077.932" height="561.525" viewBox="0 0 1077.932 561.525">
  <defs>
    <clipPath id="clip-Index-logo-design-s2-3">
      <rect width="1077.932" height="561.525"/>
    </clipPath>
  </defs>
  <g id="Index-logo-design-s2-3" clip-path="url(#clip-Index-logo-design-s2-3)">
    <g id="Pfad_134" data-name="Pfad 134" transform="translate(-296.03 3.813)" fill="#faf6f0">
      <path d="M 368.7013549804688 550.5142211914062 C 358.5681762695312 550.5142211914062 350.2920227050781 548.6163330078125 343.4000244140625 544.7122192382812 C 339.6914978027344 542.6114501953125 336.3008422851562 539.8616943359375 333.322021484375 536.539306640625 C 330.2185668945312 533.0778198242188 327.4338989257812 528.85302734375 325.0456237792969 523.9823608398438 C 318.5563049316406 510.7482299804688 313.0461730957031 491.4884948730469 308.6683044433594 466.7382202148438 C 305.1621704101562 446.9172973632812 302.3720397949219 423.5571594238281 300.3753662109375 397.3070373535156 C 299.3947143554688 384.4136962890625 298.0873718261719 363.7911682128906 297.428955078125 338.7647705078125 C 297.0350952148438 323.7991638183594 297.0618896484375 314.2373046875 297.0621643066406 314.1423645019531 L 297.0621643066406 314.1326293945312 L 297.0618896484375 314.1227722167969 C 297.0492248535156 313.7705078125 295.8105773925781 278.382080078125 297.1737670898438 233.6995544433594 C 297.9744262695312 207.4603576660156 299.5022888183594 183.1983642578125 301.7151184082031 161.5874328613281 C 304.4798889160156 134.5852966308594 308.3273620605469 111.6731567382812 313.1505737304688 93.48729705810547 C 317.602294921875 76.70156097412109 323.2185668945312 63.53502655029297 330.3203125 53.23516082763672 C 333.7608337402344 48.24515914916992 337.4960327148438 43.97689437866211 341.7393798828125 40.18662643432617 C 345.8041687011719 36.55582809448242 350.2115173339844 33.47582626342773 355.2131042480469 30.77089309692383 C 364.1416320800781 25.94209289550781 374.8406982421875 22.40929412841797 388.8833618164062 19.65289306640625 C 401.6944274902344 17.13822746276855 415.8876342773438 15.50089359283447 432.3218994140625 13.60515975952148 C 443.1998901367188 12.35022640228271 454.4481811523438 11.05262660980225 466.7069702148438 9.341426849365234 C 496.4016418457031 5.196226596832275 520.7445678710938 2.003426790237427 543.02880859375 -0.1051065772771835 C 566.47509765625 -2.323639869689941 586.9845581054688 -3.312973260879517 609.5293579101562 -3.312973260879517 C 630.2673950195312 -3.312973260879517 653.275390625 -2.450706481933594 681.9370727539062 -0.5993732213973999 C 691.5930786132812 0.02436009049415588 700.5477905273438 0.9351601004600525 709.3125610351562 2.185160160064697 C 717.1213989257812 3.298893451690674 724.6005859375 4.658493518829346 732.1773681640625 6.341826915740967 C 746.2578735351562 9.46996021270752 758.5578002929688 13.27689361572266 770.4525756835938 16.95849418640137 C 785.3062744140625 21.55582618713379 800.6656494140625 26.30969429016113 819.7061767578125 29.8226261138916 C 829.9581909179688 31.7140941619873 840.4197998046875 33.1028938293457 851.688720703125 34.06862640380859 C 864.3365478515625 35.15235900878906 877.66748046875 35.67916107177734 892.4434814453125 35.67916107177734 C 910.288818359375 35.67916107177734 928.6932373046875 34.80329513549805 947.1455078125 33.07582855224609 C 963.3797607421875 31.55595970153809 979.5708618164062 29.41729354858398 996.64404296875 26.53755950927734 C 1027.745849609375 21.29169273376465 1055.142456054688 14.63636016845703 1077.156005859375 9.288626670837402 C 1097.581176757812 4.326760292053223 1113.71435546875 0.4075600802898407 1125.103881835938 -0.6003065705299377 C 1127.568969726562 -0.818306565284729 1130.060302734375 -0.9289732575416565 1132.5087890625 -0.9289732575416565 C 1139.892211914062 -0.9289732575416565 1147.187744140625 0.02702675759792328 1155.468872070312 2.07969331741333 C 1162.86669921875 3.913560152053833 1170.129638671875 6.392893314361572 1177.819091796875 9.017960548400879 C 1187.417236328125 12.29462718963623 1197.342163085938 15.68276023864746 1208.854858398438 18.30342674255371 C 1221.961669921875 21.28702735900879 1234.998291015625 22.7372932434082 1248.7099609375 22.7372932434082 C 1272.273559570312 22.7372932434082 1291.196411132812 20.66196060180664 1306.401245117188 18.99435997009277 C 1316.498046875 17.88702583312988 1325.218017578125 16.93062591552734 1332.405151367188 16.93062591552734 C 1337.094360351562 16.93062591552734 1340.952880859375 17.34075927734375 1344.201049804688 18.18462753295898 C 1347.727661132812 19.10062599182129 1350.667114257812 20.55262756347656 1353.187377929688 22.62355995178223 C 1356.6220703125 25.44582748413086 1359.276977539062 29.63862609863281 1361.303955078125 35.44169235229492 C 1363.240112304688 40.98476028442383 1364.656860351562 48.17715835571289 1365.634887695312 57.42969512939453 C 1367.52734375 75.332763671875 1367.703491210938 100.2914276123047 1367.9267578125 131.8903656005859 C 1367.98046875 139.5030212402344 1368.036010742188 147.3750305175781 1368.118041992188 155.7595672607422 C 1368.447875976562 189.4495544433594 1366.48046875 232.6007537841797 1364.577758789062 274.3311462402344 C 1362.641479492188 316.7955627441406 1360.639404296875 360.7056884765625 1361.007446289062 395.2763671875 C 1361.165161132812 410.0767517089844 1361.387084960938 423.9421081542969 1361.5830078125 436.17529296875 C 1362.083374023438 467.4403686523438 1362.478759765625 492.1354370117188 1361.475952148438 510.0170288085938 C 1360.956420898438 519.2791748046875 1360.073608398438 526.484619140625 1358.777221679688 532.0452880859375 C 1357.416381835938 537.882080078125 1355.568603515625 542.0819702148438 1353.127807617188 544.884521484375 C 1351.395141601562 546.8742065429688 1349.342651367188 548.2800903320312 1346.853637695312 549.182373046875 C 1344.4287109375 550.061279296875 1341.512817382812 550.4886474609375 1337.939086914062 550.4888916015625 C 1329.804321289062 550.4895629882812 1318.678833007812 548.2976684570312 1303.28076171875 545.2640991210938 C 1286.719848632812 542.0014038085938 1266.109497070312 537.9410400390625 1238.743408203125 534.4055786132812 C 1225.8515625 532.7401123046875 1213.856079101562 531.9303588867188 1202.071411132812 531.9303588867188 C 1180.635375976562 531.9303588867188 1162.461059570312 534.65771484375 1143.219604492188 537.5450439453125 C 1131.406616210938 539.3178100585938 1119.19140625 541.1507568359375 1105.173583984375 542.5579833984375 C 1089.25732421875 544.1557006835938 1073.457397460938 544.9324951171875 1056.870971679688 544.9327392578125 C 1051.79541015625 544.9327392578125 1046.549682617188 544.85888671875 1041.279418945312 544.7130126953125 C 1022.1689453125 544.1843872070312 1004.444702148438 543.186767578125 987.093505859375 541.6632690429688 C 971.9467163085938 540.3333129882812 959.0106811523438 538.7711791992188 947.5973510742188 537.3930053710938 C 927.793212890625 535.0015869140625 910.6896362304688 532.9362182617188 889.8010864257812 532.9362182617188 C 879.66845703125 532.9362182617188 869.1578979492188 533.4160766601562 857.6688232421875 534.4033203125 C 820.0093994140625 537.6387329101562 797.9171142578125 539.426513671875 774.2228393554688 540.8346557617188 C 748.797607421875 542.345703125 721.1376342773438 543.4010009765625 681.9525756835938 544.713134765625 C 677.9913940429688 544.8458251953125 674.1056518554688 544.9131469726562 670.403076171875 544.9131469726562 C 662.381103515625 544.9132690429688 655.0745849609375 544.6116943359375 648.0657958984375 543.9911499023438 C 641.8231201171875 543.4383544921875 635.960693359375 542.6430053710938 630.1433715820312 541.559814453125 C 619.3329467773438 539.5467529296875 610.3101806640625 536.8117065429688 601.5845947265625 534.1666259765625 C 592.7711181640625 531.494873046875 583.6575317382812 528.7323608398438 572.6583251953125 526.68994140625 C 566.735107421875 525.5902099609375 560.759765625 524.7826538085938 554.39111328125 524.2211303710938 C 547.244140625 523.5911865234375 539.7899169921875 523.284912109375 531.6024169921875 523.284912109375 C 526.1856079101562 523.284912109375 520.406982421875 523.425537109375 514.4268188476562 523.7030029296875 C 483.220703125 525.1510009765625 453.9793701171875 532.7453002929688 428.1802978515625 539.4456787109375 C 416.8992309570312 542.3754272460938 406.2437744140625 545.1427612304688 396.2907104492188 547.1790161132812 C 385.1684265136719 549.4544677734375 376.4017639160156 550.5142211914062 368.7013549804688 550.5142211914062 Z" stroke="none"/>
      <path d="M 368.7013549804688 550.0142211914062 C 376.3672485351562 550.0142211914062 385.10205078125 548.9577026367188 396.1905822753906 546.6891479492188 C 406.1308288574219 544.6555786132812 416.780029296875 541.8898315429688 428.0547180175781 538.961669921875 C 453.8773803710938 532.2553100585938 483.1455078125 524.6539306640625 514.4036254882812 523.2035522460938 C 520.3919067382812 522.9257202148438 526.178466796875 522.784912109375 531.6024169921875 522.784912109375 C 539.8046875 522.784912109375 547.2732543945312 523.091796875 554.4349975585938 523.72314453125 C 560.8197631835938 524.2859497070312 566.810546875 525.095703125 572.74951171875 526.1983642578125 C 583.7760620117188 528.245849609375 592.903076171875 531.0125122070312 601.7296142578125 533.6881103515625 C 610.4423217773438 536.3292846679688 619.45166015625 539.0602416992188 630.2349853515625 541.0682373046875 C 636.0364379882812 542.1484985351562 641.8833618164062 542.9417114257812 648.1099243164062 543.4930419921875 C 655.103759765625 544.1123657226562 662.3960571289062 544.4132690429688 670.403076171875 544.4131469726562 C 674.1004638671875 544.4131469726562 677.9805908203125 544.345947265625 681.9359130859375 544.2134399414062 C 721.1168212890625 542.9014282226562 748.7733764648438 541.8462524414062 774.1932373046875 540.3355712890625 C 797.8817749023438 538.9276733398438 819.9711303710938 537.1401977539062 857.6260375976562 533.9051513671875 C 869.1300659179688 532.916748046875 879.654541015625 532.4362182617188 889.8010864257812 532.4362182617188 C 910.7197875976562 532.4362182617188 927.8372192382812 534.503173828125 947.6575317382812 536.8966064453125 C 959.0669555664062 538.2743530273438 971.9987182617188 539.8358154296875 987.1373901367188 541.1651611328125 C 1004.478454589844 542.6878051757812 1022.192993164062 543.6848754882812 1041.293090820312 544.2133178710938 C 1046.558715820312 544.35888671875 1051.7998046875 544.4327392578125 1056.870971679688 544.4327392578125 C 1073.440551757812 544.4326171875 1089.22412109375 543.6566162109375 1105.123657226562 542.0604858398438 C 1119.129272460938 540.6544799804688 1131.338256835938 538.8223876953125 1143.145385742188 537.0505981445312 C 1162.40576171875 534.1603393554688 1180.598022460938 531.4303588867188 1202.071411132812 531.4303588867188 C 1213.877807617188 531.4303588867188 1225.894287109375 532.2412719726562 1238.807495117188 533.90966796875 C 1266.189819335938 537.4471435546875 1286.809204101562 541.5093994140625 1303.377075195312 544.7734375 C 1318.747680664062 547.8015747070312 1329.853149414062 549.9894409179688 1337.939086914062 549.9888916015625 C 1341.45361328125 549.98876953125 1344.313842773438 549.5711669921875 1346.683227539062 548.7122192382812 C 1349.090454101562 547.8397216796875 1351.0751953125 546.480224609375 1352.750732421875 544.5560913085938 C 1362.63623046875 533.2050170898438 1362.08447265625 498.7436828613281 1361.0830078125 436.1832885742188 C 1360.887084960938 423.9494323730469 1360.665161132812 410.0834350585938 1360.507446289062 395.2817077636719 C 1360.139282226562 360.6968994140625 1362.141723632812 316.7796936035156 1364.078125 274.308349609375 C 1365.980712890625 232.5847625732422 1367.947875976562 189.4406280517578 1367.618041992188 155.7643585205078 C 1367.536010742188 147.3792877197266 1367.48046875 139.5068969726562 1367.4267578125 131.8938293457031 C 1367.20361328125 100.3087615966797 1367.027465820312 75.36089324951172 1365.1376953125 57.48222732543945 C 1364.163696289062 48.26849365234375 1362.755249023438 41.11289215087891 1360.831909179688 35.60649490356445 C 1358.836059570312 29.89249420166016 1356.231689453125 25.77222633361816 1352.869995117188 23.00996017456055 C 1350.406982421875 20.98609352111816 1347.530151367188 19.56595993041992 1344.075317382812 18.66849327087402 C 1340.86865234375 17.8355598449707 1337.05126953125 17.43062591552734 1332.405151367188 17.43062591552734 C 1325.245361328125 17.43062591552734 1316.537963867188 18.38556098937988 1306.455688476562 19.49142646789551 C 1291.238647460938 21.16022682189941 1272.300659179688 23.2372932434082 1248.7099609375 23.2372932434082 C 1217.923828125 23.2372932434082 1196.531494140625 15.93436050415039 1177.657470703125 9.49116039276123 C 1169.978515625 6.869693279266357 1162.725463867188 4.393693447113037 1155.348388671875 2.565026760101318 C 1147.10791015625 0.52236008644104 1139.850463867188 -0.4289732277393341 1132.5087890625 -0.4289732277393341 C 1130.074584960938 -0.4289732277393341 1127.598022460938 -0.3189732432365417 1125.14794921875 -0.102173238992691 C 1113.7958984375 0.9022267460823059 1097.678833007812 4.817560195922852 1077.274047851562 9.774493217468262 C 1055.252685546875 15.1240930557251 1027.846557617188 21.78182601928711 996.7272338867188 27.03062629699707 C 979.6417846679688 29.9123592376709 963.438720703125 32.05262756347656 947.1921997070312 33.57355880737305 C 928.7244262695312 35.30249404907227 910.3043212890625 36.17916107177734 892.4434814453125 36.17916107177734 C 877.653076171875 36.17916107177734 864.3081665039062 35.65169525146484 851.6460571289062 34.5667610168457 C 840.36083984375 33.59969329833984 829.8834838867188 32.20875930786133 819.615478515625 30.31435966491699 C 800.5460205078125 26.79595947265625 785.1723022460938 22.03769302368164 770.3048095703125 17.43609428405762 C 758.4194946289062 13.75742721557617 746.129638671875 9.953693389892578 732.0689697265625 6.829959869384766 C 724.5046997070312 5.149426937103271 717.0380249023438 3.792093515396118 709.2420654296875 2.680226802825928 C 700.4900512695312 1.432093381881714 691.5479125976562 0.5224934220314026 681.9049682617188 -0.1004399061203003 C 653.2545776367188 -1.950973272323608 630.2568359375 -2.812973260879517 609.5293579101562 -2.812973260879517 C 587.0008544921875 -2.812973260879517 566.5059204101562 -1.824306607246399 543.0760498046875 0.3926267623901367 C 520.8007202148438 2.500360012054443 496.4641723632812 5.692359924316406 466.7761840820312 9.836627006530762 C 454.5115051269531 11.54876041412354 443.2601623535156 12.84662628173828 432.3792419433594 14.10182666778564 C 415.9553833007812 15.99635982513428 401.7713623046875 17.63262748718262 388.9796447753906 20.1434268951416 C 374.9879150390625 22.88982582092285 364.3338928222656 26.4066276550293 355.4508361816406 31.21076011657715 C 350.4840393066406 33.89689254760742 346.10791015625 36.95502853393555 342.0724487304688 40.5595588684082 C 337.8592224121094 44.32302856445312 334.1496276855469 48.56209182739258 330.7319030761719 53.51902770996094 C 323.6635131835938 63.77062606811523 318.070556640625 76.88636016845703 313.6337585449219 93.61556243896484 C 308.817626953125 111.7751617431641 304.97509765625 134.6600952148438 302.2129821777344 161.6346282958984 C 300.0013732910156 183.2327575683594 298.4741821289062 207.4818267822266 297.6737670898438 233.7079620361328 C 296.3106994628906 278.3750305175781 297.548828125 313.7526245117188 297.5614929199219 314.1047668457031 L 297.5621643066406 314.1441040039062 C 297.5618896484375 314.2388916015625 297.5350952148438 323.7934265136719 297.9287109375 338.7515563964844 C 298.5869750976562 363.767822265625 299.8936462402344 384.3814392089844 300.8739013671875 397.2690124511719 C 302.869384765625 423.5028991699219 305.6573791503906 446.8463745117188 309.1605834960938 466.6511535644531 C 313.5304260253906 491.3552856445312 319.0259094238281 510.5702209472656 325.4945678710938 523.76220703125 C 327.8627014160156 528.5916748046875 330.6214904785156 532.7781982421875 333.6943054199219 536.20556640625 C 336.6368408203125 539.4874267578125 339.9852294921875 542.2031860351562 343.6464233398438 544.2771606445312 C 350.4612426757812 548.1375732421875 358.6568298339844 550.0142211914062 368.7013549804688 550.0142211914062 M 368.701416015625 551.0142211914062 C 349.5223388671875 551.0142211914062 334.4544677734375 544.3062133789062 324.5967102050781 524.2025146484375 C 296.0564270019531 465.9979553222656 296.5621643066406 314.1407470703125 296.5621643066406 314.1407470703125 C 296.5621643066406 314.1407470703125 291.4916381835938 173.2023620605469 312.667236328125 93.35916137695312 C 333.8427124023438 13.51609325408936 379.9964294433594 20.94089317321777 466.6379089355469 8.846226692199707 C 526.2302856445312 0.5274524092674255 562.9987182617188 -3.812973260879517 609.5294189453125 -3.812973260879517 C 630.6497192382812 -3.812973260879517 653.7728271484375 -2.919609546661377 681.9693603515625 -1.0983065366745 C 772.2861938476562 4.735693454742432 781.6709594726562 35.17916107177734 892.4434814453125 35.17916107177734 C 1003.21630859375 35.17916107177734 1088.639526367188 2.124226808547974 1125.059814453125 -1.0983065366745 C 1127.602905273438 -1.323317766189575 1130.084106445312 -1.42894983291626 1132.5087890625 -1.42894983291626 C 1168.840698242188 -1.42894983291626 1193.296020507812 22.2372932434082 1248.7099609375 22.2372932434082 C 1288.115356445312 22.2372932434082 1314.49072265625 16.43065643310547 1332.405029296875 16.43065643310547 C 1341.363891601562 16.43065643310547 1348.204223632812 17.88178443908691 1353.5048828125 22.2372932434082 C 1369.405029296875 35.30222702026367 1367.836669921875 75.93142700195312 1368.618041992188 155.7546234130859 C 1369.282592773438 223.6186218261719 1360.776489257812 326.6192932128906 1361.507446289062 395.2710266113281 C 1362.463623046875 485.0658264160156 1365.642578125 531.2755737304688 1353.5048828125 545.212890625 C 1349.901489257812 549.3506469726562 1345.014526367188 550.9884643554688 1337.939086914062 550.9889526367188 C 1321.181640625 550.9901123046875 1292.13330078125 541.80712890625 1238.679321289062 534.9014282226562 C 1225.069946289062 533.1432495117188 1213.09912109375 532.430419921875 1202.071411132812 532.430419921875 C 1154.953002929688 532.430419921875 1124.944580078125 545.431884765625 1056.870971679688 545.4327392578125 C 1051.87890625 545.4328002929688 1046.688598632812 545.3629150390625 1041.265502929688 545.212890625 C 961.558837890625 543.0078735351562 934.9840087890625 533.436279296875 889.8011474609375 533.436279296875 C 880.1771850585938 533.436279296875 869.7184448242188 533.8698120117188 857.7116088867188 534.9014282226562 C 785.2660522460938 541.1256713867188 766.1802978515625 542.3928833007812 681.9693603515625 545.212890625 C 677.9140625 545.3486938476562 674.0618286132812 545.4131469726562 670.403076171875 545.4132080078125 C 603.3359985351562 545.4144287109375 599.4326171875 523.7848510742188 531.6024169921875 523.7848510742188 C 526.2933959960938 523.7848510742188 520.603271484375 523.9169921875 514.4500122070312 524.2025146484375 C 456.1521301269531 526.9075927734375 405.0498657226562 551.0142211914062 368.701416015625 551.0142211914062 Z" stroke="none" fill="#faf6f0"/>
    </g>
  </g>
</svg>
