<svg xmlns="http://www.w3.org/2000/svg" xmlns:xlink="http://www.w3.org/1999/xlink" width="1227.932" height="632.525" viewBox="0 0 1227.932 632.525">
  <defs>
    <clipPath id="clip-Index-logo-design-s2-2">
      <rect width="1227.932" height="632.525"/>
    </clipPath>
  </defs>
  <g id="Index-logo-design-s2-2" clip-path="url(#clip-Index-logo-design-s2-2)">
    <g id="Pfad_135" data-name="Pfad 135" transform="translate(-289.672 3.813)" fill="none">
      <path d="M296.635,357.711s-5.765-160.252,18.312-251.036S391.5,24.333,490.017,10.581,632.163-7.36,734.856-.726,848.22,40.522,974.172,40.522,1197.253,2.938,1238.665-.726c46.221-4.09,73.382,26.533,140.594,26.533s101.077-14.855,119.156,0,16.3,61.052,17.184,151.814c.755,77.164-8.916,194.279-8.085,272.338,1.087,102.1,4.7,154.642-9.1,170.489s-44.119-.557-130.56-11.725-114.533,14.766-224.466,11.725-130.96-18.4-208.707-11.725c-82.373,7.077-104.074,8.518-199.825,11.725s-89.213-28.588-190.475-23.89-183.419,66.18-215.87,0S296.635,357.711,296.635,357.711Z" stroke="none"/>
      <path d="M 378.6597900390625 626.0442504882812 C 387.385498046875 626.0442504882812 397.3259582519531 624.842041015625 409.9431762695312 622.2606811523438 C 421.2491760253906 619.94775390625 433.3593444824219 616.8025512695312 446.1807250976562 613.47265625 C 475.53564453125 605.8489990234375 508.8071899414062 597.2078857421875 544.3345947265625 595.5594482421875 C 551.14208984375 595.2435913085938 557.7193603515625 595.0834350585938 563.8834838867188 595.0834350585938 C 573.205810546875 595.0834350585938 581.6939697265625 595.4322509765625 589.8330078125 596.1497802734375 C 597.0884399414062 596.789306640625 603.8958129882812 597.70947265625 610.6444091796875 598.9625244140625 C 623.174560546875 601.2890014648438 633.5487060546875 604.4337768554688 643.5814819335938 607.4749755859375 C 653.4918212890625 610.4791259765625 663.7393188476562 613.58544921875 676.0079345703125 615.8700561523438 C 682.6087036132812 617.0993041992188 689.2611694335938 618.0015869140625 696.345458984375 618.6289672851562 C 704.3018188476562 619.3334350585938 712.59716796875 619.6759033203125 721.7056274414062 619.67578125 C 725.9100952148438 619.67578125 730.3233642578125 619.5993041992188 734.8223876953125 619.4486694335938 C 779.3740844726562 617.95654296875 810.82177734375 616.7566528320312 839.7257690429688 615.038818359375 C 866.6627197265625 613.4379272460938 891.7796630859375 611.4055786132812 934.5953369140625 607.7269897460938 C 947.6718139648438 606.6035766601562 959.6345825195312 606.0574340820312 971.1671752929688 606.0574340820312 C 994.9476318359375 606.0574340820312 1014.406127929688 608.4072875976562 1036.93701171875 611.1280517578125 C 1049.909912109375 612.69482421875 1064.613891601562 614.4703979492188 1081.828857421875 615.9820556640625 C 1101.548583984375 617.713623046875 1121.693603515625 618.8474731445312 1143.415283203125 619.4483642578125 C 1149.403442382812 619.6140747070312 1155.363647460938 619.6980590820312 1161.130126953125 619.6979370117188 C 1179.974853515625 619.6976318359375 1197.92578125 618.8151245117188 1216.008666992188 616.999755859375 C 1231.93701171875 615.4008178710938 1245.821044921875 613.3174438476562 1259.247924804688 611.3025512695312 C 1270.426513671875 609.625 1280.985229492188 608.0407104492188 1291.899658203125 606.8600463867188 C 1304.176391601562 605.5320434570312 1315.085083007812 604.9136352539062 1326.229370117188 604.9136352539062 C 1339.646728515625 604.9136352539062 1353.304077148438 605.8353271484375 1367.98193359375 607.7316284179688 C 1399.112548828125 611.7532958984375 1422.555297851562 616.3717651367188 1441.391845703125 620.0828247070312 C 1458.875854492188 623.5272827148438 1471.508422851562 626.0160522460938 1480.715698242188 626.0154418945312 C 1484.727905273438 626.0153198242188 1487.995483398438 625.5377807617188 1490.70458984375 624.5557861328125 C 1493.464111328125 623.5554809570312 1495.739379882812 621.9970092773438 1497.66015625 619.7913208007812 C 1508.934692382812 606.8448486328125 1508.30712890625 567.64208984375 1507.167846679688 496.4742126464844 C 1506.945190429688 482.5645141601562 1506.692749023438 466.798828125 1506.513549804688 449.9696044921875 C 1506.0947265625 410.6489868164062 1508.371459960938 360.7149963378906 1510.573364257812 312.4249877929688 C 1512.736572265625 264.9825439453125 1514.973510742188 215.9248352050781 1514.598388671875 177.6306762695312 C 1514.505126953125 168.0959167480469 1514.44189453125 159.1442260742188 1514.380737304688 150.4874572753906 C 1514.127075195312 114.5709915161133 1513.9267578125 86.20191192626953 1511.777221679688 65.86683654785156 C 1510.668701171875 55.38006591796875 1509.065063476562 47.23391342163086 1506.87451171875 40.96298980712891 C 1504.5966796875 34.44160461425781 1501.621704101562 29.73683738708496 1497.779296875 26.57960510253906 C 1494.963134765625 24.26560592651367 1491.674926757812 22.64206695556641 1487.72705078125 21.61652946472168 C 1484.069458007812 20.66652870178223 1479.7177734375 20.20468330383301 1474.422973632812 20.20468330383301 C 1466.274780273438 20.20468330383301 1456.370727539062 21.29083633422852 1444.90283203125 22.54852867126465 C 1427.60400390625 24.44575881958008 1406.074829101562 26.8069896697998 1379.258666992188 26.8069896697998 C 1363.635620117188 26.8069896697998 1348.781127929688 25.15437507629395 1333.846557617188 21.75483703613281 C 1320.734130859375 18.77006721496582 1309.438232421875 14.91375923156738 1298.514404296875 11.18452835083008 C 1289.7802734375 8.202990531921387 1281.53076171875 5.386682510375977 1273.137084960938 3.306067228317261 C 1263.756225585938 0.9808365106582642 1255.493774414062 -0.1022404432296753 1247.134765625 -0.1022404432296753 C 1244.363525390625 -0.1022404432296753 1241.54345703125 0.02299032919108868 1238.752685546875 0.2699134051799774 C 1225.834716796875 1.41283643245697 1207.504516601562 5.865759372711182 1184.2978515625 11.50329780578613 C 1159.260986328125 17.58545112609863 1128.101806640625 25.15483665466309 1092.723022460938 31.12222099304199 C 1073.2998046875 34.39822006225586 1054.879638671875 36.831298828125 1036.41015625 38.56037521362305 C 1015.415954589844 40.52576065063477 994.47607421875 41.52237319946289 974.172119140625 41.52237319946289 C 957.3590087890625 41.52237319946289 942.189208984375 40.92283630371094 927.7957763671875 39.689453125 C 914.9685668945312 38.59037399291992 903.0599365234375 37.00929641723633 891.38916015625 34.85622024536133 C 869.7145385742188 30.85714340209961 852.2380981445312 25.44806671142578 835.3370361328125 20.21698951721191 C 821.8204345703125 16.03360557556152 807.8436279296875 11.70760536193848 791.8507080078125 8.154528617858887 C 783.2463989257812 6.242990493774414 774.7530517578125 4.698990345001221 765.8853149414062 3.434375047683716 C 755.930419921875 2.014682531356812 745.7594604492188 0.9802210927009583 734.79150390625 0.2716057002544403 C 702.211181640625 -1.832855820655823 676.0592041015625 -2.813009738922119 652.4893188476562 -2.813009738922119 C 639.394287109375 -2.813009738922119 626.9222412109375 -2.512855768203735 614.360595703125 -1.895317316055298 C 602.2945556640625 -1.302086591720581 590.0465698242188 -0.4099327623844147 576.916748046875 0.8325287699699402 C 551.5865478515625 3.229298114776611 523.913330078125 6.85899019241333 490.1551818847656 11.57145214080811 C 476.211181640625 13.51791381835938 463.4187316894531 14.9936056137085 451.0473327636719 16.42068290710449 C 432.3702697753906 18.57529830932617 416.2399597167969 20.43606758117676 401.6900939941406 23.29191398620605 C 385.7671813964844 26.41745185852051 373.640869140625 30.42052841186523 363.5281066894531 35.88960647583008 C 357.8711853027344 38.94914245605469 352.8868713378906 42.43222045898438 348.2904052734375 46.53791427612305 C 343.4914855957031 50.82452774047852 339.2667236328125 55.65237426757812 335.374267578125 61.297607421875 C 327.3280944824219 72.96730041503906 320.9625549316406 87.89421844482422 315.9136352539062 106.9312973022461 C 310.4354858398438 127.5866851806641 306.0650329589844 153.6151428222656 302.9236450195312 184.2936096191406 C 300.4087219238281 208.8548431396484 298.6719360351562 236.4303741455078 297.761962890625 266.2540588378906 C 296.2120971679688 317.0462341308594 297.6199645996094 357.2746887207031 297.6343994140625 357.6749877929688 L 297.6350402832031 357.7143859863281 C 297.6347351074219 357.8222351074219 297.6044006347656 368.6969909667969 298.05224609375 385.7120666503906 C 298.801025390625 414.1597595214844 300.2871704101562 437.6003723144531 301.402099609375 452.2551574707031 C 303.6714782714844 482.0857543945312 306.8421020507812 508.6302185058594 310.8261108398438 531.1513061523438 C 315.7967224121094 559.2500610351562 322.0490417480469 581.1080932617188 329.4090270996094 596.1180419921875 C 332.107177734375 601.6206665039062 335.2511901855469 606.3912963867188 338.7534790039062 610.2977294921875 C 342.1090393066406 614.04052734375 345.9279479980469 617.1376342773438 350.1037902832031 619.503173828125 C 357.8738098144531 623.9046630859375 367.2144165039062 626.0442504882812 378.6597900390625 626.0442504882812 M 378.6597290039062 627.044189453125 C 356.8524475097656 627.044189453125 339.7197570800781 619.4169921875 328.5111694335938 596.558349609375 C 296.0599365234375 530.3777465820312 296.6350402832031 357.7109985351562 296.6350402832031 357.7109985351562 C 296.6350402832031 357.7109985351562 290.86962890625 197.4594573974609 314.947021484375 106.6749877929688 C 339.0242614746094 15.89068222045898 391.5025634765625 24.33314323425293 490.0168762207031 10.5809907913208 C 557.775390625 1.122293591499329 599.5823364257812 -3.812944173812866 652.4893188476562 -3.812944173812866 C 676.5037841796875 -3.812944173812866 702.7955932617188 -2.797148704528809 734.85595703125 -0.7262404561042786 C 837.54931640625 5.907144069671631 848.2200927734375 40.52237319946289 974.172119140625 40.52237319946289 C 1100.124389648438 40.52237319946289 1197.253540039062 2.937759637832642 1238.66455078125 -0.7262404561042786 C 1241.55615234375 -0.9820958375930786 1244.377685546875 -1.10222065448761 1247.134643554688 -1.10222065448761 C 1288.445190429688 -1.10222065448761 1316.25146484375 25.8069896697998 1379.258666992188 25.8069896697998 C 1424.064208984375 25.8069896697998 1454.053833007812 19.20466613769531 1474.422973632812 19.20466613769531 C 1484.609497070312 19.20466613769531 1492.38720703125 20.85464286804199 1498.414306640625 25.8069896697998 C 1516.493041992188 40.66237640380859 1514.709838867188 86.85914611816406 1515.598388671875 177.6208343505859 C 1516.35400390625 254.7843780517578 1506.68212890625 371.8995971679688 1507.513549804688 449.958984375 C 1508.600708007812 552.0586547851562 1512.215209960938 604.6005249023438 1498.414306640625 620.4480590820312 C 1494.317016601562 625.1527709960938 1488.760620117188 627.014892578125 1480.715576171875 627.0154418945312 C 1461.661743164062 627.0167236328125 1428.632690429688 616.5753784179688 1367.853759765625 608.7233276367188 C 1352.37939453125 606.7241821289062 1338.76806640625 605.9136962890625 1326.229370117188 605.9136962890625 C 1272.654052734375 605.9136962890625 1238.531982421875 620.6968994140625 1161.130126953125 620.697998046875 C 1155.4541015625 620.6980590820312 1149.553955078125 620.61865234375 1143.3876953125 620.4480590820312 C 1033.454467773438 617.4066772460938 1012.427490234375 602.043701171875 934.6808471679688 608.7233276367188 C 852.3078002929688 615.800537109375 830.6067504882812 617.2412719726562 734.85595703125 620.4480590820312 C 730.2449340820312 620.6024780273438 725.86572265625 620.6757202148438 721.7056884765625 620.67578125 C 645.4481811523438 620.6769409179688 641.0088500976562 596.08349609375 563.883544921875 596.08349609375 C 557.8470458984375 596.08349609375 551.3773193359375 596.2337646484375 544.380859375 596.558349609375 C 478.0942687988281 599.6340942382812 419.9891662597656 627.044189453125 378.6597290039062 627.044189453125 Z" stroke="none" fill="#faf6f0"/>
    </g>
  </g>
</svg>
