<svg xmlns="http://www.w3.org/2000/svg" xmlns:xlink="http://www.w3.org/1999/xlink" width="959.932" height="576.525" viewBox="0 0 959.932 576.525">
  <defs>
    <clipPath id="clip-Index-logo-design-s1-3">
      <rect width="959.932" height="576.525"/>
    </clipPath>
  </defs>
  <g id="Index-logo-design-s1-3" clip-path="url(#clip-Index-logo-design-s1-3)">
    <g id="PajuramaCopyright-Zugspitze-12" transform="translate(27.868 35.291)" fill="#faf6f0">
      <path d="M 729.5430297851562 539.3543701171875 C 718.4440307617188 539.3546142578125 707.1170654296875 538.7980346679688 694.914794921875 537.6526489257812 C 684.044189453125 536.6323852539062 672.7255249023438 535.164794921875 660.3118896484375 533.166015625 C 637.2493896484375 529.45263671875 613.8499145507812 524.4251098632812 591.2207641601562 519.5631103515625 C 568.7977905273438 514.7455444335938 545.6115112304688 509.7637634277344 522.878173828125 506.0939025878906 C 510.6390380859375 504.1180114746094 499.4945373535156 502.6675109863281 488.8080444335938 501.6592712402344 C 476.8132934570312 500.5276489257812 465.6945495605469 499.9775085449219 454.8162841796875 499.9775085449219 C 448.8660278320312 499.9775085449219 442.9557800292969 500.150146484375 437.2495422363281 500.4905090332031 C 429.3332824707031 500.9627685546875 420.284912109375 502.6130065917969 408.7734069824219 505.6840209960938 C 398.5102844238281 508.4221496582031 387.518798828125 511.9607543945312 375.8819274902344 515.7071533203125 C 344.9986572265625 525.64990234375 309.9949035644531 536.9191284179688 273.0091552734375 538.3029174804688 C 271.3969116210938 538.3631591796875 269.73291015625 538.3937377929688 268.0634155273438 538.3938598632812 C 257.1316528320312 538.3946533203125 244.95166015625 537.093017578125 230.8272857666016 534.4144897460938 C 218.3512878417969 532.0486450195312 206.0004119873047 528.9445190429688 194.0561676025391 525.9427490234375 C 173.7772979736328 520.8462524414062 154.6229095458984 516.0324096679688 139.1102905273438 516.0324096679688 C 135.4587860107422 516.0324096679688 132.1950378417969 516.2890014648438 129.1326599121094 516.8167724609375 C 76.61878967285156 525.8677368164062 54.80904006958008 529.540771484375 42.29154205322266 529.540771484375 C 32.01304244995117 529.540771484375 28.42141532897949 526.9844970703125 21.90129089355469 522.3438720703125 C 19.65391540527344 520.744384765625 17.10654067993164 518.931396484375 13.82754039764404 516.88525390625 L 13.81404113769531 516.8768920898438 L 13.80004119873047 516.869384765625 C 9.840540885925293 514.7354125976562 6.243165969848633 511.3731384277344 3.107915878295898 506.8760070800781 C 0.07354076951742172 502.5236511230469 -2.544084310531616 497.0885009765625 -4.67233419418335 490.7216491699219 C -6.747084140777588 484.5145263671875 -8.358709335327148 477.4191284179688 -9.462334632873535 469.6325073242188 C -10.55083465576172 461.9522705078125 -11.14295959472656 453.6187744140625 -11.22208404541016 444.86376953125 C -11.4659595489502 417.9137573242188 -15.02545928955078 393.8978881835938 -18.79395866394043 368.4718933105469 C -21.376708984375 351.0458984375 -24.04733467102051 333.0266418457031 -25.70320892333984 313.3872680664062 C -26.59683418273926 302.7870178222656 -27.11883354187012 292.6889038085938 -27.2988338470459 282.515625 C -27.50183486938477 271.0498962402344 -27.2678337097168 259.822265625 -26.58345985412598 248.1912689208984 C -24.30083465576172 209.3951416015625 -20.40545845031738 175.6721343994141 -16.96858406066895 145.9188842773438 C -14.64845943450928 125.8333892822266 -12.45708465576172 106.8618927001953 -11.22345924377441 89.926513671875 C -10.66145896911621 82.212890625 -10.58233451843262 73.87651824951172 -10.98145961761475 64.44113922119141 C -11.33345890045166 56.11751556396484 -12.00158405303955 48.01663970947266 -12.64770889282227 40.18238830566406 C -13.48095893859863 30.07963943481445 -14.26795959472656 20.53713989257812 -14.27695941925049 11.7206392288208 C -14.28695964813232 1.871389627456665 -13.32383441925049 -5.723735332489014 -11.24608421325684 -12.18161010742188 C -8.889834403991699 -19.50523567199707 -3.432084321975708 -24.60373497009277 5.438915729522705 -27.76836013793945 C 9.576790809631348 -29.24448585510254 14.39466571807861 -30.29511070251465 20.16766548156738 -30.98036003112793 C 25.46879005432129 -31.6094856262207 31.46966552734375 -31.91535949707031 38.51329040527344 -31.91535949707031 C 54.36641693115234 -31.91535949707031 73.46353912353516 -30.31836128234863 93.68203735351562 -28.62761116027832 C 118.263542175293 -26.57211112976074 146.1247863769531 -24.24223518371582 174.3247833251953 -24.24223518371582 C 177.6460418701172 -24.24223518371582 180.9549102783203 -24.27486038208008 184.1595458984375 -24.33910942077637 C 195.0982971191406 -24.5583610534668 205.6910400390625 -24.66961097717285 215.6434173583984 -24.66961097717285 C 252.4392852783203 -24.66961097717285 276.6619262695312 -23.20798492431641 300.0870361328125 -21.79448509216309 C 320.5231628417969 -20.56135940551758 339.825927734375 -19.39661026000977 365.4131774902344 -19.39661026000977 C 387.7681579589844 -19.39661026000977 403.0299072265625 -21.73698616027832 422.35205078125 -24.69985961914062 C 445.2171630859375 -28.20611000061035 473.6735534667969 -32.56985855102539 525.8296508789062 -34.64886093139648 C 528.2041625976562 -34.74348449707031 530.5811767578125 -34.79148483276367 532.89453125 -34.79148483276367 C 552.6051635742188 -34.79148483276367 567.3692626953125 -31.37811088562012 583.0001831054688 -27.76423454284668 C 591.7619018554688 -25.73861122131348 600.822021484375 -23.64385986328125 611.1621704101562 -22.05923461914062 C 622.852783203125 -20.26761054992676 634.6039428710938 -19.39661026000977 647.087158203125 -19.39661026000977 C 660.8069458007812 -19.39661026000977 673.1536865234375 -20.3959846496582 684.8330688476562 -22.45186042785645 C 695.038818359375 -24.24835968017578 703.4639282226562 -26.62923622131348 710.8972778320312 -28.72986030578613 C 722.2505493164062 -31.9381103515625 732.0555419921875 -34.70885848999023 744.7420654296875 -34.70885848999023 C 745.8129272460938 -34.70885848999023 746.9078979492188 -34.68873596191406 747.9967651367188 -34.64886093139648 C 760.1458129882812 -34.20398712158203 771.101806640625 -34.14260864257812 781.1316528320312 -34.14260864257812 C 783.1996459960938 -34.14260864257812 785.2427978515625 -34.14535903930664 787.2186889648438 -34.14798355102539 C 789.1716918945312 -34.15048599243164 791.0162963867188 -34.15298461914062 792.86279296875 -34.15298461914062 C 808.3390502929688 -34.15298461914062 822.107421875 -33.99148559570312 833.8762817382812 -32.00611114501953 C 839.9430541992188 -30.98261070251465 845.2251586914062 -29.52585983276367 850.0244140625 -27.5524845123291 C 855.1708984375 -25.43635940551758 859.7703857421875 -22.72923469543457 864.0858154296875 -19.27610969543457 C 881.7919311523438 -5.108235359191895 895.6152954101562 22.61213874816895 911.7986450195312 76.40376281738281 C 915.1881713867188 87.67014312744141 918.0379028320312 99.51701354980469 920.26904296875 111.6151428222656 C 922.3692626953125 123.0041427612305 923.9822998046875 134.9482574462891 925.0632934570312 147.1160125732422 C 926.072265625 158.4723968505859 926.6478881835938 170.3670196533203 926.7745361328125 182.4697570800781 C 926.8911743164062 193.6306457519531 926.6292724609375 205.3286437988281 925.9959106445312 217.23876953125 C 924.9121704101562 237.6192626953125 922.7366943359375 259.2191467285156 919.3451538085938 283.2727661132812 C 916.3921508789062 304.2157592773438 912.924560546875 324.140625 909.8651733398438 341.7198791503906 C 907.4551391601562 355.5681457519531 905.1787719726562 368.6483764648438 903.5216674804688 380.1109008789062 C 901.681396484375 392.8399047851562 900.7832641601562 402.3256530761719 900.6953125 409.9630126953125 C 900.5445556640625 423.0494995117188 900.3736572265625 437.8821411132812 898.23388671875 451.0293884277344 C 897.13818359375 457.7616271972656 895.6106567382812 463.6981506347656 893.5641479492188 469.1782531738281 C 891.3041381835938 475.2296447753906 888.4548950195312 480.6257629394531 884.8533935546875 485.6750183105469 C 876.9736938476562 496.7220153808594 865.5574340820312 505.8592529296875 849.9521484375 513.6087646484375 C 841.6329345703125 517.7398681640625 831.9111938476562 521.5517578125 821.0567626953125 524.9385375976562 C 809.8260498046875 528.4425048828125 796.9389038085938 531.63037109375 782.75341796875 534.4136352539062 C 774.1455688476562 536.1025390625 765.1929321289062 537.3727416992188 756.144287109375 538.1890258789062 C 747.5744018554688 538.962158203125 738.62451171875 539.354248046875 729.5430297851562 539.3543701171875 Z" stroke="none"/>
      <path d="M 532.8941650390625 -34.2916259765625 C 530.587158203125 -34.2916259765625 528.217041015625 -34.24371337890625 525.8496704101562 -34.14935302734375 C 473.7216796875 -32.07135009765625 445.2807922363281 -27.7100830078125 422.4280395507812 -24.20574951171875 C 403.0847778320312 -21.2396240234375 387.8062744140625 -18.896728515625 365.4131469726562 -18.896728515625 C 339.8109130859375 -18.896728515625 320.5014038085938 -20.0618896484375 300.0580444335938 -21.29547119140625 C 276.6406860351562 -22.70849609375 252.426025390625 -24.16973876953125 215.64501953125 -24.16961669921875 C 205.6935424804688 -24.16961669921875 195.1036376953125 -24.0584716796875 184.1695556640625 -23.8392333984375 C 180.960693359375 -23.77484130859375 177.6484375 -23.74224853515625 174.3247680664062 -23.74224853515625 C 146.1038208007812 -23.74224853515625 118.2315673828125 -26.072998046875 93.64031982421875 -28.12933349609375 C 73.43255615234375 -29.8192138671875 54.34552001953125 -31.41534423828125 38.5133056640625 -31.41534423828125 C 31.48956298828125 -31.41534423828125 25.5079345703125 -31.110595703125 20.2265625 -30.48388671875 C 14.49114990234375 -29.8031005859375 9.70904541015625 -28.7608642578125 5.60693359375 -27.2974853515625 C -3.10772705078125 -24.1884765625 -8.4647216796875 -19.1939697265625 -10.77008056640625 -12.02850341796875 C -12.83148193359375 -5.621612548828125 -13.78680419921875 1.924652099609375 -13.7769775390625 11.72027587890625 C -13.7679443359375 20.51638793945312 -12.9818115234375 30.04913330078125 -12.14947509765625 40.14151000976562 C -11.5029296875 47.98065185546875 -10.8343505859375 56.08663940429688 -10.48193359375 64.42013549804688 C -10.08209228515625 73.8748779296875 -10.16143798828125 82.22988891601562 -10.7247314453125 89.9627685546875 C -11.959228515625 106.9090270996094 -14.15118408203125 125.8857727050781 -16.47198486328125 145.9768981933594 C -19.9080810546875 175.723388671875 -23.8026123046875 209.4387512207031 -26.08447265625 248.2206420898438 C -26.7679443359375 259.8387451171875 -27.001708984375 271.0538940429688 -26.799072265625 282.5067749023438 C -26.61920166015625 292.6688842773438 -26.09771728515625 302.7562866210938 -25.2049560546875 313.3453979492188 C -23.55059814453125 332.968994140625 -20.8809814453125 350.9804077148438 -18.29931640625 368.3986206054688 C -14.5281982421875 393.8422546386719 -10.96630859375 417.874755859375 -10.72210693359375 444.8592529296875 C -10.6431884765625 453.5923767089844 -10.052734375 461.9037475585938 -8.96734619140625 469.562255859375 C -7.86798095703125 477.3190307617188 -6.2633056640625 484.3846435546875 -4.19805908203125 490.5631408691406 C -2.0850830078125 496.8846435546875 0.51104736328125 502.2768859863281 3.51806640625 506.5901489257812 C 6.608154296875 511.0223999023438 10.14727783203125 514.332763671875 14.03717041015625 516.4292602539062 L 14.0921630859375 516.4611206054688 C 17.3841552734375 518.5152587890625 19.93804931640625 520.3328857421875 22.1912841796875 521.9365234375 C 25.40753173828125 524.2256469726562 27.94805908203125 526.0337524414062 30.88226318359375 527.2265014648438 C 33.96881103515625 528.4811401367188 37.487548828125 529.0406494140625 42.29156494140625 529.0406494140625 C 54.7684326171875 529.0406494140625 76.56414794921875 525.3697509765625 129.0476684570312 516.3240356445312 C 132.1383056640625 515.7913818359375 135.4298095703125 515.5324096679688 139.1102905273438 515.5324096679688 C 154.6859130859375 515.5324096679688 173.8707885742188 520.3536376953125 194.1823120117188 525.4578857421875 C 206.118896484375 528.45751953125 218.4619140625 531.5593872070312 230.9227905273438 533.92236328125 C 245.0153198242188 536.5947875976562 257.1641845703125 537.8939208984375 268.0636596679688 537.8939208984375 C 269.72314453125 537.8939208984375 271.3807983398438 537.8634033203125 272.9905395507812 537.8032836914062 C 309.9072875976562 536.422119140625 344.8761596679688 525.1640014648438 375.728515625 515.2312622070312 C 387.3716430664062 511.4828796386719 398.3690185546875 507.9422607421875 408.64453125 505.2010192871094 C 420.1891784667969 502.1210021972656 429.2691650390625 500.4656372070312 437.2197875976562 499.9913940429688 C 442.9364013671875 499.650390625 448.8567810058594 499.4775085449219 454.8162841796875 499.4775085449219 C 465.7106628417969 499.4775085449219 476.8450317382812 500.0283813476562 488.8559265136719 501.1615295410156 C 499.5538024902344 502.1707763671875 510.7092895507812 503.6226501464844 522.9597778320312 505.6002502441406 C 545.70654296875 509.2722778320312 568.89990234375 514.2552490234375 591.3296508789062 519.0742797851562 C 613.951904296875 523.9346313476562 637.3442993164062 528.9603881835938 660.393310546875 532.671630859375 C 672.7955322265625 534.6686401367188 684.1031494140625 536.1348876953125 694.96240234375 537.154296875 C 707.148681640625 538.2982788085938 718.4600219726562 538.8543701171875 729.5429077148438 538.8543701171875 C 738.60888671875 538.8543701171875 747.5438232421875 538.4630126953125 756.0993041992188 537.691162109375 C 765.1303100585938 536.8764038085938 774.065673828125 535.608642578125 782.6570434570312 533.9230346679688 C 796.8248901367188 531.1432495117188 809.6942749023438 527.9597778320312 820.9076538085938 524.4611206054688 C 831.7369384765625 521.0823974609375 841.4340209960938 517.2803955078125 849.7296752929688 513.160888671875 C 865.259521484375 505.4488830566406 876.6154174804688 496.3631286621094 884.4462890625 485.3846435546875 C 888.0220336914062 480.3716430664062 890.851318359375 475.0131530761719 893.0956420898438 469.0032653808594 C 895.1306762695312 463.5542602539062 896.64990234375 457.6486511230469 897.7404174804688 450.9491271972656 C 899.8741455078125 437.8388977050781 900.0447998046875 423.026123046875 900.1954345703125 409.957275390625 C 900.2835693359375 402.2973937988281 901.1832885742188 392.790771484375 903.0267944335938 380.0393981933594 C 904.6849365234375 368.5698852539062 906.9619140625 355.4861450195312 909.37255859375 341.63427734375 C 912.4312744140625 324.0586547851562 915.898193359375 304.1381225585938 918.8500366210938 283.2030029296875 C 922.2395629882812 259.1638793945312 924.4136962890625 237.578125 925.4965209960938 217.2122497558594 C 926.12939453125 205.3126525878906 926.3910522460938 193.6253967285156 926.2745361328125 182.4750061035156 C 926.1480712890625 170.38525390625 925.5730590820312 158.5036315917969 924.5653076171875 147.160400390625 C 923.4856567382812 135.0081481933594 921.8746948242188 123.0795288085938 919.7772827148438 111.7059020996094 C 917.5494384765625 99.62564086914062 914.7039184570312 87.7967529296875 911.3196411132812 76.54788208007812 C 895.1683959960938 22.86227416992188 881.3929443359375 -4.7867431640625 863.7722778320312 -18.8858642578125 C 859.494384765625 -22.3087158203125 854.934814453125 -24.99249267578125 849.832763671875 -27.0902099609375 C 845.0681762695312 -29.04925537109375 839.8209228515625 -30.4959716796875 833.791259765625 -31.51324462890625 C 822.0601806640625 -33.49212646484375 808.3139038085938 -33.65313720703125 792.8605346679688 -33.65313720703125 C 791.014404296875 -33.65313720703125 789.1710205078125 -33.650634765625 787.2194213867188 -33.64813232421875 C 785.24462890625 -33.6455078125 783.20263671875 -33.64276123046875 781.1343994140625 -33.64276123046875 C 771.0990600585938 -33.64276123046875 760.1366577148438 -33.7041015625 747.9783935546875 -34.14923095703125 C 746.8964233398438 -34.1888427734375 745.8075561523438 -34.208984375 744.7420654296875 -34.208984375 C 732.124755859375 -34.208984375 722.3507690429688 -31.44683837890625 711.033447265625 -28.24871826171875 C 703.5885620117188 -26.14483642578125 695.150390625 -23.7603759765625 684.9197998046875 -21.95947265625 C 673.21142578125 -19.89862060546875 660.8363037109375 -18.896728515625 647.087158203125 -18.896728515625 C 634.5784301757812 -18.896728515625 622.8025512695312 -19.76959228515625 611.086669921875 -21.56512451171875 C 600.7279052734375 -23.152587890625 591.6585693359375 -25.24951171875 582.8878173828125 -27.2772216796875 C 567.28515625 -30.88458251953125 552.5479125976562 -34.291748046875 532.8941650390625 -34.2916259765625 M 532.8941040039062 -35.2916259765625 C 574.8189086914062 -35.29205322265625 594.4144287109375 -19.896728515625 647.087158203125 -19.896728515625 C 702.638427734375 -19.896728515625 715.8541870117188 -36.32745361328125 748.0150146484375 -35.14862060546875 C 760.0897216796875 -34.7064208984375 771.083984375 -34.6427001953125 781.1344604492188 -34.6427001953125 C 785.1932373046875 -34.6427001953125 789.0960693359375 -34.653076171875 792.8604736328125 -34.653076171875 C 856.869873046875 -34.65325927734375 879.8095092773438 -31.66009521484375 912.2772827148438 76.259765625 C 951.3829345703125 206.2427673339844 901.873046875 351.1367797851562 901.1953125 409.96875 C 900.5175170898438 468.80078125 898.8285522460938 512.149169921875 782.8495483398438 534.9042358398438 C 765.07470703125 538.3917236328125 747.2988891601562 539.8544311523438 729.54296875 539.8544311523438 C 637.390380859375 539.8544311523438 545.556884765625 500.4775390625 454.8162841796875 500.4775390625 C 448.9604797363281 500.4775390625 443.1258544921875 500.640869140625 437.279296875 500.9896545410156 C 397.16552734375 503.3825073242188 338.0303955078125 536.3706665039062 273.0278930664062 538.802490234375 C 271.382568359375 538.8640747070312 269.7216796875 538.8939208984375 268.063720703125 538.8939208984375 C 222.5242309570312 538.8939208984375 172.5848388671875 516.5323486328125 139.1102905273438 516.5323486328125 C 135.6242065429688 516.5323486328125 132.3228759765625 516.7742919921875 129.217529296875 517.3095092773438 C 78.10467529296875 526.1190185546875 55.0968017578125 530.0406494140625 42.29156494140625 530.0406494140625 C 28.32623291015625 530.0406494140625 26.49530029296875 525.3790283203125 13.56280517578125 517.3095092773438 C -2.93206787109375 508.4196472167969 -11.40557861328125 479.8681335449219 -11.72210693359375 444.8682556152344 C -12.3040771484375 380.5543823242188 -31.99310302734375 331.619873046875 -27.08270263671875 248.1618957519531 C -23.22381591796875 182.5783996582031 -14.7421875 131.3491516113281 -11.72210693359375 89.89013671875 C -8.85009765625 50.46188354492188 -19.85443115234375 12.941650390625 -11.72210693359375 -12.334716796875 C -6.6907958984375 -27.9727783203125 11.8162841796875 -32.415283203125 38.5133056640625 -32.415283203125 C 73.6077880859375 -32.415283203125 122.8728637695312 -24.74224853515625 174.3248291015625 -24.74224853515625 C 177.5960693359375 -24.74224853515625 180.8636474609375 -24.7730712890625 184.1495361328125 -24.8389892578125 C 278.433349609375 -26.72943115234375 303.4354248046875 -19.896728515625 365.4131469726562 -19.896728515625 C 414.5230407714844 -19.896728515625 430.159423828125 -31.33563232421875 525.809814453125 -35.14862060546875 C 528.243408203125 -35.24560546875 530.6029052734375 -35.2916259765625 532.8941040039062 -35.2916259765625 Z" stroke="none" fill="#faf6f0"/>
    </g>
  </g>
</svg>
