<svg xmlns="http://www.w3.org/2000/svg" xmlns:xlink="http://www.w3.org/1999/xlink" width="1639.066" height="851.326" viewBox="0 0 1639.066 851.326">
  <defs>
    <clipPath id="clip-Index-logo-design-s2-1">
      <rect width="1639.067" height="851.326"/>
    </clipPath>
  </defs>
  <g id="Index-logo-design-s2-1" clip-path="url(#clip-Index-logo-design-s2-1)">
    <path id="Pfad_133" data-name="Pfad 133" d="M296.841,480.8s-7.728-214.814,24.547-336.509S424.009,33.916,556.065,15.482,746.609-8.567,884.268.325s151.962,55.293,320.8,55.293S1504.1,5.236,1559.613.325c61.958-5.482,98.367,35.567,188.464,35.567s135.491-19.913,159.725,0,21.844,81.839,23.035,203.5c1.013,103.436-11.952,260.427-10.838,365.064,1.458,136.863,6.3,207.294-12.2,228.537s-59.141-.747-175.014-15.717S1579.26,837.074,1431.9,833s-175.55-24.671-279.768-15.717C1041.71,826.767,1012.62,828.7,884.268,833S764.68,794.675,628.939,800.973s-245.869,88.714-289.369,0S296.841,480.8,296.841,480.8Z" transform="translate(-293.929 6.649)" fill="#ad9274"/>
  </g>
</svg>
