<svg xmlns="http://www.w3.org/2000/svg" width="1138.586" height="631.645" viewBox="0 0 1138.586 631.645">
  <path id="PajuramaCopyright-Zugspitze-12" d="M-10.106-10.037C3.167-51.292,101.647-21.713,205.366-23.793s131.223,5.437,199.4,5.437c54.024,0,71.225-12.584,176.448-16.778,51.664-2.06,72.3,16.778,133.414,16.778S790.279-36.43,825.658-35.134c109.858,4.023,135.721,24.15,161.908,43.806s36.177,43.179,68.7,102.271c22.868,41.546,54.82,105.739,54.445,156.05-.515,69.194-8.616,98.571-36.721,164.47s-20.6,63.841-75.7,99.128S951.339,570,853.591,572.609c-96.933,2.589-244.466-25.427-369.764-17.953-44.128,2.632-109.181,38.922-180.688,41.6-56.7,2.121-120.789-30.092-158.2-23.644-117.55,20.26-102.549,13.638-127.228,0s-27.467-41.188-27.815-79.691c-.64-70.75-22.3-124.581-16.9-216.391,4.245-72.146,13.575-128.5,16.9-174.11C-6.947,59.043-19.052,17.768-10.106-10.037Z" transform="translate(27.868 35.292)" fill="#faedca"/>
</svg>
