<svg xmlns="http://www.w3.org/2000/svg" xmlns:xlink="http://www.w3.org/1999/xlink" viewBox="0 0 189.45 36.97"><defs><style>.cls-1{fill:none;}.cls-2{clip-path:url(#clip-path);}</style><clipPath id="clip-path" transform="translate(0 0)"><rect class="cls-1" width="189.45" height="36.97"/></clipPath></defs><g id="Ebene_2" data-name="Ebene 2"><g id="Ebene_1-2" data-name="Ebene 1"><g id="Bildmaterial_3" data-name="Bildmaterial 3"><g class="cls-2"><path d="M70.81,25H62.1L59.83,30H56.52L66.59,8.36,76.3,30H72.94Zm-1.26-2.88-3-6.92-3.17,6.92Z" transform="translate(0 0)"/><g class="cls-2"><path d="M87.71,7.73h3V30h-3V28.64a5.54,5.54,0,0,1-4,1.71,5.65,5.65,0,0,1-4.37-1.92,7.16,7.16,0,0,1-1.73-4.9,6.92,6.92,0,0,1,1.73-4.8,5.53,5.53,0,0,1,8.34-.09Zm-7,15.8a4.45,4.45,0,0,0,1,3,3.25,3.25,0,0,0,2.56,1.17,3.38,3.38,0,0,0,2.66-1.13,4.36,4.36,0,0,0,1-3,4.4,4.4,0,0,0-1-3,3.36,3.36,0,0,0-2.63-1.14,3.25,3.25,0,0,0-2.56,1.16,4.26,4.26,0,0,0-1,2.9" transform="translate(0 0)"/><polygon points="96.03 17.15 99.34 24.36 102.65 17.15 105.99 17.15 99.32 30.86 92.7 17.15 96.03 17.15"/><path d="M119.22,24.26H110a3.87,3.87,0,0,0,1,2.52,3.1,3.1,0,0,0,2.33.92,3,3,0,0,0,1.83-.52,7.78,7.78,0,0,0,1.62-1.95l2.5,1.39a9.65,9.65,0,0,1-1.22,1.7,6.75,6.75,0,0,1-1.38,1.16,5.75,5.75,0,0,1-1.6.66,7.79,7.79,0,0,1-1.86.21,6,6,0,0,1-4.61-1.84,6.92,6.92,0,0,1-1.74-4.93,7.1,7.1,0,0,1,1.69-4.93,6.42,6.42,0,0,1,9,0,7.14,7.14,0,0,1,1.63,5Zm-3-2.42a2.84,2.84,0,0,0-3-2.37,3,3,0,0,0-1,.16,2.85,2.85,0,0,0-.87.48,2.76,2.76,0,0,0-.66.74,3.15,3.15,0,0,0-.42,1Z" transform="translate(0 0)"/><path d="M122.46,17.15h3v1.18a4.87,4.87,0,0,1,3.5-1.54,4.42,4.42,0,0,1,3.49,1.41,5.79,5.79,0,0,1,1.08,3.92V30h-3V22.81a4.74,4.74,0,0,0-.52-2.62,2.13,2.13,0,0,0-1.87-.74,2.29,2.29,0,0,0-2.1,1,6.76,6.76,0,0,0-.6,3.36V30h-3Z" transform="translate(0 0)"/><polygon points="140.31 19.92 140.31 29.98 137.35 29.98 137.35 19.92 136.08 19.92 136.08 17.15 137.35 17.15 137.35 12.44 140.31 12.44 140.31 17.15 142.62 17.15 142.62 19.92 140.31 19.92"/><path d="M147.6,17.15v7.36c0,2.13.84,3.19,2.51,3.19s2.52-1.06,2.52-3.19V17.15h3v7.43a8.07,8.07,0,0,1-.39,2.66,4.48,4.48,0,0,1-1.27,1.81,5.64,5.64,0,0,1-3.83,1.3,5.58,5.58,0,0,1-3.8-1.3A4.59,4.59,0,0,1,145,27.24a7.46,7.46,0,0,1-.37-2.66V17.15Z" transform="translate(0 0)"/><path d="M159.34,17.15h3v1.14a5.77,5.77,0,0,1,1.45-1.17,3.32,3.32,0,0,1,1.53-.33,4.79,4.79,0,0,1,2.45.77l-1.36,2.71a2.84,2.84,0,0,0-1.64-.6q-2.43,0-2.43,3.66V30h-3Z" transform="translate(0 0)"/><rect x="169.84" y="7.73" width="2.96" height="22.25"/><polygon points="180.84 27.6 175.07 17.15 178.51 17.15 182.44 24.53 186.1 17.15 189.45 17.15 179.22 36.97 175.84 36.97 180.84 27.6"/><polygon points="27.43 0 12.34 25.03 28.48 25.03 22.17 15.58 20.93 17.65 24.2 22.71 16.45 22.71 27.46 4.44 44.27 31.34 4.21 31.34 16.8 11.38 18.26 13.15 19.48 11.3 16.73 7.16 0 33.66 48.47 33.66 27.43 0"/></g></g></g></g></g></svg>