<?xml version="1.0" encoding="utf-8"?>
<!-- Generator: Adobe Illustrator 23.0.2, SVG Export Plug-In . SVG Version: 6.00 Build 0)  -->
<svg version="1.1" id="Ebene_1" xmlns="http://www.w3.org/2000/svg" xmlns:xlink="http://www.w3.org/1999/xlink" x="0px" y="0px"
	 viewBox="0 0 306.5 179.3" style="enable-background:new 0 0 306.5 179.3;" xml:space="preserve">
<style type="text/css">
	.st0{fill:#496178;}
	.st1{fill:#8AB5E1;}
	.st2{fill:#FFFFFF;}
</style>
<title>GadmerLodge</title>
<g>
	<path class="st0" d="M14.1,122.2c0.1,1-0.4,2-1.3,2.5c-0.3,0.2-2.1,1-3.3,1.5v-10.1c0-1.3-1.1-2.4-2.4-2.4c-1.3,0-2.4,1.1-2.4,2.4
		v32.3c0,1.3,1.1,2.4,2.4,2.4c1.3,0,2.4-1.1,2.4-2.4v-13.2H9.3c-1,0-1.7-1.5-1.7-1.5l-1.5-3.1h5.8c1.4,0,2.2,0.8,2.2,2.5v16.1
		c-0.1,3.1-2.5,5.5-5.6,5.6H5.7c-3.1,0-5.7-2.5-5.7-5.6v-33.8c0-3.1,2.6-5.6,5.7-5.6h2.8c3.1,0.1,5.5,2.6,5.6,5.6L14.1,122.2z"/>
	<path class="st0" d="M42.5,154.3h-5l-4-30.4l-4,30.4h-5.1l6.8-44.1h2.5c1.9,0,2.2,1.2,2.4,2.4L42.5,154.3z"/>
	<path class="st0" d="M62.4,110.2c3.1,0,5.6,2.5,5.7,5.5v33c-0.1,3.1-2.6,5.6-5.7,5.5h-8.9v-44.1L62.4,110.2z M63.5,117
		c0.1-1.2-0.9-2.2-2.1-2.3c-0.1,0-0.3,0-0.4,0h-3v35.1h3c1.2,0.1,2.3-0.7,2.4-1.9c0-0.1,0-0.3,0-0.4V117z"/>
	<path class="st0" d="M100.3,154.3h-4.5v-22.7l-3.5,15.1h-1.4c-2.7,0-3.2-2.6-3.5-3.6l-2.7-11.5v22.7h-4.5v-44.1H83
		c1,0,1.8,0.7,2,1.6l5.3,25.3l5-25.4c0.2-1,1.1-1.6,2-1.6h2.8L100.3,154.3z"/>
	<path class="st0" d="M128.7,149.8c-0.5,1.1-1.3,2.9-1.5,3.3c-0.5,0.8-1.5,1.3-2.5,1.2h-10.2v-42.8c0.1-0.7,0.7-1.3,1.4-1.3h12
		l-1.6,3.3c-0.5,0.9-1.4,1.4-2.4,1.3h-3.7c-0.6,0-1,0.4-1.1,0.9c0,0.1,0,0.1,0,0.2v13.1h6.9c-0.5,1.1-1.3,3-1.5,3.3
		c-0.5,0.8-1.5,1.3-2.4,1.2h-1.9c-0.6,0-1.1,0.5-1.1,1.1v15.3L128.7,149.8z"/>
	<path class="st0" d="M149.5,154.3v-16.1c0-2.1-1.1-2.8-2.4-2.8h-2.4v19h-4.6v-44.1h8.4c3.1,0,5.6,2.5,5.6,5.5v13.6
		c0,0,0.2,3.5-1.7,3.9c1.8,0.9,1.7,4.1,1.7,4.1v16.9L149.5,154.3z M147.1,131c1.2,0,2.4-0.5,2.4-2.5v-11.8c0.1-1.2-0.8-2.2-2-2.3
		c-0.1,0-0.2,0-0.4,0h-2.4V131L147.1,131z"/>
	<path class="st0" d="M197.4,149.8c-0.5,1.1-1.3,2.9-1.5,3.3c-0.5,0.8-1.5,1.3-2.5,1.2h-11v-44.1h3.2c0.8,0,1.4,0.6,1.4,1.4v38.2
		L197.4,149.8z"/>
	<path class="st0" d="M215.6,109.7c3.1,0.1,5.5,2.6,5.6,5.6v33.8c-0.1,3-2.5,5.5-5.6,5.5H212c-3.1,0-5.6-2.5-5.8-5.5v-33.8
		c0-3.1,2.6-5.6,5.7-5.6c0,0,0,0,0,0H215.6z M214,150.7c1.3,0,2.4-1.1,2.4-2.4c0,0,0,0,0,0v-32.1c0-1.3-1.1-2.4-2.4-2.5c0,0,0,0,0,0
		h-0.7c-1.3,0-2.4,1.1-2.4,2.5v32.1c0,1.3,1.1,2.4,2.4,2.5L214,150.7z"/>
	<path class="st0" d="M244.1,110.2c3.1,0,5.6,2.5,5.7,5.5v33c-0.1,3.1-2.6,5.6-5.7,5.5h-8.9v-44.1L244.1,110.2z M245.2,117
		c0.1-1.2-0.9-2.2-2.1-2.3c-0.1,0-0.3,0-0.4,0h-3v35.1h3c1.2,0.1,2.3-0.7,2.4-1.9c0-0.1,0-0.3,0-0.4V117z"/>
	<path class="st0" d="M278.3,122.2c0.1,1-0.4,2-1.3,2.5c-0.3,0.2-2.1,1-3.3,1.5v-10.1c0-1.3-1.1-2.4-2.4-2.4c-1.3,0-2.4,1.1-2.4,2.4
		v32.3c0,1.3,1.1,2.4,2.4,2.4c1.3,0,2.4-1.1,2.4-2.4v-13.2h-0.2c-1,0-1.7-1.5-1.7-1.5l-1.5-3.1h5.8c1.4,0,2.2,0.8,2.2,2.5v16.1
		c-0.1,3.1-2.5,5.5-5.6,5.6h-2.8c-3.1,0-5.7-2.5-5.7-5.6v-33.8c0-3.1,2.6-5.6,5.7-5.6h2.8c3.1,0.1,5.5,2.6,5.6,5.6V122.2z"/>
	<path class="st0" d="M306.5,149.8c-0.5,1.1-1.3,2.9-1.5,3.3c-0.5,0.8-1.5,1.3-2.5,1.2h-10.2v-42.8c0.1-0.7,0.7-1.3,1.4-1.3h12
		l-1.5,3.3c-0.5,0.9-1.4,1.4-2.4,1.3h-3.7c-0.5-0.1-1,0.4-1.1,0.9c0,0.1,0,0.1,0,0.2v13.1h6.9c-0.5,1.1-1.3,3-1.5,3.3
		c-0.5,0.8-1.5,1.3-2.4,1.2h-1.9c-0.6,0-1.1,0.5-1.1,1.1v15.3L306.5,149.8z"/>
	<path class="st0" d="M46.9,179.2H45l-1.5-8.8l0,0l-1.5,8.8h-1.9l-2-13.5h2.1l1,8.6l0,0l1.5-8.6h1.5l1.6,8.8l0,0l0.9-8.8h2.1
		L46.9,179.2z"/>
	<path class="st0" d="M51.8,168.9c0-0.5,0.1-1,0.3-1.4c0.2-0.4,0.4-0.7,0.8-1c0.3-0.3,0.7-0.5,1.1-0.6c0.4-0.1,0.8-0.2,1.2-0.2
		c0.4,0,0.8,0.1,1.2,0.2c0.4,0.1,0.7,0.3,1.1,0.6c0.3,0.3,0.6,0.6,0.8,1c0.2,0.5,0.3,0.9,0.3,1.4v7.1c0,0.5-0.1,1-0.3,1.5
		c-0.2,0.4-0.4,0.7-0.8,1c-0.3,0.3-0.7,0.5-1.1,0.6c-0.4,0.1-0.8,0.2-1.2,0.2c-0.4,0-0.8-0.1-1.2-0.2c-0.4-0.1-0.7-0.3-1.1-0.6
		c-0.3-0.3-0.6-0.6-0.8-1c-0.2-0.5-0.3-1-0.3-1.5L51.8,168.9z M53.8,176.1c0,0.4,0.1,0.7,0.4,1c0.5,0.4,1.3,0.4,1.9,0
		c0.3-0.3,0.4-0.6,0.4-1v-7.1c0-0.4-0.1-0.7-0.4-1c-0.5-0.4-1.3-0.4-1.9,0c-0.3,0.3-0.4,0.6-0.4,1V176.1z"/>
	<path class="st0" d="M67.1,165.7H70c0.9-0.1,1.9,0.3,2.6,0.9c0.6,0.7,0.9,1.6,0.9,2.6v6.3c0.3,1.8-1,3.4-2.7,3.7
		c-0.3,0-0.6,0-0.9,0h-2.7V165.7z M69.1,177.4H70c0.4,0,0.9-0.1,1.2-0.4c0.3-0.4,0.4-0.8,0.4-1.3v-6.5c0-0.4-0.1-0.9-0.3-1.2
		c-0.3-0.3-0.7-0.5-1.2-0.4h-0.9L69.1,177.4z"/>
	<path class="st0" d="M77.1,165.7h5.9v1.8H79v4h3.4v1.8H79v4h3.9v1.9h-5.9V165.7z"/>
	<path class="st0" d="M86,165.7h2v13.5h-2V165.7z"/>
	<path class="st0" d="M91.5,165.7h1.9l3,8.1l0,0v-8.1h2v13.5h-1.9l-3-8.1l0,0v8.1h-2L91.5,165.7z"/>
	<path class="st0" d="M107.2,165.7h2v5.8h2.4v-5.8h2v13.5h-2v-6h-2.4v6h-2V165.7z"/>
	<path class="st0" d="M117.1,165.7h5.9v1.8h-3.9v4h3.4v1.8h-3.4v4h3.9v1.9h-5.9V165.7z"/>
	<path class="st0" d="M126,165.7h3.2c2.3,0,3.5,1.3,3.5,4c0,0.7-0.1,1.4-0.4,2c-0.3,0.6-0.7,1.1-1.3,1.4l2.1,6.2H131l-1.8-5.8H128
		v5.8h-2L126,165.7z M128,171.7h1.1c0.3,0,0.6,0,0.8-0.1c0.2-0.1,0.4-0.2,0.5-0.4c0.1-0.2,0.2-0.4,0.2-0.7c0.1-0.6,0.1-1.2,0-1.8
		c0-0.2-0.1-0.5-0.2-0.7c-0.1-0.2-0.3-0.3-0.5-0.4c-0.3-0.1-0.6-0.1-0.9-0.1h-1L128,171.7z"/>
	<path class="st0" d="M135.3,177.5l3.7-10h-3.5v-1.8h5.6v1.5l-3.8,10.1h3.8v1.8h-5.8V177.5z"/>
	<path class="st0" d="M149.4,165.7h2v5.8h2.4v-5.8h2v13.5h-2v-6h-2.4v6h-2V165.7z"/>
	<path class="st0" d="M159.2,168.9c0-0.5,0.1-1,0.3-1.4c0.2-0.4,0.4-0.7,0.8-1c0.3-0.3,0.7-0.5,1.1-0.6c0.4-0.1,0.8-0.2,1.2-0.2
		c0.4,0,0.8,0.1,1.2,0.2c0.4,0.1,0.7,0.3,1.1,0.6c0.3,0.3,0.6,0.6,0.8,1c0.2,0.5,0.3,0.9,0.3,1.4v7.1c0,0.5-0.1,1-0.3,1.5
		c-0.2,0.4-0.4,0.7-0.8,1c-0.3,0.3-0.7,0.5-1.1,0.6c-0.4,0.1-0.8,0.2-1.2,0.2c-0.4,0-0.8-0.1-1.2-0.2c-0.4-0.1-0.7-0.3-1.1-0.6
		c-0.3-0.3-0.6-0.6-0.8-1c-0.2-0.5-0.3-1-0.3-1.5V168.9z M160.1,163h1.7v1.9h-1.7V163z M161.2,176c0,0.4,0.1,0.7,0.4,1
		c0.5,0.4,1.3,0.4,1.9,0c0.3-0.3,0.4-0.6,0.4-1v-7.1c0-0.4-0.1-0.7-0.4-1c-0.5-0.4-1.3-0.4-1.9,0c-0.3,0.3-0.4,0.6-0.4,1V176z
		 M163.2,163h1.7v1.9h-1.7L163.2,163z"/>
	<path class="st0" d="M169.3,165.7h2v5.8h2.4v-5.8h2v13.5h-2v-6h-2.4v6h-2V165.7z"/>
	<path class="st0" d="M179.2,165.7h5.9v1.8h-3.9v4h3.4v1.8h-3.4v4h3.9v1.9h-5.9V165.7z"/>
	<path class="st0" d="M188.1,165.7h3.2c2.3,0,3.5,1.3,3.5,4c0,0.7-0.1,1.4-0.4,2c-0.3,0.6-0.7,1.1-1.3,1.4l2.1,6.2h-2.1l-1.8-5.8
		h-1.2v5.8h-2L188.1,165.7z M190.1,171.7h1.1c0.3,0,0.6,0,0.8-0.1c0.2-0.1,0.4-0.2,0.5-0.4c0.1-0.2,0.2-0.4,0.2-0.7
		c0.1-0.6,0.1-1.2,0-1.8c0-0.2-0.1-0.5-0.2-0.7c-0.1-0.2-0.3-0.3-0.5-0.4c-0.3-0.1-0.6-0.1-0.9-0.1h-1L190.1,171.7z"/>
	<path class="st0" d="M209.7,169.6h-2v-0.4c0-0.4-0.1-0.8-0.3-1.1c-0.2-0.3-0.7-0.5-1.1-0.5c-0.2,0-0.5,0-0.7,0.1
		c-0.2,0.1-0.3,0.2-0.4,0.4c-0.1,0.2-0.2,0.4-0.2,0.5c0,0.2-0.1,0.4-0.1,0.6c0,0.2,0,0.5,0,0.7c0,0.2,0.1,0.3,0.1,0.5
		c0.1,0.1,0.2,0.3,0.3,0.4c0.2,0.1,0.4,0.2,0.6,0.3l1.5,0.6c0.4,0.1,0.7,0.3,1.1,0.6c0.3,0.2,0.5,0.5,0.6,0.8c0.2,0.3,0.3,0.7,0.3,1
		c0.1,0.4,0.1,0.9,0.1,1.3c0,0.5-0.1,1.1-0.2,1.6c-0.1,0.5-0.3,0.9-0.6,1.3c-0.3,0.3-0.6,0.6-1,0.8c-0.5,0.2-1.1,0.3-1.6,0.3
		c-0.5,0-0.9-0.1-1.3-0.2c-0.4-0.2-0.8-0.4-1.1-0.7c-0.6-0.6-1-1.4-1-2.3v-0.7h2v0.6c0,0.4,0.1,0.7,0.3,1c0.3,0.3,0.7,0.5,1.1,0.4
		c0.3,0,0.5,0,0.8-0.1c0.2-0.1,0.3-0.2,0.4-0.4c0.1-0.2,0.2-0.4,0.2-0.6c0-0.2,0-0.5,0-0.8s0-0.6,0-0.9c0-0.2-0.1-0.4-0.2-0.5
		c-0.1-0.1-0.2-0.3-0.3-0.3c-0.2-0.1-0.4-0.2-0.6-0.3l-1.4-0.6c-0.7-0.2-1.3-0.7-1.7-1.4c-0.5-1.1-0.6-2.4-0.2-3.6
		c0.1-0.4,0.3-0.8,0.6-1.2c0.3-0.3,0.6-0.6,1-0.8c0.5-0.2,1-0.3,1.5-0.3c0.5,0,0.9,0.1,1.3,0.3c0.4,0.2,0.7,0.4,1,0.7
		c0.3,0.3,0.5,0.6,0.7,1c0.1,0.4,0.2,0.7,0.2,1.1L209.7,169.6z"/>
	<path class="st0" d="M219.2,176.2c0,0.4-0.1,0.8-0.2,1.2c-0.2,0.4-0.4,0.7-0.7,1c-0.3,0.3-0.6,0.5-1,0.7c-0.4,0.2-0.8,0.3-1.2,0.2
		c-0.4,0-0.8-0.1-1.1-0.1c-0.4-0.1-0.7-0.3-1-0.5c-0.3-0.3-0.6-0.6-0.8-1c-0.2-0.5-0.3-1-0.3-1.5v-7.4c0-0.4,0.1-0.8,0.2-1.2
		c0.2-0.4,0.4-0.7,0.7-1c0.3-0.3,0.6-0.5,1-0.6c0.4-0.2,0.9-0.2,1.3-0.2c0.4,0,0.9,0.1,1.2,0.2c0.8,0.3,1.4,0.9,1.7,1.7
		c0.2,0.4,0.2,0.9,0.2,1.3v0.8h-2v-0.6c0-0.4-0.1-0.7-0.3-1c-0.2-0.3-0.5-0.4-0.9-0.4c-0.4-0.1-0.8,0.1-1,0.4
		c-0.2,0.4-0.3,0.7-0.2,1.1v6.9c0,0.4,0.1,0.7,0.3,1c0.2,0.3,0.6,0.4,0.9,0.4c0.1,0,0.3,0,0.4-0.1c0.1,0,0.3-0.1,0.4-0.2
		c0.1-0.1,0.2-0.3,0.3-0.4c0.1-0.2,0.1-0.4,0.1-0.7v-0.7h2L219.2,176.2z"/>
	<path class="st0" d="M222.5,165.7h2v5.8h2.4v-5.8h2v13.5h-2v-6h-2.4v6h-2V165.7z"/>
	<path class="st0" d="M232.4,165.7h2v11.6h3.9v1.9h-5.9V165.7z"/>
	<path class="st0" d="M243.5,165.7h1.6l3.1,13.5h-2l-0.6-2.9h-2.7l-0.6,2.9h-2L243.5,165.7z M241.9,162.9h1.7v1.9h-1.7V162.9z
		 M244.3,169.6L244.3,169.6l-1,4.9h2L244.3,169.6z M245,162.9h1.7v1.9H245V162.9z"/>
	<path class="st0" d="M250.8,168.9c0-0.5,0.1-1,0.3-1.4c0.2-0.4,0.4-0.7,0.8-1c0.3-0.3,0.7-0.5,1.1-0.6c0.8-0.3,1.6-0.3,2.4,0
		c0.4,0.1,0.7,0.3,1,0.6c0.3,0.3,0.6,0.6,0.8,1c0.2,0.5,0.3,0.9,0.3,1.4v0.7h-2v-0.7c0-0.4-0.1-0.7-0.4-1c-0.5-0.4-1.3-0.4-1.9,0
		c-0.3,0.3-0.4,0.6-0.4,1v7.1c0,0.4,0.1,0.7,0.4,1c0.5,0.4,1.3,0.4,1.9,0c0.3-0.3,0.4-0.6,0.4-1v-2.5h-1.6v-1.7h3.6v4.2
		c0,0.5-0.1,1-0.3,1.5c-0.2,0.4-0.4,0.7-0.8,1c-0.3,0.3-0.7,0.5-1,0.6c-0.8,0.3-1.6,0.3-2.4,0c-0.4-0.1-0.7-0.3-1.1-0.6
		c-0.3-0.3-0.6-0.6-0.8-1c-0.2-0.5-0.3-1-0.3-1.5L250.8,168.9z"/>
	<path class="st0" d="M262.1,167.5h-2.3v-1.8h6.5v1.8h-2.3v11.7h-2L262.1,167.5z"/>
	<polygon class="st0" points="35.8,90.4 58.2,95.4 77,87.4 107.6,97.6 130.1,77.3 169.5,97.6 204.7,87.4 239.8,94.8 269.2,90.3 
		248,51.5 239.1,57.3 207.3,24 198.8,31 191.8,43.4 177.1,14.3 167.8,28.3 145.7,0 122.5,31 107.9,20.5 98.8,35.3 93,35.3 
		73.6,56.2 64,50 	"/>
	<polygon class="st1" points="261.1,84.5 231.2,71.9 218.5,83.3 197.8,69 165.6,84.1 146.4,56.1 95.1,83.3 76.4,78 41.3,88 
		66.2,56.1 71.5,63.9 94.7,38.1 103.3,42.2 109,25 116.3,32.4 116.3,43.5 146.5,8 158.6,42.5 176.3,20.6 182.9,48 191.5,55 
		201.1,32.6 206.2,28.6 230.9,65.6 247.4,56.1 	"/>
	<polygon class="st2" points="101.3,46.9 94.6,43.4 79.7,60 	"/>
	<polygon class="st2" points="175,26.6 166.6,37.1 166.6,41.7 156.2,49.7 173.9,44.9 	"/>
	<polygon class="st2" points="205.7,32.2 202.1,37.4 195.4,59.3 211.9,57 	"/>
	<polygon class="st2" points="246.7,59 240.1,66.3 234.1,67.7 246.7,70.2 	"/>
	<polygon class="st2" points="145.5,13.6 117.3,48.3 101.3,55.2 95.8,67.1 134.7,52.8 131.4,44.5 145.5,34.9 	"/>
	<polygon class="st2" points="65.7,61.2 54.5,75.2 68.6,66.8 	"/>
</g>
</svg>
