<?xml version="1.0" encoding="UTF-8"?>
<svg id="Pfad-quer-rechts" xmlns="http://www.w3.org/2000/svg" viewBox="0 0 843 304">
  <defs>
    <style>
      .cls-1 {
        stroke: #1d1d1b;
        stroke-miterlimit: 10;
        stroke-width: .5px;
      }

      .cls-1, .cls-2 {
        fill: #1d1d1b;
      }

      .cls-3 {
        fill: #3ea3dc;
      }

      .cls-3, .cls-2, .cls-4 {
        stroke-width: 0px;
      }

      .cls-4 {
        fill: #fff;
      }
    </style>
  </defs>
  <g>
    <path class="cls-3" d="m56.1868,152.5176c4.6982-2.02,11.1475,3.4897,13.0928,5.3062l32.3281-35.2671.5225.3066c11.0791,6.4946,24.0303,12.98,25.7979,12.229.8682-1.4058,6.3672-5.7017,15.2012-12.5425,8.2178-6.3643,18.4453-14.2842,19.5283-16.2651.0986-.1802,9.8984-18.0107,14.4688-18.9976l.165-.0361.165.0391c3.5469.8359,9.3291,3.4097,11.2285,4.2773,1.7568-2.9077,8.54-13.7236,12.8369-14.8247.7334-.187,1.3896-.1128,1.9541.2217,3.7861,2.2495,21.4658,33.6406,25.1152,40.1694.8613-.479,2.4912-.7598,5.4688.3711,3.0566,1.1611,6.0068,3.0503,9.1299,5.0508.6428.4116,1.3019.8293,1.9634,1.2458-8.4031-47.7501-50.086-84.0306-100.2453-84.0306-56.2185,0-101.7927,45.5741-101.7927,101.7927,0,8.9002,1.1456,17.5323,3.2915,25.7603,2.9716-6.3989,6.8383-13.5415,9.7802-14.8063Z"/>
    <path class="cls-3" d="m233.5267,118.9072c-3.6982-1.4067-4.4609-.2534-4.4688-.2417l-.6143,1.3535-.7051-1.3359c-8.5518-15.3545-22.2744-38.7925-25.0283-40.4287-.2129-.126-.4805-.146-.8154-.0586-3.4609.8867-10.0283,10.9233-12.2666,14.7163l-.3467.5874-.6172-.2896c-.0732-.0347-7.2861-3.4038-11.3701-4.416-2.7949.9214-9.5518,11.3198-13.3203,18.2104-1.1484,2.0986-8.6348,7.9873-19.9268,16.7314-6.6592,5.1567-14.207,11.0024-14.8428,12.144-.124.2231-.3779.5181-.8838.6558-3.6299.9932-21.6162-9.27-26.4258-12.0728l-32.5615,35.5225-.5547-.561c-.0742-.0752-7.459-7.4824-12-5.5288-2.6152,1.1244-6.6438,8.8494-9.7492,15.7122,12.1775,42.5803,51.3872,73.7485,97.8784,73.7485,56.2186,0,101.7927-45.5742,101.7927-101.7927,0-5.3738-.4196-10.6494-1.2219-15.7982-1.0561-.6497-2.0928-1.303-3.0974-1.9465-3.0566-1.9575-5.9434-3.8062-8.8545-4.9116Z"/>
  </g>
  <path class="cls-4" d="m245.3948,125.1406c-.1094-.8438-.3281-1.8281-.3281-1.8281-.6591-.4156-.6962-.4385-1.3377-.8488-3.1656-2.0283-6.1553-3.9439-9.3145-5.1437-1.4972-.5684-2.8312-.8566-3.965-.8566-.3743,0-.7327.0316-1.0651.094l-.3528.0662-.1755-.3132c-13.1727-23.5107-22.2378-37.8922-24.8709-39.4567-.5167-.3057-1.0922-.4609-1.7095-.4609-.3258,0-.6628.0441-1.0016.1311-3.0543.7827-7.5833,5.8066-12.7531,14.1463l-.2296.3704-.3983-.1769c-2.4917-1.1068-7.1308-3.0718-10.2057-3.7965l-.3877-.092-.3827.084c-3.7357.8065-10.4889,11.0063-15.1373,19.4958-.9147,1.6644-10.0118,8.7898-19.2511,15.9454-8.984,6.9568-13.3852,10.4249-14.9738,12.2024l-.1843.2063-.2728-.0466c-2.6367-.4507-12.5074-5.1042-24.4615-12.1113l-1.2191-.7159-31.8734,34.7709-.3265.3562-.3671-.3142c-2.1995-1.8824-6.4781-5.0404-10.4211-5.0404-.9503,0-1.8428.1843-2.6526.5479-3.1476,1.4146-6.8661,7.7549-9.642,13.9326,0,0,.2483,1.0204.5765,2.2235s.4941,1.6882.4941,1.6882l.7368-1.45c4.1875-8.875,7.4033-13.3995,9.2322-14.186.1942-.0837.4083-.14.627-.189,4.5453-.6445,10.9089,5.7296,10.9778,5.7993l.2895.2928.3835.6187,32.3647-35.3075.2713-.296.3476.201c10.7297,6.2065,18.5543,10.0283,22.9636,11.2328,1.1642.3429,2.1011.4968,2.7218.4013.1709-.0116.33-.0309.4616-.0669.6484-.1763,1.1831-.5728,1.4678-1.0877l.0136-.0247.0162-.0229c.7988-1.125,7.3486-6.2393,14.572-11.8333,11.74-9.0906,18.9539-14.7712,20.1999-17.048,4.4141-8.0714,10.0547-16.097,12.3173-17.5251l.1871-.1181.2133.0591c3.9633,1.0989,10.3946,4.0866,10.6664,4.2133l1.4448.6779.8088-1.3709c3.6844-6.2442,8.9809-13.2605,11.4669-14.1935l.1434-.0538c.0601-.0076.1233-.0206.1784-.02l.1891.1709c2.4879,2.2482,13.1976,19.7375,24.3818,39.8162l1.6621,3.1494,1.2582-2.7728.1163-.2564.2795-.0334c.0723-.0086.1695-.0146.2828-.0156.0103,0,.0189-.0011.0294-.0011.6774.0009,1.6087.2192,2.6945.6323,2.8126,1.0681,5.6557,2.8887,8.6658,4.8161,1.102.7062,2.12,1.3462,3.1166,1.9593l.6745.4293s-.125-.8125-.2344-1.6562Z"/>
  <g>
    <path class="cls-4" d="m237.8225,267.9866l-14.6324,2.6384c-.2041.0368-.4139.0263-.6132-.0306l-23.2361-7.162c-.8825-.252-.4837.6007-.457,1.5181l1.0468,5.5709c.0202.6933-.4858,1.2901-1.173,1.3837l-16.8349,2.1357c-.2712.0369-.5472-.009-.7918-.1317l-31.6745-13.5549c-.2552-.1281-2.1635.1754-2.4454.221-3.0568.495-23.0758,4.6736-35.6155.3793-33.2957-11.4024-32.7381-10.9603-32.476-57.1732.1125-19.8277,7.466-30.9791,9.6832-33.127.2629-.2547.4166-.6016.4193-.9676l.2392-31.8939c.0041-.5426-.3156-1.0355-.8128-1.2531l-4.4128-1.931c-.5037-.2204-.8245-.723-.8125-1.2726l.587-26.8136c.0126-.5738.3848-1.0775.9295-1.2581l25.5509-8.4633c.2524-.0861.5246-.096.7826-.0282l34.4164,10.0333c.6441.169,1.0703,1.7806,1.0059,2.4434l-1.1407,9.7523c-.076.7835.5233,1.4626,1.3101,1.4868,6.7309.2072,34.4891,3.0178,49.5429,29.8915,6.7457,12.0422,6.0928,37.4908,5.6909,43.2769-.0469.6749.4074,1.2719,1.0695,1.4106,3.5501.7438,14.3919,3.0495,20.2238,4.6688,7.0403,1.9549,17.6678,17.0526,17.8255,26.3002.0504,2.9541,1.8948,8.4201,1.5658,14.3062-.5877,10.5121-3.5539,22.6607-3.6455,26.3446-.016.6435-.482,1.1848-1.1155,1.299Z"/>
    <g>
      <path class="cls-2" d="m114.2913,117.2798c5.3701-.3608,21.2715-6.4414,21.9463-6.7002.125-.0483.1904-.187.1465-.314-.043-.127-.1758-.1992-.3086-.1587-.0361.0107-3.7744,1.1089-11.3203,1.4175-7.4307.3057-19.8828-.064-20.7148-.2026-4.5723-.7661-11.0107-1.6372-11.0752-1.6455-.1191-.0205-.2383.0591-.2734.1772-.0342.1182.0225.2441.1338.2969.6377.2983,15.3213,7.1431,21.0508,7.1426.1436,0,.2832-.0044.415-.0132Z"/>
      <path class="cls-2" d="m221.8997,198.167c-8.918-2.0825-11.6836-2.6982-18.3799-3.9639-.5596-.1055-.9482-.6108-.9053-1.1753.5469-7.1104,1.7266-31.333-6.0693-44.4946-14.8506-25.0747-40.835-28.9829-48.4453-29.583-.5947-.0474-1.0352-.5566-1.0039-1.1572l.6104-9.0854c.0439-.8135-3.1807-4.3604-3.8994-4.5464-.2383-.063-23.8623-6.3345-31.1025-8.0869-.9736-.2363-3.5771-.5249-5.4141.0854-2.3369.7773-21.5977,7.5562-21.7871,7.623-.7236.2383-3.5752,2.0312-3.6289,4.4702l-.3486,23.9033c-.1025,1.4238,1.4346,3.5474,2.0322,3.8076l3.3926,1.356c.4092.1787.6699.5825.6641,1.0283l-.3779,31.0088c-.002.2451-.0811.4736-.2285.6597-2.1084,2.6748-8.1982,14.9683-9.2471,30.9771-.0371.0439-.0596.0996-.0605.1577-.0029.1484.0059.2959.0146.4434l.0117.1816-.0215.4121c-.0293.5562-.0596,1.1309-.0615,1.7095l-.0195,3.1104c-.1084,12.7764,1.5889,32.9717,2.6562,37.5059,2.2344,4.3877,8.5801,10.5166,19.6875,14.5596,13.1094,4.7715,30.0439,5.6357,48.9678,2.499.2529-.0415.4912-.0078.7227.1094l30.3604,12.6519,1.7598.895c.0352.0181.0742.0273.1133.0273.0107,0,.0215-.0005.0332-.002l17.2236-2.2803c.7773-.1147,1.3545-.7681,1.3701-1.5889l-.8086-6.939c1.7031.4722,5.0244,1.6001,8.8291,2.8926,4.2227,1.4341,9.0088,3.0591,13.0098,4.2656l1.1904.0537,15.7646-2.8252c.752-.1333,1.3086-.7837,1.3184-1.4961.0225-.0947,2.2041-9.7002,3.8906-27.9492,2.1318-23.0728-11.2988-38.7642-21.8135-41.2207Zm-.5674,2.353c3.8203.9233,7.6514,3.6191,10.8115,7.6016-3.9717,3.2358-7.6299,6.9458-10.875,11.0283-.3184.3989-.8633.5029-1.3584.2598-2.0674-1.0205-4.6016-1.3496-7.5342-.9771-3.2207.4116-6.0049,1.5391-8.2773,3.3521-.418.332-1.0322.2812-1.4277-.1226-3.1641-3.231-6.3428-6.3022-9.4482-9.1284-.2334-.2119-.3672-.5146-.3672-.8296,0-.3057.1221-.5854.3428-.7881,5.0908-4.6387,11.4658-7.6084,17.9502-8.3618.126-.0151.2217-.1226.2207-.2505-.001-.1274-.0977-.2339-.2246-.2466-.0137-.0015-.2344-.021-.6416-.021-2.2324,0-10.0527.5918-19.8262,8.0386-.2852.2178-.6543.2856-.9844.1846-4.1572-1.2686-7.7197-2.4243-11.165-3.542-4.1426-1.3442-8.0557-2.6138-12.9141-4.0635-.4248-.1265-.7246-.4824-.7842-.9282-.0576-.4424.1377-.8604.5107-1.0908,2.0605-1.271,4.4639-2.4478,7.3477-3.5972,10.0605-4.0107,16.3906-3.1011,26.7168-1.1484l2.4346.4595c7.6729,1.4487,10.2578,1.937,19.4932,4.1714Zm2.4785,47.6436c-.0068.2988-.125.5562-.3438.7441-.2705.2339-.6582.3394-1.0781.2866-4.1875-.5278-7.9922-1.2036-11.6719-1.8574-2.2189-.3942-4.497-.7933-6.8669-1.1671.064-11.2272,5.2794-18.1522,10.7885-18.0316,7.5906.1662,9.3661,11.1192,9.2906,18.4863-.0682.9225-.1166,1.5142-.1185,1.539Zm-27.0332-7.7407l-.0439,7.4688c-2.3398.2163-4.4219.3628-6.4355.5044-2.6201.1841-5.0957.3584-7.8037.6641-.3184.0352-.6357-.0684-.873-.2852-.2383-.2173-.3701-.5264-.3633-.8521l.041-8.8066c.2129-9.6763,3.1914-18.2456,8.6152-24.7803.1885-.2271.46-.3643.7627-.3857.3193-.022.6201.0845.8477.2915,3.3613,3.0518,6.6982,6.2915,10.1982,9.9028-3.8916,4.8013-4.8398,11.4834-4.9453,16.2783Zm-49.9268-118.0068c.0156-.3057.1504-.5835.3779-.7822.1992-.1743.4502-.2681.7139-.2681.0303,0,.0596.001.0898.0034,5.2129.4209,23.3271,2.8882,37.5439,16.979.3232.3198.4268.8179.2568,1.2393-1.0127,2.5234-4.9561,4.9478-10.8174,6.6509-6.6445,1.9312-15.1719,2.8438-24.6455,2.6338-8.2168-.1797-15.959-1.2388-22.3896-3.063-.5879-.1665-.8047-.6694-.8135-1.0493-.0078-.395.1885-.8843.7637-1.0737l14.8662-4.9263c.6406-.2104,3.293-3.146,3.3945-4.6455l.6592-11.6982Zm-60.7969,11.9648c-.4854-.2114-1.915-1.3413-2.1084-3.6577l.3711-20.8271c.043-1.9463,1.8799-3.7739,2.3359-3.9243l21.5381-7.498c.1641-.0527,2.2344-.3936,4.3486.0381l28.9033,7.5879c.5635.145,3.6895,2.9854,3.7383,3.5371l-1.4375,24.2197c-.0215.9956-1.7354,2.6333-2.1729,2.7773l-26.042,8.6123c-.292.0962-3.3574.4229-4.6387-.0977l-24.8359-10.7676Zm-5.6846,67.7002c.6611-11.7642,3.5762-23.5142,7.0889-28.5737.208-.2993.5303-.4697.8867-.4697h.0205c.376.0068.7256.2065.9365.5342,4.8457,7.5464,18.8896,13.6655,37.5654,16.3682.3135.0449.5928.2207.7666.4819.1748.2612.2275.5732.1484.8784-1.834,7.145-2.8838,13.543-3.2119,19.5591-.0264.4883-.084,1.1406-.1504,1.9019-.2598,2.9575-.6514,7.4268-.0264,10.5029.1143.5601-.1758,1.522-.6074,2.0181-.1279.1475-.3496.3164-.5498.3057-17.2207-1.0664-41.9053-8.9941-42.8672-23.2793-.0049-.0757-.0049-.1519,0-.2275Zm67.1035,57.3013c-41.459,5.6299-60.3379-7.4614-64.959-16.085-1.5801-2.9478-2.4756-20.7949-2.4912-32.0049-.001-.7388.251-1.2153.4258-1.2627.1055-.0239.248.1133.3857.3516,2.2832,3.9351,8.5742,8.9219,15.2988,12.126.4238.2021.6738.8589.6631,1.3511-.1807,7.6919.6641,15.3311,2.5107,22.7056.0645.2612.2393.2632.3066.2505q.2656-.042.0713-2.8125c-.2871-4.0962-.8848-12.6196-.5723-18.7334.0176-.3594.2041-.6919.499-.8887.2725-.1826.6025-.2236.9053-.1172,12.416,4.395,30.0469,5.6167,47.1611,3.2671.3066-.041.5449.0957.6865.2197.251.2212.4062.5737.4033.9204-.0273,3.3828-.1455,6.3374-.2607,9.1948-.2666,6.6772-.498,12.4434.54,20.7817.0391.3164-.7871.6279-1.5742.7358Zm1.4551-35.3818c-.1182.6299-.5381,1.0532-1.0957,1.104-9.2832.8481-19.1191,1.0532-19.8613.415-1.1895-1.0239-1.1309-7.5508-1.1113-9.6958.0029-.2856.0049-.5132.0039-.666-.0117-2.5386.1328-5.2056.4414-8.1538.5176-4.9429,1.4814-10.0659,2.9463-15.6631.1279-.4907.5762-.8169,1.1084-.8169.0293,0,.0596.001.0889.0029,13.8311.9487,25.5859-.2407,31.1006-1.8408.1221-.0356.1982-.1567.1768-.2822-.0205-.1206-.125-.208-.2461-.208-.0039,0-.0088,0-.0137.0005-.1689.0093-17.0947.896-26.7158.0718-12.9482-1.1094-24.5605-3.6396-32.6973-7.125-8.7441-3.7451-13.3057-8.4375-13.1934-13.5703.0029-.1143.1514-27.2407.1514-27.2407.0049-.377.1885-.7104.5059-.9155.3193-.2061.6992-.2349,1.043-.085l19.3486,8.4966c1.3828.5625,3.5996.29,4.0107.1548h.001l5.7529-1.9087c.251-.0815.5127-.0713.7578.0312.5596.2354,1.1611.4692,1.8389.7153.3389.123.5869.3921.6797.7388.0967.3555.0146.7236-.2246,1.0098-3.6455,4.356-6.6582,8.9834-8.9551,13.7534-.2617.543-.7754.6602-1.168.5913-.3867-.0698-.8584-.3716-.916-.9927-.8232-8.8408-1.0312-9.0498-1.2715-9.0498-.0068,0-.0127,0-.0186.0005-.1123.0024-.25.0625-.2637.3354-.1729,3.4502-.2539,6.9595-.332,10.353-.0859,3.6846-.1738,7.4951-.3799,11.2368h.0029c-.001.0117-.0029.021-.0039.0254l-.0234.5327c-.0264.4502.1689.8467.5352,1.0879.3848.2529.9043.291,1.291.0957.3496-.1758.5557-.5068.5811-.9316l.0195-.519c2.0684-9.3315,6.7783-18.228,13.999-26.4424.2783-.3164.7031-.4453,1.1162-.3325,6.5156,1.7705,14.2549,2.8008,22.3789,2.9785,2.8477.0635,5.7637.0117,8.665-.1528.4785-.0181.9229.2563,1.0801.7061,1.2949,3.6875,2.6504,9.7607,3.5479,13.7793,1.0635,4.7676,1.0791,4.7827,1.4102,4.7471.248-.0215.2607-.2974.2656-.3877.249-5.397-1.2246-11.418-2.5244-16.7305l-.2695-1.1025c-.0752-.3066-.0146-.6182.168-.8774.1885-.2661.4844-.438.8125-.4717,11.8477-1.21,20.4834-4.3896,23.6943-8.7231.2207-.2993.5645-.4844.9199-.4961.3115-.0166.6191.1206.8291.3691,2.0391,2.4126,3.9053,5.042,5.5479,7.8149,2.7207,4.5947,4.5605,11.2251,5.4678,19.7119-.0469.0439.0135,5.6685-10.7207,12.2896-.1098.0677-.1367.2163-.0723.3276.0645.1118.2031.1592.3193.104,4.1904-1.8755,8.3174-3.9688,10.1318-6.5649.1396-.1997.2197-.2207.2324-.2212.2998.0898.6582,1.7319.6973,3.1948.1797,6.8105-.1885,12.5493-.3799,14.9561l-.2852-.0537c-10.0713-1.9038-16.8145-2.8613-28.0557,1.2754-8.6797,3.1934-19.1221,9.3999-22.8701,29.2144Zm30.4668,46.9443c-.2041.1216-.5781.063-1.0459-.1724l-26.3555-10.8452c-.3506-.1777-.5537-.5386-.6045-1.0723v-.0005c-.084-.8721-.126-2.0283-.1787-3.4922-.1016-2.8403-.2422-6.73-.8027-11.7583-.0439-.3984.1924-.646.3379-.7578.2129-.1646.4834-.2505.7559-.2505.1523,0,.3047.0264.4473.0815,6.1621,2.3657,11.666,3.9751,17.4932,5.6792,2.7568.8062,5.6074,1.6396,8.6309,2.584.4014.1255.6855.5688.6748,1.0718l.8857,18.3252c-.0068.3125-.0869.5171-.2383.6074Zm-.5156-31.8745l-.0234,7.9844c-.0078.3511-.167.6533-.4482.8511-.3018.2109-.7012.2642-1.0703.1396-3.8564-1.2998-7.3828-2.3169-10.7939-3.3003-5.2754-1.521-10.2617-2.9585-15.8789-5.2612-.0264-1.0215-.0322-7.437.3535-11.8369.8643-9.874,4.7129-18.9888,10.0557-23.8364,4.1611,1.2837,7.7988,2.4536,11.3174,3.585,4.6416,1.4927,9.0254,2.9023,14.4131,4.5181.3535.106.6309.3804.7432.7339.1104.3477.0469.7095-.1748.9922-5.3418,6.8271-8.2783,15.6196-8.4932,25.4307Zm18.3164,31.7446l-14.8779,1.9375-1.1621-20.1475c.0117-.5479.4326-1.0063.9785-1.0669,2.9814-.3301,5.835-.5054,8.8555-.6914,1.4424-.0889,2.8955-.1782,4.373-.2856.0342-.0024.0684-.0039.1025-.0039.333,0,.6455.1177.8691.3301.2158.2061.3271.4751.3213.8052l1.4814,18.0527c-.0117.541-.4092.9917-.9414,1.0698Zm24.1982-3.2178c-.0078.3462-.1719.6611-.4512.8643-.2793.2036-.6318.2642-.9639.1641-3.5049-1.0454-6.6182-2.062-9.6279-3.0444-.856-.2795-1.7202-.5615-2.5969-.8454-2.3694-5.8856-3.545-11.287-3.8325-16.0306,3.358.3689,6.6019.9754,9.987,1.6094,2.8994.543,5.8984,1.1045,9.0127,1.5103.499.0645.7969.6177.7891,1.0596l-2.3164,14.7129Zm16.0498-1.937c-.0107.5254-.3945.9736-.9131,1.0654l-11.417,2.0249c-.3252.0591-.6611-.0327-.9131-.25-.249-.2129-.3887-.5215-.3857-.8481l2.3135-14.7383c.0107-.5229.3945-.9668.9121-1.0557,2.6396-.4546,5.6143-1.2681,8.4902-2.0552,1.2686-.3472,2.501-.6841,3.6455-.9731.3135-.0786.6445-.0054.9053.2012.2764.2197.4297.5479.4268.8579l-3.0645,15.771Zm3.7627-29.5669c-.2354,6.8301-.5928,9.0244-.5996,9.082-.0107.502-.3662.9302-.8838,1.0659-1.0586.2773-2.1602.5815-3.2803.8906-3.0098.8301-6.1221,1.689-8.9062,2.1792-.333.0576-.6602-.0347-.9141-.2524-.2559-.2192-.3975-.5376-.3926-.8433.0068-.0488.6875-4.9785.6709-12.312-.0176-7.6631-1.4248-10.9604-3.6904-13.7974-.3545-.4443-.3779-1.0376-.0576-1.4424,3.1084-3.9121,6.6182-7.4761,10.4229-10.5859,2.5615,3.8081,8.0635,13.5088,7.6309,26.0156Z"/>
      <path class="cls-2" d="m113.3099,121.1831l-.2217.0273c-.4932.061-.6787.0835-1.0898,7.3789-.2197,3.9048-.3916,8.4258-.4277,11.249-.0068.5234.2539.981.7148,1.2544.2627.1562.5684.2354.8652.2354.2549,0,.5039-.0581.7139-.1763.3887-.2178.6152-.6138.6211-1.0859.002-.1768.0205-17.8306-.9717-18.7197l-.2041-.1631Z"/>
    </g>
  </g>
  <g>
    <path class="cls-4" d="m98.4136,92.735c.622-3.4044,2.6144-6.3571,6.2939-8.5937,5.7798-3.513,14.3257-5.6161,8.0768-12.3134-4.6903-5.0269-10.4892-4.9275-11.1485-12.1601-.4977-5.4602,4.1481-7.5434,7.8602-11.2189,5.4355-5.3819,6.1864-10.7708,2.9611-14.2457-3.2253-3.475-9.5406-6.7841-9.0595-6.7346.3445-.0321.7722-.0617,1.3345.0155,6.3763.875,14.5165,4.0013,16.5586,9.6637,1.5542,4.3098.5042,11.4731-1.6359,15.7042-3.8346,7.5813-4.3445,9.3893,6.8706,16.3586,5.9459,3.695,9.1279,9.8107.372,15.6272-4.7824,3.1769-10.9359,3.3037-14.351,8.0001-5.0991,7.0125-3.0779,16.3836,2.428,21.2611-.7107,2.4217-1.911,1.95-4.0273.0752-5.6928-5.0431-13.8674-14.1399-12.5337-21.4391Z"/>
    <path class="cls-2" d="m113.5648,116.7285c-.9844,0-2.0049-.7109-3.2637-1.8257-4.3809-3.8804-14.4023-13.8257-12.8457-22.3433.7021-3.8442,2.9717-6.957,6.7461-9.251,1.1172-.6792,2.3301-1.3042,3.502-1.9082,2.915-1.502,5.9287-3.0552,6.2617-4.9697.1855-1.0684-.4512-2.3931-1.8926-3.9385-1.5811-1.6934-3.291-2.772-4.9463-3.8154-3.0811-1.9429-5.9922-3.7783-6.4609-8.9204-.4268-4.6797,2.5869-7.208,5.501-9.6533.8838-.7412,1.7969-1.5078,2.6445-2.3467,4.7881-4.7407,5.9111-9.6797,2.9326-12.8906-2.1982-2.3672-5.9785-4.7114-7.7959-5.8379-1.3184-.8169-2.2494-1.7413-2.0095-2.281s2.3376-.3083,2.9265-.2282c6.6143.9077,15.125,4.1494,17.3418,10.2983,1.7109,4.7407.458,12.2432-1.6826,16.4751-3.5996,7.1187-4.249,8.4014,6.5166,15.0908,3.9736,2.4702,6.1885,5.561,6.2363,8.7031.0469,3.0771-1.918,5.958-5.8398,8.563-1.9541,1.2979-4.0928,2.0986-6.1611,2.873-3.0996,1.1606-6.0273,2.2563-7.9414,4.8887-4.8984,6.7373-2.627,15.606,2.2871,19.9585l.4629.4102-.1748.5938c-.2422.8262-.6914,1.9614-1.7871,2.2764-.1855.0532-.3711.0791-.5576.0791Zm-7.4152-88.3933c1.8818,1.251,5.464,3.5266,7.0217,5.2053,3.7705,4.0635,2.625,10.0415-2.9893,15.6006-.9043.8955-1.8496,1.688-2.7627,2.4546-2.876,2.4131-5.1475,4.3188-4.8125,7.9839.3809,4.1841,2.5527,5.5537,5.5586,7.4487,1.6777,1.0581,3.5791,2.2568,5.3311,4.1348,1.9072,2.0435,2.6885,3.8755,2.3877,5.6016-.498,2.8687-3.7959,4.5684-7.2881,6.3677-1.1426.5889-2.3232,1.1978-3.3828,1.8413-3.2773,1.9927-5.2432,4.6626-5.8418,7.9365h0c-1.417,7.7534,9.4731,18.6234,12.1953,21.6567.8556.7778,1.9561.2183,2.0196.2095-.002,0,.7098.0428.8582-.2873-5.4445-5.0556-8.1385-14.7259-2.6864-22.224,2.2588-3.106,5.6016-4.3574,8.834-5.5679,1.9658-.7358,3.999-1.4966,5.7666-2.6714,3.334-2.2144,5.0059-4.5396,4.9697-6.9102-.0361-2.4209-1.9746-5.0005-5.3174-7.0776-11.2959-7.02-11.4521-9.2695-7.2256-17.6255,1.9668-3.8877,3.0742-10.8164,1.5889-14.9346-1.5371-4.2607-8.5285-7.823-14.2248-9.1428Z"/>
  </g>
  <g>
    <path class="cls-2" d="m287.2793,87.3209h5.6709c2.4873,0,3.3828.895,3.3828,3.3823v63.8706c0,2.4873-.8955,3.3828-3.3828,3.3828h-5.6709c-2.5869,0-3.4824-.8955-3.4824-3.3828v-63.8706c0-2.4873.8955-3.3823,3.4824-3.3823Z"/>
    <path class="cls-2" d="m366.8691,122.6387v13.3311c0,13.5303-10.1475,23.479-28.3535,23.479-18.3057,0-28.4531-9.9487-28.4531-25.9658v-21.7881c0-15.918,10.1475-25.8667,28.4531-25.8667,14.625,0,23.2803,5.8696,27.0605,16.6147.8955,2.3877.2988,3.4819-2.0889,4.377l-5.4717,1.8906c-2.3877.8955-3.3828.3979-4.2783-2.0894-2.1885-6.0688-6.9639-9.1528-15.2217-9.1528-10.3467,0-15.918,4.9746-15.918,14.127v21.9868c0,9.2524,5.6709,14.2271,15.918,14.2271,10.1475,0,16.1172-4.9746,16.1172-11.7397v-5.1733h-15.0225c-2.4873,0-3.3828-.8955-3.3828-3.4819v-4.7754c0-2.5869.8955-3.3828,3.3828-3.3828h23.877c2.5869,0,3.3818.7959,3.3818,3.3828Z"/>
    <path class="cls-2" d="m392.4385,90.7032v55.6133h28.5527c2.4873,0,3.3818.8955,3.3818,3.3828v4.8745c0,2.4873-.8945,3.3828-3.3818,3.3828h-37.6064c-2.5869,0-3.4824-.8955-3.4824-3.3828v-63.8706c0-2.4873.8955-3.3823,3.4824-3.3823h5.6709c2.4873,0,3.3828.895,3.3828,3.3823Z"/>
    <path class="cls-2" d="m458.2998,147.8091c10.2471,0,15.3213-5.1738,15.3213-14.0278v-43.0781c0-2.4873.8955-3.3823,3.3828-3.3823h5.6699c2.5869,0,3.3828.895,3.3828,3.3823v42.9785c0,15.6196-9.4512,25.7671-27.7568,25.7671s-27.8564-10.1475-27.8564-25.7671v-42.9785c0-2.4873.8955-3.3823,3.3828-3.3823h5.7695c2.4873,0,3.3828.895,3.3828,3.3823v43.0781c0,8.854,5.0742,14.0278,15.3213,14.0278Z"/>
    <path class="cls-2" d="m529.833,121.1129v4.3774c0,2.5864-.8955,3.3823-3.3828,3.3823h-22.8818c-2.5869,0-3.3828-.7959-3.3828-3.3823v-4.3774c0-2.4873.7959-3.3828,3.3828-3.3828h22.8818c2.4873,0,3.3828.8955,3.3828,3.3828Z"/>
    <path class="cls-2" d="m598.9766,113.5855v18.1064c0,16.2163-10.3467,26.2646-28.8516,26.2646h-22.2852c-2.5869,0-3.4824-.8955-3.4824-3.3828v-63.8706c0-2.4873.8955-3.3823,3.4824-3.3823h22.2852c18.5049,0,28.8516,10.0479,28.8516,26.2646Zm-28.752-14.625h-13.3311v47.356h13.3311c10.4463,0,16.3154-5.0737,16.3154-14.5249v-18.3057c0-9.4512-5.8691-14.5254-16.3154-14.5254Z"/>
    <path class="cls-2" d="m639.0703,85.8282c18.2061,0,28.3535,9.9487,28.3535,25.9663v21.6885c0,16.0171-10.1475,25.9658-28.3535,25.9658-18.3057,0-28.4531-9.9487-28.4531-25.9658v-21.6885c0-16.0176,10.1475-25.9663,28.4531-25.9663Zm0,11.6401c-10.2471,0-15.918,4.9746-15.918,14.2266v21.8872c0,9.2524,5.6709,14.2271,15.918,14.2271,10.1475,0,15.918-4.9746,15.918-14.2271v-21.8872c0-9.252-5.7705-14.2266-15.918-14.2266Z"/>
    <path class="cls-2" d="m734.4785,109.2076c0,10.3467-4.875,17.311-13.1318,20.0967,1.293,1.0942,2.2881,2.4873,3.1836,4.2778l10.9434,20.9917c.9951,1.8906.7959,3.3828-1.6914,3.3828h-5.7705c-4.2773,0-5.5703-.4976-6.7646-2.9844l-8.3564-16.9131c-2.5869-5.4717-4.9746-6.9639-11.8398-6.9639h-7.3613v23.4785c0,2.4873-.8955,3.3828-3.3828,3.3828h-5.6709c-2.5869,0-3.4824-.8955-3.4824-3.3828v-63.8706c0-2.4873.8955-3.3823,3.4824-3.3823h27.458c13.8291,0,22.3848,8.1577,22.3848,21.8867Zm-23.5781-10.2471h-17.2109v20.4946h17.2109c6.666,0,10.4463-3.5815,10.4463-10.2476,0-6.5659-3.6807-10.2471-10.4463-10.2471Z"/>
    <path class="cls-2" d="m794.3711,90.7032v4.875c0,2.4868-.8955,3.3823-3.4824,3.3823h-30.4424v18.3057h25.5674c2.5869,0,3.4824.8955,3.4824,3.3828v4.875c0,2.5864-.8955,3.3823-3.4824,3.3823h-25.5674v25.6675c0,2.4873-.8955,3.3828-3.3828,3.3828h-5.6709c-2.5869,0-3.4824-.8955-3.4824-3.3828v-63.8706c0-2.4873.8955-3.3823,3.4824-3.3823h39.4961c2.5869,0,3.4824.895,3.4824,3.3823Z"/>
    <path class="cls-1" d="m313.7725,177.1754v34.0249c0,.4971-.1494.6465-.6475.6465h-1.0439c-.4482,0-.5967-.1494-.5967-.6465v-16.167h-21.042v16.167c0,.4971-.1494.6465-.5967.6465h-1.0449c-.4971,0-.6465-.1494-.6465-.6465v-34.0249c0-.4976.1494-.6465.6465-.6465h1.0449c.4473,0,.5967.1489.5967.6465v15.7192h21.042v-15.7192c0-.4976.1484-.6465.5967-.6465h1.0439c.498,0,.6475.1489.6475.6465Z"/>
    <path class="cls-1" d="m337.5,175.8326c8.6553,0,13.332,4.6758,13.332,12.2866v12.1372c0,7.6108-4.6768,12.2866-13.332,12.2866-8.7549,0-13.4307-4.6758-13.4307-12.2866v-12.1372c0-7.6108,4.6758-12.2866,13.4307-12.2866Zm0,2.1387c-7.2627,0-11.1426,3.7808-11.1426,10.1479v12.1372c0,6.3672,3.8799,10.1479,11.1426,10.1479,7.1631,0,11.043-3.7808,11.043-10.1479v-12.1372c0-6.3672-3.8799-10.1479-11.043-10.1479Z"/>
    <path class="cls-1" d="m379.7334,177.1754v.8955c0,.4478-.1494.5967-.6475.5967h-10.7939v32.5327c0,.4971-.1494.6465-.5967.6465h-1.0449c-.4971,0-.6465-.1494-.6465-.6465v-32.5327h-10.7949c-.4971,0-.6465-.1489-.6465-.5967v-.8955c0-.4976.1494-.6465.6465-.6465h23.877c.498,0,.6475.1489.6475.6465Z"/>
    <path class="cls-1" d="m407.5303,177.1754v.8955c0,.4478-.1494.5967-.6465.5967h-18.6543v14.2271h16.5146c.4482,0,.5977.1489.5977.5967v.8955c0,.4976-.1494.6465-.5977.6465h-16.5146v14.6743h19.3506c.4473,0,.6465.1494.6465.5972v.8955c0,.4971-.1992.6465-.6465.6465h-20.9922c-.4971,0-.6465-.1494-.6465-.6465v-34.0249c0-.4976.1494-.6465.6465-.6465h20.2959c.4971,0,.6465.1489.6465.6465Z"/>
    <path class="cls-1" d="m417.3555,177.1754v32.5322h18.1064c.4482,0,.5967.1494.5967.5972v.8955c0,.4971-.1484.6465-.5967.6465h-19.748c-.4971,0-.6465-.1494-.6465-.6465v-34.0249c0-.4976.1494-.6465.6465-.6465h1.0449c.4473,0,.5967.1489.5967.6465Z"/>
    <path class="cls-2" d="m464.4551,195.4107c0,1.9761-.709,3.6719-2.126,5.0889s-3.1133,2.125-5.0889,2.125-3.6631-.708-5.0635-2.125c-1.4014-1.417-2.1016-3.1128-2.1016-5.0889,0-1.959.7168-3.6436,2.1494-5.0522,1.4336-1.4087,3.1211-2.1133,5.0645-2.1133,1.9756,0,3.6641.7007,5.0645,2.1011,1.4004,1.4009,2.1016,3.0889,2.1016,5.0645Z"/>
    <path class="cls-1" d="m511.7275,185.4327c0,4.2285-1.791,6.9644-5.1738,8.1582v.0996c4.0791.895,6.3672,3.8799,6.3672,8.7549,0,6.0684-3.8301,9.4014-9.8994,9.4014h-14.7734c-.4971,0-.6465-.1494-.6465-.6465v-34.0249c0-.4976.1494-.6465.6465-.6465h14.127c5.9199,0,9.3525,3.1338,9.3525,8.9038Zm-9.6006-6.7651h-12.2373v14.1274h12.2373c4.626,0,7.2617-2.3877,7.2617-7.1133,0-4.6265-2.5859-7.0142-7.2617-7.0142Zm.7959,16.2168h-13.0332v14.8232h13.0332c4.874,0,7.6104-2.5864,7.6104-7.4614,0-4.7754-2.7363-7.3618-7.6104-7.3618Z"/>
    <path class="cls-1" d="m547.4189,211.8467h-.8955c-.7461,0-.9951-.0996-1.0947-.5474l-4.4268-10.9932h-16.5146l-4.3779,10.9932c-.1494.4478-.3975.5474-1.1436.5474h-.8457c-.498,0-.5977-.2485-.4482-.5972l13.7793-34.3726c.1992-.4478.3975-.5972.8457-.5972h.9951c.4473,0,.6963.1494.8457.5972l13.7783,34.3726c.1494.3486.0498.5972-.4971.5972Zm-14.625-33.2783h-.1494c0,.2485-.0488,1.144-.3975,2.1387l-7.0635,17.6592h15.1719l-7.0635-17.6592c-.3486-.9946-.4482-1.8901-.498-2.1387Z"/>
    <path class="cls-1" d="m579.6729,186.4776c0,5.7202-3.3818,9.1528-8.7549,9.6006,1.8906.7959,2.9854,2.0396,4.0791,4.0786l5.5713,11.0435c.249.3481.1494.6465-.3477.6465h-.9453c-.7959,0-1.0449-.0996-1.2441-.5474l-5.1729-10.2471c-1.6416-3.2832-3.5322-4.7256-7.71-4.7256h-8.208v14.8735c0,.4971-.1494.6465-.5967.6465h-1.0449c-.4971,0-.6465-.1494-.6465-.6465v-34.0249c0-.4976.1494-.6465.6465-.6465h14.2764c6.2676,0,10.0977,3.6313,10.0977,9.9487Zm-10.3467-7.8101h-12.3857v15.52h12.3857c4.9746,0,7.959-2.7358,7.959-7.71s-2.8848-7.8101-7.959-7.8101Z"/>
    <path class="cls-2" d="m616.5771,195.4107c0,1.9761-.709,3.6719-2.126,5.0889s-3.1133,2.125-5.0889,2.125-3.6631-.708-5.0635-2.125c-1.4014-1.417-2.1016-3.1128-2.1016-5.0889,0-1.959.7168-3.6436,2.1494-5.0522,1.4336-1.4087,3.1211-2.1133,5.0645-2.1133,1.9756,0,3.6641.7007,5.0645,2.1011,1.4004,1.4009,2.1016,3.0889,2.1016,5.0645Z"/>
    <path class="cls-1" d="m660.3174,177.1754v.8955c0,.4478-.1494.5967-.6465.5967h-18.6543v14.2271h16.5146c.4482,0,.5977.1489.5977.5967v.8955c0,.4976-.1494.6465-.5977.6465h-16.5146v14.6743h19.3506c.4473,0,.6465.1494.6465.5972v.8955c0,.4971-.1992.6465-.6465.6465h-20.9922c-.4971,0-.6465-.1494-.6465-.6465v-34.0249c0-.4976.1494-.6465.6465-.6465h20.2959c.4971,0,.6465.1489.6465.6465Z"/>
    <path class="cls-1" d="m694.7402,177.1256l-13.2812,34.124c-.1494.4478-.3975.5972-.8457.5972h-.9453c-.4971,0-.6963-.1494-.8457-.5474l-13.2812-34.1738c-.1494-.3481-.0498-.5967.3984-.5967h.9453c.7461,0,.9443.0996,1.0938.5469l11.043,28.6025c.4482,1.2437.8457,2.6865,1.0947,3.333h.1494c.248-.6465.5967-2.0396,1.0439-3.333l10.9941-28.6025c.1484-.4473.3975-.5469,1.0938-.5469h.9453c.4971,0,.5469.2485.3975.5967Z"/>
    <path class="cls-1" d="m722.5879,177.1754v.8955c0,.4478-.1494.5967-.6465.5967h-18.6543v14.2271h16.5146c.4482,0,.5967.1489.5967.5967v.8955c0,.4976-.1484.6465-.5967.6465h-16.5146v14.6743h19.3506c.4473,0,.6465.1494.6465.5972v.8955c0,.4971-.1992.6465-.6465.6465h-20.9922c-.4971,0-.6465-.1494-.6465-.6465v-34.0249c0-.4976.1494-.6465.6465-.6465h20.2959c.4971,0,.6465.1489.6465.6465Z"/>
    <path class="cls-1" d="m756.1895,177.1754v34.0249c0,.4971-.1494.6465-.5967.6465h-1.0449c-.3477,0-.4971-.0498-.6963-.3979l-17.6592-25.1704c-1.6416-2.3379-2.9844-5.0239-4.0293-6.4663h-.0996c0,1.8901.2988,5.0737.2988,8.2075v23.1807c0,.4971-.1494.6465-.5967.6465h-.9951c-.4971,0-.6465-.1494-.6465-.6465v-34.0249c0-.4976.1494-.6465.6465-.6465h.9951c.3975,0,.5967.1987.6963.3481l17.1611,24.5234c1.8408,2.6367,3.3828,5.4224,4.5771,7.1133h.0986c0-2.1885-.3477-5.5215-.3477-8.9536v-22.4346c0-.4478.1494-.5967.6465-.5967h.9951c.4473,0,.5967.1489.5967.6465Z"/>
    <path class="cls-1" d="m787.2803,177.1754v.8955c0,.4478-.1494.5967-.6475.5967h-10.7939v32.5327c0,.4971-.1494.6465-.5967.6465h-1.0449c-.4971,0-.6465-.1494-.6465-.6465v-32.5327h-10.7949c-.4971,0-.6465-.1489-.6465-.5967v-.8955c0-.4976.1494-.6465.6465-.6465h23.877c.498,0,.6475.1489.6475.6465Z"/>
  </g>
</svg>